<?xml version="1.0"?>

<svg version="1.1" xmlns="http://www.w3.org/2000/svg" xmlns:xlink="http://www.w3.org/1999/xlink" width="1053.217865" height="1024.000000" viewBox="0 0 1053.217865 1024.000000">

  <g transform="translate(488.879379 2.095383)" style="fill: rgb(0.000000%,0.000000%,0.000000%);">
    <text font-size="9.962646">top</text>
  </g>
  <path d="M282.170258 921.600006C165.607315 830.157974,92.921234 693.872635,81.918732 546.131271C62.206711 281.438919,242.842682 40.962555,496.074646 40.962555C775.075378 40.962555,1001.253479 267.132446,1001.253479 546.131271C1001.253479 700.887848,1055.642303 893.125259,910.798782 910.222931C852.302979 917.127914,804.622330 871.781616,774.264420 819.200012C727.147217 737.590393,728.184738 640.130569,728.184738 546.131287L728.184738 273.062546" style="stroke:rgb(80.000305%,80.000305%,80.000305%); stroke-width: 2.000000;stroke-linejoin: round;stroke-miterlimit: 10.000000;fill: none;"></path>
  <path d="M728.184738 365.221909C666.017807 306.913391,580.012482 281.302063,496.074646 296.102386C338.130005 323.951935,235.860886 477.768311,263.964554 637.154190C278.243759 718.136597,338.153809 784.860779,418.704620 796.160172C611.900162 823.260986,689.229401 586.151367,728.184738 365.221909" style="stroke:rgb(80.000305%,80.000305%,80.000305%); stroke-width: 2.000000;stroke-linejoin: round;stroke-miterlimit: 10.000000;fill: none;"></path>
</svg>
