<?xml version="1.0"?>

<svg version="1.1" xmlns="http://www.w3.org/2000/svg" xmlns:xlink="http://www.w3.org/1999/xlink" width="561.635071" height="1024.000000" viewBox="0 0 561.635071 1024.000000">

  <g transform="translate(305.121872 2.095383)" style="fill: rgb(0.000000%,0.000000%,0.000000%);">
    <text font-size="9.962646">top</text>
  </g>
  <path d="M243.197617 0.000061C243.197617 -18.332397,235.914001 -35.911804,222.951981 -48.873825C209.989960 -61.835846,192.410553 -69.119461,174.078094 -69.119461C155.745636 -69.119461,138.166229 -61.835846,125.204208 -48.873825C112.242188 -35.911804,104.958572 -18.332397,104.958572 0.000061C104.958572 18.332520,112.242188 35.911926,125.204208 48.873947C138.166229 61.835968,155.745636 69.119583,174.078094 69.119583C192.410553 69.119583,209.989960 61.835968,222.951981 48.873947C235.914001 35.911926,243.197617 18.332520,243.197617 0.000061Z" style="stroke:rgb(80.000305%,80.000305%,80.000305%); stroke-width: 2.000000;stroke-linejoin: round;stroke-miterlimit: 10.000000;fill: none;"></path>
  <path d="M519.675705 0.000061C519.675705 -18.332397,512.392090 -35.911804,499.430069 -48.873825C486.468048 -61.835846,468.888641 -69.119461,450.556183 -69.119461C432.223724 -69.119461,414.644318 -61.835846,401.682297 -48.873825C388.720276 -35.911804,381.436661 -18.332397,381.436661 0.000061C381.436661 18.332520,388.720276 35.911926,401.682297 48.873947C414.644318 61.835968,432.223724 69.119583,450.556183 69.119583C468.888641 69.119583,486.468048 61.835968,499.430069 48.873947C512.392090 35.911926,519.675705 18.332520,519.675705 0.000061Z" style="stroke:rgb(80.000305%,80.000305%,80.000305%); stroke-width: 2.000000;stroke-linejoin: round;stroke-miterlimit: 10.000000;fill: none;"></path>
</svg>
