<?xml version="1.0"?>

<svg version="1.1" xmlns="http://www.w3.org/2000/svg" xmlns:xlink="http://www.w3.org/1999/xlink" width="630.754593" height="1024.000000" viewBox="0 0 630.754593 1024.000000">

  <path d="M220.157776 637.154190C220.157776 624.932556,215.302032 613.212952,206.660675 604.571609C198.019333 595.930252,186.299728 591.074509,174.078094 591.074509C161.856461 591.074509,150.136856 595.930252,141.495514 604.571609C132.854156 613.212952,127.998413 624.932556,127.998413 637.154190C127.998413 649.375824,132.854156 661.095428,141.495514 669.736771C150.136856 678.378128,161.856461 683.233871,174.078094 683.233871C186.299728 683.233871,198.019333 678.378128,206.660675 669.736771C215.302032 661.095428,220.157776 649.375824,220.157776 637.154190Z" style="stroke:rgb(80.000305%,80.000305%,80.000305%); stroke-width: 2.000000;stroke-linejoin: round;stroke-miterlimit: 10.000000;fill: none;"></path>
  <path d="M404.476501 637.154190C404.476501 624.932556,399.620758 613.212952,390.979401 604.571609C382.338058 595.930252,370.618454 591.074509,358.396820 591.074509C346.175186 591.074509,334.455582 595.930252,325.814240 604.571609C317.172882 613.212952,312.317139 624.932556,312.317139 637.154190C312.317139 649.375824,317.172882 661.095428,325.814240 669.736771C334.455582 678.378128,346.175186 683.233871,358.396820 683.233871C370.618454 683.233871,382.338058 678.378128,390.979401 669.736771C399.620758 661.095428,404.476501 649.375824,404.476501 637.154190Z" style="stroke:rgb(80.000305%,80.000305%,80.000305%); stroke-width: 2.000000;stroke-linejoin: round;stroke-miterlimit: 10.000000;fill: none;"></path>
  <path d="M588.795227 637.154190C588.795227 624.932556,583.939484 613.212952,575.298126 604.571609C566.656784 595.930252,554.937180 591.074509,542.715546 591.074509C530.493912 591.074509,518.774307 595.930252,510.132965 604.571609C501.491608 613.212952,496.635864 624.932556,496.635864 637.154190C496.635864 649.375824,501.491608 661.095428,510.132965 669.736771C518.774307 678.378128,530.493912 683.233871,542.715546 683.233871C554.937180 683.233871,566.656784 678.378128,575.298126 669.736771C583.939484 661.095428,588.795227 649.375824,588.795227 637.154190Z" style="stroke:rgb(80.000305%,80.000305%,80.000305%); stroke-width: 2.000000;stroke-linejoin: round;stroke-miterlimit: 10.000000;fill: none;"></path>
</svg>
