<?xml version="1.0"?>

<svg version="1.1" xmlns="http://www.w3.org/2000/svg" xmlns:xlink="http://www.w3.org/1999/xlink" width="220.306152" height="1024.000000" viewBox="0 0 220.306152 1024.000000">

  <path d="M109.227264 273.062546C91.066879 362.950928,81.918732 454.426743,81.918732 546.131271C81.918732 640.593872,89.236191 737.274460,136.535797 819.200012" style="stroke:rgb(80.000305%,80.000305%,80.000305%); stroke-width: 2.000000;stroke-linejoin: round;stroke-miterlimit: 10.000000;fill: none;"></path>
  <path d="M178.346786 92.836182C178.346786 74.503723,171.063171 56.924316,158.101151 43.962296C145.139130 31.000275,127.559723 23.716660,109.227264 23.716660C90.894806 23.716660,73.315399 31.000275,60.353378 43.962296C47.391357 56.924316,40.107742 74.503723,40.107742 92.836182C40.107742 111.168640,47.391357 128.748047,60.353378 141.710068C73.315399 154.672089,90.894806 161.955704,109.227264 161.955704C127.559723 161.955704,145.139130 154.672089,158.101151 141.710068C171.063171 128.748047,178.346786 111.168640,178.346786 92.836182Z" style="stroke:rgb(80.000305%,80.000305%,80.000305%); stroke-width: 2.000000;stroke-linejoin: round;stroke-miterlimit: 10.000000;fill: none;"></path>
</svg>
