<?xml version="1.0"?>

<svg version="1.1" xmlns="http://www.w3.org/2000/svg" xmlns:xlink="http://www.w3.org/1999/xlink" width="379.313461" height="1024.000000" viewBox="0 0 379.313461 1024.000000">

  <path d="M268.234573 273.062546C236.478317 360.311127,253.150864 454.754196,268.234573 546.131287C283.153671 636.511154,296.103943 727.664581,291.274414 819.200012C285.851395 921.984055,238.247437 1024.000000,145.637207 1024.000000C68.688660 1024.000000,4.960144 964.255188,0.000000 887.466675" style="stroke:rgb(80.000305%,80.000305%,80.000305%); stroke-width: 2.000000;stroke-linejoin: round;stroke-miterlimit: 10.000000;fill: none;"></path>
  <path d="M337.354095 92.836182C337.354095 74.503723,330.070480 56.924316,317.108459 43.962296C304.146439 31.000275,286.567032 23.716660,268.234573 23.716660C249.902115 23.716660,232.322708 31.000275,219.360687 43.962296C206.398666 56.924316,199.115051 74.503723,199.115051 92.836182C199.115051 111.168640,206.398666 128.748047,219.360687 141.710068C232.322708 154.672089,249.902115 161.955704,268.234573 161.955704C286.567032 161.955704,304.146439 154.672089,317.108459 141.710068C330.070480 128.748047,337.354095 111.168640,337.354095 92.836182Z" style="stroke:rgb(80.000305%,80.000305%,80.000305%); stroke-width: 2.000000;stroke-linejoin: round;stroke-miterlimit: 10.000000;fill: none;"></path>
</svg>
