<?xml version="1.0"?>

<svg version="1.1" xmlns="http://www.w3.org/2000/svg" xmlns:xlink="http://www.w3.org/1999/xlink" width="884.802231" height="1024.000000" viewBox="0 0 884.802231 1024.000000">

  <path d="M81.918732 273.062546C129.035934 354.672165,127.998413 452.131989,127.998413 546.131271L127.998413 819.200012" style="stroke:rgb(80.000305%,80.000305%,80.000305%); stroke-width: 2.000000;stroke-linejoin: round;stroke-miterlimit: 10.000000;fill: none;"></path>
  <path d="M121.163055 734.159042C126.268234 649.359665,140.580582 566.083282,173.396576 491.514206C197.428513 436.905457,282.624496 218.445465,413.695969 296.102386C482.312317 336.756042,487.981262 446.768005,479.230057 546.131271C471.234787 636.911499,479.230057 728.110138,479.230057 819.200012" style="stroke:rgb(80.000305%,80.000305%,80.000305%); stroke-width: 2.000000;stroke-linejoin: round;stroke-miterlimit: 10.000000;fill: none;"></path>
  <path d="M481.610504 734.159042C486.715668 649.359665,501.028030 566.083282,533.844009 491.514206C557.875946 436.905457,643.071930 218.445465,774.143417 296.102386C842.759750 336.756042,848.428696 446.768005,839.677490 546.131271C831.638031 637.413177,820.616852 730.281387,839.677490 819.200012" style="stroke:rgb(80.000305%,80.000305%,80.000305%); stroke-width: 2.000000;stroke-linejoin: round;stroke-miterlimit: 10.000000;fill: none;"></path>
</svg>
