<?xml version="1.0"?>

<svg version="1.1" xmlns="http://www.w3.org/2000/svg" xmlns:xlink="http://www.w3.org/1999/xlink" width="615.396408" height="1024.000000" viewBox="0 0 615.396408 1024.000000">

  <path d="M491.518707 0.000061C451.729218 148.496323,368.856796 279.908951,286.718719 409.600037C204.580643 539.291122,121.708221 670.703751,81.918732 819.200012" style="stroke:rgb(80.000305%,80.000305%,80.000305%); stroke-width: 2.000000;stroke-linejoin: round;stroke-miterlimit: 10.000000;fill: none;"></path>
  <path d="M81.918732 163.837555C81.918732 103.513794,130.820801 54.611725,191.144562 54.611725C251.468323 54.611725,300.370392 103.513794,300.370392 163.837555C300.370392 224.161316,251.468323 273.063385,191.144562 273.063385C130.820801 273.063385,81.918732 224.161316,81.918732 163.837555" style="stroke:rgb(80.000305%,80.000305%,80.000305%); stroke-width: 2.000000;stroke-linejoin: round;stroke-miterlimit: 10.000000;fill: none;"></path>
  <path d="M354.985382 573.437531C354.985382 513.113770,403.887451 464.211700,464.211212 464.211700C524.534973 464.211700,573.437042 513.113770,573.437042 573.437531C573.437042 633.761292,524.534973 682.663361,464.211212 682.663361C403.887451 682.663361,354.985382 633.761292,354.985382 573.437531" style="stroke:rgb(80.000305%,80.000305%,80.000305%); stroke-width: 2.000000;stroke-linejoin: round;stroke-miterlimit: 10.000000;fill: none;"></path>
</svg>
