<?xml version="1.0"?>

<svg version="1.1" xmlns="http://www.w3.org/2000/svg" xmlns:xlink="http://www.w3.org/1999/xlink" width="239.077301" height="1024.000000" viewBox="0 0 239.077301 1024.000000">

  <path d="M197.117935 382.288376C197.117935 363.955917,189.834320 346.376511,176.872299 333.414490C163.910278 320.452469,146.330872 313.168854,127.998413 313.168854C109.665955 313.168854,92.086548 320.452469,79.124527 333.414490C66.162506 346.376511,58.878891 363.955917,58.878891 382.288376C58.878891 400.620834,66.162506 418.200241,79.124527 431.162262C92.086548 444.124283,109.665955 451.407898,127.998413 451.407898C146.330872 451.407898,163.910278 444.124283,176.872299 431.162262C189.834320 418.200241,197.117935 400.620834,197.117935 382.288376Z" style="stroke:rgb(80.000305%,80.000305%,80.000305%); stroke-width: 2.000000;stroke-linejoin: round;stroke-miterlimit: 10.000000;fill: none;"></path>
  <path d="M127.998413 921.600006C182.278473 867.319946,193.467712 783.406357,155.306946 716.800018" style="stroke:rgb(80.000305%,80.000305%,80.000305%); stroke-width: 2.000000;stroke-linejoin: round;stroke-miterlimit: 10.000000;fill: none;"></path>
</svg>
