<?xml version="1.0"?>

<svg version="1.1" xmlns="http://www.w3.org/2000/svg" xmlns:xlink="http://www.w3.org/1999/xlink" width="533.478073" height="1024.000000" viewBox="0 0 533.478073 1024.000000">

  <path d="M81.918732 0.000061C81.918732 113.107971,173.610809 204.800049,286.718719 204.800049C399.826630 204.800049,491.518707 113.107971,491.518707 0.000061" style="stroke:rgb(80.000305%,80.000305%,80.000305%); stroke-width: 2.000000;stroke-linejoin: round;stroke-miterlimit: 10.000000;fill: none;"></path>
  <path d="M355.838242 51.200058C355.838242 32.867599,348.554626 15.288193,335.592606 2.326172C322.630585 -10.635849,305.051178 -17.919464,286.718719 -17.919464C268.386261 -17.919464,250.806854 -10.635849,237.844833 2.326172C224.882812 15.288193,217.599197 32.867599,217.599197 51.200058C217.599197 69.532516,224.882812 87.111923,237.844833 100.073944C250.806854 113.035965,268.386261 120.319580,286.718719 120.319580C305.051178 120.319580,322.630585 113.035965,335.592606 100.073944C348.554626 87.111923,355.838242 69.532516,355.838242 51.200058Z" style="stroke:rgb(80.000305%,80.000305%,80.000305%); stroke-width: 2.000000;stroke-linejoin: round;stroke-miterlimit: 10.000000;fill: none;"></path>
</svg>
