<?xml version="1.0" encoding="UTF-8" standalone="no"?>
<svg
   xmlns:dc="http://purl.org/dc/elements/1.1/"
   xmlns:cc="http://creativecommons.org/ns#"
   xmlns:rdf="http://www.w3.org/1999/02/22-rdf-syntax-ns#"
   xmlns:svg="http://www.w3.org/2000/svg"
   xmlns="http://www.w3.org/2000/svg"
   width="623.56012"
   height="265.42877"
   id="svg2992"
   version="1.1">
  <defs
     id="defs5498" />
  <metadata
     id="metadata5594">
    <rdf:RDF>
      <cc:Work
         rdf:about="">
        <dc:format>image/svg+xml</dc:format>
        <dc:type
           rdf:resource="http://purl.org/dc/dcmitype/StillImage" />
        <dc:title></dc:title>
      </cc:Work>
    </rdf:RDF>
  </metadata>
  <g
     id="layer1"
     transform="translate(-992.89803,235.20586)">
    <path
       style="fill:none;fill-rule:evenodd;stroke:#000000;stroke-width:35;stroke-linecap:round;stroke-linejoin:round;stroke-miterlimit:4;stroke-dasharray:none;stroke-opacity:1"
       d="m 1079.4768,12.681851 c -19.6554,-8.6515761 -36.8103,-22.899573 -48.9229,-40.632797 -12.1126,-17.733223 -19.1446,-38.895654 -20.0541,-60.351552 -1.3835,-32.639002 11.691,-65.420282 34.3508,-88.952282 22.6597,-23.532 54.4543,-37.74607 87.0381,-40.0948 18.9906,-1.36889 38.3699,1.18783 55.9855,8.41295 17.6157,7.22513 33.4018,19.21335 44.2625,34.85176 7.4307,10.69958 12.5906,23.48666 11.8128,36.4902 -0.6332,10.58655 -5.3142,20.88089 -12.8761,28.31688 -7.5618,7.43599 -17.9333,11.9435 -28.529,12.398912 15.6629,-1.588463 31.9208,4.345774 42.8775,15.650628 10.9568,11.304853 16.3798,27.740276 14.3024,43.345874 -1.9464,14.621841 -10.2782,28.1357687 -22.0095,37.07802465 -11.7313,8.94225595 -26.6606,13.37463935 -41.4086,13.08412735 -13.0211,-0.256495 -25.9054,-4.0969065 -37.1448,-10.6764222 -11.2394,-6.5795156 -20.8364,-15.8575428 -28.1224,-26.6523268 -14.5721,-21.589569 -19.5788,-48.812983 -16.6202,-74.691577 4.0443,-35.37603 22.9055,-68.89179 51.2761,-90.40755 28.3706,-21.51576 65.9001,-30.6365 100.9147,-24.17109 14.0319,2.59097 27.6645,7.61497 39.7208,15.24725 12.0564,7.63228 22.4546,17.88686 30.1567,29.89867 7.7021,12.01182 12.6372,25.68839 15.1845,39.72825 2.5473,14.03986 2.7127,28.38876 2.7281,42.657818 l 0.1077,99.731873 -0.3947,-99.4284 c -0.067,-16.890951 0.1124,-33.935361 3.8597,-50.405531 3.7473,-16.47017 11.0876,-32.22968 22.104,-45.0339 11.0163,-12.80421 25.536,-22.48677 41.455,-28.13427 15.919,-5.6475 33.0957,-7.3383 49.939,-6.06876 33.4755,2.52317 66.1128,16.94983 89.7477,40.79028 23.6349,23.84044 37.857,57.03181 37.7393,90.602059 -0.084,23.891792 -7.5213,48.062859 -22.6978,66.515492 -15.1765,18.45263294 -38.3727,30.647549 -62.2643,30.523475 -12.255,-0.06364 -24.4688,-3.2962949 -35.1975,-9.2194594 -10.7288,-5.9231644 -19.9567,-14.5174316 -26.7075,-24.7456556 -13.5017,-20.456446 -16.4787,-47.318108 -8.4501,-70.476294 5.2548,-15.157207 15.0268,-28.744457 27.8384,-38.399307 12.8116,-9.65485 28.6243,-15.31369 44.6594,-15.79262 24.8367,-0.74182 49.7054,11.47755 64.2945,31.59146 14.5891,20.113914 18.4818,47.547683 10.064,70.926141"
       id="path4370-9-4-7" />
  </g>
</svg>
