<?xml version="1.0"?>

<svg version="1.1" xmlns="http://www.w3.org/2000/svg" xmlns:xlink="http://www.w3.org/1999/xlink" width="1741.997787" height="1024.000000" viewBox="0 0 1741.997787 1024.000000">

  <path d="M266.240601 819.200012C145.639404 750.676636,74.237640 619.774017,81.918732 481.278152C91.480789 308.867203,218.813599 164.989059,389.118713 143.356308C742.157104 98.512146,740.211258 512.000031,542.718704 512.000031C627.724670 512.000031,696.778824 580.754135,696.318695 665.600021C695.862411 749.736664,627.283722 817.365341,542.718704 819.200012C421.410019 821.831833,337.918716 703.544495,337.918716 573.440033C337.918716 423.657471,437.967300 290.650681,583.678696 266.240051C742.763718 239.588974,890.878677 354.598724,890.878677 512.000031C890.878677 512.016693,890.878677 716.783356,890.878677 716.800018" style="stroke:rgb(80.000305%,80.000305%,80.000305%); stroke-width: 2.000000;stroke-linejoin: round;stroke-miterlimit: 10.000000;fill: none;"></path>
  <path d="M890.878677 512.000031C890.878677 332.604370,1029.625290 182.675415,1198.078659 204.800049C1341.497223 223.636627,1430.095825 362.284012,1443.838638 512.000031C1458.089661 667.252365,1378.305618 819.200012,1239.038651 819.200012C1138.367279 819.200012,1068.847336 719.467972,1085.438660 614.400024C1107.184158 476.692230,1247.696335 395.961411,1392.638641 409.600037C1558.647369 425.220947,1694.147644 552.777176,1699.838623 716.800018C1707.707550 943.594788,1481.744370 1104.997772,1269.760529 1024.000000" style="stroke:rgb(80.000305%,80.000305%,80.000305%); stroke-width: 2.000000;stroke-linejoin: round;stroke-miterlimit: 10.000000;fill: none;"></path>
</svg>
