<?xml version="1.0" encoding="UTF-8" standalone="no"?>
<svg
   xmlns:dc="http://purl.org/dc/elements/1.1/"
   xmlns:cc="http://creativecommons.org/ns#"
   xmlns:rdf="http://www.w3.org/1999/02/22-rdf-syntax-ns#"
   xmlns:svg="http://www.w3.org/2000/svg"
   xmlns="http://www.w3.org/2000/svg"
   xmlns:sodipodi="http://sodipodi.sourceforge.net/DTD/sodipodi-0.dtd"
   xmlns:inkscape="http://www.inkscape.org/namespaces/inkscape"
   width="293.10791"
   height="356.13486"
   id="svg2992"
   version="1.1"
   inkscape:version="1.0.1 (3bc2e813f5, 2020-09-07)"
   sodipodi:docname="ഉ.svg">
  <defs
     id="defs5498">
    <inkscape:path-effect
       is_visible="true"
       id="path-effect4142"
       effect="spiro"
       lpeversion="0" />
    <inkscape:path-effect
       is_visible="true"
       id="path-effect4142-0"
       effect="spiro"
       lpeversion="0" />
    <inkscape:path-effect
       is_visible="true"
       id="path-effect4142-0-3"
       effect="spiro"
       lpeversion="0" />
    <inkscape:path-effect
       is_visible="true"
       id="path-effect4142-0-3-5"
       effect="spiro"
       lpeversion="0" />
    <inkscape:path-effect
       is_visible="true"
       id="path-effect4142-0-3-5-7"
       effect="spiro"
       lpeversion="0" />
    <inkscape:path-effect
       is_visible="true"
       id="path-effect4142-0-3-5-7-5"
       effect="spiro"
       lpeversion="0" />
    <inkscape:path-effect
       is_visible="true"
       id="path-effect4142-0-3-5-7-1"
       effect="spiro"
       lpeversion="0" />
    <inkscape:path-effect
       is_visible="true"
       id="path-effect4142-0-3-5-7-1-0"
       effect="spiro"
       lpeversion="0" />
    <inkscape:path-effect
       is_visible="true"
       id="path-effect4142-0-3-5-7-1-1"
       effect="spiro"
       lpeversion="0" />
  </defs>
  <sodipodi:namedview
     inkscape:window-height="1015"
     inkscape:window-width="1920"
     inkscape:pageshadow="2"
     inkscape:pageopacity="0.0"
     borderopacity="1.0"
     bordercolor="#666666"
     pagecolor="#ffffff"
     id="base"
     showgrid="true"
     showguides="true"
     inkscape:guide-bbox="true"
     inkscape:zoom="1"
     inkscape:cx="50.465725"
     inkscape:cy="157.49295"
     inkscape:window-x="1920"
     inkscape:window-y="0"
     inkscape:current-layer="layer1-9"
     inkscape:window-maximized="1"
     inkscape:document-rotation="0">
    <sodipodi:guide
       orientation="horizontal"
       position="3585.2067,-137.11"
       id="guide5596" />
    <inkscape:grid
       type="xygrid"
       id="grid3769"
       empspacing="3"
       visible="true"
       enabled="true"
       snapvisiblegridlinesonly="true"
       spacingx="4"
       units="px"
       dotted="true"
       spacingy="4"
       originx="3585.2067"
       originy="-954.75516" />
    <sodipodi:guide
       orientation="0,1"
       position="2545.2067,862.89003"
       id="guide2985" />
  </sodipodi:namedview>
  <metadata
     id="metadata5594">
    <rdf:RDF>
      <cc:Work
         rdf:about="">
        <dc:format>image/svg+xml</dc:format>
        <dc:type
           rdf:resource="http://purl.org/dc/dcmitype/StillImage" />
        <dc:title />
      </cc:Work>
    </rdf:RDF>
  </metadata>
  <g
     inkscape:label="Layer 1"
     inkscape:groupmode="layer"
     id="layer1"
     transform="translate(3585.2067,93.244844)">
    <g
       id="layer1-9"
       inkscape:label="Layer 1"
       transform="translate(-3772.4884,-2164.8582)">
      <path
         sodipodi:nodetypes="caaaaaassasc"
         inkscape:connector-curvature="0"
         inkscape:original-d="m 207.5363,2204.7798 c 0,0 17.71431,-54.5848 41.24696,-58.3878 29.36547,-4.7456 69.55289,23.2921 71.82299,52.9351 2.15728,28.1702 -31.54561,61.0195 -59.79957,60.1001 -27.39131,-0.8913 -56.33171,-34.615 -54.05876,-61.9106 4.68001,-56.2018 74.50988,-110.3087 130.85987,-107.3319 56.08048,2.9626 121.12646,63.8926 118.24082,119.9448 -2.97686,57.8242 -92.76484,111.3906 -134.04115,110.5716 l -26.20096,-0.5199 c -79.38979,-1.5752 -92.1849,17.4496 -90.33002,52.1533 1.65139,30.8963 22.13583,37.4924 84.91124,37.6047 l 172.70185,0.309"
         inkscape:path-effect="#path-effect4142-0-3-5-7-1"
         id="path4140-7-5-3-6-7"
         d="m 207.5363,2204.7798 c -1.05429,-12.8927 2.55904,-26.1173 10.02272,-36.6826 7.46368,-10.5653 18.72046,-18.3904 31.22424,-21.7052 16.4267,-4.3548 34.73476,-0.6898 48.36657,9.4578 13.63181,10.1476 22.36842,26.518 23.45642,43.4773 1.02966,16.0499 -4.79484,32.515 -16.02874,44.024 -11.2339,11.5091 -27.77558,17.7527 -43.77083,16.0761 -14.76813,-1.548 -28.51572,-9.6419 -37.97615,-21.0872 -9.46044,-11.4453 -14.76304,-26.0331 -16.08261,-40.8234 -1.43714,-16.1081 1.73728,-32.5448 8.67,-47.1556 6.93271,-14.6107 17.56968,-27.3881 30.41364,-37.2151 25.6879,-19.6539 59.68105,-26.9667 91.77623,-22.9612 30.20988,3.7702 59.26812,17.3445 80.86994,38.797 21.60182,21.4526 35.46015,50.7636 37.37088,81.1478 1.04913,16.6831 -1.47988,33.6606 -8.0134,49.0469 -6.53351,15.3863 -17.10447,29.046 -30.4185,39.1535 -13.31403,10.1075 -29.21459,16.5491 -45.63287,19.6901 -16.41828,3.141 -33.26364,3.0127 -49.97638,2.6811 l -26.20096,-0.5199 c -19.96159,-0.3961 -40.58463,-0.9438 -59.12624,6.461 -9.2708,3.7024 -17.86296,9.5076 -23.82593,17.5138 -5.96297,8.0061 -9.09803,18.3451 -7.37785,28.1785 1.45169,8.2986 6.24909,15.8033 12.56916,21.3739 6.32007,5.5705 14.09551,9.3181 22.17543,11.7033 16.15983,4.7703 33.31744,4.4974 50.16665,4.5275 l 172.70185,0.309"
         style="fill:none;fill-rule:evenodd;stroke:#000000;stroke-width:35;stroke-linecap:round;stroke-linejoin:round;stroke-miterlimit:4;stroke-dasharray:none;stroke-opacity:1" />
    </g>
  </g>
</svg>
