<?xml version="1.0"?>

<svg version="1.1" xmlns="http://www.w3.org/2000/svg" xmlns:xlink="http://www.w3.org/1999/xlink" width="1540.860977" height="1024.000000" viewBox="0 0 1540.860977 1024.000000">

  <path d="M95.742081 512.000031C219.688583 426.077515,389.118713 514.784195,389.118713 665.600021C389.118713 745.382370,340.421310 819.200012,266.238724 819.200012C130.039932 819.200012,55.067581 665.253220,81.918732 512.000031C110.431503 349.263046,228.681992 211.761230,389.118713 204.800049C558.825974 197.436615,696.318695 339.407959,696.318695 512.000031C696.318695 632.442169,637.331268 744.430328,542.718704 819.200012C409.339386 924.605988,228.531021 939.353592,81.918732 1024.000000" style="stroke:rgb(80.000305%,80.000305%,80.000305%); stroke-width: 2.000000;stroke-linejoin: round;stroke-miterlimit: 10.000000;fill: none;"></path>
  <path d="M81.918732 1024.000000C181.134918 987.887848,289.902527 987.887848,389.118713 1024.000000C503.217224 1065.528931,628.299866 1065.528931,742.398376 1024.000000" style="stroke:rgb(80.000305%,80.000305%,80.000305%); stroke-width: 2.000000;stroke-linejoin: round;stroke-miterlimit: 10.000000;fill: none;"></path>
  <path d="M901.117111 512.000031C851.905045 476.468887,823.214783 419.088379,824.317108 358.400040C825.951218 268.434067,894.376007 193.058884,977.917099 204.800049C1073.554123 218.241226,1131.517090 312.996948,1131.517090 413.693787C1131.517090 413.704285,1131.517090 542.711411,1131.517090 542.721909" style="stroke:rgb(80.000305%,80.000305%,80.000305%); stroke-width: 2.000000;stroke-linejoin: round;stroke-miterlimit: 10.000000;fill: none;"></path>
  <path d="M1131.517090 413.693787C1152.601028 294.119354,1229.513580 185.967941,1336.317078 204.800049C1464.638214 227.426239,1522.664719 373.912262,1489.917068 512.000031C1448.910187 684.914734,1298.748154 810.048477,1121.273346 819.200012" style="stroke:rgb(80.000305%,80.000305%,80.000305%); stroke-width: 2.000000;stroke-linejoin: round;stroke-miterlimit: 10.000000;fill: none;"></path>
</svg>
