<?xml version="1.0"?>

<svg version="1.1" xmlns="http://www.w3.org/2000/svg" xmlns:xlink="http://www.w3.org/1999/xlink" width="1290.744720" height="1024.000000" viewBox="0 0 1290.744720 1024.000000">

  <path d="M158.718735 819.200012C103.651413 764.132690,66.953766 690.145126,81.918732 614.400024C100.149246 522.126297,186.123352 460.800034,281.598724 460.800034C373.238922 460.800034,449.934677 530.827209,435.198715 614.400024C419.535355 703.232407,362.492065 779.290115,281.598724 819.200012" style="stroke:rgb(80.000305%,80.000305%,80.000305%); stroke-width: 2.000000;stroke-linejoin: round;stroke-miterlimit: 10.000000;fill: none;"></path>
  <path d="M281.598724 819.200012C480.031097 746.975708,697.566315 891.424316,895.998688 819.200012C967.166656 793.296692,937.458954 696.954361,895.998688 614.400024C850.266937 523.340454,845.264618 415.552414,895.998688 327.678162" style="stroke:rgb(80.000305%,80.000305%,80.000305%); stroke-width: 2.000000;stroke-linejoin: round;stroke-miterlimit: 10.000000;fill: none;"></path>
  <path d="M938.683716 759.697083C938.683716 877.944977,893.844070 999.260681,785.083725 1024.000000C583.121368 1069.939636,450.942093 789.495743,580.283737 512.000031C644.812637 373.556625,740.821106 243.780136,887.483719 204.800049C1022.465378 168.924530,1166.604538 229.998291,1194.683701 358.400040C1217.459412 462.549942,1144.294312 563.200027,1041.083710 563.200027C1138.898315 563.200027,1228.876236 622.928406,1245.883698 716.800018C1267.812927 837.837021,1162.120712 943.529236,1041.083710 921.600006" style="stroke:rgb(80.000305%,80.000305%,80.000305%); stroke-width: 2.000000;stroke-linejoin: round;stroke-miterlimit: 10.000000;fill: none;"></path>
</svg>
