<?xml version="1.0"?>

<svg version="1.1" xmlns="http://www.w3.org/2000/svg" xmlns:xlink="http://www.w3.org/1999/xlink" width="1353.085297" height="1024.000000" viewBox="0 0 1353.085297 1024.000000">

  <g transform="translate(589.075729 821.344757)" style="fill: rgb(0.000000%,0.000000%,0.000000%);">
    <text font-size="9.962646">vc</text>
  </g>
  <path d="M389.118713 450.556290C389.118713 321.670273,472.584686 204.800049,593.918701 204.800049C730.486420 204.800049,798.718689 358.192932,798.718689 512.000031C798.718689 665.807129,730.486420 819.200012,593.918701 819.200012C472.584686 819.200012,389.118713 702.329788,389.118713 573.443771C389.118713 688.354843,341.034317 804.704285,235.518723 819.200012C158.528488 829.776932,88.364059 773.717499,81.918732 696.321899C74.624207 608.729248,148.155182 540.386734,235.518723 512.000031C468.458023 436.311951,719.379379 436.311951,952.318680 512.000031C1039.758530 540.411514,1113.441299 608.737732,1105.918671 696.321899C1099.297958 773.405304,1029.303131 829.036560,952.318680 819.200012C826.554962 803.130768,782.868149 653.706665,798.718689 512.000031C814.228546 373.339218,873.087158 232.918640,1003.518677 204.800049C1166.703705 169.620422,1302.844269 326.009659,1310.718658 512.000031C1315.439148 623.496353,1278.992859 732.835251,1208.318665 819.200012" style="stroke:rgb(80.000305%,80.000305%,80.000305%); stroke-width: 2.000000;stroke-linejoin: round;stroke-miterlimit: 10.000000;fill: none;"></path>
</svg>
