<?xml version="1.0"?>

<svg version="1.1" xmlns="http://www.w3.org/2000/svg" xmlns:xlink="http://www.w3.org/1999/xlink" width="1123.206711" height="1024.000000" viewBox="0 0 1123.206711 1024.000000">

  <g transform="translate(589.075729 206.944794)" style="fill: rgb(0.000000%,0.000000%,0.000000%);">
    <text font-size="9.962646">vc</text>
  </g>
  <path d="M389.118713 450.556290C389.118713 321.670273,472.584686 204.800049,593.918701 204.800049C730.486420 204.800049,798.718689 358.192932,798.718689 512.000031C798.718689 665.807129,730.486420 819.200012,593.918701 819.200012C472.584686 819.200012,389.118713 702.329788,389.118713 573.443771C389.118713 687.966492,340.874527 803.782242,235.518723 819.200012C157.659058 830.593994,86.096848 774.201675,81.918732 696.321899C77.298645 610.203705,154.197067 549.726883,235.518723 512.000031C434.394180 419.737457,657.084564 403.267212,875.518692 419.843781C951.135696 425.582214,1029.118683 454.582077,1029.118683 522.243774C1029.118683 590.527634,952.422241 624.643768,875.518692 624.643768C968.384918 624.643768,1069.397003 644.085236,1080.318680 727.043762C1092.876526 822.430283,975.648560 887.253586,875.518692 829.443756" style="stroke:rgb(80.000305%,80.000305%,80.000305%); stroke-width: 2.000000;stroke-linejoin: round;stroke-miterlimit: 10.000000;fill: none;"></path>
</svg>
