<?xml version="1.0"?>

<svg version="1.1" xmlns="http://www.w3.org/2000/svg" xmlns:xlink="http://www.w3.org/1999/xlink" width="1455.078018" height="1024.000000" viewBox="0 0 1455.078018 1024.000000">

  <path d="M389.118713 450.556290C389.118713 321.670273,472.584686 204.800049,593.918701 204.800049C730.486420 204.800049,798.718689 358.192932,798.718689 512.000031C798.718689 665.807129,730.486420 819.200012,593.918701 819.200012C472.584686 819.200012,389.118713 702.329788,389.118713 573.443771C389.118713 688.354843,341.034317 804.704285,235.518723 819.200012C158.528488 829.776932,88.364059 773.717499,81.918732 696.321899C74.624207 608.729248,148.155182 540.386734,235.518723 512.000031C468.458023 436.311951,719.379379 436.311951,952.318680 512.000031C1039.904358 540.458908,1113.873901 608.755753,1105.918671 696.321899C1098.967972 772.830704,1029.267593 827.634766,952.318680 819.200012C824.070297 805.142075,769.586975 654.872925,798.718689 512.000031C831.714508 350.176041,946.375885 210.600937,1105.918671 204.800049C1206.583084 201.139954,1300.488602 262.342773,1310.718658 358.400040C1318.087723 427.593445,1275.023758 492.189407,1208.318665 512.000031" style="stroke:rgb(80.000305%,80.000305%,80.000305%); stroke-width: 2.000000;stroke-linejoin: round;stroke-miterlimit: 10.000000;fill: none;"></path>
  <path d="M1208.318665 512.000031C1310.718658 482.133362,1413.118652 558.933365,1413.118652 665.600021C1413.118652 772.266678,1310.718658 849.066666,1208.318665 819.200012" style="stroke:rgb(80.000305%,80.000305%,80.000305%); stroke-width: 2.000000;stroke-linejoin: round;stroke-miterlimit: 10.000000;fill: none;"></path>
</svg>
