<?xml version="1.0"?>

<svg version="1.1" xmlns="http://www.w3.org/2000/svg" xmlns:xlink="http://www.w3.org/1999/xlink" width="1251.948212" height="1024.000000" viewBox="0 0 1251.948212 1024.000000">

  <path d="M542.718704 450.556290C542.718704 321.670273,626.184677 204.800049,747.518692 204.800049C884.086411 204.800049,952.318680 358.192932,952.318680 512.000031C952.318680 665.807129,884.086411 819.200012,747.518692 819.200012C626.184677 819.200012,542.718704 702.329788,542.718704 573.443771C542.718704 687.983490,494.481750 803.822830,389.118713 819.200012C311.298615 830.557434,239.797256 774.182129,235.518723 696.321899C230.783768 610.155533,307.508759 549.336609,389.118713 512.000031C580.832825 424.290756,796.412979 411.232193,1003.518677 450.556290C1079.869766 465.053421,1157.118668 501.744080,1157.118668 573.434402C1157.118668 639.312088,1079.069351 665.600021,1003.518677 665.600021C1102.750229 665.600021,1195.191574 724.547943,1208.318665 819.200012C1226.355759 949.255417,1095.474380 1039.717453,952.318680 1064.959366C799.894348 1091.835556,643.943039 1091.835556,491.518707 1064.959366C254.941254 1023.244904,85.638123 814.903336,81.918732 573.443771C79.779678 434.578644,135.410767 301.062698,235.518723 204.800049" style="stroke:rgb(80.000305%,80.000305%,80.000305%); stroke-width: 2.000000;stroke-linejoin: round;stroke-miterlimit: 10.000000;fill: none;"></path>
</svg>
