<?xml version="1.0"?>

<svg version="1.1" xmlns="http://www.w3.org/2000/svg" xmlns:xlink="http://www.w3.org/1999/xlink" width="1274.660904" height="1024.000000" viewBox="0 0 1274.660904 1024.000000">

  <g transform="translate(711.953842 821.344757)" style="fill: rgb(0.000000%,0.000000%,0.000000%);">
    <text font-size="9.962646">vc</text>
  </g>
  <g transform="translate(1195.317612 867.701126)" style="fill: rgb(0.000000%,0.000000%,0.000000%);">
    <text font-size="9.962646">right</text>
  </g>
  <path d="M511.996826 450.556290C511.996826 321.670273,595.462799 204.800049,716.796814 204.800049C853.364532 204.800049,921.596802 358.192932,921.596802 512.000031C921.596802 665.807129,853.364532 819.200012,716.796814 819.200012C595.462799 819.200012,511.996826 702.329788,511.996826 573.443771C511.996826 688.354843,463.912430 804.704285,358.396835 819.200012C281.406601 829.776932,211.242172 773.717499,204.796844 696.321899C197.502319 608.729248,271.033295 540.386734,358.396835 512.000031C591.336136 436.311951,842.257492 436.311951,1075.196793 512.000031C1157.180756 538.638763,1215.154541 610.958313,1228.796783 696.321899C1268.093506 942.213257,1004.601349 1112.984512,716.796814 1116.159363C375.107101 1119.928650,51.196854 927.258453,51.196854 614.400024C51.196854 463.787552,105.763992 318.275192,204.796844 204.800049" style="stroke:rgb(80.000305%,80.000305%,80.000305%); stroke-width: 2.000000;stroke-linejoin: round;stroke-miterlimit: 10.000000;fill: none;"></path>
</svg>
