<?xml version="1.0"?>

<svg version="1.1" xmlns="http://www.w3.org/2000/svg" xmlns:xlink="http://www.w3.org/1999/xlink" width="1901.845184" height="1024.000000" viewBox="0 0 1901.845184 1024.000000">

  <g transform="translate(947.475708 514.144775)" style="fill: rgb(0.000000%,0.000000%,0.000000%);">
    <text font-size="9.962646">vc</text>
  </g>
  <g transform="translate(936.544434 822.659271)" style="fill: rgb(0.000000%,0.000000%,0.000000%);">
    <text font-size="9.962646">bottom</text>
  </g>
  <g transform="translate(941.788681 821.690674)" style="fill: rgb(0.000000%,0.000000%,0.000000%);">
    <text font-size="9.962646">right</text>
  </g>
  <path d="M389.118713 450.556290C389.118713 321.670273,472.584686 204.800049,593.918701 204.800049C730.486420 204.800049,798.718689 358.192932,798.718689 512.000031C798.718689 665.807129,730.486420 819.200012,593.918701 819.200012C472.584686 819.200012,389.118713 702.329788,389.118713 573.443771C389.118713 688.354843,341.034317 804.704285,235.518723 819.200012C158.528488 829.776932,88.364059 773.717499,81.918732 696.321899C74.624207 608.729248,148.155182 540.386734,235.518723 512.000031C468.458023 436.311951,719.379379 436.311951,952.318680 512.000031" style="stroke:rgb(80.000305%,80.000305%,80.000305%); stroke-width: 2.000000;stroke-linejoin: round;stroke-miterlimit: 10.000000;fill: none;"></path>
  <path d="M1200.295227 819.200012C1066.849548 770.757095,967.376877 647.527695,952.318680 512.000031C933.499298 342.620773,1048.498764 204.800049,1216.342102 204.800049C1383.011307 204.800049,1534.542542 342.933273,1566.718643 512.000031C1592.510178 647.519653,1525.255722 773.120331,1411.571655 773.120331C1284.934708 773.120331,1217.680252 647.519653,1243.471786 512.000031C1275.647888 342.933273,1427.179123 204.800049,1593.848328 204.800049C1761.691666 204.800049,1876.691132 342.620773,1857.871750 512.000031C1842.813553 647.527695,1743.340881 770.757095,1609.895203 819.200012" style="stroke:rgb(80.000305%,80.000305%,80.000305%); stroke-width: 2.000000;stroke-linejoin: round;stroke-miterlimit: 10.000000;fill: none;"></path>
</svg>
