<?xml version="1.0"?>

<svg version="1.1" xmlns="http://www.w3.org/2000/svg" xmlns:xlink="http://www.w3.org/1999/xlink" width="1505.018661" height="1024.000000" viewBox="0 0 1505.018661 1024.000000">

  <g transform="translate(437.099411 289.127960)" style="fill: rgb(0.000000%,0.000000%,0.000000%);">
    <text font-size="9.962646">vc</text>
  </g>
  <g transform="translate(1147.201065 207.290710)" style="fill: rgb(0.000000%,0.000000%,0.000000%);">
    <text font-size="9.962646">right</text>
  </g>
  <path d="M184.318726 204.800049C117.849808 293.425278,81.918732 401.218491,81.918732 512.000031C81.918732 640.033890,124.172668 773.120331,235.518723 773.120331C346.780991 773.120331,387.725998 639.720734,389.118713 512.000031C390.937729 345.186676,459.896133 181.168549,593.918701 204.800049C745.536957 231.534103,798.718689 406.693222,798.718689 573.443771C798.718689 573.456268,798.718689 727.031265,798.718689 727.043762" style="stroke:rgb(80.000305%,80.000305%,80.000305%); stroke-width: 2.000000;stroke-linejoin: round;stroke-miterlimit: 10.000000;fill: none;"></path>
  <path d="M798.718689 573.443771C828.257706 363.274445,983.702469 173.128494,1157.731064 204.800049C1287.060516 228.336777,1331.141785 370.008835,1319.354492 512.000031C1306.151962 671.039459,1208.045731 826.680115,1071.377945 819.200012C973.236023 813.828506,920.546249 717.227844,946.562332 614.400024C983.401764 468.793182,1141.923004 374.988480,1282.546677 409.600037C1379.651932 433.500443,1443.114365 514.877029,1458.562302 614.400024C1504.879517 912.797867,1183.021973 1157.274017,970.915451 1024.000000" style="stroke:rgb(80.000305%,80.000305%,80.000305%); stroke-width: 2.000000;stroke-linejoin: round;stroke-miterlimit: 10.000000;fill: none;"></path>
</svg>
