<?xml version="1.0"?>

<svg version="1.1" xmlns="http://www.w3.org/2000/svg" xmlns:xlink="http://www.w3.org/1999/xlink" width="930.112167" height="1024.000000" viewBox="0 0 930.112167 1024.000000">

  <g transform="translate(486.709122 282.714737)" style="fill: rgb(0.000000%,0.000000%,0.000000%);">
    <text font-size="9.962646">vc</text>
  </g>
  <g transform="translate(885.344437 822.659271)" style="fill: rgb(0.000000%,0.000000%,0.000000%);">
    <text font-size="9.962646">bottom</text>
  </g>
  <path d="M184.318726 204.800049C117.849808 293.425278,81.918732 401.218491,81.918732 512.000031C81.918732 640.033890,124.172668 773.120331,235.518723 773.120331C346.833313 773.120331,372.722198 634.869354,389.118713 512.000031C413.041733 332.729980,535.951370 176.523315,696.318695 204.800049C837.218430 229.644165,926.353394 368.885132,901.118683 512.000031C873.472122 668.793457,750.712128 791.553452,593.918701 819.200012" style="stroke:rgb(80.000305%,80.000305%,80.000305%); stroke-width: 2.000000;stroke-linejoin: round;stroke-miterlimit: 10.000000;fill: none;"></path>
  <path d="M434.177551 767.592743C381.002228 829.630127,352.257248 905.085052,352.257248 982.631790C352.257248 1072.255096,386.060532 1165.415207,475.137711 1165.415207C564.189728 1165.415207,584.900909 1068.639938,598.018173 982.631790C617.156662 857.143311,715.484741 747.799118,843.779099 767.592743C956.499313 784.983551,1027.807556 882.451797,1007.619705 982.631790C985.502380 1092.386719,887.294006 1178.318329,761.858795 1197.670837" style="stroke:rgb(80.000305%,80.000305%,80.000305%); stroke-width: 2.000000;stroke-linejoin: round;stroke-miterlimit: 10.000000;fill: none;"></path>
</svg>
