<?xml version="1.0"?>

<svg version="1.1" xmlns="http://www.w3.org/2000/svg" xmlns:xlink="http://www.w3.org/1999/xlink" width="1363.399384" height="1024.000000" viewBox="0 0 1363.399384 1024.000000">

  <g transform="translate(437.099411 289.127960)" style="fill: rgb(0.000000%,0.000000%,0.000000%);">
    <text font-size="9.962646">vc</text>
  </g>
  <g transform="translate(1147.201065 207.290710)" style="fill: rgb(0.000000%,0.000000%,0.000000%);">
    <text font-size="9.962646">right</text>
  </g>
  <path d="M184.318726 204.800049C117.849808 293.425278,81.918732 401.218491,81.918732 512.000031C81.918732 640.033890,124.172668 773.120331,235.518723 773.120331C346.780991 773.120331,387.725998 639.720734,389.118713 512.000031C390.937729 345.186676,459.896133 181.168549,593.918701 204.800049C745.536957 231.534103,798.718689 406.693222,798.718689 573.443771C798.718689 573.456268,798.718689 727.031265,798.718689 727.043762" style="stroke:rgb(80.000305%,80.000305%,80.000305%); stroke-width: 2.000000;stroke-linejoin: round;stroke-miterlimit: 10.000000;fill: none;"></path>
  <path d="M798.718689 573.443771C828.228867 363.479721,983.579544 173.462326,1157.731064 204.800049C1287.289291 228.113419,1332.116425 369.741486,1319.354492 512.000031C1305.268478 669.017960,1208.568344 823.257523,1071.377945 819.200012C977.702957 816.429504,920.847412 730.479218,943.684158 634.878143C984.566467 463.733231,1203.649261 389.712646,1307.373322 512.000031" style="stroke:rgb(80.000305%,80.000305%,80.000305%); stroke-width: 2.000000;stroke-linejoin: round;stroke-miterlimit: 10.000000;fill: none;"></path>
</svg>
