<?xml version="1.0"?>

<svg version="1.1" xmlns="http://www.w3.org/2000/svg" xmlns:xlink="http://www.w3.org/1999/xlink" width="1107.275543" height="1024.000000" viewBox="0 0 1107.275543 1024.000000">

  <g transform="translate(384.275742 452.701035)" style="fill: rgb(0.000000%,0.000000%,0.000000%);">
    <text font-size="9.962646">vc</text>
  </g>
  <path d="M389.118713 450.556290C389.118713 324.689865,458.519455 204.800049,573.440582 204.800049C705.193924 204.800049,757.762451 360.899902,757.762451 512.000031C757.762451 663.100159,705.193924 819.200012,573.440582 819.200012C458.519455 819.200012,389.118713 699.310196,389.118713 573.443771C389.118713 687.593781,366.701019 812.009888,266.240601 819.200012C200.466232 823.907593,149.504059 765.511276,143.362488 696.321899C136.042068 613.851883,187.363266 537.629349,266.240601 512.000031C475.886581 443.880569,701.716461 443.880569,911.362442 512.000031C998.320816 540.255081,1071.025085 608.695572,1064.962433 696.321899C1057.973343 797.338486,952.583145 860.571625,860.162445 819.200012" style="stroke:rgb(80.000305%,80.000305%,80.000305%); stroke-width: 2.000000;stroke-linejoin: round;stroke-miterlimit: 10.000000;fill: none;"></path>
  <path d="M143.362488 512.000031C79.232773 335.807037,172.683899 168.822998,296.962479 204.800049C388.814072 231.389908,389.118713 348.276978,389.118713 450.556290" style="stroke:rgb(80.000305%,80.000305%,80.000305%); stroke-width: 2.000000;stroke-linejoin: round;stroke-miterlimit: 10.000000;fill: none;"></path>
</svg>
