<?xml version="1.0" encoding="UTF-8" standalone="no"?>
<svg
   xmlns:dc="http://purl.org/dc/elements/1.1/"
   xmlns:cc="http://creativecommons.org/ns#"
   xmlns:rdf="http://www.w3.org/1999/02/22-rdf-syntax-ns#"
   xmlns:svg="http://www.w3.org/2000/svg"
   xmlns="http://www.w3.org/2000/svg"
   xmlns:sodipodi="http://sodipodi.sourceforge.net/DTD/sodipodi-0.dtd"
   xmlns:inkscape="http://www.inkscape.org/namespaces/inkscape"
   width="591.54785"
   height="262.42319"
   id="svg2992"
   version="1.1"
   inkscape:version="1.0.1 (3bc2e813f5, 2020-09-07)"
   sodipodi:docname="ങ്ങ.svg">
  <defs
     id="defs5498">
    <inkscape:path-effect
       effect="spiro"
       id="path-effect4372-5-8"
       is_visible="true"
       lpeversion="0" />
    <inkscape:path-effect
       effect="spiro"
       id="path-effect4372-5-8-0"
       is_visible="true"
       lpeversion="0" />
    <inkscape:path-effect
       effect="spiro"
       id="path-effect4372-5-8-0-8"
       is_visible="true"
       lpeversion="0" />
    <inkscape:path-effect
       effect="spiro"
       id="path-effect4372-5-8-0-0"
       is_visible="true"
       lpeversion="0" />
    <inkscape:path-effect
       effect="spiro"
       id="path-effect4372-5-8-0-9"
       is_visible="true"
       lpeversion="0" />
    <inkscape:path-effect
       effect="spiro"
       id="path-effect4372-5-8-0-99"
       is_visible="true"
       lpeversion="0" />
    <inkscape:path-effect
       effect="spiro"
       id="path-effect4372-5-8-0-98"
       is_visible="true"
       lpeversion="0" />
    <inkscape:path-effect
       effect="spiro"
       id="path-effect4372-5-8-0-98-8"
       is_visible="true"
       lpeversion="0" />
    <inkscape:path-effect
       effect="spiro"
       id="path-effect4372-5-8-0-98-8-7"
       is_visible="true"
       lpeversion="0" />
    <inkscape:path-effect
       effect="spiro"
       id="path-effect4372-5-8-0-98-8-7-3"
       is_visible="true"
       lpeversion="0" />
    <inkscape:path-effect
       effect="spiro"
       id="path-effect4372-5-8-0-98-8-7-3-1"
       is_visible="true"
       lpeversion="0" />
    <inkscape:path-effect
       effect="spiro"
       id="path-effect4372-5-8-0-98-8-7-3-3"
       is_visible="true"
       lpeversion="0" />
    <inkscape:path-effect
       effect="spiro"
       id="path-effect4372-5-8-0-98-8-7-3-11"
       is_visible="true"
       lpeversion="0" />
    <inkscape:path-effect
       effect="spiro"
       id="path-effect4372-5-8-0-98-8-7-3-9"
       is_visible="true"
       lpeversion="0" />
    <inkscape:path-effect
       effect="spiro"
       id="path-effect4372-5-8-0-98-8-7-3-9-0"
       is_visible="true"
       lpeversion="0" />
    <inkscape:path-effect
       effect="spiro"
       id="path-effect4372-5-8-0-98-8-7-3-90"
       is_visible="true"
       lpeversion="0" />
    <inkscape:path-effect
       effect="spiro"
       id="path-effect4372-5-8-0-98-8-7-3-39"
       is_visible="true"
       lpeversion="0" />
    <inkscape:path-effect
       effect="spiro"
       id="path-effect4372-5-8-0-98-8-7-3-9-3"
       is_visible="true"
       lpeversion="0" />
  </defs>
  <sodipodi:namedview
     inkscape:window-height="1015"
     inkscape:window-width="1920"
     inkscape:pageshadow="2"
     inkscape:pageopacity="0.0"
     borderopacity="1.0"
     bordercolor="#666666"
     pagecolor="#ffffff"
     id="base"
     showgrid="true"
     showguides="true"
     inkscape:guide-bbox="true"
     inkscape:zoom="0.1767767"
     inkscape:cx="-271.70886"
     inkscape:cy="38.881015"
     inkscape:window-x="1920"
     inkscape:window-y="0"
     inkscape:current-layer="layer1"
     inkscape:window-maximized="1"
     inkscape:document-rotation="0">
    <sodipodi:guide
       orientation="horizontal"
       position="-1057.817,-383.9778"
       id="guide5596" />
    <inkscape:grid
       type="xygrid"
       id="grid3769"
       empspacing="3"
       visible="true"
       enabled="true"
       snapvisiblegridlinesonly="true"
       spacingx="4"
       units="px"
       dotted="true"
       spacingy="4"
       originx="-1057.817"
       originy="-801.59901" />
    <sodipodi:guide
       orientation="0,1"
       position="-2097.817,616.02222"
       id="guide2985" />
    <sodipodi:guide
       position="-3073.817,640.02222"
       orientation="0,1"
       id="guide4158"
       inkscape:label=""
       inkscape:color="rgb(0,0,255)" />
  </sodipodi:namedview>
  <metadata
     id="metadata5594">
    <rdf:RDF>
      <cc:Work
         rdf:about="">
        <dc:format>image/svg+xml</dc:format>
        <dc:type
           rdf:resource="http://purl.org/dc/dcmitype/StillImage" />
        <dc:title />
      </cc:Work>
    </rdf:RDF>
  </metadata>
  <g
     inkscape:label="Layer 1"
     inkscape:groupmode="layer"
     id="layer1"
     transform="translate(-1057.817,246.40099)">
    <path
       style="fill:none;fill-rule:evenodd;stroke:#000000;stroke-width:35;stroke-linecap:round;stroke-linejoin:round;stroke-miterlimit:4;stroke-dasharray:none;stroke-opacity:1"
       d="m 1097.1253,-28.105334 c -4.7701,-8.326309 -7.2096,-17.971798 -6.9716,-27.564761 0.2381,-9.592962 3.153,-19.105571 8.3303,-27.185017 5.1773,-8.079446 12.6019,-14.702291 21.2179,-18.926688 8.6161,-4.22439 18.3985,-6.03808 27.9563,-5.18314 13.9258,1.24566 27.2478,8.289942 36.0943,19.116664 8.8466,10.826722 13.0952,25.298225 11.4759,39.185518 -1.6194,13.887293 -9.0927,27.002398 -20.2325,35.451317 -11.1398,8.4489183 -25.7973,12.1089369 -39.5965,9.8592245 -12.4183,-2.0245888 -23.8483,-8.6366315 -32.7072,-17.5716635 -8.8588,-8.935032 -15.2552,-20.102465 -19.6863,-31.878687 -9.0416,-24.02909 -10.0188,-50.923283 -3.3065,-75.704183 6.7123,-24.78091 21.0042,-47.36969 40.1356,-64.49096 16.9784,-15.19445 37.7598,-26.14114 59.9383,-31.36137 23.5723,-5.54829 48.5456,-4.59892 71.8446,2.00335 27.9041,7.90721 53.4632,23.9565 72.6316,45.72199 19.1684,21.76549 31.8666,49.17746 35.9738,77.887994 3.1636,22.114635 1.0467,45.658645 -10.1622,64.98286 -5.6045,9.662108 -13.4375,18.102852 -22.9735,23.9191718 -9.5361,5.8163204 -20.7926,8.93455378 -31.9431,8.2770977 -10.7681,-0.6349062 -21.2178,-4.7687436 -29.8804,-11.1963505 -8.6626,-6.427607 -15.5669,-15.086829 -20.4611,-24.699367 -9.7885,-19.225075 -11.4561,-41.684035 -9.3424,-63.153786 3.0536,-31.01594 13.9615,-61.69142 33.8697,-85.6701 19.9082,-23.97867 49.2401,-40.71444 80.357,-42.46094 14.21,-0.79756 28.6418,1.52058 41.6945,7.19399 13.0527,5.67341 24.6201,14.72058 33.262,26.02893 8.6418,11.30834 14.2742,24.75664 17.2321,38.67824 2.958,13.9216 3.264,28.25172 3.4064,42.48338 l 1.1077,110.7318785 -1.3947,-109.4283985 c -0.1922,-15.07623 -0.1591,-30.29911 3.1499,-45.00898 3.3089,-14.70987 9.9222,-28.77707 19.8881,-40.09127 9.9659,-11.3142 23.1207,-19.71705 37.4652,-24.36106 14.3444,-4.64401 29.7444,-5.60592 44.7172,-3.83216 19.2185,2.27673 38.3419,9.28771 52.4257,22.56106 7.0418,6.63667 12.7243,14.77615 16.1324,23.83252 3.4081,9.05637 4.4971,19.03218 2.7084,28.54185 -1.4391,7.651 -4.7287,14.93574 -9.4387,21.13447 -4.7101,6.19873 -10.8226,11.2932 -17.6575,15.02052 -13.6698,7.45463 -29.7203,8.83941 -45.2781,9.46405 l -7.5567,0.3034 8.7689,0.12743 c 18.3849,0.26717 37.4748,1.10045 53.751,9.653769 8.1381,4.276658 15.3856,10.399303 20.436,18.081225 5.0504,7.681922 7.8251,16.935353 7.2898,26.113152 -0.6443,11.046406 -6.0526,21.525849 -13.8658,29.361209 -7.8131,7.83536 -17.8961,13.1585372 -28.4673,16.4277885 -23.5183,7.27326 -49.9947,4.3802568 -71.3873,-7.8002775"
       id="path4370-9-4-7-1-7-7-3"
       inkscape:path-effect="#path-effect4372-5-8-0-98-8-7-3"
       inkscape:original-d="m 1097.1253,-28.105334 c 10.0496,-5.45665 21.1397,-89.383596 50.5329,-78.859606 32.743,11.723379 20.4318,91.744083 -12.2588,103.6127235 -22.5732,8.195405 -45.7869,-26.3621255 -52.3935,-49.4503505 -13.2922,-46.452965 6.7182,-102.407663 36.8291,-140.195143 14.0524,-17.63491 37.9682,-26.28461 59.9383,-31.36137 23.3424,-5.39386 50.1578,-8.17725 71.8446,2.00335 49.6493,23.30727 105.0213,68.87938 108.6054,123.609984 2.5476,38.902477 -26.1041,98.11042453 -65.0788,97.1791295 -38.5362,-0.92082 -63.2595,-60.6685065 -59.6839,-99.0495035 5.3075,-56.9715 57.0158,-129.04467 114.2267,-128.13104 49.684,0.79343 94.9976,54.6617 95.595,114.38454 l 1.1077,110.7318785 -1.3947,-109.4283985 c -0.5553,-43.56721 53.6819,-112.98837 105.2204,-113.29347 34.4704,-0.20405 75.5312,40.72927 71.2665,74.93543 -3.5281,28.29824 -59.3694,45.0969 -72.3743,45.61904 l -7.5567,0.3034 8.7689,0.12743 c 15.0669,0.21894 77.5701,21.529016 81.4768,53.848146 2.4946,20.636332 -22.8636,38.507697 -42.3331,45.7889975 -22.4208,8.38501 -71.3873,-7.8002775 -71.3873,-7.8002775"
       inkscape:connector-curvature="0"
       sodipodi:nodetypes="caaaaaaaaaascsaascsaac" />
  </g>
</svg>
