<?xml version="1.0"?>

<svg version="1.1" xmlns="http://www.w3.org/2000/svg" xmlns:xlink="http://www.w3.org/1999/xlink" width="1353.031204" height="1024.000000" viewBox="0 0 1353.031204 1024.000000">

  <g transform="translate(640.275726 452.701035)" style="fill: rgb(0.000000%,0.000000%,0.000000%);">
    <text font-size="9.962646">vc</text>
  </g>
  <path d="M645.118698 450.556290C645.118698 321.670273,728.584671 204.800049,849.918686 204.800049C986.486404 204.800049,1054.718674 358.192932,1054.718674 512.000031C1054.718674 665.807129,986.486404 819.200012,849.918686 819.200012C728.584671 819.200012,645.118698 702.329788,645.118698 573.443771C645.118698 687.983490,596.881744 803.822830,491.518707 819.200012C413.698608 830.557434,342.197250 774.182129,337.918716 696.321899C333.183762 610.155533,409.908752 549.336609,491.518707 512.000031C683.232819 424.290756,898.812973 411.232193,1105.918671 450.556290C1182.269760 465.053421,1259.518661 501.744080,1259.518661 573.434402C1259.518661 639.312088,1181.469345 665.600021,1105.918671 665.600021C1207.819824 665.600021,1304.178986 723.698730,1310.718658 819.200012C1317.918015 924.334946,1213.878616 991.389465,1105.918671 1024.000000C905.337219 1084.587921,691.060791 1087.965988,491.518707 1024.000000C274.512390 954.435623,86.012482 793.610901,86.012482 573.443771C86.012482 435.061951,141.752472 302.660049,239.612473 204.800049" style="stroke:rgb(80.000305%,80.000305%,80.000305%); stroke-width: 2.000000;stroke-linejoin: round;stroke-miterlimit: 10.000000;fill: none;"></path>
  <path d="M337.918716 512.000031C281.561737 357.162186,358.597382 194.574265,491.518707 204.800049C597.866821 212.981522,645.118698 332.850342,645.118698 450.556290" style="stroke:rgb(80.000305%,80.000305%,80.000305%); stroke-width: 2.000000;stroke-linejoin: round;stroke-miterlimit: 10.000000;fill: none;"></path>
</svg>
