<?xml version="1.0"?>

<svg version="1.1" xmlns="http://www.w3.org/2000/svg" xmlns:xlink="http://www.w3.org/1999/xlink" width="1592.467941" height="1024.000000" viewBox="0 0 1592.467941 1024.000000">

  <g transform="translate(508.570221 483.422897)" style="fill: rgb(0.000000%,0.000000%,0.000000%);">
    <text font-size="9.962646">vc</text>
  </g>
  <path d="M246.068680 634.878143C215.477264 591.086319,195.691833 538.308487,206.213211 481.278152C221.817734 396.695114,297.901962 327.678162,381.401489 327.678162C462.846649 327.678162,514.685059 397.730545,513.413193 481.278152C511.180740 627.926849,375.386887 747.917007,222.753052 800.768143" style="stroke:rgb(80.000305%,80.000305%,80.000305%); stroke-width: 2.000000;stroke-linejoin: round;stroke-miterlimit: 10.000000;fill: none;"></path>
  <path d="M81.918732 819.200012C320.036972 732.531082,581.078568 905.868942,819.196808 819.200012C734.888931 734.892151,666.310638 630.923096,665.596817 512.000031C664.559235 339.136353,802.712723 196.863708,972.796799 204.800049C1132.920029 212.271606,1250.386185 349.744873,1279.996780 512.000031C1308.293961 667.058105,1231.958572 822.346649,1095.674911 819.200012C994.262451 816.858521,923.792068 718.088593,942.074921 614.400024C965.171829 483.409348,1111.820297 434.632477,1249.274902 409.600037C1415.137024 379.394165,1578.320129 438.545837,1556.474884 563.200027C1544.725113 630.246964,1474.542236 665.600021,1402.874893 665.600021C1494.190170 665.600021,1593.179947 685.794113,1607.674881 768.000015C1658.202728 1054.561264,1250.125534 1010.642410,942.074921 1064.959366" style="stroke:rgb(80.000305%,80.000305%,80.000305%); stroke-width: 2.000000;stroke-linejoin: round;stroke-miterlimit: 10.000000;fill: none;"></path>
  <path d="M942.074921 1064.959366C1047.622971 1026.542587,1161.943390 1045.497711,1272.314743 1064.959366C1382.686096 1084.421021,1497.006516 1103.376144,1602.554565 1064.959366" style="stroke:rgb(80.000305%,80.000305%,80.000305%); stroke-width: 2.000000;stroke-linejoin: round;stroke-miterlimit: 10.000000;fill: none;"></path>
</svg>
