<?xml version="1.0" encoding="UTF-8" standalone="no"?>
<svg
   xmlns:dc="http://purl.org/dc/elements/1.1/"
   xmlns:cc="http://creativecommons.org/ns#"
   xmlns:rdf="http://www.w3.org/1999/02/22-rdf-syntax-ns#"
   xmlns:svg="http://www.w3.org/2000/svg"
   xmlns="http://www.w3.org/2000/svg"
   xmlns:sodipodi="http://sodipodi.sourceforge.net/DTD/sodipodi-0.dtd"
   xmlns:inkscape="http://www.inkscape.org/namespaces/inkscape"
   width="930.98151"
   height="263.63837"
   id="svg2992"
   version="1.1"
   inkscape:version="1.0.1 (3bc2e813f5, 2020-09-07)"
   sodipodi:docname="ജ്ഞ.svg">
  <defs
     id="defs5498">
    <inkscape:path-effect
       is_visible="true"
       id="path-effect4142"
       effect="spiro"
       lpeversion="0" />
    <inkscape:path-effect
       is_visible="true"
       id="path-effect4142-0"
       effect="spiro"
       lpeversion="0" />
    <inkscape:path-effect
       is_visible="true"
       id="path-effect4142-0-1"
       effect="spiro"
       lpeversion="0" />
    <inkscape:path-effect
       is_visible="true"
       id="path-effect4142-0-1-0"
       effect="spiro"
       lpeversion="0" />
    <inkscape:path-effect
       effect="spiro"
       id="path-effect3891"
       is_visible="true"
       lpeversion="0" />
    <inkscape:path-effect
       effect="spiro"
       id="path-effect4141-3-4-6-8"
       is_visible="true"
       lpeversion="0" />
    <inkscape:path-effect
       effect="spiro"
       id="path-effect4141-3-4-6-8-9"
       is_visible="true"
       lpeversion="0" />
    <inkscape:path-effect
       effect="spiro"
       id="path-effect4141-3-4-6-8-9-5"
       is_visible="true"
       lpeversion="0" />
    <inkscape:path-effect
       is_visible="true"
       id="path-effect3782"
       effect="spiro"
       lpeversion="0" />
    <inkscape:path-effect
       is_visible="true"
       id="path-effect3846"
       effect="spiro"
       lpeversion="0" />
    <inkscape:path-effect
       is_visible="true"
       id="path-effect3801"
       effect="spiro"
       lpeversion="0" />
    <inkscape:path-effect
       is_visible="true"
       id="path-effect4918"
       effect="spiro"
       lpeversion="0" />
    <inkscape:path-effect
       is_visible="true"
       id="path-effect4372-5-8-0"
       effect="spiro"
       lpeversion="0" />
    <inkscape:path-effect
       is_visible="true"
       id="path-effect4372-5-8-0-0"
       effect="spiro"
       lpeversion="0" />
    <inkscape:path-effect
       effect="spiro"
       id="path-effect4141-3-4-6-8-9-5-3"
       is_visible="true"
       lpeversion="0" />
    <inkscape:path-effect
       effect="spiro"
       id="path-effect4141-3-4-6-8-9-5-4"
       is_visible="true"
       lpeversion="0" />
    <inkscape:path-effect
       is_visible="true"
       id="path-effect4142-0-1-0-0"
       effect="spiro"
       lpeversion="0" />
    <inkscape:path-effect
       effect="spiro"
       id="path-effect4142-0-1-0-9"
       is_visible="true"
       lpeversion="0" />
    <inkscape:path-effect
       is_visible="true"
       id="path-effect4141-3-4-6-8-9-5-4-6-5"
       effect="spiro"
       lpeversion="0" />
    <inkscape:path-effect
       effect="spiro"
       id="path-effect4142-0-1-0-9-2"
       is_visible="true"
       lpeversion="0" />
    <inkscape:path-effect
       effect="spiro"
       id="path-effect4142-0-1-0-9-3"
       is_visible="true"
       lpeversion="0" />
    <inkscape:path-effect
       effect="spiro"
       id="path-effect4142-0-1-0-9-3-7"
       is_visible="true"
       lpeversion="0" />
    <inkscape:path-effect
       effect="spiro"
       id="path-effect4142-0-1-0-9-7"
       is_visible="true"
       lpeversion="0" />
    <inkscape:path-effect
       effect="spiro"
       id="path-effect4142-0-1-0-9-5"
       is_visible="true"
       lpeversion="0" />
    <inkscape:path-effect
       effect="spiro"
       id="path-effect4142-0-1-0-9-5-6"
       is_visible="true"
       lpeversion="0" />
    <inkscape:path-effect
       effect="spiro"
       id="path-effect4142-0-1-0-9-9"
       is_visible="true"
       lpeversion="0" />
  </defs>
  <sodipodi:namedview
     inkscape:window-height="1015"
     inkscape:window-width="1920"
     inkscape:pageshadow="2"
     inkscape:pageopacity="0.0"
     borderopacity="1.0"
     bordercolor="#666666"
     pagecolor="#ffffff"
     id="base"
     showgrid="true"
     showguides="true"
     inkscape:guide-bbox="true"
     inkscape:zoom="0.16051324"
     inkscape:cx="324.76723"
     inkscape:cy="259.18858"
     inkscape:window-x="1920"
     inkscape:window-y="0"
     inkscape:current-layer="layer1-4"
     inkscape:window-maximized="1"
     inkscape:document-rotation="0">
    <sodipodi:guide
       orientation="horizontal"
       position="-1541.7242,-382.73052"
       id="guide5596" />
    <inkscape:grid
       type="xygrid"
       id="grid3769"
       empspacing="3"
       visible="true"
       enabled="true"
       snapvisiblegridlinesonly="true"
       spacingx="4"
       units="px"
       dotted="true"
       spacingy="4"
       originx="-1541.7242"
       originy="-801.63112" />
    <sodipodi:guide
       orientation="0,1"
       position="-2581.7241,617.26945"
       id="guide2985" />
    <sodipodi:guide
       position="3546.2759,727.26945"
       orientation="0,1"
       id="guide4184"
       inkscape:label=""
       inkscape:color="rgb(0,0,255)" />
    <sodipodi:guide
       position="-5045.7241,641.26945"
       orientation="0,1"
       id="guide4187"
       inkscape:label=""
       inkscape:color="rgb(0,0,255)" />
  </sodipodi:namedview>
  <metadata
     id="metadata5594">
    <rdf:RDF>
      <cc:Work
         rdf:about="">
        <dc:format>image/svg+xml</dc:format>
        <dc:type
           rdf:resource="http://purl.org/dc/dcmitype/StillImage" />
        <dc:title />
      </cc:Work>
    </rdf:RDF>
  </metadata>
  <g
     inkscape:label="Layer 1"
     inkscape:groupmode="layer"
     id="layer1"
     transform="translate(-1541.7242,246.36888)">
    <g
       id="layer1-4"
       inkscape:label="Layer 1"
       transform="translate(-745.60632,-1374.2558)"
       style="stroke-width:70;stroke-miterlimit:4;stroke-dasharray:none">
      <path
         style="fill:none;fill-rule:evenodd;stroke:#000000;stroke-width:35;stroke-linecap:round;stroke-linejoin:round;stroke-miterlimit:4;stroke-dasharray:none;stroke-opacity:1"
         d="m 2307.2499,1198.1815 c 4.51,-10.1075 13.0704,-18.3385 23.347,-22.4487 10.2766,-4.1102 22.152,-4.0526 32.3883,0.157 10.2362,4.2096 18.7164,12.5232 23.1282,22.674 4.4118,10.1508 4.7049,22.0227 0.7993,32.3788 -2.7867,7.3892 -7.6603,13.992 -13.9581,18.7567 -6.2978,4.7647 -14.0052,7.6644 -21.8881,8.1379 -7.4321,0.4464 -14.9599,-1.2568 -21.553,-4.7161 -6.5932,-3.4592 -12.2452,-8.6509 -16.3878,-14.8376 -8.285,-12.3734 -10.2258,-28.4979 -6.2776,-42.856 4.8064,-17.4792 17.9171,-32.1216 34.0204,-40.4467 16.1033,-8.3252 34.9343,-10.6279 52.9072,-8.2615 9.4629,1.2459 18.8089,3.7759 27.3282,8.0793 8.5193,4.3034 16.1521,10.4118 22.0022,17.9533 5.8501,7.5416 9.8393,16.447 12.0523,25.7314 2.2131,9.2844 2.6494,18.8873 2.9584,28.4268 l 0.9512,29.3652 -1.2322,-28.9447 c -3.4644,-23.3415 5.5359,-48.1681 23.1533,-63.8669 17.6175,-15.6987 43.3132,-21.7894 66.1026,-15.6684 15.3167,4.1139 29.1736,13.4985 38.6352,26.2266 9.4615,12.7281 14.4565,28.7207 13.8676,44.5693 -0.8465,22.7804 -13.1289,44.2825 -30.5541,58.9804 -17.4251,14.6978 -39.577,23.0248 -62.0941,26.5805 -45.0342,7.1114 -90.7005,-3.9304 -136.1967,-6.8891 -13.4681,-0.8758 -27.4417,-0.9585 -39.8909,4.2544 -6.2246,2.6064 -11.9585,6.5507 -16.1832,11.8129 -4.2246,5.2622 -6.8714,11.8848 -6.8758,18.6331 -0,6.8013 2.6719,13.4703 6.9101,18.7895 4.2382,5.3193 9.9684,9.3385 16.1802,12.1083 12.4234,5.5396 26.3962,6.1451 39.9839,6.78 33.2093,1.5517 66.5454,3.7867 99.6422,0.6458 33.0968,-3.1409 66.3217,-11.9816 93.7393,-30.7842 21.3562,-14.6458 38.3572,-34.6979 58.0551,-51.5079 17.4756,-14.9135 37.5957,-27.4776 60.0295,-32.4304 11.2169,-2.4764 22.9169,-2.9968 34.2241,-0.9719 11.3071,2.0249 22.2088,6.6381 31.2009,13.7861 9.1209,7.2503 16.1845,17.0856 20.029,28.0846 3.8445,10.999 4.4417,23.1284 1.5808,34.4232 -2.8608,11.2949 -9.1844,21.7052 -17.9673,29.3615 -8.7829,7.6564 -19.9959,12.5091 -31.6005,13.554 -14.4227,1.2986 -29.1231,-3.3121 -40.8357,-11.8277 -11.7125,-8.5156 -20.4902,-20.7636 -25.7589,-34.2521 -10.5375,-26.9771 -7.0705,-57.6278 2.0696,-85.1098 7.9454,-23.8899 20.2653,-46.6885 38.2685,-64.288 18.0031,-17.5996 42.0338,-29.6727 67.1942,-30.5718 16.1195,-0.576 32.3528,3.4545 46.4236,11.3402 14.0708,7.8856 25.9093,19.5707 34.4442,33.2574 8.5349,13.6867 13.7572,29.2744 16.4518,45.1776 2.6945,15.9032 2.8913,32.1102 2.9709,48.2398 l 0.4216,85.4337 -0.068,-86.3356 c -0.013,-16.8713 0.1603,-33.8558 3.4075,-50.4117 3.2473,-16.5559 9.5924,-32.6122 19.4833,-46.2801 9.8909,-13.668 23.2364,-24.81 38.449,-32.1052 15.2126,-7.2951 32.1725,-10.7596 49.043,-10.5869 32.2047,0.3297 63.8765,14.0855 86.8614,36.6454 22.9849,22.5598 37.2417,53.5574 40.4925,85.5993 2.4698,24.3441 -1.5344,49.9805 -15.0551,70.3746 -6.7604,10.1971 -15.8335,18.9278 -26.5595,24.813 -10.7261,5.8852 -23.1148,8.859 -35.3147,7.9399 -11.8781,-0.8948 -23.381,-5.4596 -32.9723,-12.5234 -9.5914,-7.0637 -17.2908,-16.5689 -22.7052,-27.179 -10.8287,-21.2202 -12.3607,-46.2675 -8.3272,-69.747 5.5994,-32.5945 21.9503,-63.5852 47.0822,-85.0827 25.1319,-21.4975 59.1107,-32.93 91.9484,-29.0004 27.8962,3.3382 54.2067,17.6291 72.7606,38.7264 18.5539,21.0973 29.3214,48.7404 30.6817,76.8027 1.9955,41.1661 -16.8064,82.8148 -49.0019,108.5456"
         id="path4140-7-4-0"
         inkscape:path-effect="#path-effect4142-0-1-0-9"
         inkscape:original-d="m 2307.2499,1198.1815 c 7.9815,8.805 72.0169,19.7517 79.6628,32.7611 8.241,14.022 -21.0882,29.2059 -35.8462,26.8946 -25.1886,-3.9447 -49.8276,-37.5387 -44.2184,-62.4097 7.3073,-32.4008 54.323,-55.0444 86.9276,-48.7082 33.6414,6.5377 63.6188,57.5138 64.3411,80.1908 l 0.9512,29.3652 -1.2322,-28.9447 c 3.5868,-44.5511 49.6143,-83.6091 89.2559,-79.5353 29.2259,3.0035 61.2071,42.735 52.5028,70.7959 -23.898,77.0419 -155.1086,45.9678 -228.8449,78.6718 -21.9025,9.7143 -62.5344,10.7438 -62.9499,34.7004 -0.4246,24.4866 39.0336,33.0061 63.0742,37.6778 64.0407,12.4448 134.3611,-2.3413 193.3815,-30.1384 23.4044,-11.0229 34.6533,-40.4792 58.0551,-51.5079 38.2874,-18.0441 97.1233,-51.0624 125.4545,-19.6162 24.3348,27.0104 8.2201,101.8323 -27.958,105.4233 -48.4947,4.8137 -73.7568,-83.339 -64.525,-131.1896 8.957,-46.4265 58.4402,-99.8126 105.4627,-94.8598 56.5557,5.9568 99.9562,70.3012 100.2905,138.015 l 0.4216,85.4337 -0.068,-86.3356 c -0.045,-57.5699 51.2538,-135.3551 110.3828,-139.3839 58.7072,-4.0001 122.5062,63.6014 127.3539,122.2447 3.5331,42.7409 -34.1095,105.5226 -76.9293,103.1275 -42.1974,-2.3603 -71.4564,-67.848 -64.0047,-109.4494 10.5698,-59.0094 79.2583,-118.6763 139.0306,-114.0831 51.5387,3.9605 95.5592,64.4432 103.4423,115.5291 6.0541,39.2336 -49.0019,108.5456 -49.0019,108.5456"
         inkscape:connector-curvature="0"
         sodipodi:nodetypes="csaaasccaaaaaaaaaaacccaaaaaac" />
    </g>
  </g>
</svg>
