<?xml version="1.0"?>

<svg version="1.1" xmlns="http://www.w3.org/2000/svg" xmlns:xlink="http://www.w3.org/1999/xlink" width="1764.892685" height="1024.000000" viewBox="0 0 1764.892685 1024.000000">

  <path d="M81.918732 512.000031C216.994492 430.733124,387.449692 488.133331,396.279663 614.400024C402.002869 696.240891,359.877747 773.120331,284.499146 773.120331C165.265427 773.120331,88.898834 644.432755,81.918732 512.000031C74.440826 370.122330,134.159851 231.275269,265.235916 204.800049C429.240036 171.673889,580.957291 326.654266,593.918701 512.000031C593.918701 512.016693,593.918701 716.783356,593.918701 716.800018" style="stroke:rgb(80.000305%,80.000305%,80.000305%); stroke-width: 2.000000;stroke-linejoin: round;stroke-miterlimit: 10.000000;fill: none;"></path>
  <path d="M593.918701 512.000031C593.918701 342.338165,731.456818 204.800049,901.118683 204.800049" style="stroke:rgb(80.000305%,80.000305%,80.000305%); stroke-width: 2.000000;stroke-linejoin: round;stroke-miterlimit: 10.000000;fill: none;"></path>
  <path d="M901.118683 204.800049C962.465927 235.695145,1007.323578 291.767227,1023.998672 358.400040C1049.644623 460.879898,994.001175 564.999725,901.118683 563.200027C827.026245 561.764389,778.513153 488.696640,778.238693 409.600037C777.905563 313.594254,839.378342 227.391968,931.838684 204.800049C1062.510574 172.871445,1187.839325 273.870438,1187.839325 409.600037C1187.839325 409.610031,1187.839325 532.470032,1187.839325 532.480026" style="stroke:rgb(80.000305%,80.000305%,80.000305%); stroke-width: 2.000000;stroke-linejoin: round;stroke-miterlimit: 10.000000;fill: none;"></path>
  <path d="M1187.839325 409.600037C1198.804886 284.265930,1272.789551 167.992844,1392.639313 153.600052C1514.306213 138.989044,1617.778336 240.879349,1597.439301 358.400040C1574.789825 489.270584,1424.073212 528.898300,1290.239319 563.200027C1103.295242 611.113937,928.736938 698.393097,778.239349 819.200012" style="stroke:rgb(80.000305%,80.000305%,80.000305%); stroke-width: 2.000000;stroke-linejoin: round;stroke-miterlimit: 10.000000;fill: none;"></path>
  <path d="M778.239349 819.200012C897.486694 732.656479,1245.315308 616.713150,1392.639313 614.400024C1494.934235 612.793900,1591.429886 672.067093,1597.439301 768.000015C1602.755676 852.869614,1530.840637 921.805725,1443.839310 921.600006C1357.202621 921.395157,1285.734589 852.751907,1290.239319 768.000015C1293.655487 703.728394,1341.993896 654.748596,1392.639313 614.400024C1577.560272 467.075790,1791.453018 554.307159,1761.283035 691.200027C1751.036224 737.693726,1707.202423 768.000031,1658.883041 768.000031C1730.523407 768.000031,1800.663635 803.367996,1812.483032 870.400024C1842.529266 1040.802826,1607.591644 1064.959366,1392.639313 1064.959366" style="stroke:rgb(80.000305%,80.000305%,80.000305%); stroke-width: 2.000000;stroke-linejoin: round;stroke-miterlimit: 10.000000;fill: none;"></path>
  <path d="M1392.639313 1064.959366C1458.914246 1040.836990,1530.697464 1052.739151,1600.001022 1064.959366C1669.304565 1077.179581,1741.087784 1089.081741,1807.362717 1064.959366" style="stroke:rgb(80.000305%,80.000305%,80.000305%); stroke-width: 2.000000;stroke-linejoin: round;stroke-miterlimit: 10.000000;fill: none;"></path>
</svg>
