<?xml version="1.0"?>

<svg version="1.1" xmlns="http://www.w3.org/2000/svg" xmlns:xlink="http://www.w3.org/1999/xlink" width="1613.751343" height="1024.000000" viewBox="0 0 1613.751343 1024.000000">

  <g transform="translate(793.875717 206.944794)" style="fill: rgb(0.000000%,0.000000%,0.000000%);">
    <text font-size="9.962646">vc</text>
  </g>
  <g transform="translate(1499.748138 822.659271)" style="fill: rgb(0.000000%,0.000000%,0.000000%);">
    <text font-size="9.962646">bottom</text>
  </g>
  <g transform="translate(1504.992386 821.690674)" style="fill: rgb(0.000000%,0.000000%,0.000000%);">
    <text font-size="9.962646">right</text>
  </g>
  <path d="M81.918732 512.000031C216.994492 430.733124,387.449692 488.133331,396.279663 614.400024C402.002869 696.240891,359.877747 773.120331,284.499146 773.120331C165.265427 773.120331,88.898834 644.432755,81.918732 512.000031C74.440826 370.122330,134.159851 231.275269,265.235916 204.800049C429.240036 171.673889,580.957291 326.654266,593.918701 512.000031C593.918701 512.016693,593.918701 716.783356,593.918701 716.800018" style="stroke:rgb(80.000305%,80.000305%,80.000305%); stroke-width: 2.000000;stroke-linejoin: round;stroke-miterlimit: 10.000000;fill: none;"></path>
  <path d="M593.918701 512.000031C593.918701 358.192932,662.150970 204.800049,798.718689 204.800049C941.932785 204.800049,1082.107468 275.573120,1105.918671 409.600037C1124.542191 514.426895,1053.778580 614.400024,952.318680 614.400024C850.858780 614.400024,780.095169 514.426880,798.718689 409.600037C822.529892 275.573105,962.704575 204.800049,1105.918671 204.800049C1257.813293 204.800049,1363.732788 351.856552,1351.678650 512.000031C1341.889664 642.050354,1260.235046 753.753860,1146.878662 819.200012" style="stroke:rgb(80.000305%,80.000305%,80.000305%); stroke-width: 2.000000;stroke-linejoin: round;stroke-miterlimit: 10.000000;fill: none;"></path>
  <path d="M839.678680 819.200012C1048.785538 698.472458,1306.415527 939.927567,1515.522385 819.200012C1613.394073 762.693924,1563.691727 628.291107,1515.522385 512.000031C1474.029709 411.827866,1461.659973 298.092743,1515.522385 204.800049" style="stroke:rgb(80.000305%,80.000305%,80.000305%); stroke-width: 2.000000;stroke-linejoin: round;stroke-miterlimit: 10.000000;fill: none;"></path>
</svg>
