<?xml version="1.0"?>

<svg version="1.1" xmlns="http://www.w3.org/2000/svg" xmlns:xlink="http://www.w3.org/1999/xlink" width="1513.241211" height="1024.000000" viewBox="0 0 1513.241211 1024.000000">

  <g transform="translate(1049.875702 514.144775)" style="fill: rgb(0.000000%,0.000000%,0.000000%);">
    <text font-size="9.962646">vc</text>
  </g>
  <g transform="translate(1353.423370 875.347412)" style="fill: rgb(0.000000%,0.000000%,0.000000%);">
    <text font-size="9.962646">bottom</text>
  </g>
  <g transform="translate(1358.667618 874.378815)" style="fill: rgb(0.000000%,0.000000%,0.000000%);">
    <text font-size="9.962646">right</text>
  </g>
  <path d="M448.342148 819.200012C362.480774 737.519516,291.192947 637.046249,286.718719 512.000031C281.176300 357.100143,391.786880 204.799896,534.695267 204.800049C677.603439 204.800201,745.402328 357.100266,696.318695 512.000031C650.269623 657.323212,680.355377 809.431366,806.742126 819.200012C941.377319 829.606186,1032.322266 671.349884,1054.718674 512.000031" style="stroke:rgb(80.000305%,80.000305%,80.000305%); stroke-width: 2.000000;stroke-linejoin: round;stroke-miterlimit: 10.000000;fill: none;"></path>
  <path d="M1054.718674 307.200043C1054.718674 307.216705,1054.718674 511.983368,1054.718674 512.000031C1054.718674 655.280746,1125.454605 795.561188,1259.518661 819.200012C1398.551071 843.714874,1494.379837 682.487640,1464.318649 512.000031C1442.008087 385.468918,1367.735626 274.060242,1259.518661 204.800049" style="stroke:rgb(80.000305%,80.000305%,80.000305%); stroke-width: 2.000000;stroke-linejoin: round;stroke-miterlimit: 10.000000;fill: none;"></path>
  <path d="M1464.318649 512.000031C1524.050186 850.758621,1190.555328 1119.231949,806.742126 1116.159363C476.132858 1113.512726,166.426849 927.241150,81.918732 614.400024C44.603638 476.263016,61.593002 328.686600,133.118729 204.800049" style="stroke:rgb(80.000305%,80.000305%,80.000305%); stroke-width: 2.000000;stroke-linejoin: round;stroke-miterlimit: 10.000000;fill: none;"></path>
</svg>
