<?xml version="1.0" encoding="UTF-8" standalone="no"?>
<svg
   version="1.1"
   width="1403.878021"
   height="1024.000000"
   viewBox="0 0 1403.878021 1024.000000"
   id="svg428"
   sodipodi:docname="ഢ.svg"
   inkscape:version="1.2.2 (b0a8486541, 2022-12-01)"
   xmlns:inkscape="http://www.inkscape.org/namespaces/inkscape"
   xmlns:sodipodi="http://sodipodi.sourceforge.net/DTD/sodipodi-0.dtd"
   xmlns="http://www.w3.org/2000/svg"
   xmlns:svg="http://www.w3.org/2000/svg">
  <defs
     id="defs432" />
  <sodipodi:namedview
     id="namedview430"
     pagecolor="#ffffff"
     bordercolor="#666666"
     borderopacity="1.0"
     inkscape:showpageshadow="2"
     inkscape:pageopacity="0.0"
     inkscape:pagecheckerboard="0"
     inkscape:deskcolor="#d1d1d1"
     showgrid="false"
     inkscape:zoom="0.921875"
     inkscape:cx="577.62712"
     inkscape:cy="617.76271"
     inkscape:window-width="1920"
     inkscape:window-height="1012"
     inkscape:window-x="0"
     inkscape:window-y="0"
     inkscape:window-maximized="1"
     inkscape:current-layer="svg428" />
  <g
     transform="translate(845.075714 514.144775)"
     style="fill: rgb(0.000000%,0.000000%,0.000000%);"
     id="g414">
    <text
       font-size="9.962646"
       id="text412">vc</text>
  </g>
  <g
     transform="translate(1179.012131 803.940567)"
     style="fill: rgb(0.000000%,0.000000%,0.000000%);"
     id="g418">
    <text
       font-size="9.962646"
       id="text416">bottom</text>
  </g>
  <g
     transform="translate(1184.256378 802.971970)"
     style="fill: rgb(0.000000%,0.000000%,0.000000%);"
     id="g422">
    <text
       font-size="9.962646"
       id="text420">right</text>
  </g>
  <path
     d="M 243.54216,819.20001 C 157.68079,737.51952 86.39296,637.04625 81.918732,512.00003 76.376312,357.10014 186.98689,204.7999 329.89528,204.80005 c 142.90817,1.5e-4 210.70706,152.30022 161.62343,307.19998 -46.04908,145.32318 -15.96332,297.43134 110.42343,307.19998 131.48258,10.16251 221.29706,-140.53116 246.29081,-296.00995 0.59928,-3.72797 1.1613,-212.25869 1.68574,-215.99002"
     style="fill:none;stroke:#cccccc;stroke-width:2;stroke-linejoin:round;stroke-miterlimit:10"
     id="path424"
     sodipodi:nodetypes="csssssc" />
  <path
     d="M849.918686 307.200043C849.918686 307.216705,849.918686 511.983368,849.918686 512.000031C849.918686 655.280746,920.654617 795.561188,1054.718674 819.200012C1221.864304 848.671921,1361.918655 695.280411,1361.918655 512.000031C1361.918655 358.192932,1293.686386 204.800049,1157.118668 204.800049C1054.473251 204.800049,982.034622 305.212708,1003.518677 409.600037C1036.521957 569.957214,1235.054230 628.642548,1349.937485 512.000031"
     style="stroke:rgb(80.000305%,80.000305%,80.000305%); stroke-width: 2.000000;stroke-linejoin: round;stroke-miterlimit: 10.000000;fill: none;"
     id="path426" />
</svg>
