<?xml version="1.0" encoding="UTF-8" standalone="no"?>
<svg
   xmlns:dc="http://purl.org/dc/elements/1.1/"
   xmlns:cc="http://creativecommons.org/ns#"
   xmlns:rdf="http://www.w3.org/1999/02/22-rdf-syntax-ns#"
   xmlns:svg="http://www.w3.org/2000/svg"
   xmlns="http://www.w3.org/2000/svg"
   xmlns:sodipodi="http://sodipodi.sourceforge.net/DTD/sodipodi-0.dtd"
   xmlns:inkscape="http://www.inkscape.org/namespaces/inkscape"
   version="1.1"
   width="640.90533"
   height="264.63681"
   id="svg2992"
   inkscape:version="1.0.1 (3bc2e813f5, 2020-09-07)"
   sodipodi:docname="ണ.svg">
  <sodipodi:namedview
     pagecolor="#ffffff"
     bordercolor="#666666"
     borderopacity="1"
     objecttolerance="10"
     gridtolerance="10"
     guidetolerance="10"
     inkscape:pageopacity="0"
     inkscape:pageshadow="2"
     inkscape:window-width="1920"
     inkscape:window-height="1015"
     id="namedview7"
     showgrid="true"
     inkscape:zoom="0.088388348"
     inkscape:cx="-1364.6204"
     inkscape:cy="1169.3584"
     inkscape:window-x="1920"
     inkscape:window-y="0"
     inkscape:window-maximized="1"
     inkscape:current-layer="layer1"
     showguides="true"
     inkscape:guide-bbox="true"
     inkscape:document-rotation="0">
    <inkscape:grid
       type="xygrid"
       id="grid2984"
       originx="-1053.601"
       originy="-766.57021" />
    <sodipodi:guide
       orientation="0,1"
       position="-3053.601,631.20699"
       id="guide2984" />
    <sodipodi:guide
       orientation="0,1"
       position="-3693.601,-368.79298"
       id="guide2986"
       inkscape:label=""
       inkscape:color="rgb(0,0,255)" />
  </sodipodi:namedview>
  <defs
     id="defs5498">
    <inkscape:path-effect
       effect="spiro"
       id="path-effect4143"
       is_visible="true"
       lpeversion="0" />
    <inkscape:path-effect
       effect="spiro"
       id="path-effect4372-5-9-5"
       is_visible="true"
       lpeversion="0" />
    <inkscape:path-effect
       effect="spiro"
       id="path-effect4372-5-9-5-9"
       is_visible="true"
       lpeversion="0" />
    <inkscape:path-effect
       effect="spiro"
       id="path-effect4143-4"
       is_visible="true"
       lpeversion="0" />
    <inkscape:path-effect
       effect="spiro"
       id="path-effect4372-5-9-5-9-8"
       is_visible="true"
       lpeversion="0" />
    <inkscape:path-effect
       effect="spiro"
       id="path-effect4372-5-9-5-9-0"
       is_visible="true"
       lpeversion="0" />
    <inkscape:path-effect
       effect="spiro"
       id="path-effect4372-5-9-5-9-4"
       is_visible="true"
       lpeversion="0" />
    <inkscape:path-effect
       effect="spiro"
       id="path-effect4372-5-9-5-9-2"
       is_visible="true"
       lpeversion="0" />
    <inkscape:path-effect
       effect="spiro"
       id="path-effect4372-5-9-5-9-9"
       is_visible="true"
       lpeversion="0" />
    <inkscape:path-effect
       effect="spiro"
       id="path-effect4372-5-9-5-9-9-8"
       is_visible="true"
       lpeversion="0" />
    <inkscape:path-effect
       effect="spiro"
       id="path-effect4372-5-9-5-9-1"
       is_visible="true"
       lpeversion="0" />
    <inkscape:path-effect
       effect="spiro"
       id="path-effect4372-5-9-5-9-90"
       is_visible="true"
       lpeversion="0" />
    <inkscape:path-effect
       effect="spiro"
       id="path-effect4372-5-9-5-9-90-9"
       is_visible="true"
       lpeversion="0" />
    <inkscape:path-effect
       effect="spiro"
       id="path-effect4372-5-9-5-9-17"
       is_visible="true"
       lpeversion="0" />
    <inkscape:path-effect
       effect="spiro"
       id="path-effect4372-5-9-5-9-17-9"
       is_visible="true"
       lpeversion="0" />
    <inkscape:path-effect
       effect="spiro"
       id="path-effect4372-5-9-5-9-90-2"
       is_visible="true"
       lpeversion="0" />
    <inkscape:path-effect
       effect="spiro"
       id="path-effect4372-5-9-5-9-90-2-0"
       is_visible="true"
       lpeversion="0" />
    <inkscape:path-effect
       effect="spiro"
       id="path-effect4372-5-9-5-9-3"
       is_visible="true"
       lpeversion="0" />
    <inkscape:path-effect
       effect="spiro"
       id="path-effect4372-5-9-5-9-06"
       is_visible="true"
       lpeversion="0" />
  </defs>
  <metadata
     id="metadata5594">
    <rdf:RDF>
      <cc:Work
         rdf:about="">
        <dc:format>image/svg+xml</dc:format>
        <dc:type
           rdf:resource="http://purl.org/dc/dcmitype/StillImage" />
        <dc:title />
      </cc:Work>
    </rdf:RDF>
  </metadata>
  <g
     transform="translate(-1053.601,233.42979)"
     id="layer1">
    <path
       style="fill:none;fill-rule:evenodd;stroke:#000000;stroke-width:35;stroke-linecap:round;stroke-linejoin:round;stroke-miterlimit:4;stroke-dasharray:none;stroke-opacity:1"
       d="m 1126.1629,7.9608798 c -12.8724,-5.8752509 -23.5706,-16.3835368 -29.6755,-29.1486828 -6.1048,-12.765146 -7.5695,-27.689292 -4.0628,-41.397732 3.5066,-13.70844 11.9578,-26.096084 23.4424,-34.361787 11.4846,-8.265708 25.9146,-12.346098 40.0271,-11.318518 13.4217,0.97729 26.469,6.55442 36.4372,15.59506 9.9681,9.040637 16.7911,21.489463 19.0299,34.75916 2.2389,13.269697 -0.1243,27.27436 -6.6104,39.065368 -6.4861,11.7910076 -17.0551,21.2884261 -29.4773,26.4640968 -13.2081,5.5031162 -28.286,6.0731292 -42.0811,2.2742753 -13.7951,-3.7988537 -26.2861,-11.8467553 -36,-22.3528461 -9.7139,-10.50609 -16.6951,-23.407035 -20.8969,-37.084841 -4.2017,-13.677806 -5.6702,-28.121712 -5.0623,-42.417426 1.3434,-31.590707 13.2091,-62.962387 34.6008,-86.246997 21.3917,-23.2846 52.4351,-37.93023 84.0536,-37.71746 16.2217,0.10916 32.4345,4.06359 46.7628,11.66986 14.3284,7.60626 26.6748,18.85364 35.7472,32.30162 9.0724,13.44799 14.8158,28.98056 17.8035,44.92517 2.9877,15.94461 3.2431,32.258337 3.3452,48.480128 l 0.5821,92.452782 -0.6873,-92.134572 c -0.1148,-15.382843 -0.1768,-30.817188 1.7393,-46.080658 1.9162,-15.26347 5.8448,-30.38847 12.8824,-44.06753 7.0377,-13.67907 17.2481,-25.85759 30.1042,-34.30534 12.8562,-8.44775 28.3729,-13.03015 43.7241,-12.03757 14.4491,0.93426 28.4125,6.76585 39.7912,15.71991 11.3787,8.95406 20.2075,20.93071 26.3123,34.06015 12.2094,26.25888 13.1396,56.15859 13.3711,85.11625 l 0.7494,93.756185 -0.4851,-94.671907 c -0.086,-16.824902 0.026,-33.777168 3.3835,-50.263898 3.3575,-16.48674 9.9935,-32.42519 20.2994,-45.72457 10.3059,-13.29939 24.1765,-23.80354 39.7692,-30.12436 15.5927,-6.32082 32.7718,-8.48287 49.5149,-6.82374 29.8113,2.95409 58.2084,18.25558 77.071,41.52882 18.8625,23.27324 27.9516,54.22356 24.6681,84.000359 -3.2834,29.776797 -18.8979,58.003067 -42.3783,76.607166 -23.4803,18.6040994 -54.5292,27.350486 -84.2679,23.738025"
       id="path4370-9-3-9-2"
       inkscape:path-effect="#path-effect4372-5-9-5-9"
       inkscape:original-d="m 1126.1629,7.9608798 c -3.2868,-96.4608198 -10.2226,-117.9204998 29.7312,-116.2267198 39.1292,1.65881 53.9997,97.57313 19.3794,115.8836848 -42.4357,22.4440752 -102.9895,-51.5868798 -104.0403,-99.5808378 -1.252,-57.185797 61.5529,-127.311677 118.6544,-123.964457 57.2675,3.35696 101.8048,104.80262 103.6587,137.376778 l 0.5821,92.452782 -0.6873,-92.134572 c -4.6656,-112.132858 34.2475,-137.645278 88.45,-136.491098 52.1772,1.11105 79.1957,113.96712 79.4746,134.89631 l 0.7494,93.756185 -0.4851,-94.671907 c 2.0297,-169.539198 59.5686,-155.961078 112.967,-132.936568 69.5573,29.99195 -24.9071,225.87437 -24.9071,225.87437"
       inkscape:connector-curvature="0"
       sodipodi:nodetypes="caaaacccasccac" />
  </g>
</svg>
