<?xml version="1.0" encoding="UTF-8" standalone="no"?>
<svg
   xmlns:dc="http://purl.org/dc/elements/1.1/"
   xmlns:cc="http://creativecommons.org/ns#"
   xmlns:rdf="http://www.w3.org/1999/02/22-rdf-syntax-ns#"
   xmlns:svg="http://www.w3.org/2000/svg"
   xmlns="http://www.w3.org/2000/svg"
   xmlns:sodipodi="http://sodipodi.sourceforge.net/DTD/sodipodi-0.dtd"
   xmlns:inkscape="http://www.inkscape.org/namespaces/inkscape"
   version="1.1"
   width="640.90527"
   height="458.14209"
   id="svg2992"
   inkscape:version="1.0.1 (3bc2e813f5, 2020-09-07)"
   sodipodi:docname="ണ്ണ.svg">
  <sodipodi:namedview
     pagecolor="#ffffff"
     bordercolor="#666666"
     borderopacity="1"
     objecttolerance="10"
     gridtolerance="10"
     guidetolerance="10"
     inkscape:pageopacity="0"
     inkscape:pageshadow="2"
     inkscape:window-width="1920"
     inkscape:window-height="1015"
     id="namedview7"
     showgrid="true"
     inkscape:zoom="0.47092377"
     inkscape:cx="320.45256"
     inkscape:cy="229.07103"
     inkscape:window-x="1920"
     inkscape:window-y="0"
     inkscape:window-maximized="1"
     inkscape:current-layer="layer1"
     showguides="true"
     inkscape:guide-bbox="true"
     inkscape:document-rotation="0">
    <inkscape:grid
       type="xygrid"
       id="grid2984"
       originx="-1053.601"
       originy="-1056.8281" />
    <sodipodi:guide
       orientation="0,1"
       position="-3053.601,1114.9702"
       id="guide2984" />
    <sodipodi:guide
       orientation="0,1"
       position="-3693.601,114.97022"
       id="guide2986"
       inkscape:label=""
       inkscape:color="rgb(0,0,255)" />
  </sodipodi:namedview>
  <defs
     id="defs5498">
    <inkscape:path-effect
       effect="spiro"
       id="path-effect4143"
       is_visible="true"
       lpeversion="0" />
    <inkscape:path-effect
       effect="spiro"
       id="path-effect4372-5-9-5"
       is_visible="true"
       lpeversion="0" />
    <inkscape:path-effect
       effect="spiro"
       id="path-effect4372-5-9-5-9"
       is_visible="true"
       lpeversion="0" />
    <inkscape:path-effect
       effect="spiro"
       id="path-effect4143-4"
       is_visible="true"
       lpeversion="0" />
    <inkscape:path-effect
       effect="spiro"
       id="path-effect4372-5-9-5-9-8"
       is_visible="true"
       lpeversion="0" />
    <inkscape:path-effect
       effect="spiro"
       id="path-effect4372-5-9-5-9-0"
       is_visible="true"
       lpeversion="0" />
    <inkscape:path-effect
       effect="spiro"
       id="path-effect4372-5-9-5-9-4"
       is_visible="true"
       lpeversion="0" />
    <inkscape:path-effect
       effect="spiro"
       id="path-effect4372-5-9-5-9-2"
       is_visible="true"
       lpeversion="0" />
    <inkscape:path-effect
       effect="spiro"
       id="path-effect4372-5-9-5-9-9"
       is_visible="true"
       lpeversion="0" />
    <inkscape:path-effect
       effect="spiro"
       id="path-effect4372-5-9-5-9-9-8"
       is_visible="true"
       lpeversion="0" />
    <inkscape:path-effect
       effect="spiro"
       id="path-effect4372-5-9-5-9-1"
       is_visible="true"
       lpeversion="0" />
    <inkscape:path-effect
       effect="spiro"
       id="path-effect4372-5-9-5-9-90"
       is_visible="true"
       lpeversion="0" />
    <inkscape:path-effect
       effect="spiro"
       id="path-effect4372-5-9-5-9-90-9"
       is_visible="true"
       lpeversion="0" />
    <inkscape:path-effect
       effect="spiro"
       id="path-effect4372-5-9-5-9-17"
       is_visible="true"
       lpeversion="0" />
    <inkscape:path-effect
       effect="spiro"
       id="path-effect4372-5-9-5-9-17-9"
       is_visible="true"
       lpeversion="0" />
    <inkscape:path-effect
       effect="spiro"
       id="path-effect4372-5-9-5-9-90-2"
       is_visible="true"
       lpeversion="0" />
    <inkscape:path-effect
       effect="spiro"
       id="path-effect4372-5-9-5-9-90-2-0"
       is_visible="true"
       lpeversion="0" />
    <inkscape:path-effect
       effect="spiro"
       id="path-effect4372-5-9-5-9-3"
       is_visible="true"
       lpeversion="0" />
    <inkscape:path-effect
       effect="spiro"
       id="path-effect4372-5-9-5-9-06"
       is_visible="true"
       lpeversion="0" />
  </defs>
  <metadata
     id="metadata5594">
    <rdf:RDF>
      <cc:Work
         rdf:about="">
        <dc:format>image/svg+xml</dc:format>
        <dc:type
           rdf:resource="http://purl.org/dc/dcmitype/StillImage" />
        <dc:title />
      </cc:Work>
    </rdf:RDF>
  </metadata>
  <g
     transform="translate(-1053.601,-56.828131)"
     id="layer1">
    <path
       style="fill:none;fill-rule:evenodd;stroke:#000000;stroke-width:35;stroke-linecap:round;stroke-linejoin:round;stroke-miterlimit:4;stroke-dasharray:none;stroke-opacity:1"
       d="m 1126.1629,298.21881 c -12.8724,-5.87525 -23.5706,-16.38354 -29.6755,-29.14868 -6.1048,-12.76515 -7.5695,-27.6893 -4.0628,-41.39774 3.5066,-13.70844 11.9578,-26.09609 23.4424,-34.36179 11.4846,-8.26571 25.9146,-12.3461 40.0271,-11.31852 13.4217,0.97729 26.469,6.55442 36.4372,15.59506 9.9681,9.04064 16.7911,21.48947 19.0299,34.75916 2.2389,13.2697 -0.1243,27.27436 -6.6104,39.06537 -6.4861,11.79101 -17.0551,21.28843 -29.4773,26.4641 -13.2081,5.50312 -28.286,6.07313 -42.0811,2.27427 -13.7951,-3.79885 -26.2861,-11.84675 -36,-22.35284 -9.7139,-10.50609 -16.6951,-23.40704 -20.8969,-37.08484 -4.2017,-13.67781 -5.6702,-28.12172 -5.0623,-42.41743 1.3434,-31.59071 13.2091,-62.96238 34.6008,-86.24699 21.3917,-23.284608 52.4351,-37.930237 84.0536,-37.717464 16.2217,0.109162 32.4345,4.063589 46.7628,11.669855 14.3284,7.606266 26.6748,18.853649 35.7472,32.301629 9.0724,13.44798 14.8158,28.98056 17.8035,44.92517 2.9877,15.94461 3.2431,32.25833 3.3452,48.48012 l 0.5821,92.45278 -0.6873,-92.13457 c -0.1148,-15.38284 -0.1768,-30.81719 1.7393,-46.08066 1.9162,-15.26346 5.8448,-30.38847 12.8824,-44.06753 7.0377,-13.67906 17.2481,-25.857587 30.1042,-34.305335 12.8562,-8.447748 28.3729,-13.030153 43.7241,-12.037569 14.4491,0.934256 28.4125,6.765853 39.7912,15.719909 11.3787,8.954055 20.2075,20.930705 26.3123,34.060145 12.2094,26.25888 13.1396,56.15859 13.3711,85.11625 l 0.7494,93.75619 -0.4851,-94.67191 c -0.086,-16.8249 0.026,-33.77717 3.3835,-50.2639 3.3575,-16.48673 9.9935,-32.42519 20.2994,-45.72457 10.3059,-13.29938 24.1765,-23.803535 39.7692,-30.124353 15.5927,-6.320818 32.7718,-8.482871 49.5149,-6.823741 29.8113,2.954096 58.2084,18.255584 77.071,41.528824 18.8625,23.27323 27.9516,54.22356 24.6681,84.00035 -3.2834,29.7768 -18.8979,58.00307 -42.3783,76.60716 -23.4803,18.6041 -54.5292,27.35049 -84.2679,23.73803"
       id="path4370-9-3-9-2"
       inkscape:path-effect="#path-effect4372-5-9-5-9"
       inkscape:original-d="m 1126.1629,298.21881 c -3.2868,-96.46083 -10.2226,-117.9205 29.7312,-116.22673 39.1292,1.65881 53.9997,97.57313 19.3794,115.88369 -42.4357,22.44408 -102.9895,-51.58688 -104.0403,-99.58084 -1.252,-57.1858 61.5529,-127.311679 118.6544,-123.964454 57.2675,3.356955 101.8048,104.802624 103.6587,137.376774 l 0.5821,92.45278 -0.6873,-92.13457 c -4.6656,-112.132854 34.2475,-137.645274 88.45,-136.491094 52.1772,1.111055 79.1957,113.967114 79.4746,134.896304 l 0.7494,93.75619 -0.4851,-94.67191 c 2.0297,-169.539199 59.5686,-155.961074 112.967,-132.936564 69.5573,29.991944 -24.9071,225.874364 -24.9071,225.874364"
       inkscape:connector-curvature="0"
       sodipodi:nodetypes="caaaacccasccac" />
    <path
       style="fill:none;fill-rule:evenodd;stroke:#000000;stroke-width:30;stroke-linecap:round;stroke-linejoin:round;stroke-miterlimit:4;stroke-dasharray:none;stroke-opacity:1"
       d="m 1259.0657,477.48246 c -3.4894,-7.33862 -4.9445,-15.63195 -4.1617,-23.72013 0.7827,-8.08819 3.8012,-15.94857 8.6332,-22.48183 4.8319,-6.53326 11.4639,-11.7211 18.9683,-14.83797 7.5045,-3.11688 15.8604,-4.15405 23.8991,-2.96648 9.1581,1.35294 17.8719,5.61177 24.5327,12.041 6.6608,6.42923 11.2299,15.00196 12.8063,24.12426 1.5764,9.12231 0.1439,18.74636 -4.0635,26.99254 -4.2074,8.24617 -11.1726,15.06324 -19.5279,19.04954 -9.3453,4.45864 -20.2678,5.31407 -30.325,2.851 -10.0572,-2.46306 -19.2239,-8.1533 -26.2779,-15.73322 -7.054,-7.57993 -12.0263,-16.99669 -14.8134,-26.96898 -2.787,-9.9723 -3.4255,-20.48851 -2.3894,-30.79098 2.1329,-21.20965 11.5746,-41.72086 26.7652,-56.67556 15.1907,-14.95469 36.0948,-24.12325 57.4076,-24.52497 11.0873,-0.20898 22.2567,1.9253 32.3203,6.58308 10.0636,4.65778 18.9413,11.85352 25.5598,20.75107 6.6185,8.89755 10.9132,19.40564 13.151,30.26673 2.2378,10.86109 2.4341,22.02529 2.5039,33.11429 l 0.413,65.58556 -0.4876,-65.35982 c -0.076,-10.20234 -0.1001,-20.44411 1.2839,-30.55243 1.3841,-10.10831 4.1953,-20.09173 9.0542,-29.06304 4.8589,-8.97131 11.7841,-16.88385 20.3268,-22.46203 8.5427,-5.57819 18.6863,-8.76434 28.8888,-8.71877 10.076,0.045 20.0671,3.23937 28.4976,8.75792 8.4305,5.51856 15.2857,13.30665 20.1421,22.13521 4.8564,8.82857 7.7315,18.65399 9.2256,28.61871 1.4942,9.96473 1.6254,20.07728 1.7059,30.15309 l 0.5316,66.51019 -0.3441,-67.1598 c -0.061,-11.92032 0.036,-23.94823 2.6412,-35.58062 2.6049,-11.63239 7.75,-22.7909 15.5966,-31.76463 7.8467,-8.97374 18.295,-15.63123 29.7286,-19.00337 11.4336,-3.37214 23.7381,-3.49516 35.3641,-0.86198 18.7055,4.23662 35.6798,15.69046 46.6094,31.45089 10.9295,15.76043 15.707,35.67256 13.1182,54.67637 -2.5888,19.00381 -12.5182,36.91253 -27.2652,49.17523 -14.7469,12.2627 -34.1664,18.75888 -53.3236,17.83773"
       id="path4370-9-3-9-2-8"
       inkscape:path-effect="#path-effect4372-5-9-5-9-90"
       inkscape:original-d="m 1259.0657,477.48246 c -2.3316,-68.42885 21.5349,-70.19963 47.3389,-64.00641 27.0157,6.48408 38.307,69.21791 13.7476,82.20734 -30.1037,15.92172 -73.7388,-36.5874 -73.8057,-70.64218 -0.077,-38.98509 45.2604,-83.58085 84.1728,-81.20053 38.8528,2.37667 72.2199,67.60722 73.535,90.71517 l 0.413,65.58556 -0.4876,-65.35982 c -3.3098,-79.54651 23.359,-90.68949 59.5537,-90.79627 35.8832,-0.10585 59.3733,74.81787 59.5712,89.66493 l 0.5316,66.51019 -0.3441,-67.1598 c 1.4399,-120.2703 47.1088,-104.66392 83.3305,-87.2106 46.4113,22.36317 -20.8612,153.14022 -20.8612,153.14022"
       inkscape:connector-curvature="0"
       sodipodi:nodetypes="caaaacccasccac" />
  </g>
</svg>
