<?xml version="1.0" encoding="UTF-8" standalone="no"?>
<svg
   xmlns:dc="http://purl.org/dc/elements/1.1/"
   xmlns:cc="http://creativecommons.org/ns#"
   xmlns:rdf="http://www.w3.org/1999/02/22-rdf-syntax-ns#"
   xmlns:svg="http://www.w3.org/2000/svg"
   xmlns="http://www.w3.org/2000/svg"
   xmlns:sodipodi="http://sodipodi.sourceforge.net/DTD/sodipodi-0.dtd"
   xmlns:inkscape="http://www.inkscape.org/namespaces/inkscape"
   version="1.1"
   width="610.13013"
   height="266.29776"
   id="svg2992"
   inkscape:version="1.0.1 (3bc2e813f5, 2020-09-07)"
   sodipodi:docname="ണ്ട.svg">
  <sodipodi:namedview
     pagecolor="#ffffff"
     bordercolor="#666666"
     borderopacity="1"
     objecttolerance="10"
     gridtolerance="10"
     guidetolerance="10"
     inkscape:pageopacity="0"
     inkscape:pageshadow="2"
     inkscape:window-width="1920"
     inkscape:window-height="1015"
     id="namedview7"
     showgrid="true"
     inkscape:zoom="0.125"
     inkscape:cx="1271.6795"
     inkscape:cy="1730.4314"
     inkscape:window-x="1920"
     inkscape:window-y="0"
     inkscape:window-maximized="1"
     inkscape:current-layer="layer1-3"
     showguides="true"
     inkscape:guide-bbox="true"
     inkscape:document-rotation="0">
    <inkscape:grid
       type="xygrid"
       id="grid2984"
       originx="-1069.695"
       originy="-758.926" />
    <sodipodi:guide
       orientation="0,1"
       position="-3069.695,625.2238"
       id="guide2984" />
    <sodipodi:guide
       orientation="0,1"
       position="-2549.695,-374.77624"
       id="guide2986" />
    <sodipodi:guide
       position="4690.305,649.2238"
       orientation="0,1"
       id="guide4158"
       inkscape:label=""
       inkscape:color="rgb(0,0,255)" />
  </sodipodi:namedview>
  <defs
     id="defs5498">
    <inkscape:path-effect
       effect="spiro"
       id="path-effect9597"
       is_visible="true"
       lpeversion="0" />
    <inkscape:path-effect
       is_visible="true"
       id="path-effect4143"
       effect="spiro"
       lpeversion="0" />
    <inkscape:path-effect
       is_visible="true"
       id="path-effect4372-5-9-5"
       effect="spiro"
       lpeversion="0" />
    <inkscape:path-effect
       is_visible="true"
       id="path-effect4372-5-9-5-9"
       effect="spiro"
       lpeversion="0" />
    <inkscape:path-effect
       is_visible="true"
       id="path-effect4143-4"
       effect="spiro"
       lpeversion="0" />
    <inkscape:path-effect
       is_visible="true"
       id="path-effect4372-5-9-5-9-8"
       effect="spiro"
       lpeversion="0" />
    <inkscape:path-effect
       is_visible="true"
       id="path-effect4372-5-9-5-9-3"
       effect="spiro"
       lpeversion="0" />
    <inkscape:path-effect
       is_visible="true"
       id="path-effect4372-5-9-5-9-3-0"
       effect="spiro"
       lpeversion="0" />
    <inkscape:path-effect
       is_visible="true"
       id="path-effect4372-5-9-5-9-3-0-5"
       effect="spiro"
       lpeversion="0" />
    <inkscape:path-effect
       is_visible="true"
       id="path-effect4372-5-9-5-9-3-0-5-8"
       effect="spiro"
       lpeversion="0" />
    <inkscape:path-effect
       is_visible="true"
       id="path-effect4372-5-9-5-9-3-0-5-8-3"
       effect="spiro"
       lpeversion="0" />
    <inkscape:path-effect
       is_visible="true"
       id="path-effect4372-5-9-5-9-3-0-5-8-3-2"
       effect="spiro"
       lpeversion="0" />
    <inkscape:path-effect
       is_visible="true"
       id="path-effect4372-5-9-5-9-3-0-5-8-3-4"
       effect="spiro"
       lpeversion="0" />
    <inkscape:path-effect
       is_visible="true"
       id="path-effect4372-5-9-5-9-3-0-5-8-3-25"
       effect="spiro"
       lpeversion="0" />
    <inkscape:path-effect
       is_visible="true"
       id="path-effect4372-5-9-5-9-3-0-5-8-3-25-1"
       effect="spiro"
       lpeversion="0" />
    <inkscape:path-effect
       is_visible="true"
       id="path-effect4372-5-9-5-9-3-0-5-8-3-22"
       effect="spiro"
       lpeversion="0" />
    <inkscape:path-effect
       is_visible="true"
       id="path-effect4372-5-9-5-9-3-0-5-8-3-25-8"
       effect="spiro"
       lpeversion="0" />
  </defs>
  <metadata
     id="metadata5594">
    <rdf:RDF>
      <cc:Work
         rdf:about="">
        <dc:format>image/svg+xml</dc:format>
        <dc:type
           rdf:resource="http://purl.org/dc/dcmitype/StillImage" />
        <dc:title />
      </cc:Work>
    </rdf:RDF>
  </metadata>
  <g
     transform="translate(-1069.695,241.074)"
     id="layer1">
    <g
       id="layer1-3"
       transform="translate(-603.8458,-207.17804)">
      <path
         sodipodi:nodetypes="caaaaaccsascsaassassaac"
         inkscape:connector-curvature="0"
         inkscape:original-d="m 1706.6505,173.57978 c 0,0 22.9429,-81.345321 56.7339,-84.563397 30.7187,-2.92548 66.0171,34.911767 65.1591,65.757477 -0.814,29.2596 -35.9792,60.85962 -65.1806,58.84357 -36.9061,-2.54797 -71.1988,-47.99084 -71.3766,-84.98435 -0.299,-62.190745 56.4655,-146.330903 118.6139,-144.016443 55.7306,2.075455 96.465,111.698071 96.465,136.698073 l 0.4272,91.31372 -1.1276,-83.5515 c -0.5376,-39.840021 26.713,-144.654813 82.339,-145.157958 55.1863,-0.499165 83.3035,84.956345 84.2798,142.509338 l 0.4747,86.94325 -0.5316,-87.40043 c -0.3042,-50.022872 57.3387,-132.5489981 118.2289,-142.271913 28.7258,-4.58691 72.0279,17.3822209 73.9044,46.411266 1.3768,21.299992 -36.1555,40.547538 -49.3916,40.752125 l -6.3549,0.09822 c -12.628,0.195186 -43.8408,19.523818 -42.1397,38.466342 1.7104,19.04692 31.8472,30.388 48.5852,30.51015 l 9.2012,0.0671 c 11.2611,0.0822 41.523,21.25203 39.9822,40.0536 -1.5809,19.28889 -28.274,29.64353 -47.1615,33.86495 -21.3158,4.76415 -64.4314,-11.92222 -64.4314,-11.92222"
         inkscape:path-effect="#path-effect4372-5-9-5-9-3-0-5-8-3"
         id="path4370-9-3-9-2-7-8-9-5-6"
         d="m 1706.6505,173.57978 c -6.8215,-18.56216 -4.2111,-40.32421 6.8067,-56.74657 11.0178,-16.42236 30.1647,-27.089983 49.9272,-27.816827 17.3255,-0.637212 34.7976,6.273337 47.0005,18.588697 12.2029,12.31536 18.9528,29.84978 18.1586,47.16878 -0.7472,16.29344 -8.1451,32.2109 -20.2189,43.1772 -12.0737,10.96629 -28.6913,16.80983 -44.9617,15.66637 -10.0211,-0.70427 -19.8092,-3.96209 -28.4535,-9.0802 -8.6443,-5.11811 -16.1542,-12.06968 -22.2337,-20.06706 -12.1591,-15.99476 -18.4423,-35.8715 -20.6894,-55.83709 -3.9611,-35.194212 4.6449,-72.236582 26.3468,-100.224953 10.851,-13.994186 24.8312,-25.6076617 40.7678,-33.3280749 15.9367,-7.7204131 33.8214,-11.4991511 51.4993,-10.4634151 15.5995,0.913963 30.9779,5.5923768 44.3846,13.6197662 13.4067,8.0273895 24.7635,19.3813788 33.0369,32.6376728 8.2735,13.256295 13.4278,28.317637 16.0971,43.714196 2.6693,15.396559 2.8733,31.100378 2.9464,46.726438 l 0.4272,91.31372 -1.1276,-83.5515 c -0.4206,-31.162865 -0.4191,-63.353737 11.8268,-92.012757 6.1229,-14.32951 15.2939,-27.5161507 27.4743,-37.23530479 12.1805,-9.71915411 27.4553,-15.81662421 43.0379,-15.90989621 15.4455,-0.09245 30.664,5.716179 42.8993,15.14311067 12.2354,9.42693213 21.5658,22.32193333 27.906,36.40646533 12.6803,28.169065 13.3058,60.068691 13.4745,90.959762 l 0.4747,86.94325 -0.5316,-87.40043 c -0.1067,-17.5475 0.033,-35.24069 3.7142,-52.398093 3.6809,-17.157402 10.9179,-33.64852 21.8552,-47.370811 10.9373,-13.722291 25.4113,-24.5206697 41.4902,-31.5487522 16.079,-7.0280828 33.6317,-10.3559948 51.1693,-10.9542568 16.0916,-0.548935 32.6997,1.276588 46.9335,8.8025154 7.117,3.7629638 13.5403,8.9380636 18.3591,15.3870978 4.8188,6.4490338 7.9898,14.1952178 8.6118,22.2216528 0.4725,6.096838 -0.5414,12.318045 -3.0398,17.899489 -2.4984,5.581443 -6.4807,10.480569 -11.3964,14.117912 -4.9158,3.637344 -10.7153,5.986651 -16.7018,7.234644 -5.9864,1.247992 -12.1392,1.405577 -18.2536,1.50008 l -6.3549,0.09822 c -5.553,0.08582 -11.1474,0.23701 -16.5633,1.466125 -5.4159,1.229114 -10.627,3.548938 -14.9118,7.082051 -4.2848,3.533112 -7.59,8.245666 -9.4268,13.486724 -1.8369,5.241058 -2.212,10.963932 -1.2378,16.431442 1.8449,10.3545 8.7322,19.59451 17.9445,24.66942 4.6061,2.53746 9.7123,4.09667 14.9075,4.91182 5.1952,0.81515 10.4745,0.89056 15.7332,0.92891 l 9.2012,0.0671 c 5.6277,0.041 11.3065,0.15802 16.7794,1.46973 5.4729,1.3117 10.7022,3.83462 14.857,7.63079 4.1547,3.79617 7.1714,8.817 8.5881,14.26365 1.4168,5.44664 1.2517,11.26346 -0.2423,16.68943 -2.7221,9.88642 -9.7403,18.26664 -18.3324,23.8638 -8.592,5.59717 -18.6725,8.5885 -28.8291,10.00115 -22.0099,3.06131 -44.9742,-1.18794 -64.4314,-11.92222"
         style="fill:none;fill-rule:evenodd;stroke:#000000;stroke-width:35;stroke-linecap:round;stroke-linejoin:round;stroke-miterlimit:4;stroke-dasharray:none;stroke-opacity:1" />
    </g>
  </g>
</svg>
