<?xml version="1.0"?>

<svg version="1.1" xmlns="http://www.w3.org/2000/svg" xmlns:xlink="http://www.w3.org/1999/xlink" width="1543.904465" height="1024.000000" viewBox="0 0 1543.904465 1024.000000">

  <g transform="translate(1443.424088 822.659271)" style="fill: rgb(0.000000%,0.000000%,0.000000%);">
    <text font-size="9.962646">bottom</text>
  </g>
  <g transform="translate(1448.668335 821.690674)" style="fill: rgb(0.000000%,0.000000%,0.000000%);">
    <text font-size="9.962646">right</text>
  </g>
  <path d="M81.918732 512.000031C216.994492 430.733124,387.449692 488.133331,396.279663 614.400024C402.002869 696.240891,359.877747 773.120331,284.499146 773.120331C165.265427 773.120331,88.898834 644.432755,81.918732 512.000031C74.440826 370.122330,134.159851 231.275269,265.235916 204.800049C429.240036 171.673889,580.957291 326.654266,593.918701 512.000031C593.918701 512.016693,593.918701 716.783356,593.918701 716.800018" style="stroke:rgb(80.000305%,80.000305%,80.000305%); stroke-width: 2.000000;stroke-linejoin: round;stroke-miterlimit: 10.000000;fill: none;"></path>
  <path d="M593.918701 512.000031C593.918701 391.509567,640.797577 268.611740,747.518692 266.240051C843.251266 264.112564,901.118683 365.102814,901.118683 471.040039C901.118683 471.060043,901.118683 716.780014,901.118683 716.800018" style="stroke:rgb(80.000305%,80.000305%,80.000305%); stroke-width: 2.000000;stroke-linejoin: round;stroke-miterlimit: 10.000000;fill: none;"></path>
  <path d="M901.118683 593.920044C901.118683 393.236099,1021.688629 206.572327,1208.318665 204.800049C1331.265076 203.632538,1433.121292 300.251770,1413.118652 413.693787C1376.713776 620.158722,1160.453247 713.813934,977.918686 819.200012" style="stroke:rgb(80.000305%,80.000305%,80.000305%); stroke-width: 2.000000;stroke-linejoin: round;stroke-miterlimit: 10.000000;fill: none;"></path>
  <path d="M977.918686 819.200012C1133.357269 762.624359,1303.759750 875.775665,1459.198334 819.200012C1530.429565 793.273666,1499.956482 697.049637,1459.198334 614.400024C1411.445816 517.567184,1411.445816 404.032883,1459.198334 307.200043" style="stroke:rgb(80.000305%,80.000305%,80.000305%); stroke-width: 2.000000;stroke-linejoin: round;stroke-miterlimit: 10.000000;fill: none;"></path>
</svg>
