<?xml version="1.0"?>

<svg version="1.1" xmlns="http://www.w3.org/2000/svg" xmlns:xlink="http://www.w3.org/1999/xlink" width="1444.125259" height="1024.000000" viewBox="0 0 1444.125259 1024.000000">

  <path d="M81.918732 512.000031C216.994492 430.733124,387.449692 488.133331,396.279663 614.400024C402.002869 696.240891,359.877747 773.120331,284.499146 773.120331C165.265427 773.120331,88.898834 644.432755,81.918732 512.000031C74.440826 370.122330,134.159851 231.275269,265.235916 204.800049C429.240036 171.673889,580.957291 326.654266,593.918701 512.000031C593.918701 512.016693,593.918701 716.783356,593.918701 716.800018" style="stroke:rgb(80.000305%,80.000305%,80.000305%); stroke-width: 2.000000;stroke-linejoin: round;stroke-miterlimit: 10.000000;fill: none;"></path>
  <path d="M593.918701 512.000031C593.918701 391.509567,640.797577 268.611740,747.518692 266.240051C843.251266 264.112564,901.118683 365.102814,901.118683 471.040039C901.118683 471.060043,901.118683 716.780014,901.118683 716.800018" style="stroke:rgb(80.000305%,80.000305%,80.000305%); stroke-width: 2.000000;stroke-linejoin: round;stroke-miterlimit: 10.000000;fill: none;"></path>
  <path d="M901.118683 512.000031C911.137253 346.291733,1040.046509 193.889069,1190.054596 204.800049C1329.087387 214.912720,1391.681488 361.889374,1351.678024 512.000031C1314.250641 652.444077,1202.636261 771.113754,1062.742111 819.200012" style="stroke:rgb(80.000305%,80.000305%,80.000305%); stroke-width: 2.000000;stroke-linejoin: round;stroke-miterlimit: 10.000000;fill: none;"></path>
  <path d="M376.834839 991.235657C484.895859 926.221878,621.260529 972.142227,628.324539 1073.155960C632.903122 1138.628906,599.202896 1200.132690,538.899780 1200.132690C443.512451 1200.132690,382.418945 1097.182236,376.834839 991.235657C370.852493 877.733063,418.627884 766.654984,523.489136 745.474731C654.692932 718.973709,776.067200 842.958481,786.436371 991.235657C786.436371 991.248978,786.436371 1155.062943,786.436371 1155.076263" style="stroke:rgb(80.000305%,80.000305%,80.000305%); stroke-width: 2.000000;stroke-linejoin: round;stroke-miterlimit: 10.000000;fill: none;"></path>
  <path d="M786.436371 991.235657C786.436371 894.842911,823.939621 796.524277,909.316833 794.626923C985.903183 792.924927,1032.197296 873.717438,1032.197296 958.467529C1032.197296 958.483536,1032.197296 1155.060272,1032.197296 1155.076263" style="stroke:rgb(80.000305%,80.000305%,80.000305%); stroke-width: 2.000000;stroke-linejoin: round;stroke-miterlimit: 10.000000;fill: none;"></path>
  <path d="M1032.197296 991.235657C1040.212189 858.668503,1143.339981 736.745911,1263.346909 745.474731C1374.573563 753.564896,1424.649033 871.146667,1392.646149 991.235657C1362.704117 1103.591324,1273.412277 1198.527420,1161.496536 1236.996582" style="stroke:rgb(80.000305%,80.000305%,80.000305%); stroke-width: 2.000000;stroke-linejoin: round;stroke-miterlimit: 10.000000;fill: none;"></path>
</svg>
