<?xml version="1.0"?>

<svg version="1.1" xmlns="http://www.w3.org/2000/svg" xmlns:xlink="http://www.w3.org/1999/xlink" width="1972.611435" height="1024.000000" viewBox="0 0 1972.611435 1024.000000">

  <g transform="translate(1049.875702 821.344757)" style="fill: rgb(0.000000%,0.000000%,0.000000%);">
    <text font-size="9.962646">vc</text>
  </g>
  <g transform="translate(1799.426041 822.659271)" style="fill: rgb(0.000000%,0.000000%,0.000000%);">
    <text font-size="9.962646">bottom</text>
  </g>
  <g transform="translate(1804.670288 821.690674)" style="fill: rgb(0.000000%,0.000000%,0.000000%);">
    <text font-size="9.962646">right</text>
  </g>
  <path d="M81.918732 512.000031C216.994492 430.733124,387.449692 488.133331,396.279663 614.400024C402.002869 696.240891,359.877747 773.120331,284.499146 773.120331C165.265427 773.120331,88.898834 644.432755,81.918732 512.000031C74.440826 370.122330,134.159851 231.275269,265.235916 204.800049C429.240036 171.673889,580.957291 326.654266,593.918701 512.000031C593.918701 512.016693,593.918701 716.783356,593.918701 716.800018" style="stroke:rgb(80.000305%,80.000305%,80.000305%); stroke-width: 2.000000;stroke-linejoin: round;stroke-miterlimit: 10.000000;fill: none;"></path>
  <path d="M593.918701 512.000031C593.918701 391.509567,640.797577 268.611740,747.518692 266.240051C843.251266 264.112564,901.118683 365.102814,901.118683 471.040039C901.118683 471.060043,901.118683 716.780014,901.118683 716.800018" style="stroke:rgb(80.000305%,80.000305%,80.000305%); stroke-width: 2.000000;stroke-linejoin: round;stroke-miterlimit: 10.000000;fill: none;"></path>
  <path d="M901.118683 471.040039C901.118683 355.249969,950.945435 238.889771,1054.718674 235.521927C1173.453400 231.668533,1232.890060 372.646957,1208.318665 512.000031C1183.600449 652.185791,1243.312851 793.656509,1361.918655 788.478134C1477.818420 783.417892,1515.518646 643.851303,1515.518646 512.000031" style="stroke:rgb(80.000305%,80.000305%,80.000305%); stroke-width: 2.000000;stroke-linejoin: round;stroke-miterlimit: 10.000000;fill: none;"></path>
  <path d="M1515.518646 307.200043C1515.518646 307.216705,1515.518646 511.983368,1515.518646 512.000031C1515.518646 655.280746,1586.254578 795.561188,1720.318634 819.200012C1859.351044 843.714874,1955.179810 682.487640,1925.118622 512.000031C1902.808060 385.468918,1828.535599 274.060242,1720.318634 204.800049" style="stroke:rgb(80.000305%,80.000305%,80.000305%); stroke-width: 2.000000;stroke-linejoin: round;stroke-miterlimit: 10.000000;fill: none;"></path>
</svg>
