<?xml version="1.0"?>

<svg version="1.1" xmlns="http://www.w3.org/2000/svg" xmlns:xlink="http://www.w3.org/1999/xlink" width="1661.701447" height="1024.000000" viewBox="0 0 1661.701447 1024.000000">

  <g transform="translate(947.475708 268.384796)" style="fill: rgb(0.000000%,0.000000%,0.000000%);">
    <text font-size="9.962646">vc</text>
  </g>
  <g transform="translate(1477.778763 994.187469)" style="fill: rgb(0.000000%,0.000000%,0.000000%);">
    <text font-size="9.962646">right</text>
  </g>
  <path d="M286.718719 512.000031C421.794479 430.733124,592.249680 488.133331,601.079651 614.400024C606.802856 696.240891,564.677734 773.120331,489.299133 773.120331C370.065414 773.120331,293.698822 644.432755,286.718719 512.000031C279.240814 370.122330,338.959839 231.275269,470.035904 204.800049C634.040024 171.673889,785.757278 326.654266,798.718689 512.000031C798.718689 512.016693,798.718689 716.783356,798.718689 716.800018" style="stroke:rgb(80.000305%,80.000305%,80.000305%); stroke-width: 2.000000;stroke-linejoin: round;stroke-miterlimit: 10.000000;fill: none;"></path>
  <path d="M798.718689 512.000031C798.718689 391.509567,845.597565 268.611740,952.318680 266.240051C1048.051254 264.112564,1105.918671 365.102814,1105.918671 471.040039C1105.918671 471.060043,1105.918671 716.780014,1105.918671 716.800018" style="stroke:rgb(80.000305%,80.000305%,80.000305%); stroke-width: 2.000000;stroke-linejoin: round;stroke-miterlimit: 10.000000;fill: none;"></path>
  <path d="M1105.918671 471.040039C1105.918671 346.016006,1189.854691 236.472717,1310.718658 204.800049C1484.154068 159.350922,1595.035034 320.248596,1515.518646 409.600037C1463.184906 468.406723,1337.263504 425.841003,1310.718658 512.000031C1289.142288 582.032410,1371.574371 634.878143,1464.318649 634.878143C1555.958847 634.878143,1632.654602 704.905319,1617.918640 788.478134" style="stroke:rgb(80.000305%,80.000305%,80.000305%); stroke-width: 2.000000;stroke-linejoin: round;stroke-miterlimit: 10.000000;fill: none;"></path>
  <path d="M1617.918640 788.478134C1579.617340 1005.698334,1339.103455 1095.458115,1105.918671 1116.159363C663.111374 1155.470093,197.032990 1015.715302,81.918732 614.400024C42.411835 476.669708,61.468307 328.902557,133.118729 204.800049" style="stroke:rgb(80.000305%,80.000305%,80.000305%); stroke-width: 2.000000;stroke-linejoin: round;stroke-miterlimit: 10.000000;fill: none;"></path>
</svg>
