<?xml version="1.0"?>

<svg version="1.1" xmlns="http://www.w3.org/2000/svg" xmlns:xlink="http://www.w3.org/1999/xlink" width="943.496033" height="1024.000000" viewBox="0 0 943.496033 1024.000000">

  <path d="M329.895279 819.200012C196.449600 770.757095,96.976929 647.527695,81.918732 512.000031C63.099350 342.620773,178.098816 204.800049,345.942154 204.800049C514.433609 204.800049,669.327255 342.494095,696.318695 512.000031C716.870834 641.067245,648.091156 757.756271,543.331100 757.756271C421.299377 757.756271,352.519699 641.067245,373.071838 512.000031C400.063263 342.494095,554.956924 204.800049,723.448380 204.800049C837.280380 204.800049,945.291702 253.358948,947.616348 358.400040C949.377808 437.993927,881.688812 512.000031,803.148071 512.000031C899.631836 512.000031,978.435440 572.748520,986.359787 665.600021C993.523361 749.537552,938.648422 835.206207,855.175415 870.400009C699.444443 936.059143,538.083282 987.469406,373.071838 1024.000000" style="stroke:rgb(80.000305%,80.000305%,80.000305%); stroke-width: 2.000000;stroke-linejoin: round;stroke-miterlimit: 10.000000;fill: none;"></path>
  <path d="M373.071838 1024.000000C472.250778 987.901413,579.672729 1005.712723,683.383942 1024.000000C787.095139 1042.287277,894.517090 1060.098587,993.696030 1024.000000" style="stroke:rgb(80.000305%,80.000305%,80.000305%); stroke-width: 2.000000;stroke-linejoin: round;stroke-miterlimit: 10.000000;fill: none;"></path>
</svg>
