<?xml version="1.0"?>

<svg version="1.1" xmlns="http://www.w3.org/2000/svg" xmlns:xlink="http://www.w3.org/1999/xlink" width="1606.364883" height="1024.000000" viewBox="0 0 1606.364883 1024.000000">

  <g transform="translate(538.488129 821.344757)" style="fill: rgb(0.000000%,0.000000%,0.000000%);">
    <text font-size="9.962646">vc</text>
  </g>
  <g transform="translate(1511.128754 821.690674)" style="fill: rgb(0.000000%,0.000000%,0.000000%);">
    <text font-size="9.962646">right</text>
  </g>
  <path d="M329.895279 819.200012C196.449600 770.757095,96.976929 647.527695,81.918732 512.000031C63.099350 342.620773,178.098816 204.800049,345.942154 204.800049C514.433609 204.800049,669.327255 342.494095,696.318695 512.000031C716.870834 641.067245,648.091156 757.756271,543.331100 757.756271C421.299377 757.756271,352.519699 641.067245,373.071838 512.000031C400.063263 342.494095,554.956924 204.800049,723.448380 204.800049C881.643570 204.800049,978.773743 348.062378,953.338470 512.000031C942.809738 579.860733,942.809738 648.939316,953.338470 716.800018" style="stroke:rgb(80.000305%,80.000305%,80.000305%); stroke-width: 2.000000;stroke-linejoin: round;stroke-miterlimit: 10.000000;fill: none;"></path>
  <path d="M945.441925 614.400040C945.441925 406.773422,1061.162552 209.339859,1252.641907 204.800049C1374.974869 201.899643,1477.274063 297.124802,1457.441895 409.600037C1423.317719 603.130356,1252.830017 731.704971,1065.304459 799.959473" style="stroke:rgb(80.000305%,80.000305%,80.000305%); stroke-width: 2.000000;stroke-linejoin: round;stroke-miterlimit: 10.000000;fill: none;"></path>
  <path d="M953.338470 819.200012C1136.888519 752.392502,1338.108704 886.007523,1521.658752 819.200012C1592.889984 793.273666,1562.416901 697.049637,1521.658752 614.400024C1473.906235 517.567184,1473.906235 404.032883,1521.658752 307.200043" style="stroke:rgb(80.000305%,80.000305%,80.000305%); stroke-width: 2.000000;stroke-linejoin: round;stroke-miterlimit: 10.000000;fill: none;"></path>
</svg>
