<?xml version="1.0"?>

<svg version="1.1" xmlns="http://www.w3.org/2000/svg" xmlns:xlink="http://www.w3.org/1999/xlink" width="1641.644470" height="1024.000000" viewBox="0 0 1641.644470 1024.000000">

  <g transform="translate(538.488129 821.344757)" style="fill: rgb(0.000000%,0.000000%,0.000000%);">
    <text font-size="9.962646">vc</text>
  </g>
  <g transform="translate(1466.243332 821.690674)" style="fill: rgb(0.000000%,0.000000%,0.000000%);">
    <text font-size="9.962646">right</text>
  </g>
  <path d="M329.895279 819.200012C196.449600 770.757095,96.976929 647.527695,81.918732 512.000031C63.099350 342.620773,178.098816 204.800049,345.942154 204.800049C514.433609 204.800049,669.327255 342.494095,696.318695 512.000031C716.870834 641.067245,648.091156 757.756271,543.331100 757.756271C421.299377 757.756271,352.519699 641.067245,373.071838 512.000031C400.063263 342.494095,554.956924 204.800049,723.448380 204.800049C891.291718 204.800049,1006.291183 342.620773,987.471802 512.000031C972.413605 647.527695,872.940933 770.757095,739.495255 819.200012" style="stroke:rgb(80.000305%,80.000305%,80.000305%); stroke-width: 2.000000;stroke-linejoin: round;stroke-miterlimit: 10.000000;fill: none;"></path>
  <path d="M739.495255 819.200012C978.656601 732.151413,1259.368500 981.138840,1476.773331 819.200012C1569.835831 749.880341,1598.294876 629.037598,1599.651443 512.000031C1601.443130 357.423080,1531.679565 203.856293,1394.851456 204.800049C1258.628540 205.739624,1192.497849 359.101257,1190.051468 512.000031C1188.562073 605.087616,1198.885056 697.988251,1220.773346 788.478134" style="stroke:rgb(80.000305%,80.000305%,80.000305%); stroke-width: 2.000000;stroke-linejoin: round;stroke-miterlimit: 10.000000;fill: none;"></path>
</svg>
