<?xml version="1.0"?>

<svg version="1.1" xmlns="http://www.w3.org/2000/svg" xmlns:xlink="http://www.w3.org/1999/xlink" width="1183.061508" height="1024.000000" viewBox="0 0 1183.061508 1024.000000">

  <g transform="translate(692.088120 759.901016)" style="fill: rgb(0.000000%,0.000000%,0.000000%);">
    <text font-size="9.962646">vc</text>
  </g>
  <g transform="translate(1025.925232 821.690674)" style="fill: rgb(0.000000%,0.000000%,0.000000%);">
    <text font-size="9.962646">right</text>
  </g>
  <path d="M483.495270 819.200012C350.049591 770.757095,250.576920 647.527695,235.518723 512.000031C216.699341 342.620773,331.698807 204.800049,499.542145 204.800049C668.033600 204.800049,822.927246 342.494095,849.918686 512.000031C870.470825 641.067245,801.691147 757.756271,696.931091 757.756271C574.899368 757.756271,506.119690 641.067245,526.671829 512.000031C553.663254 342.494095,708.556915 204.800049,877.048370 204.800049C1038.813080 204.800049,1139.130371 345.898605,1141.071793 512.000031C1142.315857 618.437149,1105.282745 727.182541,1036.455231 819.200012C944.026840 942.770157,799.303238 1014.643753,645.118698 1024.000000C332.916916 1042.945084,56.498383 819.908951,30.718735 512.000031C21.670319 403.926910,48.676910 295.900589,107.518738 204.800049" style="stroke:rgb(80.000305%,80.000305%,80.000305%); stroke-width: 2.000000;stroke-linejoin: round;stroke-miterlimit: 10.000000;fill: none;"></path>
</svg>
