<?xml version="1.0"?>

<svg version="1.1" xmlns="http://www.w3.org/2000/svg" xmlns:xlink="http://www.w3.org/1999/xlink" width="983.351486" height="1024.000000" viewBox="0 0 983.351486 1024.000000">

  <path d="M329.895279 819.200012C196.449600 770.757095,96.976929 647.527695,81.918732 512.000031C63.099350 342.620773,178.098816 204.800049,345.942154 204.800049C514.433609 204.800049,669.327255 342.494095,696.318695 512.000031C716.870834 641.067245,648.091156 757.756271,543.331100 757.756271C421.299377 757.756271,352.519699 641.067245,373.071838 512.000031C400.063263 342.494095,554.956924 204.800049,723.448380 204.800049C890.764481 204.800049,1004.756454 342.747192,987.471802 512.000031C975.129227 632.859680,896.839569 744.476196,790.695251 819.200012C663.125504 909.006973,522.184784 978.123444,373.071838 1024.000000" style="stroke:rgb(80.000305%,80.000305%,80.000305%); stroke-width: 2.000000;stroke-linejoin: round;stroke-miterlimit: 10.000000;fill: none;"></path>
  <path d="M373.071838 1024.000000C478.619888 985.583221,592.940308 1004.538345,703.311661 1024.000000C813.683014 1043.461655,928.003433 1062.416779,1033.551483 1024.000000" style="stroke:rgb(80.000305%,80.000305%,80.000305%); stroke-width: 2.000000;stroke-linejoin: round;stroke-miterlimit: 10.000000;fill: none;"></path>
</svg>
