<?xml version="1.0"?>

<svg version="1.1" xmlns="http://www.w3.org/2000/svg" xmlns:xlink="http://www.w3.org/1999/xlink" width="953.750168" height="1024.000000" viewBox="0 0 953.750168 1024.000000">

  <g transform="translate(486.675735 821.344757)" style="fill: rgb(0.000000%,0.000000%,0.000000%);">
    <text font-size="9.962646">vc</text>
  </g>
  <g transform="translate(758.646744 816.529663)" style="fill: rgb(0.000000%,0.000000%,0.000000%);">
    <text font-size="9.962646">bottom</text>
  </g>
  <g transform="translate(763.890991 815.561066)" style="fill: rgb(0.000000%,0.000000%,0.000000%);">
    <text font-size="9.962646">right</text>
  </g>
  <path d="M286.718719 204.800049C179.905563 275.479660,106.079483 386.218811,81.918732 512.000031C49.190536 682.383545,146.973221 843.840607,286.718719 819.200012C420.782776 795.561188,491.518707 655.280746,491.518707 512.000031C491.518707 511.983368,491.518707 307.216705,491.518707 307.200043" style="stroke:rgb(80.000305%,80.000305%,80.000305%); stroke-width: 2.000000;stroke-linejoin: round;stroke-miterlimit: 10.000000;fill: none;"></path>
  <path d="M491.518707 307.200043C491.518707 307.216705,491.518707 511.983368,491.518707 512.000031C491.518707 655.280746,562.254639 795.561188,696.318695 819.200012C836.064194 843.840607,933.846878 682.383545,901.118683 512.000031C876.957932 386.218811,803.131851 275.479660,696.318695 204.800049" style="stroke:rgb(80.000305%,80.000305%,80.000305%); stroke-width: 2.000000;stroke-linejoin: round;stroke-miterlimit: 10.000000;fill: none;"></path>
  <path d="M901.118683 512.000031C947.923630 777.447372,839.920563 1054.883774,593.918701 1116.159363C474.842773 1145.819489,364.737335 1074.033112,389.118713 983.040634C423.181412 855.916992,610.691269 887.172562,747.518692 1024.000000" style="stroke:rgb(80.000305%,80.000305%,80.000305%); stroke-width: 2.000000;stroke-linejoin: round;stroke-miterlimit: 10.000000;fill: none;"></path>
</svg>
