<?xml version="1.0"?>

<svg version="1.1" xmlns="http://www.w3.org/2000/svg" xmlns:xlink="http://www.w3.org/1999/xlink" width="1059.870224" height="1024.000000" viewBox="0 0 1059.870224 1024.000000">

  <path d="M286.718719 819.200012C164.177643 765.748764,84.127167 645.673050,81.918732 512.000031C79.737274 379.960709,164.965729 259.990860,286.718719 266.243790C434.847397 273.851303,491.518707 447.480347,491.518707 614.400024C491.518707 614.412521,491.518707 767.987518,491.518707 768.000015" style="stroke:rgb(80.000305%,80.000305%,80.000305%); stroke-width: 2.000000;stroke-linejoin: round;stroke-miterlimit: 10.000000;fill: none;"></path>
  <path d="M491.518707 614.400024C523.798920 384.727219,673.989120 169.353958,856.287430 204.800049C983.745331 229.582977,1017.911560 373.300125,1017.910858 512.000031C1017.910858 814.854095,881.688385 1116.159363,612.404633 1116.159363C496.318466 1116.159363,384.364288 1069.774734,407.604645 983.040634C452.296921 816.246918,697.646683 816.376450,864.310867 983.040634" style="stroke:rgb(80.000305%,80.000305%,80.000305%); stroke-width: 2.000000;stroke-linejoin: round;stroke-miterlimit: 10.000000;fill: none;"></path>
</svg>
