<?xml version="1.0"?>

<svg version="1.1" xmlns="http://www.w3.org/2000/svg" xmlns:xlink="http://www.w3.org/1999/xlink" width="1510.775009" height="1024.000000" viewBox="0 0 1510.775009 1024.000000">

  <g transform="translate(640.275726 821.344757)" style="fill: rgb(0.000000%,0.000000%,0.000000%);">
    <text font-size="9.962646">vc</text>
  </g>
  <path d="M286.718719 819.200012C172.675781 753.357483,87.358810 642.690750,81.918732 512.000031C76.423676 379.988800,163.950684 260.389572,286.718719 266.243790C423.098892 272.747116,491.518707 422.812027,491.518707 573.443771C491.518707 573.460434,491.518707 778.227097,491.518707 778.243759" style="stroke:rgb(80.000305%,80.000305%,80.000305%); stroke-width: 2.000000;stroke-linejoin: round;stroke-miterlimit: 10.000000;fill: none;"></path>
  <path d="M491.518707 573.443771C491.518707 468.554047,549.350800 368.643784,645.118698 368.643784C740.886597 368.643784,798.718689 468.554047,798.718689 573.443771C798.718689 573.460434,798.718689 778.227097,798.718689 778.243759" style="stroke:rgb(80.000305%,80.000305%,80.000305%); stroke-width: 2.000000;stroke-linejoin: round;stroke-miterlimit: 10.000000;fill: none;"></path>
  <path d="M804.475037 573.443771C834.014053 363.274445,989.458817 173.128494,1163.487411 204.800049C1292.816864 228.336777,1336.898132 370.008835,1325.110840 512.000031C1311.908310 671.039459,1213.802078 826.680115,1077.134293 819.200012C978.992371 813.828506,926.302597 717.227844,952.318680 614.400024C989.158112 468.793182,1147.679352 374.988480,1288.303024 409.600037C1385.408279 433.500443,1448.870712 514.877029,1464.318649 614.400024C1510.635864 912.797867,1188.778320 1157.274017,976.671799 1024.000000" style="stroke:rgb(80.000305%,80.000305%,80.000305%); stroke-width: 2.000000;stroke-linejoin: round;stroke-miterlimit: 10.000000;fill: none;"></path>
</svg>
