<?xml version="1.0"?>

<svg version="1.1" xmlns="http://www.w3.org/2000/svg" xmlns:xlink="http://www.w3.org/1999/xlink" width="1887.717758" height="1024.000000" viewBox="0 0 1887.717758 1024.000000">

  <g transform="translate(1049.875702 514.144775)" style="fill: rgb(0.000000%,0.000000%,0.000000%);">
    <text font-size="9.962646">vc</text>
  </g>
  <g transform="translate(1607.388641 1072.570343)" style="fill: rgb(0.000000%,0.000000%,0.000000%);">
    <text font-size="9.962646">right</text>
  </g>
  <path d="M491.518707 819.200012C380.462250 752.878098,305.224945 640.022110,286.718719 512.000031C263.868256 353.925293,350.406418 199.733337,491.518707 204.800049C627.979797 209.699753,696.318695 360.605423,696.318695 512.000031C696.318695 512.016693,696.318695 716.783356,696.318695 716.800018" style="stroke:rgb(80.000305%,80.000305%,80.000305%); stroke-width: 2.000000;stroke-linejoin: round;stroke-miterlimit: 10.000000;fill: none;"></path>
  <path d="M696.318695 512.000031C717.975067 357.915573,829.249069 225.425018,935.659409 266.243790C1027.389725 301.431335,1051.015182 408.481689,1054.718674 512.000031C1058.782211 625.582504,1069.110229 749.984177,1169.460022 788.478134C1282.419266 831.809036,1389.399811 680.758911,1413.118652 512.000031" style="stroke:rgb(80.000305%,80.000305%,80.000305%); stroke-width: 2.000000;stroke-linejoin: round;stroke-miterlimit: 10.000000;fill: none;"></path>
  <path d="M1413.118652 307.200043C1413.118652 307.216705,1413.118652 511.983368,1413.118652 512.000031C1413.118652 655.280746,1483.854584 795.561188,1617.918640 819.200012C1757.664139 843.840607,1855.446823 682.383545,1822.718628 512.000031C1798.557877 386.218811,1724.731796 275.479660,1617.918640 204.800049" style="stroke:rgb(80.000305%,80.000305%,80.000305%); stroke-width: 2.000000;stroke-linejoin: round;stroke-miterlimit: 10.000000;fill: none;"></path>
  <path d="M1822.718628 512.000031C1884.029678 740.815826,1825.369858 994.572754,1617.918640 1070.079681C1254.071671 1202.510651,855.482941 1179.513489,491.518707 1047.039841C261.993713 963.498627,100.346893 755.263062,81.918732 512.000031C73.881668 405.905869,95.134460 299.641937,143.358734 204.800049" style="stroke:rgb(80.000305%,80.000305%,80.000305%); stroke-width: 2.000000;stroke-linejoin: round;stroke-miterlimit: 10.000000;fill: none;"></path>
</svg>
