<?xml version="1.0"?>

<svg version="1.1" xmlns="http://www.w3.org/2000/svg" xmlns:xlink="http://www.w3.org/1999/xlink" width="1023.491348" height="1024.000000" viewBox="0 0 1023.491348 1024.000000">

  <g transform="translate(486.675735 718.944763)" style="fill: rgb(0.000000%,0.000000%,0.000000%);">
    <text font-size="9.962646">vc</text>
  </g>
  <g transform="translate(911.220963 793.693146)" style="fill: rgb(0.000000%,0.000000%,0.000000%);">
    <text font-size="9.962646">bottom</text>
  </g>
  <g transform="translate(916.465210 792.724548)" style="fill: rgb(0.000000%,0.000000%,0.000000%);">
    <text font-size="9.962646">right</text>
  </g>
  <path d="M286.718719 819.200012C162.566833 767.690399,81.715332 646.413162,81.918732 512.000031C82.113708 383.152267,165.439468 266.289673,286.718719 266.243790C408.052917 266.197891,491.518707 383.093216,491.518707 512.000031C491.518707 512.016693,491.518707 716.783356,491.518707 716.800018" style="stroke:rgb(80.000305%,80.000305%,80.000305%); stroke-width: 2.000000;stroke-linejoin: round;stroke-miterlimit: 10.000000;fill: none;"></path>
  <path d="M491.518707 512.000031C511.547409 369.496414,602.279343 230.473083,739.495255 204.800049C849.554657 184.207993,941.850983 256.593948,922.706970 358.400040C904.721878 454.043045,799.096100 512.000031,696.318695 512.000031C862.776718 512.000031,1015.987823 582.405670,974.734299 716.800018C937.974030 836.556427,781.269608 868.349411,653.142136 819.200012" style="stroke:rgb(80.000305%,80.000305%,80.000305%); stroke-width: 2.000000;stroke-linejoin: round;stroke-miterlimit: 10.000000;fill: none;"></path>
</svg>
