<?xml version="1.0"?>

<svg version="1.1" xmlns="http://www.w3.org/2000/svg" xmlns:xlink="http://www.w3.org/1999/xlink" width="1203.573898" height="1024.000000" viewBox="0 0 1203.573898 1024.000000">

  <path d="M286.718719 819.200012C164.177643 765.748764,84.127167 645.673050,81.918732 512.000031C79.737274 379.960709,164.965729 259.990860,286.718719 266.243790C434.847397 273.851303,491.518707 447.480347,491.518707 614.400024C491.518707 614.412521,491.518707 767.987518,491.518707 768.000015" style="stroke:rgb(80.000305%,80.000305%,80.000305%); stroke-width: 2.000000;stroke-linejoin: round;stroke-miterlimit: 10.000000;fill: none;"></path>
  <path d="M491.518707 614.400024C523.386276 387.663177,672.301086 173.994049,856.287430 204.800049C986.328705 226.573685,1030.272598 369.246262,1017.910858 512.000031C1004.149643 670.915176,906.525131 826.563980,769.934311 819.200012C671.768051 813.907608,619.067719 717.262833,645.118698 614.400024C681.992981 468.801102,840.492081 375.001251,981.103043 409.600037C1078.211426 433.494553,1141.672623 514.875061,1157.118668 614.400024C1203.429550 912.799622,881.575226 1157.272049,669.471817 1024.000000" style="stroke:rgb(80.000305%,80.000305%,80.000305%); stroke-width: 2.000000;stroke-linejoin: round;stroke-miterlimit: 10.000000;fill: none;"></path>
</svg>
