<?xml version="1.0"?>

<svg version="1.1" xmlns="http://www.w3.org/2000/svg" xmlns:xlink="http://www.w3.org/1999/xlink" width="1666.220184" height="1024.000000" viewBox="0 0 1666.220184 1024.000000">

  <g transform="translate(845.075714 514.144775)" style="fill: rgb(0.000000%,0.000000%,0.000000%);">
    <text font-size="9.962646">vc</text>
  </g>
  <g transform="translate(1509.395569 799.372421)" style="fill: rgb(0.000000%,0.000000%,0.000000%);">
    <text font-size="9.962646">bottom</text>
  </g>
  <g transform="translate(1514.639816 798.403824)" style="fill: rgb(0.000000%,0.000000%,0.000000%);">
    <text font-size="9.962646">right</text>
  </g>
  <path d="M286.718719 819.200012C175.662262 752.878098,100.424957 640.022110,81.918732 512.000031C59.068268 353.925293,145.606430 199.733337,286.718719 204.800049C423.179810 209.699753,491.518707 360.605423,491.518707 512.000031C491.518707 512.016693,491.518707 716.783356,491.518707 716.800018" style="stroke:rgb(80.000305%,80.000305%,80.000305%); stroke-width: 2.000000;stroke-linejoin: round;stroke-miterlimit: 10.000000;fill: none;"></path>
  <path d="M491.518707 512.000031C513.175079 357.915573,624.449081 225.425018,730.859421 266.243790C822.589737 301.431335,846.215195 408.481689,849.918686 512.000031C853.982224 625.582504,864.310242 749.984177,964.660034 788.478134C1077.619278 831.809036,1184.599823 680.758911,1208.318665 512.000031" style="stroke:rgb(80.000305%,80.000305%,80.000305%); stroke-width: 2.000000;stroke-linejoin: round;stroke-miterlimit: 10.000000;fill: none;"></path>
  <path d="M1208.318665 307.200043C1208.318665 307.216705,1208.318665 511.983368,1208.318665 512.000031C1208.318665 655.280746,1279.054596 795.561188,1413.118652 819.200012C1552.864151 843.840607,1650.646835 682.383545,1617.918640 512.000031C1593.757889 386.218811,1519.931808 275.479660,1413.118652 204.800049" style="stroke:rgb(80.000305%,80.000305%,80.000305%); stroke-width: 2.000000;stroke-linejoin: round;stroke-miterlimit: 10.000000;fill: none;"></path>
</svg>
