<?xml version="1.0"?>

<svg version="1.1" xmlns="http://www.w3.org/2000/svg" xmlns:xlink="http://www.w3.org/1999/xlink" width="1193.959000" height="1024.000000" viewBox="0 0 1193.959000 1024.000000">

  <g transform="translate(486.675735 616.544769)" style="fill: rgb(0.000000%,0.000000%,0.000000%);">
    <text font-size="9.962646">vc</text>
  </g>
  <g transform="translate(1182.305069 617.859283)" style="fill: rgb(0.000000%,0.000000%,0.000000%);">
    <text font-size="9.962646">bottom</text>
  </g>
  <g transform="translate(1187.549316 616.890686)" style="fill: rgb(0.000000%,0.000000%,0.000000%);">
    <text font-size="9.962646">right</text>
  </g>
  <path d="M286.718719 819.200012C164.177643 765.748764,84.127167 645.673050,81.918732 512.000031C79.737274 379.960709,164.965729 259.990860,286.718719 266.243790C434.847397 273.851303,491.518707 447.480347,491.518707 614.400024C491.518707 614.412521,491.518707 767.987518,491.518707 768.000015" style="stroke:rgb(80.000305%,80.000305%,80.000305%); stroke-width: 2.000000;stroke-linejoin: round;stroke-miterlimit: 10.000000;fill: none;"></path>
  <path d="M491.518707 614.400024C491.518707 442.953766,585.317963 279.479843,747.519348 250.879730C883.572525 226.890182,968.431259 388.076279,952.319336 558.079712C942.377930 662.975632,895.351181 768.510101,798.719345 773.120331C688.767380 778.366043,625.077530 653.635895,645.119354 527.360352C670.846909 365.261154,791.538834 233.149628,952.319336 204.800049C1141.632355 171.419479,1280.649643 394.966217,1198.079315 614.400024C1113.330154 839.624237,872.907593 941.090927,645.119354 1024.000000" style="stroke:rgb(80.000305%,80.000305%,80.000305%); stroke-width: 2.000000;stroke-linejoin: round;stroke-miterlimit: 10.000000;fill: none;"></path>
  <path d="M645.119354 1024.000000C740.848969 989.156876,844.534927 1006.348724,944.639175 1024.000000C1044.743423 1041.651276,1148.429382 1058.843124,1244.158997 1024.000000" style="stroke:rgb(80.000305%,80.000305%,80.000305%); stroke-width: 2.000000;stroke-linejoin: round;stroke-miterlimit: 10.000000;fill: none;"></path>
</svg>
