<?xml version="1.0"?>

<svg version="1.1" xmlns="http://www.w3.org/2000/svg" xmlns:xlink="http://www.w3.org/1999/xlink" width="1376.513840" height="1024.000000" viewBox="0 0 1376.513840 1024.000000">

  <g transform="translate(640.275726 821.344757)" style="fill: rgb(0.000000%,0.000000%,0.000000%);">
    <text font-size="9.962646">vc</text>
  </g>
  <path d="M286.718719 819.200012C164.177643 765.748764,84.127167 645.673050,81.918732 512.000031C79.737274 379.960709,164.965729 259.990860,286.718719 266.243790C434.847397 273.851303,491.518707 447.480347,491.518707 614.400024C491.518707 614.412521,491.518707 767.987518,491.518707 768.000015" style="stroke:rgb(80.000305%,80.000305%,80.000305%); stroke-width: 2.000000;stroke-linejoin: round;stroke-miterlimit: 10.000000;fill: none;"></path>
  <path d="M491.518707 614.400024C491.518707 509.510300,549.350800 409.600037,645.118698 409.600037C740.886597 409.600037,798.718689 509.510300,798.718689 614.400024C798.718689 614.412521,798.718689 767.987518,798.718689 768.000015" style="stroke:rgb(80.000305%,80.000305%,80.000305%); stroke-width: 2.000000;stroke-linejoin: round;stroke-miterlimit: 10.000000;fill: none;"></path>
  <path d="M798.718689 614.400024C829.913315 392.451126,976.947739 181.945129,1163.487411 204.800049C1299.550140 221.470505,1359.306015 364.890396,1325.110840 512.000031C1294.794479 642.422745,1201.519913 757.973785,1077.134293 819.200012" style="stroke:rgb(80.000305%,80.000305%,80.000305%); stroke-width: 2.000000;stroke-linejoin: round;stroke-miterlimit: 10.000000;fill: none;"></path>
</svg>
