<?xml version="1.0" encoding="UTF-8" standalone="no"?>
<svg
   xmlns:dc="http://purl.org/dc/elements/1.1/"
   xmlns:cc="http://creativecommons.org/ns#"
   xmlns:rdf="http://www.w3.org/1999/02/22-rdf-syntax-ns#"
   xmlns:svg="http://www.w3.org/2000/svg"
   xmlns="http://www.w3.org/2000/svg"
   xmlns:sodipodi="http://sodipodi.sourceforge.net/DTD/sodipodi-0.dtd"
   xmlns:inkscape="http://www.inkscape.org/namespaces/inkscape"
   version="1.1"
   width="646.95795"
   height="262.86514"
   id="svg2992"
   inkscape:version="1.0.1 (3bc2e813f5, 2020-09-07)"
   sodipodi:docname="ന്ന.svg">
  <sodipodi:namedview
     pagecolor="#ffffff"
     bordercolor="#666666"
     borderopacity="1"
     objecttolerance="10"
     gridtolerance="10"
     guidetolerance="10"
     inkscape:pageopacity="0"
     inkscape:pageshadow="2"
     inkscape:window-width="1920"
     inkscape:window-height="1015"
     id="namedview7"
     showgrid="true"
     inkscape:zoom="0.0834386"
     inkscape:cx="652.67557"
     inkscape:cy="-1257.684"
     inkscape:window-x="1920"
     inkscape:window-y="0"
     inkscape:window-maximized="1"
     inkscape:current-layer="layer1"
     showguides="true"
     inkscape:guide-bbox="true"
     inkscape:document-rotation="0">
    <inkscape:grid
       type="xygrid"
       id="grid2984"
       originx="1756.721"
       originy="-792.51404" />
    <sodipodi:guide
       orientation="0,1"
       position="-243.27899,655.37918"
       id="guide2984" />
    <sodipodi:guide
       orientation="0,1"
       position="-883.279,-384.62082"
       id="guide2986" />
  </sodipodi:namedview>
  <defs
     id="defs5498">
    <inkscape:path-effect
       effect="spiro"
       id="path-effect4143"
       is_visible="true"
       lpeversion="0" />
    <inkscape:path-effect
       effect="spiro"
       id="path-effect4372-5-9-5"
       is_visible="true"
       lpeversion="0" />
    <inkscape:path-effect
       effect="spiro"
       id="path-effect4372-5-9-5-9"
       is_visible="true"
       lpeversion="0" />
    <inkscape:path-effect
       effect="spiro"
       id="path-effect4143-4"
       is_visible="true"
       lpeversion="0" />
    <inkscape:path-effect
       effect="spiro"
       id="path-effect4372-5-9-5-9-8"
       is_visible="true"
       lpeversion="0" />
    <inkscape:path-effect
       effect="spiro"
       id="path-effect4372-5-9-5-9-9"
       is_visible="true"
       lpeversion="0" />
    <inkscape:path-effect
       effect="spiro"
       id="path-effect4372-5-9-5-9-0"
       is_visible="true"
       lpeversion="0" />
    <inkscape:path-effect
       effect="spiro"
       id="path-effect4372-5-9-5-9-0-7"
       is_visible="true"
       lpeversion="0" />
    <inkscape:path-effect
       effect="spiro"
       id="path-effect4372-5-9-5-9-0-7-0"
       is_visible="true"
       lpeversion="0" />
    <inkscape:path-effect
       effect="spiro"
       id="path-effect4372-5-9-5-9-0-7-0-8"
       is_visible="true"
       lpeversion="0" />
    <inkscape:path-effect
       effect="spiro"
       id="path-effect4372-5-9-5-9-0-7-08"
       is_visible="true"
       lpeversion="0" />
    <inkscape:path-effect
       effect="spiro"
       id="path-effect4372-5-9-5-9-0-7-0-2"
       is_visible="true"
       lpeversion="0" />
  </defs>
  <metadata
     id="metadata5594">
    <rdf:RDF>
      <cc:Work
         rdf:about="">
        <dc:format>image/svg+xml</dc:format>
        <dc:type
           rdf:resource="http://purl.org/dc/dcmitype/StillImage" />
        <dc:title />
      </cc:Work>
    </rdf:RDF>
  </metadata>
  <g
     transform="translate(1756.721,207.48596)"
     id="layer1">
    <path
       style="fill:none;fill-rule:evenodd;stroke:#000000;stroke-width:35;stroke-linecap:round;stroke-linejoin:round;stroke-miterlimit:4;stroke-dasharray:none;stroke-opacity:1"
       d="m -1623.6146,36.20766 c -29.4355,0.890648 -59.0555,-10.37376 -80.4607,-30.5989267 -21.4052,-20.2251663 -34.3294,-49.1596073 -35.1075,-78.5982553 -0.7782,-29.438648 10.5993,-59.015458 30.9062,-80.343208 20.3068,-21.32774 49.2904,-34.14123 78.7318,-34.80688 30.1894,-0.68256 60.4612,11.44525 81.8285,32.78308 21.3674,21.33782 33.5371,51.59278 32.8963,81.783112 l 0.379,111.695078 -0.4205,-111.551503 c -0.052,-13.719515 0.03,-27.521137 2.4703,-41.022047 2.4399,-13.50092 7.2579,-26.66053 14.926,-38.03722 7.668,-11.37669 18.1346,-20.86839 30.2678,-27.27244 12.1333,-6.40405 25.8468,-9.7152 39.566,-9.82666 13.7912,-0.11204 27.6307,3.01041 39.9088,9.29185 12.2782,6.28145 22.9052,15.71815 30.7006,27.09539 7.7953,11.37724 12.7046,24.5894 15.1907,38.15509 2.4862,13.56569 2.5708,27.441985 2.5183,41.233512 l -0.421,110.639878 0.4846,-110.532453 c 0.057,-13.077386 0.2553,-26.230521 2.6793,-39.081417 2.4241,-12.85089 7.0811,-25.34742 14.3062,-36.24783 7.2251,-10.90041 16.9502,-20.11636 28.1696,-26.83543 11.2194,-6.71908 23.8552,-10.95589 36.7883,-12.89367 31.4393,-4.71056 64.7162,4.5813 89.1671,24.898 24.451,20.31671 39.6799,51.32914 40.8067,83.099378 1.1268,31.770238 -11.8669,63.78362 -34.8171,85.781474 -22.9502,21.997854 -55.4852,33.623824 -87.1792,31.152373"
       id="path4370-9-3-9-2-8-3-9"
       inkscape:path-effect="#path-effect4372-5-9-5-9-0-7-0"
       inkscape:original-d="m -1623.6146,36.20766 c 0,0 -74.6498,-194.7848 -5.9302,-224.34727 49.6455,-21.357 114.7248,114.566192 114.7248,114.566192 l 0.379,111.695078 -0.4205,-111.551503 c -1.5409,-61.515337 38.8089,-115.975467 87.2301,-116.158367 48.5385,-0.18333 88.3029,94.017545 88.3184,115.775842 l -0.421,110.639878 0.4846,-110.532453 c 1.6436,-102.180917 36.8473,-128.599337 81.9434,-115.058347 71.8548,21.57582 7.9775,224.931225 7.9775,224.931225"
       inkscape:connector-curvature="0"
       sodipodi:nodetypes="casccasccac" />
  </g>
</svg>
