<?xml version="1.0"?>

<svg version="1.1" xmlns="http://www.w3.org/2000/svg" xmlns:xlink="http://www.w3.org/1999/xlink" width="1084.592712" height="1024.000000" viewBox="0 0 1084.592712 1024.000000">

  <g transform="translate(635.155731 616.544769)" style="fill: rgb(0.000000%,0.000000%,0.000000%);">
    <text font-size="9.962646">vc</text>
  </g>
  <g transform="translate(952.658112 974.854446)" style="fill: rgb(0.000000%,0.000000%,0.000000%);">
    <text font-size="9.962646">right</text>
  </g>
  <path d="M363.518723 819.200012C308.451401 764.132690,271.753754 690.145126,286.718719 614.400024C304.949234 522.126297,390.923340 460.800034,486.398712 460.800034C578.038910 460.800034,654.734665 530.827209,639.998703 614.400024C624.335342 703.232407,567.292053 779.290115,486.398712 819.200012" style="stroke:rgb(80.000305%,80.000305%,80.000305%); stroke-width: 2.000000;stroke-linejoin: round;stroke-miterlimit: 10.000000;fill: none;"></path>
  <path d="M486.398712 819.200012C638.476166 731.398300,825.843109 907.001724,977.920563 819.200012C1075.792252 762.693924,1026.089905 628.291107,977.920563 512.000031C936.427887 411.827866,924.058151 298.092743,977.920563 204.800049" style="stroke:rgb(80.000305%,80.000305%,80.000305%); stroke-width: 2.000000;stroke-linejoin: round;stroke-miterlimit: 10.000000;fill: none;"></path>
  <path d="M1032.685944 688.019379C1077.849472 862.670380,964.585144 1038.754623,786.929703 1070.079681C687.519470 1087.608170,585.808945 1087.608170,486.398712 1070.079681C265.129791 1031.064484,106.139267 839.990967,81.918732 614.400024C66.081696 466.893387,110.379745 319.230942,204.796844 204.800049" style="stroke:rgb(80.000305%,80.000305%,80.000305%); stroke-width: 2.000000;stroke-linejoin: round;stroke-miterlimit: 10.000000;fill: none;"></path>
</svg>
