<?xml version="1.0"?>

<svg version="1.1" xmlns="http://www.w3.org/2000/svg" xmlns:xlink="http://www.w3.org/1999/xlink" width="1060.867355" height="1024.000000" viewBox="0 0 1060.867355 1024.000000">

  <g transform="translate(604.433853 821.344757)" style="fill: rgb(0.000000%,0.000000%,0.000000%);">
    <text font-size="9.962646">vc</text>
  </g>
  <g transform="translate(880.224442 822.659271)" style="fill: rgb(0.000000%,0.000000%,0.000000%);">
    <text font-size="9.962646">bottom</text>
  </g>
  <g transform="translate(885.468689 821.690674)" style="fill: rgb(0.000000%,0.000000%,0.000000%);">
    <text font-size="9.962646">right</text>
  </g>
  <path d="M158.718735 819.200012C103.651413 764.132690,66.953766 690.145126,81.918732 614.400024C100.149246 522.126297,186.123352 460.800034,281.598724 460.800034C373.238922 460.800034,449.934677 530.827209,435.198715 614.400024C419.535355 703.232407,362.492065 779.290115,281.598724 819.200012" style="stroke:rgb(80.000305%,80.000305%,80.000305%); stroke-width: 2.000000;stroke-linejoin: round;stroke-miterlimit: 10.000000;fill: none;"></path>
  <path d="M281.598724 819.200012C471.676498 709.458862,707.838608 936.004852,895.998688 819.200012C995.565353 757.391647,1019.910690 631.302124,1018.876801 512.000031C1017.536530 357.344879,950.445221 202.666443,814.076813 204.800049C678.781906 206.916855,620.012756 361.563828,609.276825 512.000031C601.976486 614.295288,600.337082 717.020538,609.276825 819.200012" style="stroke:rgb(80.000305%,80.000305%,80.000305%); stroke-width: 2.000000;stroke-linejoin: round;stroke-miterlimit: 10.000000;fill: none;"></path>
</svg>
