<?xml version="1.0"?>

<svg version="1.1" xmlns="http://www.w3.org/2000/svg" xmlns:xlink="http://www.w3.org/1999/xlink" width="1265.667343" height="1024.000000" viewBox="0 0 1265.667343 1024.000000">

  <g transform="translate(199.953873 206.944794)" style="fill: rgb(0.000000%,0.000000%,0.000000%);">
    <text font-size="9.962646">vc</text>
  </g>
  <g transform="translate(1076.546204 1018.540466)" style="fill: rgb(0.000000%,0.000000%,0.000000%);">
    <text font-size="9.962646">right</text>
  </g>
  <path d="M363.518723 819.200012C308.451401 764.132690,271.753754 690.145126,286.718719 614.400024C304.949234 522.126297,390.923340 460.800034,486.398712 460.800034C578.038910 460.800034,654.734665 530.827209,639.998703 614.400024C624.335342 703.232407,567.292053 779.290115,486.398712 819.200012" style="stroke:rgb(80.000305%,80.000305%,80.000305%); stroke-width: 2.000000;stroke-linejoin: round;stroke-miterlimit: 10.000000;fill: none;"></path>
  <path d="M486.398712 819.200012C676.476486 709.458862,912.638596 936.004852,1100.798676 819.200012C1200.365341 757.391647,1224.710678 631.302124,1223.676788 512.000031C1222.336517 357.344879,1155.245209 202.666443,1018.876801 204.800049C883.581894 206.916855,824.812744 361.563828,814.076813 512.000031C806.776474 614.295288,805.137070 717.020538,814.076813 819.200012" style="stroke:rgb(80.000305%,80.000305%,80.000305%); stroke-width: 2.000000;stroke-linejoin: round;stroke-miterlimit: 10.000000;fill: none;"></path>
  <path d="M1223.676788 512.000031C1223.676788 755.099792,1195.624619 1026.572739,977.920547 1064.959366C815.333984 1093.627411,648.985275 1093.627411,486.398712 1064.959366C266.617294 1026.206451,107.285706 838.075165,81.918732 614.400024C65.180725 466.811401,109.582428 318.803452,204.796844 204.800049" style="stroke:rgb(80.000305%,80.000305%,80.000305%); stroke-width: 2.000000;stroke-linejoin: round;stroke-miterlimit: 10.000000;fill: none;"></path>
</svg>
