<?xml version="1.0"?>

<svg version="1.1" xmlns="http://www.w3.org/2000/svg" xmlns:xlink="http://www.w3.org/1999/xlink" width="1490.218353" height="1024.000000" viewBox="0 0 1490.218353 1024.000000">

  <g transform="translate(793.875717 514.144775)" style="fill: rgb(0.000000%,0.000000%,0.000000%);">
    <text font-size="9.962646">vc</text>
  </g>
  <g transform="translate(1281.485092 1014.297836)" style="fill: rgb(0.000000%,0.000000%,0.000000%);">
    <text font-size="9.962646">right</text>
  </g>
  <path d="M286.718719 512.000031C421.794479 430.733124,592.249680 488.133331,601.079651 614.400024C606.802856 696.240891,564.677734 773.120331,489.299133 773.120331C370.065414 773.120331,293.698822 644.432755,286.718719 512.000031C279.240814 370.122330,338.959839 231.275269,470.035904 204.800049C634.040024 171.673889,785.757278 326.654266,798.718689 512.000031C798.718689 512.016693,798.718689 716.783356,798.718689 716.800018" style="stroke:rgb(80.000305%,80.000305%,80.000305%); stroke-width: 2.000000;stroke-linejoin: round;stroke-miterlimit: 10.000000;fill: none;"></path>
  <path d="M798.718689 512.000031C798.718689 376.611542,883.048203 253.243317,1003.518677 266.243790C1098.097656 276.450211,1154.906891 370.937698,1157.118668 471.043777C1160.106674 606.282089,1078.303284 728.987183,952.318680 778.243759" style="stroke:rgb(80.000305%,80.000305%,80.000305%); stroke-width: 2.000000;stroke-linejoin: round;stroke-miterlimit: 10.000000;fill: none;"></path>
  <path d="M952.318680 778.243759C1091.220734 727.686966,1243.494720 828.800552,1382.396774 778.243759C1480.268463 721.737671,1430.566116 587.334854,1382.396774 471.043777C1340.904099 370.871613,1328.534363 257.136490,1382.396774 163.843796" style="stroke:rgb(80.000305%,80.000305%,80.000305%); stroke-width: 2.000000;stroke-linejoin: round;stroke-miterlimit: 10.000000;fill: none;"></path>
  <path d="M1437.162155 647.063126C1488.496750 838.646317,1356.041824 1029.884277,1157.118668 1064.959366C936.216003 1103.909988,710.201797 1103.909988,489.299133 1064.959366C271.518021 1026.559158,120.002472 835.723877,81.918732 614.400024C57.899353 474.811264,79.441315 331.198288,143.358734 204.800049" style="stroke:rgb(80.000305%,80.000305%,80.000305%); stroke-width: 2.000000;stroke-linejoin: round;stroke-miterlimit: 10.000000;fill: none;"></path>
</svg>
