<?xml version="1.0"?>

<svg version="1.1" xmlns="http://www.w3.org/2000/svg" xmlns:xlink="http://www.w3.org/1999/xlink" width="845.798370" height="1024.000000" viewBox="0 0 845.798370 1024.000000">

  <path d="M320.342163 819.200012C283.206299 724.654907,271.658768 619.151154,286.718719 512.000031C306.747421 369.496414,397.479355 230.473083,534.695267 204.800049C671.014542 179.294769,809.600800 220.855774,798.718689 327.680038C791.805908 395.539444,718.775192 430.080032,645.118698 430.080032C573.870987 430.080032,497.619553 448.579468,491.518707 512.000031C484.985687 579.913269,564.688248 614.400024,645.118698 614.400024C743.178223 614.400024,849.918686 632.573273,849.918686 716.800018C849.918686 931.305801,573.439835 948.774490,366.761795 1024.000000" style="stroke:rgb(80.000305%,80.000305%,80.000305%); stroke-width: 2.000000;stroke-linejoin: round;stroke-miterlimit: 10.000000;fill: none;"></path>
  <path d="M366.761795 1024.000000C464.946075 988.263443,571.290695 1005.896118,673.961777 1024.000000C748.169907 1037.085037,825.033188 1049.829498,895.998367 1024.000000" style="stroke:rgb(80.000305%,80.000305%,80.000305%); stroke-width: 2.000000;stroke-linejoin: round;stroke-miterlimit: 10.000000;fill: none;"></path>
</svg>
