<?xml version="1.0"?>

<svg version="1.1" xmlns="http://www.w3.org/2000/svg" xmlns:xlink="http://www.w3.org/1999/xlink" width="898.023712" height="1024.000000" viewBox="0 0 898.023712 1024.000000">

  <path d="M320.342163 819.200012C283.206299 724.654907,271.658768 619.151154,286.718719 512.000031C306.747421 369.496414,397.479355 230.473083,534.695267 204.800049C671.014542 179.294769,809.600800 220.855774,798.718689 327.680038C791.805908 395.539444,718.775192 430.080032,645.118698 430.080032C573.870987 430.080032,497.619553 448.579468,491.518707 512.000031C484.985687 579.913269,564.688248 614.400024,645.118698 614.400024C737.489288 614.400024,840.736389 624.675903,849.918686 706.556274C859.579910 792.707291,752.574768 834.277084,645.118698 819.200012C591.701462 811.705093,538.287155 800.122025,491.518707 773.120331" style="stroke:rgb(80.000305%,80.000305%,80.000305%); stroke-width: 2.000000;stroke-linejoin: round;stroke-miterlimit: 10.000000;fill: none;"></path>
  <path d="M645.118698 819.200012C730.596252 826.678497,824.470215 843.375732,849.918686 921.600006C883.403824 1024.527679,775.111206 1116.159363,645.118698 1116.159363C359.259872 1116.159363,121.328629 899.226517,81.918732 614.400024C61.906738 469.767654,98.598801 322.999435,184.318726 204.800049" style="stroke:rgb(80.000305%,80.000305%,80.000305%); stroke-width: 2.000000;stroke-linejoin: round;stroke-miterlimit: 10.000000;fill: none;"></path>
</svg>
