<?xml version="1.0"?>

<svg version="1.1" xmlns="http://www.w3.org/2000/svg" xmlns:xlink="http://www.w3.org/1999/xlink" width="891.878052" height="1024.000000" viewBox="0 0 891.878052 1024.000000">

  <g transform="translate(281.875748 514.144775)" style="fill: rgb(0.000000%,0.000000%,0.000000%);">
    <text font-size="9.962646">vc</text>
  </g>
  <g transform="translate(768.435303 954.707169)" style="fill: rgb(0.000000%,0.000000%,0.000000%);">
    <text font-size="9.962646">bottom</text>
  </g>
  <g transform="translate(773.679550 953.738571)" style="fill: rgb(0.000000%,0.000000%,0.000000%);">
    <text font-size="9.962646">right</text>
  </g>
  <path d="M320.342163 819.200012C283.206299 724.654907,271.658768 619.151154,286.718719 512.000031C306.747421 369.496414,397.479355 230.473083,534.695267 204.800049C671.014542 179.294769,809.600800 220.855774,798.718689 327.680038C791.805908 395.539444,718.775192 430.080032,645.118698 430.080032C573.870987 430.080032,497.619553 448.579468,491.518707 512.000031C484.985687 579.913269,564.688248 614.400024,645.118698 614.400024C758.226608 614.400024,849.918686 706.092102,849.918686 819.200012C849.918686 957.995819,691.805191 1024.000000,534.695267 1024.000000C303.138535 1024.000000,111.878372 845.815811,81.918732 614.400024C63.350922 470.977722,112.003113 330.054718,184.318726 204.800049" style="stroke:rgb(80.000305%,80.000305%,80.000305%); stroke-width: 2.000000;stroke-linejoin: round;stroke-miterlimit: 10.000000;fill: none;"></path>
</svg>
