<?xml version="1.0"?>

<svg version="1.1" xmlns="http://www.w3.org/2000/svg" xmlns:xlink="http://www.w3.org/1999/xlink" width="738.596497" height="1024.000000" viewBox="0 0 738.596497 1024.000000">

  <g transform="translate(384.275742 821.344757)" style="fill: rgb(0.000000%,0.000000%,0.000000%);">
    <text font-size="9.962646">vc</text>
  </g>
  <g transform="translate(634.464767 822.659271)" style="fill: rgb(0.000000%,0.000000%,0.000000%);">
    <text font-size="9.962646">bottom</text>
  </g>
  <g transform="translate(639.709015 821.690674)" style="fill: rgb(0.000000%,0.000000%,0.000000%);">
    <text font-size="9.962646">right</text>
  </g>
  <path d="M235.518723 665.600021C126.364136 632.130737,60.083588 521.663162,81.918732 409.600037C108.499420 273.181686,246.122849 192.414963,389.118713 204.800049C509.915115 215.262405,613.003204 301.365082,593.918701 409.600037C559.457581 605.041260,383.531067 730.933060,193.884720 799.959473" style="stroke:rgb(80.000305%,80.000305%,80.000305%); stroke-width: 2.000000;stroke-linejoin: round;stroke-miterlimit: 10.000000;fill: none;"></path>
  <path d="M81.918732 819.200012C265.468781 752.392502,466.688965 886.007523,650.239014 819.200012C721.470245 793.273666,690.997162 697.049637,650.239014 614.400024C602.486496 517.567184,602.486496 404.032883,650.239014 307.200043" style="stroke:rgb(80.000305%,80.000305%,80.000305%); stroke-width: 2.000000;stroke-linejoin: round;stroke-miterlimit: 10.000000;fill: none;"></path>
  <path d="M692.235031 738.071228C724.369659 920.318100,576.381958 1079.736877,385.035049 1116.159363C265.645401 1138.884949,156.314697 1072.312607,180.235062 983.040634C214.297760 855.916992,401.807617 887.172562,538.635040 1024.000000" style="stroke:rgb(80.000305%,80.000305%,80.000305%); stroke-width: 2.000000;stroke-linejoin: round;stroke-miterlimit: 10.000000;fill: none;"></path>
</svg>
