<?xml version="1.0"?>

<svg version="1.1" xmlns="http://www.w3.org/2000/svg" xmlns:xlink="http://www.w3.org/1999/xlink" width="942.924042" height="1024.000000" viewBox="0 0 942.924042 1024.000000">

  <g transform="translate(589.075729 821.344757)" style="fill: rgb(0.000000%,0.000000%,0.000000%);">
    <text font-size="9.962646">vc</text>
  </g>
  <g transform="translate(810.338531 967.041016)" style="fill: rgb(0.000000%,0.000000%,0.000000%);">
    <text font-size="9.962646">bottom</text>
  </g>
  <g transform="translate(815.582779 966.072418)" style="fill: rgb(0.000000%,0.000000%,0.000000%);">
    <text font-size="9.962646">right</text>
  </g>
  <path d="M440.318710 665.600021C331.164124 632.130737,264.883575 521.663162,286.718719 409.600037C313.299408 273.181686,450.922836 192.414963,593.918701 204.800049C714.715103 215.262405,817.803192 301.365082,798.718689 409.600037C764.257568 605.041260,588.331055 730.933060,398.684708 799.959473" style="stroke:rgb(80.000305%,80.000305%,80.000305%); stroke-width: 2.000000;stroke-linejoin: round;stroke-miterlimit: 10.000000;fill: none;"></path>
  <path d="M286.718719 819.200012C470.268768 752.392502,671.488953 886.007523,855.039001 819.200012C926.270233 793.273666,895.797150 697.049637,855.039001 614.400024C807.286484 517.567184,807.286484 404.032883,855.039001 307.200043" style="stroke:rgb(80.000305%,80.000305%,80.000305%); stroke-width: 2.000000;stroke-linejoin: round;stroke-miterlimit: 10.000000;fill: none;"></path>
  <path d="M897.035019 738.071228C927.290787 909.662384,778.692062 1057.171997,593.918701 1070.079681C336.984879 1088.028275,128.691452 877.230484,81.918732 614.400024C57.079605 474.821259,78.660553 330.948212,143.358734 204.800049" style="stroke:rgb(80.000305%,80.000305%,80.000305%); stroke-width: 2.000000;stroke-linejoin: round;stroke-miterlimit: 10.000000;fill: none;"></path>
</svg>
