<?xml version="1.0"?>

<svg version="1.1" xmlns="http://www.w3.org/2000/svg" xmlns:xlink="http://www.w3.org/1999/xlink" width="1437.851532" height="1024.000000" viewBox="0 0 1437.851532 1024.000000">

  <g transform="translate(77.075760 821.344757)" style="fill: rgb(0.000000%,0.000000%,0.000000%);">
    <text font-size="9.962646">vc</text>
  </g>
  <g transform="translate(1222.095398 1023.420303)" style="fill: rgb(0.000000%,0.000000%,0.000000%);">
    <text font-size="9.962646">bottom</text>
  </g>
  <g transform="translate(1227.339645 1022.451706)" style="fill: rgb(0.000000%,0.000000%,0.000000%);">
    <text font-size="9.962646">right</text>
  </g>
  <path d="M491.518707 819.200012C379.369843 754.033051,303.738647 640.586288,286.718719 512.000031C266.165100 356.716629,350.639053 204.800049,491.518707 204.800049C659.972198 204.800049,696.318695 418.280975,696.318695 614.400024C696.318695 614.412521,696.318695 767.987518,696.318695 768.000015" style="stroke:rgb(80.000305%,80.000305%,80.000305%); stroke-width: 2.000000;stroke-linejoin: round;stroke-miterlimit: 10.000000;fill: none;"></path>
  <path d="M696.318695 614.400024C696.318695 460.642624,762.049103 305.712601,901.118683 296.959412C1010.973099 290.045059,1096.321014 386.748932,1105.918671 501.759399C1117.283295 637.943588,1030.492645 761.870575,901.118683 808.959381" style="stroke:rgb(80.000305%,80.000305%,80.000305%); stroke-width: 2.000000;stroke-linejoin: round;stroke-miterlimit: 10.000000;fill: none;"></path>
  <path d="M901.118683 808.959381C1040.020737 758.402588,1192.294724 859.516174,1331.196777 808.959381C1429.068466 752.453293,1379.366119 618.050476,1331.196777 501.759399C1289.704102 401.587234,1277.334366 287.852112,1331.196777 194.559418" style="stroke:rgb(80.000305%,80.000305%,80.000305%); stroke-width: 2.000000;stroke-linejoin: round;stroke-miterlimit: 10.000000;fill: none;"></path>
  <path d="M1385.962158 677.778748C1434.594742 859.277939,1298.760681 1036.076874,1105.918671 1070.079681C902.361557 1105.971848,694.854141 1082.892914,491.518707 1047.039841C245.759445 1003.706390,90.525482 768.357071,81.918732 512.000031C78.367569 406.226669,99.398666 301.071152,143.358734 204.800049" style="stroke:rgb(80.000305%,80.000305%,80.000305%); stroke-width: 2.000000;stroke-linejoin: round;stroke-miterlimit: 10.000000;fill: none;"></path>
</svg>
