<?xml version="1.0"?>

<svg version="1.1" xmlns="http://www.w3.org/2000/svg" xmlns:xlink="http://www.w3.org/1999/xlink" width="1122.910599" height="1024.000000" viewBox="0 0 1122.910599 1024.000000">

  <path d="M266.240601 819.200012C150.233688 761.416016,78.314285 641.551575,81.918732 512.000031C86.707321 339.887802,221.134964 197.963028,389.118713 204.800049C548.968506 211.306015,665.053558 349.892624,696.318695 512.000031C726.884888 670.483429,648.078552 827.997070,511.996826 819.200012C377.593063 810.511429,311.910431 645.725830,389.116837 512.000031C484.195221 347.318970,651.755692 239.817368,838.914505 204.800049C948.973907 184.207993,1041.270233 256.593948,1022.126221 358.400040C1004.141129 454.043045,898.515350 512.000031,795.737946 512.000031C962.195969 512.000031,1115.407074 582.405670,1074.153549 716.800018C1037.393280 836.556427,880.688858 868.349411,752.561386 819.200012" style="stroke:rgb(80.000305%,80.000305%,80.000305%); stroke-width: 2.000000;stroke-linejoin: round;stroke-miterlimit: 10.000000;fill: none;"></path>
</svg>
