<?xml version="1.0"?>

<svg version="1.1" xmlns="http://www.w3.org/2000/svg" xmlns:xlink="http://www.w3.org/1999/xlink" width="927.667648" height="1024.000000" viewBox="0 0 927.667648 1024.000000">

  <g transform="translate(333.075745 821.344757)" style="fill: rgb(0.000000%,0.000000%,0.000000%);">
    <text font-size="9.962646">vc</text>
  </g>
  <path d="M235.518723 512.000031C340.907120 617.855560,521.921310 557.517517,542.718704 409.600037C558.970963 294.008865,458.083923 196.069443,337.918716 204.800049C157.735809 217.891251,63.049072 425.545670,133.118729 614.400024C168.544922 709.882019,241.064743 788.528763,337.918716 819.200012C503.756851 871.716843,678.494690 777.549103,747.518692 614.400024C806.562897 474.839737,776.310043 313.491165,670.718689 204.800049" style="stroke:rgb(80.000305%,80.000305%,80.000305%); stroke-width: 2.000000;stroke-linejoin: round;stroke-miterlimit: 10.000000;fill: none;"></path>
  <path d="M235.518723 1187.843735C178.109406 1130.434418,123.015579 1062.753540,133.118729 983.043747C145.139130 888.207581,238.262054 829.443756,337.918716 829.443756C429.558914 829.443756,506.254669 899.470932,491.518707 983.043747C477.221207 1064.129913,433.457108 1137.070084,368.638718 1187.843735" style="stroke:rgb(80.000305%,80.000305%,80.000305%); stroke-width: 2.000000;stroke-linejoin: round;stroke-miterlimit: 10.000000;fill: none;"></path>
  <path d="M368.638718 1187.843735C511.210770 1105.529953,686.866638 1270.157516,829.438690 1187.843735C927.310379 1131.337646,877.608032 996.934830,829.438690 880.643753C787.946014 780.471588,775.576279 666.736465,829.438690 573.443771" style="stroke:rgb(80.000305%,80.000305%,80.000305%); stroke-width: 2.000000;stroke-linejoin: round;stroke-miterlimit: 10.000000;fill: none;"></path>
</svg>
