<?xml version="1.0" encoding="UTF-8" standalone="no"?>
<svg
   xmlns:dc="http://purl.org/dc/elements/1.1/"
   xmlns:cc="http://creativecommons.org/ns#"
   xmlns:rdf="http://www.w3.org/1999/02/22-rdf-syntax-ns#"
   xmlns:svg="http://www.w3.org/2000/svg"
   xmlns="http://www.w3.org/2000/svg"
   xmlns:sodipodi="http://sodipodi.sourceforge.net/DTD/sodipodi-0.dtd"
   xmlns:inkscape="http://www.inkscape.org/namespaces/inkscape"
   width="269.19254"
   height="333.70398"
   id="svg2992"
   version="1.1"
   inkscape:version="1.0.1 (3bc2e813f5, 2020-09-07)"
   sodipodi:docname="ള.svg">
  <defs
     id="defs5498">
    <inkscape:path-effect
       effect="spiro"
       id="path-effect4142"
       is_visible="true"
       lpeversion="0" />
    <inkscape:path-effect
       effect="spiro"
       id="path-effect4142-8"
       is_visible="true"
       lpeversion="0" />
    <inkscape:path-effect
       effect="spiro"
       id="path-effect4142-8-0"
       is_visible="true"
       lpeversion="0" />
    <inkscape:path-effect
       effect="spiro"
       id="path-effect4142-8-0-2"
       is_visible="true"
       lpeversion="0" />
    <inkscape:path-effect
       effect="spiro"
       id="path-effect4142-8-0-2-0"
       is_visible="true"
       lpeversion="0" />
    <inkscape:path-effect
       effect="spiro"
       id="path-effect4142-8-0-2-0-1"
       is_visible="true"
       lpeversion="0" />
    <inkscape:path-effect
       effect="spiro"
       id="path-effect4142-8-0-2-0-1-6"
       is_visible="true"
       lpeversion="0" />
    <inkscape:path-effect
       effect="spiro"
       id="path-effect4142-8-0-2-0-1-8"
       is_visible="true"
       lpeversion="0" />
    <inkscape:path-effect
       effect="spiro"
       id="path-effect4142-8-0-2-0-1-7"
       is_visible="true"
       lpeversion="0" />
    <inkscape:path-effect
       effect="spiro"
       id="path-effect4142-8-0-2-0-1-7-5"
       is_visible="true"
       lpeversion="0" />
    <inkscape:path-effect
       effect="spiro"
       id="path-effect4142-8-0-2-0-1-7-0"
       is_visible="true"
       lpeversion="0" />
    <inkscape:path-effect
       effect="spiro"
       id="path-effect4142-8-0-2-0-1-4"
       is_visible="true"
       lpeversion="0" />
  </defs>
  <sodipodi:namedview
     inkscape:window-height="1015"
     inkscape:window-width="1920"
     inkscape:pageshadow="2"
     inkscape:pageopacity="0.0"
     borderopacity="1.0"
     bordercolor="#666666"
     pagecolor="#ffffff"
     id="base"
     showgrid="true"
     showguides="true"
     inkscape:guide-bbox="true"
     inkscape:zoom="0.1135"
     inkscape:cx="1219.5229"
     inkscape:cy="-639.41168"
     inkscape:window-x="1920"
     inkscape:window-y="0"
     inkscape:current-layer="layer1"
     inkscape:window-maximized="1"
     inkscape:document-rotation="0">
    <sodipodi:guide
       orientation="horizontal"
       position="1202.9278,-187.16254"
       id="guide5596" />
    <inkscape:grid
       type="xygrid"
       id="grid3769"
       empspacing="3"
       visible="true"
       enabled="true"
       snapvisiblegridlinesonly="true"
       spacingx="4"
       units="px"
       dotted="true"
       spacingy="4"
       originx="1202.9278"
       originy="-927.13348" />
    <sodipodi:guide
       orientation="0,1"
       position="162.92782,812.83745"
       id="guide2985" />
  </sodipodi:namedview>
  <metadata
     id="metadata5594">
    <rdf:RDF>
      <cc:Work
         rdf:about="">
        <dc:format>image/svg+xml</dc:format>
        <dc:type
           rdf:resource="http://purl.org/dc/dcmitype/StillImage" />
        <dc:title />
      </cc:Work>
    </rdf:RDF>
  </metadata>
  <g
     inkscape:label="Layer 1"
     inkscape:groupmode="layer"
     id="layer1"
     transform="translate(1202.9278,120.86652)">
    <path
       style="fill:none;fill-rule:evenodd;stroke:#000000;stroke-width:35;stroke-linecap:round;stroke-linejoin:round;stroke-miterlimit:4;stroke-dasharray:none;stroke-opacity:1"
       d="m -1183.2153,15.929209 c -0.077,-16.20098668 7.9348,-32.241807 20.9339,-41.911343 12.9992,-9.669535 30.6664,-12.730518 46.1609,-7.997713 10.4473,3.191135 19.8377,9.785505 26.3215,18.576947 6.4838,8.7914414 10.0131,19.7378919 9.8059,30.659706 -0.2072,10.921814 -4.1639,21.75035 -11.1084,30.182578 -6.9445,8.432229 -16.8407,14.400883 -27.5546,16.531738 -8.1509,1.621101 -16.7016,1.048039 -24.6291,-1.446029 -7.9275,-2.494068 -15.226,-6.88721 -21.2879,-12.572131 -12.1238,-11.369843 -19.0243,-27.723678 -20.3248,-44.2937946 -1.2122,-15.4450824 2.2334,-31.1375744 9.2124,-44.9691574 6.9791,-13.831583 17.4209,-25.813837 29.7697,-35.169418 24.6977,-18.711161 56.3483,-26.583082 87.3321,-26.878212 21.5294,-0.20507 43.5855,3.2116 62.35274,13.763817 9.38362,5.276109 17.83503,12.311027 24.30723,20.913362 6.4722,8.602335 10.92394,18.794291 12.31589,29.469124 0.98985,7.591148 0.40746,15.433597 -2.12543,22.657845 -2.5329,7.2242474 -7.04694,13.7576333 -12.98692,18.5869141 -5.93998,4.8292807 -13.21991,7.8818257 -20.7508,9.2570069 -7.53091,1.375181 -15.25371,1.093167 -22.89921,0.704713 l -7.3866,-0.375297 7.6679,0.352845 c 7.3569,0.338532 14.7389,0.724439 21.97278,2.106126 7.23387,1.381687 14.31651,3.766165 20.66994,7.490653 6.35342,3.724488 11.94599,8.784114 16.10694,14.86066 4.16094,6.076545 6.87282,13.148403 7.76663,20.4586 1.17515,9.611262 -0.82713,19.541479 -5.37897,28.08771 -4.55185,8.54623 -11.59415,15.676021 -19.84514,20.743411 -8.25099,5.0674 -17.65081,8.08601 -27.21278,9.61097 -9.562,1.52496 -19.2899,1.57984 -28.9727,1.57545 l -95.5703,-0.0433 c -7.1412,-0.003 -14.3273,0.0564 -21.3455,1.37558 -7.0183,1.31919 -13.8561,3.91825 -19.6442,8.10094 -5.7881,4.18269 -10.4639,9.93688 -13.1684,16.54611 -2.7045,6.60924 -3.4144,14.02472 -1.9773,21.01982 1.127,5.48575 3.5561,10.69507 7.0047,15.1076 3.4486,4.41254 7.9048,8.01203 12.8774,10.58839 4.9725,2.57636 10.4376,4.12548 15.9821,4.91468 5.5444,0.7892 11.1652,0.82304 16.7655,0.8211 l 177.22043,-0.0613"
       id="path4140-6-2-9-2-6"
       inkscape:connector-curvature="0"
       sodipodi:nodetypes="caaaaacccassasc"
       inkscape:original-d="m -1183.2153,15.929209 c 0,0 42.3556,-62.751696 67.0948,-49.909056 28.3965,14.741279 26.7912,83.160006 -2.5356,95.950969 -26.964,11.760411 -66.5203,-28.89624 -66.2418,-58.3119546 0.5225,-55.1819394 71.2425,-103.4917244 126.3142,-107.0167874 39.2347,-2.51135 96.19159,24.930108 98.97586,64.146303 1.83996,25.915774 -23.19889,51.363507 -58.76236,51.206479 l -7.3866,-0.375297 7.6679,0.352845 c 11.8799,0.844582 65.96324,18.168014 66.51629,44.916039 0.69693,33.706664 -12.35039,60.048811 -81.40959,60.017541 l -95.5703,-0.0433 c -46.0549,-0.0208 -58.0757,22.70615 -56.1354,47.04245 1.6239,20.36912 14.3692,31.44499 52.6297,31.43177 l 177.22043,-0.0613"
       inkscape:path-effect="#path-effect4142-8-0-2-0-1" />
  </g>
</svg>
