<?xml version="1.0" encoding="UTF-8" standalone="no"?>
<svg
   xmlns:dc="http://purl.org/dc/elements/1.1/"
   xmlns:cc="http://creativecommons.org/ns#"
   xmlns:rdf="http://www.w3.org/1999/02/22-rdf-syntax-ns#"
   xmlns:svg="http://www.w3.org/2000/svg"
   xmlns="http://www.w3.org/2000/svg"
   xmlns:sodipodi="http://sodipodi.sourceforge.net/DTD/sodipodi-0.dtd"
   xmlns:inkscape="http://www.inkscape.org/namespaces/inkscape"
   width="550.94965"
   height="334.08414"
   id="svg2992"
   version="1.1"
   inkscape:version="1.0.1 (3bc2e813f5, 2020-09-07)"
   sodipodi:docname="ള്ള.svg">
  <defs
     id="defs5498">
    <inkscape:path-effect
       effect="spiro"
       id="path-effect863"
       is_visible="true"
       lpeversion="0" />
    <inkscape:path-effect
       effect="spiro"
       id="path-effect4142"
       is_visible="true"
       lpeversion="0" />
    <inkscape:path-effect
       effect="spiro"
       id="path-effect4142-8"
       is_visible="true"
       lpeversion="0" />
    <inkscape:path-effect
       effect="spiro"
       id="path-effect4142-8-0"
       is_visible="true"
       lpeversion="0" />
    <inkscape:path-effect
       effect="spiro"
       id="path-effect4142-8-0-2"
       is_visible="true"
       lpeversion="0" />
    <inkscape:path-effect
       effect="spiro"
       id="path-effect4142-8-0-2-0"
       is_visible="true"
       lpeversion="0" />
    <inkscape:path-effect
       effect="spiro"
       id="path-effect4142-8-0-2-0-1"
       is_visible="true"
       lpeversion="0" />
    <inkscape:path-effect
       effect="spiro"
       id="path-effect4142-8-0-2-0-1-6"
       is_visible="true"
       lpeversion="0" />
    <inkscape:path-effect
       effect="spiro"
       id="path-effect4142-8-0-2-0-1-8"
       is_visible="true"
       lpeversion="0" />
    <inkscape:path-effect
       effect="spiro"
       id="path-effect4142-8-0-2-0-1-7"
       is_visible="true"
       lpeversion="0" />
    <inkscape:path-effect
       effect="spiro"
       id="path-effect4142-8-0-2-0-1-7-5"
       is_visible="true"
       lpeversion="0" />
    <inkscape:path-effect
       effect="spiro"
       id="path-effect4142-8-0-2-0-1-7-0"
       is_visible="true"
       lpeversion="0" />
    <inkscape:path-effect
       effect="spiro"
       id="path-effect4142-8-0-2-0-1-4"
       is_visible="true"
       lpeversion="0" />
  </defs>
  <sodipodi:namedview
     inkscape:window-height="1015"
     inkscape:window-width="1920"
     inkscape:pageshadow="2"
     inkscape:pageopacity="0.0"
     borderopacity="1.0"
     bordercolor="#666666"
     pagecolor="#ffffff"
     id="base"
     showgrid="true"
     showguides="true"
     inkscape:guide-bbox="true"
     inkscape:zoom="0.64205296"
     inkscape:cx="438.85656"
     inkscape:cy="97.372196"
     inkscape:window-x="1920"
     inkscape:window-y="0"
     inkscape:current-layer="layer1"
     inkscape:window-maximized="1"
     inkscape:document-rotation="0">
    <sodipodi:guide
       orientation="horizontal"
       position="1202.9281,-186.78238"
       id="guide5596" />
    <inkscape:grid
       type="xygrid"
       id="grid3769"
       empspacing="3"
       visible="true"
       enabled="true"
       snapvisiblegridlinesonly="true"
       spacingx="4"
       units="px"
       dotted="true"
       spacingy="4"
       originx="1202.9281"
       originy="-927.13348" />
    <sodipodi:guide
       orientation="0,1"
       position="162.92813,813.21761"
       id="guide2985" />
  </sodipodi:namedview>
  <metadata
     id="metadata5594">
    <rdf:RDF>
      <cc:Work
         rdf:about="">
        <dc:format>image/svg+xml</dc:format>
        <dc:type
           rdf:resource="http://purl.org/dc/dcmitype/StillImage" />
        <dc:title />
      </cc:Work>
    </rdf:RDF>
  </metadata>
  <g
     inkscape:label="Layer 1"
     inkscape:groupmode="layer"
     id="layer1"
     transform="translate(1202.9281,120.86652)">
    <path
       style="fill:none;fill-rule:evenodd;stroke:#000000;stroke-width:35;stroke-linecap:round;stroke-linejoin:round;stroke-miterlimit:4;stroke-dasharray:none;stroke-opacity:1"
       d="m -1183.2153,15.929209 c -0.077,-16.20098668 7.9348,-32.241807 20.9339,-41.911343 12.9992,-9.669535 30.6664,-12.730518 46.1609,-7.997713 10.4473,3.191135 19.8377,9.785505 26.3215,18.576947 6.4838,8.7914414 10.0131,19.7378919 9.8059,30.659706 -0.2072,10.921814 -4.1639,21.75035 -11.1084,30.182578 -6.9445,8.432229 -16.8407,14.400883 -27.5546,16.531738 -8.1509,1.621101 -16.7016,1.048039 -24.6291,-1.446029 -7.9275,-2.494068 -15.226,-6.88721 -21.2879,-12.572131 -12.1238,-11.369843 -19.0243,-27.723678 -20.3248,-44.2937946 -1.2122,-15.4450824 2.2334,-31.1375744 9.2124,-44.9691574 6.9791,-13.831583 17.4209,-25.813837 29.7697,-35.169418 24.6977,-18.711161 56.3483,-26.583082 87.3321,-26.878212 21.5294,-0.20507 43.5855,3.2116 62.35274,13.763817 9.38362,5.276109 17.83503,12.311027 24.30723,20.913362 6.4722,8.602335 10.92394,18.794291 12.31589,29.469124 0.98985,7.591148 0.40746,15.433597 -2.12543,22.657845 -2.5329,7.2242474 -7.04694,13.7576333 -12.98692,18.5869141 -5.93998,4.8292807 -13.21991,7.8818257 -20.7508,9.2570069 -7.53091,1.375181 -15.25371,1.093167 -22.89921,0.704713 l -7.3866,-0.375297 7.6679,0.352845 c 7.3569,0.338532 14.7389,0.724439 21.97278,2.106126 7.23387,1.381687 14.31651,3.766165 20.66994,7.490653 6.35342,3.724488 11.94599,8.784114 16.10694,14.86066 4.16094,6.076545 6.87282,13.148403 7.76663,20.4586 1.17515,9.611262 -0.82713,19.541479 -5.37897,28.08771 -4.55185,8.54623 -11.59415,15.676021 -19.84514,20.743411 -8.25099,5.0674 -17.65081,8.08601 -27.21278,9.61097 -9.562,1.52496 -19.2899,1.57984 -28.9727,1.57545 l -95.5703,-0.0433 c -7.1412,-0.003 -14.3274,0.0564 -21.3457,1.37554 -7.0183,1.31915 -13.8562,3.91814 -19.6444,8.10079 -5.7881,4.18266 -10.464,9.93685 -13.1686,16.54615 -2.7045,6.6093 -3.4142,14.0249 -1.9767,21.01997 1.1273,5.48556 3.5567,10.69458 7.0055,15.1068 3.4488,4.41222 7.905,8.0114 12.8775,10.58764 4.9724,2.57623 10.4374,4.12542 15.9816,4.91491 5.5443,0.78949 11.1649,0.82383 16.7651,0.82242 l 243.22043,-0.0613"
       id="path4140-6-2-9-2-6"
       inkscape:connector-curvature="0"
       sodipodi:nodetypes="caaaaacccassasc"
       inkscape:original-d="m -1183.2153,15.929209 c 0,0 42.3556,-62.751696 67.0948,-49.909056 28.3965,14.741279 26.7912,83.160006 -2.5356,95.950969 -26.964,11.760411 -66.5203,-28.89624 -66.2418,-58.3119546 0.5225,-55.1819394 71.2425,-103.4917244 126.3142,-107.0167874 39.2347,-2.51135 96.19159,24.930108 98.97586,64.146303 1.83996,25.915774 -23.19889,51.363507 -58.76236,51.206479 l -7.3866,-0.375297 7.6679,0.352845 c 11.8799,0.844582 65.96324,18.168014 66.51629,44.916039 0.69693,33.706664 -12.35039,60.048811 -81.40959,60.017541 l -95.5703,-0.0433 c -46.0549,-0.0208 -58.0757,22.70615 -56.1354,47.04245 1.6239,20.36912 14.3692,31.44141 52.6297,31.43177 l 243.22043,-0.0613"
       inkscape:path-effect="#path-effect4142-8-0-2-0-1" />
    <path
       style="fill:none;fill-rule:evenodd;stroke:#000000;stroke-width:35;stroke-linecap:round;stroke-linejoin:round;stroke-miterlimit:4;stroke-dasharray:none;stroke-opacity:1"
       d="m -901.4585,16.30934 c -0.0773,-16.20098709 7.93477,-32.241808 20.93392,-41.911345 12.99916,-9.669536 30.66641,-12.730518 46.16088,-7.997713 10.44728,3.191135 19.83769,9.785505 26.32148,18.576947 6.48379,8.7914412 10.01315,19.7378916 9.80592,30.659705 -0.20722,10.921814 -4.16385,21.75035 -11.10838,30.182578 -6.94453,8.432229 -16.84068,14.400883 -27.55462,16.531738 -8.15089,1.621101 -16.70163,1.04804 -24.62909,-1.446028 -7.92746,-2.494068 -15.22598,-6.88721 -21.28789,-12.57213 C -894.94009,36.96325 -901.84056,20.609416 -903.1411,4.0393 c -1.21224,-15.445083 2.23336,-31.137574 9.21243,-44.969158 6.97907,-13.831583 17.42088,-25.813838 29.76969,-35.169418 24.69763,-18.711161 56.34832,-26.583084 87.33208,-26.878214 21.52943,-0.20508 43.58551,3.211594 62.35274,13.763813 9.38361,5.276109 17.83502,12.311027 24.30722,20.913363 6.4722,8.602336 10.92394,18.794293 12.31588,29.469126 0.98984,7.591144 0.40745,15.433589 -2.12544,22.657832 -2.5329,7.2242435 -7.04694,13.7576248 -12.98692,18.5869037 -5.93998,4.8292789 -13.2199,7.8818253 -20.75078,9.2570103 -7.53088,1.375185 -15.25365,1.093178 -22.8992,0.704732 L -744,12 l 7.6679,0.35284 c 7.35685,0.338527 14.73892,0.724429 21.97278,2.106114 7.23387,1.381685 14.31651,3.766164 20.66994,7.490653 6.35342,3.72449 11.94599,8.78412 16.10693,14.860668 4.16094,6.076548 6.87282,13.148407 7.76662,20.458605 1.17515,9.61126 -0.82713,19.541474 -5.37897,28.087704 -4.55185,8.546229 -11.59415,15.676016 -19.84514,20.743416 -8.25098,5.0674 -17.6508,8.08601 -27.2128,9.61097 -9.562,1.52496 -19.28983,1.57984 -28.97266,1.57545 l -95.5703,-0.0433 c -7.14119,-0.003 -14.32726,0.0564 -21.34555,1.37558 -7.01828,1.31919 -13.85608,3.91825 -19.64414,8.10094 -5.78806,4.18269 -10.46387,9.93688 -13.16841,16.54611 -2.70454,6.60924 -3.41436,14.02472 -1.9773,21.01982 1.12699,5.48575 3.55607,10.69507 7.0047,15.1076 3.44863,4.41254 7.90484,8.01203 12.87736,10.58839 4.97251,2.57636 10.43768,4.12548 15.98211,4.91468 5.54443,0.7892 11.16521,0.82304 16.76553,0.8211 l 177.22041,-0.0613"
       id="path4140-6-2-9-2-6-3"
       inkscape:connector-curvature="0"
       sodipodi:nodetypes="caaaaacccassasc"
       inkscape:original-d="m -901.4585,16.30934 c 0,0 42.3556,-62.751698 67.0948,-49.909058 28.3965,14.74128 26.7912,83.160008 -2.5356,95.950968 -26.964,11.76041 -66.5203,-28.89624 -66.2418,-58.31195 0.5225,-55.181938 71.2425,-103.49173 126.3142,-107.01679 39.2347,-2.51135 96.19157,24.930112 98.97584,64.146302 1.83996,25.91578 -23.19889,51.363508 -58.76234,51.206478 L -744,12 l 7.6679,0.35284 c 11.8799,0.84458 65.96322,18.16802 66.51627,44.91604 0.69693,33.70666 -12.35039,60.04881 -81.40957,60.01754 l -95.5703,-0.0433 c -46.0549,-0.0208 -58.0757,22.70615 -56.1354,47.04245 1.6239,20.36912 14.3692,31.44499 52.6297,31.43177 l 177.22041,-0.0613"
       inkscape:path-effect="#path-effect863" />
  </g>
</svg>
