<?xml version="1.0"?>

<svg version="1.1" xmlns="http://www.w3.org/2000/svg" xmlns:xlink="http://www.w3.org/1999/xlink" width="968.625763" height="1024.000000" viewBox="0 0 968.625763 1024.000000">

  <g transform="translate(435.475739 821.344757)" style="fill: rgb(0.000000%,0.000000%,0.000000%);">
    <text font-size="9.962646">vc</text>
  </g>
  <g transform="translate(905.946487 1072.570343)" style="fill: rgb(0.000000%,0.000000%,0.000000%);">
    <text font-size="9.962646">right</text>
  </g>
  <path d="M235.518723 819.200012C150.671509 734.352798,77.305023 631.355057,81.918732 512.000031C88.859268 332.450592,253.997406 204.800049,440.318710 204.800049C583.226898 204.800049,672.431381 357.100174,645.118698 512.000031C622.808136 638.531143,548.535675 749.939819,440.318710 819.200012" style="stroke:rgb(80.000305%,80.000305%,80.000305%); stroke-width: 2.000000;stroke-linejoin: round;stroke-miterlimit: 10.000000;fill: none;"></path>
  <path d="M440.318710 819.200012C579.220764 768.643219,731.494751 869.756805,870.396805 819.200012C968.268494 762.693924,918.566147 628.291107,870.396805 512.000031C828.904129 411.827866,816.534393 298.092743,870.396805 204.800049" style="stroke:rgb(80.000305%,80.000305%,80.000305%); stroke-width: 2.000000;stroke-linejoin: round;stroke-miterlimit: 10.000000;fill: none;"></path>
  <path d="M916.476486 727.040649C876.151367 837.831757,876.151367 959.288574,916.476486 1070.079681L440.318710 1070.079681C535.798584 1014.954514,590.145569 914.416519,645.118698 819.200012" style="stroke:rgb(80.000305%,80.000305%,80.000305%); stroke-width: 2.000000;stroke-linejoin: round;stroke-miterlimit: 10.000000;fill: none;"></path>
</svg>
