<?xml version="1.0"?>

<svg version="1.1" xmlns="http://www.w3.org/2000/svg" xmlns:xlink="http://www.w3.org/1999/xlink" width="1415.928482" height="1024.000000" viewBox="0 0 1415.928482 1024.000000">

  <g transform="translate(589.075729 222.308853)" style="fill: rgb(0.000000%,0.000000%,0.000000%);">
    <text font-size="9.962646">vc</text>
  </g>
  <g transform="translate(1294.944412 822.659271)" style="fill: rgb(0.000000%,0.000000%,0.000000%);">
    <text font-size="9.962646">bottom</text>
  </g>
  <g transform="translate(1300.188660 821.690674)" style="fill: rgb(0.000000%,0.000000%,0.000000%);">
    <text font-size="9.962646">right</text>
  </g>
  <path d="M184.318726 204.800049C117.849808 293.425278,81.918732 401.218491,81.918732 512.000031C81.918732 640.033890,124.172668 773.120331,235.518723 773.120331C363.982803 773.120331,369.081512 605.276367,389.118713 465.920349C405.973175 348.699860,480.127991 243.908112,593.918701 220.164108C769.380997 183.551483,924.592178 341.576233,901.118683 527.364090C890.064713 614.854034,832.005737 692.476624,747.518692 696.321899C663.884644 700.128342,597.331528 628.855942,593.918701 542.721909C588.046005 394.505157,738.719696 296.965668,901.118683 296.965668" style="stroke:rgb(80.000305%,80.000305%,80.000305%); stroke-width: 2.000000;stroke-linejoin: round;stroke-miterlimit: 10.000000;fill: none;"></path>
  <path d="M901.118683 296.965668C996.642242 296.965668,1081.834381 358.676270,1105.918671 450.565659C1149.494507 616.821625,996.173080 754.785187,819.196808 819.200012" style="stroke:rgb(80.000305%,80.000305%,80.000305%); stroke-width: 2.000000;stroke-linejoin: round;stroke-miterlimit: 10.000000;fill: none;"></path>
  <path d="M819.196808 819.200012C977.943314 761.420349,1151.972153 876.979675,1310.718658 819.200012C1417.892349 780.191544,1368.697556 636.336563,1310.718658 512.000031C1264.704636 413.322311,1256.578918 298.573090,1310.718658 204.800049" style="stroke:rgb(80.000305%,80.000305%,80.000305%); stroke-width: 2.000000;stroke-linejoin: round;stroke-miterlimit: 10.000000;fill: none;"></path>
</svg>
