<?xml version="1.0"?>

<svg version="1.1" xmlns="http://www.w3.org/2000/svg" xmlns:xlink="http://www.w3.org/1999/xlink" width="1301.478027" height="1024.000000" viewBox="0 0 1301.478027 1024.000000">

  <g transform="translate(742.675720 222.308853)" style="fill: rgb(0.000000%,0.000000%,0.000000%);">
    <text font-size="9.962646">vc</text>
  </g>
  <g transform="translate(1182.304138 806.239105)" style="fill: rgb(0.000000%,0.000000%,0.000000%);">
    <text font-size="9.962646">bottom</text>
  </g>
  <g transform="translate(1187.548386 805.270508)" style="fill: rgb(0.000000%,0.000000%,0.000000%);">
    <text font-size="9.962646">right</text>
  </g>
  <path d="M389.118713 204.800049C322.649796 293.425278,286.718719 401.218491,286.718719 512.000031C286.718719 640.033890,328.972656 773.120331,440.318710 773.120331C567.379791 773.120331,583.710342 609.620834,593.918701 465.920349C601.539642 358.642380,648.032425 251.841583,747.518692 220.164108C927.348694 162.904327,1089.331985 360.239075,1054.718674 588.807831C1040.712250 681.299118,988.897614 769.612503,901.118683 773.129700C809.928665 776.783569,746.544174 687.277084,747.518692 588.807831C748.717972 467.627853,833.552216 362.690399,952.318680 343.051590C1115.267395 316.106964,1259.518661 450.036880,1259.518661 619.529694C1259.518661 854.499191,1007.586990 988.173416,747.518692 988.173416C544.521469 988.173416,328.423340 970.114365,194.562469 819.200012C120.105606 735.257568,88.236115 624.057632,81.918732 512.000031C76.028687 407.522598,91.714264 302.951385,127.998413 204.800049" style="stroke:rgb(80.000305%,80.000305%,80.000305%); stroke-width: 2.000000;stroke-linejoin: round;stroke-miterlimit: 10.000000;fill: none;"></path>
</svg>
