<?xml version="1.0"?>

<svg version="1.1" xmlns="http://www.w3.org/2000/svg" xmlns:xlink="http://www.w3.org/1999/xlink" width="896.664963" height="1024.000000" viewBox="0 0 896.664963 1024.000000">

  <g transform="translate(537.875732 222.308853)" style="fill: rgb(0.000000%,0.000000%,0.000000%);">
    <text font-size="9.962646">vc</text>
  </g>
  <path d="M184.318726 204.800049C117.849808 293.425278,81.918732 401.218491,81.918732 512.000031C81.918732 640.033890,124.172668 773.120331,235.518723 773.120331C362.581116 773.120331,378.898132 609.616119,389.118713 465.920349C396.748230 358.653671,443.246109 251.872360,542.718704 220.164108C722.644028 162.810440,884.901352 360.207794,849.918686 588.807831C835.794144 681.106995,784.042374 769.217819,696.318695 773.129700C604.681061 777.216095,540.109741 687.599884,542.718704 588.807831C546.323196 452.318268,657.317993 343.051590,793.598373 343.051590" style="stroke:rgb(80.000305%,80.000305%,80.000305%); stroke-width: 2.000000;stroke-linejoin: round;stroke-miterlimit: 10.000000;fill: none;"></path>
  <path d="M317.439026 767.590637C264.263687 834.059555,235.518723 914.904465,235.518723 997.990616C235.518723 1094.016022,269.322006 1193.830841,358.399185 1193.830841C460.049484 1193.830841,473.103149 1071.202682,481.279648 963.430862C487.383286 882.980850,524.581726 802.894867,604.160110 779.113678C748.100922 736.098434,877.907272 884.146439,849.921036 1055.596466C838.621353 1124.820847,797.219772 1190.903961,727.040573 1193.837875C653.730179 1196.902664,602.072922 1129.690506,604.160110 1055.596466C607.043716 953.229294,695.839890 871.279297,804.864609 871.279297" style="stroke:rgb(80.000305%,80.000305%,80.000305%); stroke-width: 2.000000;stroke-linejoin: round;stroke-miterlimit: 10.000000;fill: none;"></path>
</svg>
