<?xml version="1.0" encoding="UTF-8" standalone="no"?>
<svg
   xmlns:dc="http://purl.org/dc/elements/1.1/"
   xmlns:cc="http://creativecommons.org/ns#"
   xmlns:rdf="http://www.w3.org/1999/02/22-rdf-syntax-ns#"
   xmlns:svg="http://www.w3.org/2000/svg"
   xmlns="http://www.w3.org/2000/svg"
   xmlns:sodipodi="http://sodipodi.sourceforge.net/DTD/sodipodi-0.dtd"
   xmlns:inkscape="http://www.inkscape.org/namespaces/inkscape"
   width="547.29279"
   height="391.80777"
   id="svg2992"
   version="1.1"
   inkscape:version="1.0.1 (3bc2e813f5, 2020-09-07)"
   sodipodi:docname="ശൂ.svg">
  <defs
     id="defs5498">
    <inkscape:path-effect
       effect="spiro"
       id="path-effect4504-9-5-0-7"
       is_visible="true"
       lpeversion="0" />
    <inkscape:path-effect
       effect="spiro"
       id="path-effect4504-9-5-0-7-7"
       is_visible="true"
       lpeversion="0" />
    <inkscape:path-effect
       effect="spiro"
       id="path-effect4504-9-5-0-9"
       is_visible="true"
       lpeversion="0" />
    <inkscape:path-effect
       effect="spiro"
       id="path-effect4504-9-5-0-9-4"
       is_visible="true"
       lpeversion="0" />
    <inkscape:path-effect
       effect="spiro"
       id="path-effect4504-9-5-0-9-9"
       is_visible="true"
       lpeversion="0" />
    <inkscape:path-effect
       effect="spiro"
       id="path-effect4504-9-5-0-9-9-7"
       is_visible="true"
       lpeversion="0" />
    <inkscape:path-effect
       effect="spiro"
       id="path-effect4504-9-5-0-9-0"
       is_visible="true"
       lpeversion="0" />
    <inkscape:path-effect
       effect="spiro"
       id="path-effect4504-9-5-0-9-0-6"
       is_visible="true"
       lpeversion="0" />
    <inkscape:path-effect
       effect="spiro"
       id="path-effect4504-9-5-0-9-9-3"
       is_visible="true"
       lpeversion="0" />
    <inkscape:path-effect
       effect="spiro"
       id="path-effect4504-9-5-0-9-9-3-1"
       is_visible="true"
       lpeversion="0" />
    <inkscape:path-effect
       effect="spiro"
       id="path-effect4504-9-5-0-9-2"
       is_visible="true"
       lpeversion="0" />
    <inkscape:path-effect
       effect="spiro"
       id="path-effect4504-9-5-0-9-9-8"
       is_visible="true"
       lpeversion="0" />
  </defs>
  <sodipodi:namedview
     inkscape:window-height="1015"
     inkscape:window-width="1920"
     inkscape:pageshadow="2"
     inkscape:pageopacity="0.0"
     borderopacity="1.0"
     bordercolor="#666666"
     pagecolor="#ffffff"
     id="base"
     showgrid="true"
     showguides="true"
     inkscape:guide-bbox="true"
     inkscape:zoom="0.32102648"
     inkscape:cx="500.69937"
     inkscape:cy="256.19772"
     inkscape:window-x="1920"
     inkscape:window-y="0"
     inkscape:current-layer="layer1-3"
     inkscape:window-maximized="1"
     inkscape:document-rotation="0">
    <sodipodi:guide
       orientation="horizontal"
       position="-883.54111,-49.655298"
       id="guide5596" />
    <inkscape:grid
       type="xygrid"
       id="grid3769"
       empspacing="3"
       visible="true"
       enabled="true"
       snapvisiblegridlinesonly="true"
       spacingx="4"
       units="px"
       dotted="true"
       spacingy="4"
       originx="-883.54111"
       originy="-1006.5369" />
    <sodipodi:guide
       orientation="0,1"
       position="-1923.5411,950.34466"
       id="guide2985" />
    <sodipodi:guide
       position="6748.4589,1060.3447"
       orientation="0,1"
       id="guide4173"
       inkscape:label=""
       inkscape:color="rgb(0,0,255)" />
  </sodipodi:namedview>
  <metadata
     id="metadata5594">
    <rdf:RDF>
      <cc:Work
         rdf:about="">
        <dc:format>image/svg+xml</dc:format>
        <dc:type
           rdf:resource="http://purl.org/dc/dcmitype/StillImage" />
        <dc:title />
      </cc:Work>
    </rdf:RDF>
  </metadata>
  <g
     inkscape:label="Layer 1"
     inkscape:groupmode="layer"
     id="layer1"
     transform="translate(-883.54111,41.463069)">
    <g
       id="layer1-3"
       inkscape:label="Layer 1"
       transform="translate(861.35869,-74.299059)">
      <path
         style="fill:none;fill-rule:evenodd;stroke:#000000;stroke-width:35;stroke-linecap:round;stroke-linejoin:round;stroke-miterlimit:4;stroke-dasharray:none;stroke-opacity:1"
         d="M 133.09483,51.9633 C 112.79884,60.155425 94.614264,73.518316 80.733715,90.440747 66.853166,107.36318 57.30526,127.81026 53.241233,149.31658 c -3.797124,20.09391 -2.779478,41.22918 4.051401,60.5041 6.830878,19.27491 19.609583,36.5809 36.682698,47.83665 17.073118,11.25576 38.445338,16.18671 58.547838,12.43532 20.1025,-3.75138 38.59025,-16.43589 48.37542,-34.39233 7.76521,-14.24967 9.90249,-30.85743 10.63977,-47.06879 0.73727,-16.21135 0.22682,-32.58029 3.2682,-48.52086 3.88304,-20.35187 13.64008,-39.5468 27.78656,-54.684629 14.14647,-15.137829 32.63498,-26.169624 52.67253,-31.439641 19.25042,-5.062995 39.84496,-4.808396 59.01868,0.537727 19.17372,5.346124 36.88741,15.750429 51.03528,29.752223 28.29575,28.00359 41.16242,70.31578 34.68029,109.59468 -3.75305,22.74184 -13.95479,44.85694 -31.01219,60.35925 -8.5287,7.75115 -18.68646,13.76392 -29.70675,17.13622 -11.02028,3.37231 -22.89959,4.06546 -34.16051,1.61378 -12.0721,-2.62828 -23.29175,-8.85641 -32.13937,-17.47981 -8.84762,-8.6234 -15.32852,-19.59496 -18.92862,-31.4137 -7.20021,-23.63748 -2.5583,-50.08767 10.1986,-71.24978 11.99489,-19.89803 30.68567,-35.29562 51.61724,-45.3792 20.93157,-10.083577 44.05077,-15.068454 67.2144,-16.872725 28.40675,-2.21267 58.35132,0.645354 82.56435,15.664285 12.10651,7.50947 22.49269,18.02136 28.94601,30.72232 6.45333,12.70096 8.80924,27.62373 5.58816,41.50121 -2.45464,10.57539 -8.11278,20.38504 -16.03782,27.80513 -7.92505,7.42009 -18.08545,12.42109 -28.79933,14.17518 16.30835,-1.64745 33.24143,5.0582 44.00023,17.42448 10.75879,12.36627 15.05714,30.06427 11.16917,45.98784 -2.13097,8.72758 -6.55879,16.82584 -12.39311,23.65755 -5.83433,6.83171 -13.0509,12.42182 -20.9042,16.78498 -15.70662,8.72632 -33.69888,12.56577 -51.58822,14.24451 -35.77866,3.35748 -71.8301,0.56718 -107.76591,0.5106 L 107.47691,338.6689 c -13.768523,-0.0217 -27.819306,-0.34109 -40.978182,3.71066 -6.579438,2.02588 -12.88553,5.2468 -17.836098,10.03063 -4.950567,4.78384 -8.464931,11.24101 -8.923697,18.10998 -0.48403,7.24723 2.477441,14.48292 7.242353,19.96491 4.764912,5.48199 11.214585,9.32434 18.051173,11.77744 13.673176,4.9062 28.577601,4.66941 43.104351,4.67613 l 443.55523,0.20512"
         id="path4502-2-0-5-0"
         inkscape:path-effect="#path-effect4504-9-5-0-9"
         inkscape:original-d="m 133.09483,51.9633 c 0,0 -87.253977,56.03962 -79.853597,97.35328 10.05435,56.12985 96.273497,111.1092 147.657357,86.38374 29.01439,-13.96147 -0.0377,-66.56767 13.90797,-95.58965 17.01559,-35.41074 41.18511,-85.12193 80.45909,-86.12427 67.0732,-1.71182 147.19457,72.8347 144.73425,139.88463 -1.50995,41.14995 -55.23732,90.24925 -94.87945,79.10925 -40.72404,-11.44402 -56.56665,-80.86214 -40.86939,-120.14329 16.59352,-41.52397 72.22334,-66.018877 118.83164,-62.251925 46.6083,3.766953 115.21762,53.299925 117.09852,87.887815 1.88087,34.58789 -44.83715,41.98031 -44.83715,41.98031 0,0 63.1241,36.54786 55.1694,63.41232 -18.9661,64.05201 -179.03356,55.21909 -192.65144,55.19764 L 107.47691,338.6689 c -7.657003,-0.012 -67.117577,6.90807 -67.737977,31.85127 -0.64225,25.82175 50.15535,36.41004 68.397877,36.41848 l 443.55523,0.20512"
         inkscape:connector-curvature="0"
         sodipodi:nodetypes="caaaaaaazzcassasc" />
    </g>
  </g>
</svg>
