<?xml version="1.0" encoding="UTF-8" standalone="no"?>
<svg
   xmlns:dc="http://purl.org/dc/elements/1.1/"
   xmlns:cc="http://creativecommons.org/ns#"
   xmlns:rdf="http://www.w3.org/1999/02/22-rdf-syntax-ns#"
   xmlns:svg="http://www.w3.org/2000/svg"
   xmlns="http://www.w3.org/2000/svg"
   xmlns:sodipodi="http://sodipodi.sourceforge.net/DTD/sodipodi-0.dtd"
   xmlns:inkscape="http://www.inkscape.org/namespaces/inkscape"
   width="602.02417"
   height="349.98376"
   id="svg2992"
   version="1.1"
   inkscape:version="1.0.1 (3bc2e813f5, 2020-09-07)"
   sodipodi:docname="ശ്ര.svg">
  <defs
     id="defs5498">
    <inkscape:path-effect
       is_visible="true"
       id="path-effect4504"
       effect="spiro"
       lpeversion="0" />
    <inkscape:path-effect
       is_visible="true"
       id="path-effect4504-9"
       effect="spiro"
       lpeversion="0" />
    <inkscape:path-effect
       is_visible="true"
       id="path-effect4504-9-7"
       effect="spiro"
       lpeversion="0" />
    <inkscape:path-effect
       effect="spiro"
       id="path-effect4504-9-5-0-9"
       is_visible="true"
       lpeversion="0" />
    <inkscape:path-effect
       effect="spiro"
       id="path-effect4504-9-5-0-9-9"
       is_visible="true"
       lpeversion="0" />
    <inkscape:path-effect
       effect="spiro"
       id="path-effect4504-9-5-0-9-9-3"
       is_visible="true"
       lpeversion="0" />
    <inkscape:path-effect
       effect="spiro"
       id="path-effect4504-9-5-0-9-5"
       is_visible="true"
       lpeversion="0" />
    <inkscape:path-effect
       effect="spiro"
       id="path-effect4504-9-5-0-9-5-5"
       is_visible="true"
       lpeversion="0" />
    <inkscape:path-effect
       effect="spiro"
       id="path-effect4504-9-5-0-9-5-3"
       is_visible="true"
       lpeversion="0" />
    <inkscape:path-effect
       effect="spiro"
       id="path-effect4504-9-5-0-9-5-4"
       is_visible="true"
       lpeversion="0" />
    <inkscape:path-effect
       effect="spiro"
       id="path-effect4504-9-5-0-9-5-4-1"
       is_visible="true"
       lpeversion="0" />
    <inkscape:path-effect
       effect="spiro"
       id="path-effect4504-9-5-0-9-5-9"
       is_visible="true"
       lpeversion="0" />
  </defs>
  <sodipodi:namedview
     inkscape:window-height="1015"
     inkscape:window-width="1920"
     inkscape:pageshadow="2"
     inkscape:pageopacity="0.0"
     borderopacity="1.0"
     bordercolor="#666666"
     pagecolor="#ffffff"
     id="base"
     showgrid="true"
     showguides="true"
     inkscape:guide-bbox="true"
     inkscape:zoom="0.227"
     inkscape:cx="488.15896"
     inkscape:cy="-154.51758"
     inkscape:window-x="1920"
     inkscape:window-y="0"
     inkscape:current-layer="layer1-9"
     inkscape:window-maximized="1"
     inkscape:document-rotation="0">
    <sodipodi:guide
       orientation="horizontal"
       position="3829.8871,-57.294944"
       id="guide5596" />
    <inkscape:grid
       type="xygrid"
       id="grid3769"
       empspacing="3"
       visible="true"
       enabled="true"
       snapvisiblegridlinesonly="true"
       spacingx="4"
       units="px"
       dotted="true"
       spacingy="4"
       originx="-586.11284"
       originy="-936.7213" />
    <sodipodi:guide
       orientation="0,1"
       position="-1626.1128,838.70503"
       id="guide2985" />
  </sodipodi:namedview>
  <metadata
     id="metadata5594">
    <rdf:RDF>
      <cc:Work
         rdf:about="">
        <dc:format>image/svg+xml</dc:format>
        <dc:type
           rdf:resource="http://purl.org/dc/dcmitype/StillImage" />
        <dc:title />
      </cc:Work>
    </rdf:RDF>
  </metadata>
  <g
     inkscape:label="Layer 1"
     inkscape:groupmode="layer"
     id="layer1"
     transform="translate(-586.11284,111.2787)">
    <g
       id="layer1-9"
       inkscape:label="Layer 1"
       transform="translate(-1168.8033,138.69548)">
      <path
         style="fill:none;fill-rule:evenodd;stroke:#000000;stroke-width:35;stroke-linecap:round;stroke-linejoin:round;stroke-miterlimit:4;stroke-dasharray:none;stroke-opacity:1"
         d="m 1950.287,-230.50651 c -32.8787,22.56952 -55.627,59.35525 -61.1311,98.85329 -3.8111,27.34881 0.6513,56.272307 15.1584,79.767508 7.2536,11.747601 16.9419,22.032252 28.456,29.651049 11.5141,7.618797 24.8585,12.5345116 38.605,13.8203581 16.7116,1.5631995 33.9417,-2.3563191 48.1594,-11.2769491 14.2177,-8.92063 25.2965,-22.834647 30.4944,-38.794089 4.7904,-14.708518 4.6009,-30.532881 3.7687,-45.979447 -0.8322,-15.44656 -2.2518,-31.03725 0.2274,-46.30624 3.4342,-21.15031 14.5013,-40.8925 30.3996,-55.2582 15.8983,-14.36571 36.478,-23.34252 57.7687,-25.75812 18.4709,-2.09567 37.4428,0.6742 54.637,7.74003 17.1943,7.06584 32.5883,18.39307 44.6355,32.55049 24.0944,28.31483 33.9682,67.72759 27.8406,104.39806 -3.6942,22.107762 -13.2966,43.767769 -29.8871,58.839472 -8.2953,7.535851 -18.2498,13.314568 -29.045,16.325203 -10.7952,3.0106355 -22.4272,3.2006226 -33.194,0.08995 -10.4971,-3.032744 -20.0298,-9.164466 -27.4059,-17.225417 -7.3761,-8.060952 -12.6092,-18.009928 -15.4173,-28.569312 -5.6162,-21.118769 -1.3717,-44.161729 9.1124,-63.335349 9.9075,-18.11918 25.3414,-33.21729 43.8097,-42.45779 18.4683,-9.2405 39.9027,-12.53722 60.2451,-8.98054 21.9324,3.83468 42.2112,15.52529 57.4654,31.744 15.2542,16.21871 25.5712,36.80183 30.7003,58.46816 5.2199,22.050106 5.1094,45.450569 -1.1708,67.222432 -6.2801,21.7718632 -18.788,41.706346 -35.6746,56.815889 -16.8866,15.109542 -37.9146,25.217655 -59.9171,30.634773 -22.0025,5.417118 -44.8439,6.200212 -67.4981,6.68971 l -141.0985,3.04876 c -46.1439,0.997047 -93.4371,0.175157 -136.5134,-16.398793 -43.0762,-16.573951 -80.4834,-48.455128 -101.5541,-89.519488 -16.9028,-32.941505 -23.3024,-71.173955 -18.0483,-107.824213 5.254,-36.65025 22.1368,-71.54504 47.6133,-98.41124"
         id="path4502-2-0-5-0"
         inkscape:path-effect="#path-effect4504-9-5-0-9-5"
         inkscape:original-d="m 1950.287,-230.50651 c 0,0 -61.7994,60.11633 -61.1311,98.85329 0.8518,49.375363 33.8988,113.051895 82.2194,123.2389151 30.4112,6.4113425 63.1143,-23.1550391 78.6538,-50.0710381 15.395,-26.665737 -8.9923,-64.368477 3.9961,-92.285687 16.8363,-36.18799 48.3124,-83.14707 88.1683,-81.01632 64.1065,3.42723 132.4044,80.70894 127.1131,144.68858 -3.2682,39.517024 -54.1655,86.7118701 -92.1261,75.254628 -36.4488,-11.000938 -48.7486,-74.15298 -33.7108,-109.130078 15.2822,-35.54558 65.9137,-57.94157 104.0548,-51.43833 41.4486,7.0672 88.5939,48.1675 88.1657,90.21216 -0.7818,76.7492251 -68.0365,159.283659 -164.2606,161.362804 l -141.0985,3.04876 c -7.2289,0.156195 -196.0538,-29.900395 -238.0675,-105.918281 -33.5933,-60.782443 29.565,-206.235453 29.565,-206.235453"
         inkscape:connector-curvature="0"
         sodipodi:nodetypes="caaaaaaaaaassac" />
    </g>
  </g>
</svg>
