<?xml version="1.0"?>

<svg version="1.1" xmlns="http://www.w3.org/2000/svg" xmlns:xlink="http://www.w3.org/1999/xlink" width="1041.481430" height="1024.000000" viewBox="0 0 1041.481430 1024.000000">

  <g transform="translate(537.875732 222.308853)" style="fill: rgb(0.000000%,0.000000%,0.000000%);">
    <text font-size="9.962646">vc</text>
  </g>
  <path d="M184.318726 204.800049C117.849808 293.425278,81.918732 401.218491,81.918732 512.000031C81.918732 640.033890,124.172668 773.120331,235.518723 773.120331C362.581116 773.120331,378.898132 609.616119,389.118713 465.920349C396.748230 358.653671,443.246109 251.872360,542.718704 220.164108C722.644028 162.810440,884.901352 360.207794,849.918686 588.807831C835.794144 681.106995,784.042374 769.217819,696.318695 773.129700C604.681061 777.216095,540.109741 687.599884,542.718704 588.807831C546.323196 452.318268,657.317993 343.051590,793.598373 343.051590" style="stroke:rgb(80.000305%,80.000305%,80.000305%); stroke-width: 2.000000;stroke-linejoin: round;stroke-miterlimit: 10.000000;fill: none;"></path>
  <path d="M317.439026 767.590637C264.263687 834.059555,235.518723 914.904465,235.518723 997.990616C235.518723 1094.016022,269.322006 1193.830841,358.399185 1193.830841C460.957581 1193.830841,466.475861 1068.511093,481.279648 963.430862C493.856766 874.155975,552.866089 793.188889,645.120255 779.113678C792.081528 756.691818,904.515579 898.146301,890.881180 1055.596466C884.390793 1130.547714,842.232529 1202.875641,768.000717 1205.349197C695.239807 1207.773743,645.088455 1140.745911,645.120255 1067.107803C645.172440 946.249619,751.706696 851.351013,882.688644 836.707809C978.296127 826.019333,1073.694458 870.078323,1079.297379 951.907806C1083.651382 1015.497284,1026.057083 1067.107803,956.416916 1067.107803C1035.598282 1067.107803,1109.214706 1111.409393,1120.257538 1182.307785C1150.045303 1373.554642,863.042313 1345.967239,645.120255 1381.990601" style="stroke:rgb(80.000305%,80.000305%,80.000305%); stroke-width: 2.000000;stroke-linejoin: round;stroke-miterlimit: 10.000000;fill: none;"></path>
  <path d="M686.081665 1381.990601C752.716431 1359.253174,824.889404 1370.471985,894.569244 1381.990601C964.249084 1393.509216,1036.422043 1404.728027,1103.056824 1381.990601" style="stroke:rgb(80.000305%,80.000305%,80.000305%); stroke-width: 2.000000;stroke-linejoin: round;stroke-miterlimit: 10.000000;fill: none;"></path>
</svg>
