<?xml version="1.0"?>

<svg version="1.1" xmlns="http://www.w3.org/2000/svg" xmlns:xlink="http://www.w3.org/1999/xlink" width="1147.878036" height="1024.000000" viewBox="0 0 1147.878036 1024.000000">

  <g transform="translate(589.075729 222.308853)" style="fill: rgb(0.000000%,0.000000%,0.000000%);">
    <text font-size="9.962646">vc</text>
  </g>
  <g transform="translate(782.479614 779.016602)" style="fill: rgb(0.000000%,0.000000%,0.000000%);">
    <text font-size="9.962646">bottom</text>
  </g>
  <g transform="translate(787.723862 778.048004)" style="fill: rgb(0.000000%,0.000000%,0.000000%);">
    <text font-size="9.962646">right</text>
  </g>
  <path d="M184.318726 204.800049C117.849808 293.425278,81.918732 401.218491,81.918732 512.000031C81.918732 640.033890,124.172668 773.120331,235.518723 773.120331C363.721436 773.120331,370.583054 606.012421,389.118713 465.920349C404.863007 346.925323,478.629623 239.032135,593.918701 220.164108C777.860474 190.060486,919.041519 378.762085,901.118683 588.807831C892.639297 688.181564,840.163177 784.063293,747.518692 788.478134C655.377014 792.869019,589.590042 703.173248,593.918701 604.156265C599.718277 471.492371,710.362625 369.273361,844.798370 358.400024C1002.888611 345.613480,1144.186050 458.836761,1151.998352 614.400024C1164.692886 867.181595,871.379318 975.076813,593.918701 1024.000000" style="stroke:rgb(80.000305%,80.000305%,80.000305%); stroke-width: 2.000000;stroke-linejoin: round;stroke-miterlimit: 10.000000;fill: none;"></path>
  <path d="M593.918701 1024.000000C690.466461 988.859085,795.038574 1006.197876,895.998367 1024.000000C996.958160 1041.802124,1101.530273 1059.140915,1198.078033 1024.000000" style="stroke:rgb(80.000305%,80.000305%,80.000305%); stroke-width: 2.000000;stroke-linejoin: round;stroke-miterlimit: 10.000000;fill: none;"></path>
</svg>
