<?xml version="1.0"?>

<svg version="1.1" xmlns="http://www.w3.org/2000/svg" xmlns:xlink="http://www.w3.org/1999/xlink" width="1010.985260" height="1024.000000" viewBox="0 0 1010.985260 1024.000000">

  <g transform="translate(537.875732 222.308853)" style="fill: rgb(0.000000%,0.000000%,0.000000%);">
    <text font-size="9.962646">vc</text>
  </g>
  <path d="M184.318726 204.800049C117.849808 293.425278,81.918732 401.218491,81.918732 512.000031C81.918732 640.033890,124.172668 773.120331,235.518723 773.120331C362.581116 773.120331,378.898132 609.616119,389.118713 465.920349C396.748230 358.653671,443.246109 251.872360,542.718704 220.164108C722.644028 162.810440,884.901352 360.207794,849.918686 588.807831C835.794144 681.106995,784.042374 769.217819,696.318695 773.129700C604.681061 777.216095,540.109741 687.599884,542.718704 588.807831C546.323196 452.318268,657.317993 343.051590,793.598373 343.051590" style="stroke:rgb(80.000305%,80.000305%,80.000305%); stroke-width: 2.000000;stroke-linejoin: round;stroke-miterlimit: 10.000000;fill: none;"></path>
  <path d="M317.439026 767.590637C264.263687 834.059555,235.518723 914.904465,235.518723 997.990616C235.518723 1094.016022,269.322006 1193.830841,358.399185 1193.830841C460.961746 1193.830841,466.451065 1068.499908,481.279648 963.430862C493.875122 874.184586,552.888641 793.264694,645.120255 779.113678C792.274246 756.535965,905.219513 898.062164,890.881180 1055.596466C884.097656 1130.126770,842.116592 1202.038071,768.000717 1205.349197C694.287094 1208.642365,641.657318 1141.370529,645.120255 1067.107803C649.759933 967.609879,738.275757 890.945618,845.824768 882.790619C972.297440 873.200714,1085.335815 958.118164,1091.585678 1074.790619C1101.741348 1264.376801,867.089600 1345.298218,645.120255 1381.990601" style="stroke:rgb(80.000305%,80.000305%,80.000305%); stroke-width: 2.000000;stroke-linejoin: round;stroke-miterlimit: 10.000000;fill: none;"></path>
  <path d="M686.081665 1381.990601C749.050888 1360.503937,817.253662 1371.105621,883.100464 1381.990601C948.947250 1392.875580,1017.150009 1403.477264,1080.119247 1381.990601" style="stroke:rgb(80.000305%,80.000305%,80.000305%); stroke-width: 2.000000;stroke-linejoin: round;stroke-miterlimit: 10.000000;fill: none;"></path>
</svg>
