<?xml version="1.0"?>

<svg version="1.1" xmlns="http://www.w3.org/2000/svg" xmlns:xlink="http://www.w3.org/1999/xlink" width="1052.752335" height="1024.000000" viewBox="0 0 1052.752335 1024.000000">

  <g transform="translate(614.677628 821.344757)" style="fill: rgb(0.000000%,0.000000%,0.000000%);">
    <text font-size="9.962646">vc</text>
  </g>
  <path d="M158.718735 819.200012C103.651413 764.132690,66.953766 690.145126,81.918732 614.400024C100.149246 522.126297,186.123352 460.800034,281.598724 460.800034C373.238922 460.800034,449.934677 530.827209,435.198715 614.400024C419.535355 703.232407,362.492065 779.290115,281.598724 819.200012" style="stroke:rgb(80.000305%,80.000305%,80.000305%); stroke-width: 2.000000;stroke-linejoin: round;stroke-miterlimit: 10.000000;fill: none;"></path>
  <path d="M281.598724 819.200012C490.705582 698.472458,748.335571 939.927567,957.442429 819.200012C1056.333389 762.105453,994.350815 629.058548,957.442429 512.000031C926.142090 412.727951,939.399338 307.128799,957.442429 204.800049" style="stroke:rgb(80.000305%,80.000305%,80.000305%); stroke-width: 2.000000;stroke-linejoin: round;stroke-miterlimit: 10.000000;fill: none;"></path>
  <path d="M957.442429 204.800049C933.955460 338.002930,867.643066 466.628952,742.398697 512.000031C455.751755 615.840851,352.842438 269.513840,527.354965 204.800049C633.468918 165.450241,711.676834 299.629517,711.676834 450.556290L711.676834 819.200012" style="stroke:rgb(80.000305%,80.000305%,80.000305%); stroke-width: 2.000000;stroke-linejoin: round;stroke-miterlimit: 10.000000;fill: none;"></path>
  <path d="M523.146240 820.806946C478.221344 869.209259,450.560120 928.228897,450.560120 991.228638C450.560120 1114.822083,542.175369 1222.710602,673.237686 1270.778946C847.542435 1334.706894,1023.336395 1242.099075,991.345032 1120.253372C968.768036 1034.264267,851.205597 1017.524521,752.758453 991.228638C677.403137 971.100723,608.524826 925.569183,618.280869 862.203888C620.608551 847.085693,627.035416 833.830948,636.535843 822.532761" style="stroke:rgb(80.000305%,80.000305%,80.000305%); stroke-width: 2.000000;stroke-linejoin: round;stroke-miterlimit: 10.000000;fill: none;"></path>
</svg>
