<?xml version="1.0"?>

<svg version="1.1" xmlns="http://www.w3.org/2000/svg" xmlns:xlink="http://www.w3.org/1999/xlink" width="1083.156082" height="1024.000000" viewBox="0 0 1083.156082 1024.000000">

  <path d="M158.718735 819.200012C103.651413 764.132690,66.953766 690.145126,81.918732 614.400024C100.149246 522.126297,186.123352 460.800034,281.598724 460.800034C373.238922 460.800034,449.934677 530.827209,435.198715 614.400024C419.535355 703.232407,362.492065 779.290115,281.598724 819.200012" style="stroke:rgb(80.000305%,80.000305%,80.000305%); stroke-width: 2.000000;stroke-linejoin: round;stroke-miterlimit: 10.000000;fill: none;"></path>
  <path d="M281.598724 819.200012C490.705582 698.472458,748.335571 939.927567,957.442429 819.200012C1056.333389 762.105453,994.350815 629.058548,957.442429 512.000031C926.142090 412.727951,939.399338 307.128799,957.442429 204.800049" style="stroke:rgb(80.000305%,80.000305%,80.000305%); stroke-width: 2.000000;stroke-linejoin: round;stroke-miterlimit: 10.000000;fill: none;"></path>
  <path d="M957.442429 204.800049C934.860657 332.869247,892.408600 467.906342,773.120560 512.000031C505.453918 610.940460,405.292206 267.465469,588.798691 204.800049C696.101776 168.157242,773.120560 301.793457,773.120560 450.556290L773.120560 819.200012" style="stroke:rgb(80.000305%,80.000305%,80.000305%); stroke-width: 2.000000;stroke-linejoin: round;stroke-miterlimit: 10.000000;fill: none;"></path>
  <path d="M344.573883 1208.318741C292.260101 1156.004944,257.397446 1085.716995,271.614120 1013.759369C288.933044 926.099609,370.608185 867.839859,461.309494 867.839859C548.367401 867.839859,621.228134 934.365463,607.229019 1013.759369C592.348877 1098.149872,538.157928 1170.404465,461.309494 1208.318741" style="stroke:rgb(80.000305%,80.000305%,80.000305%); stroke-width: 2.000000;stroke-linejoin: round;stroke-miterlimit: 10.000000;fill: none;"></path>
  <path d="M421.377151 1208.318741C599.119263 1093.627930,818.106323 1323.009552,995.848434 1208.318741C1079.906357 1154.079086,1027.220779 1027.684921,995.848434 916.479691C969.242950 822.171524,980.511688 721.852646,995.848434 624.640656" style="stroke:rgb(80.000305%,80.000305%,80.000305%); stroke-width: 2.000000;stroke-linejoin: round;stroke-miterlimit: 10.000000;fill: none;"></path>
</svg>
