<?xml version="1.0"?>

<svg version="1.1" xmlns="http://www.w3.org/2000/svg" xmlns:xlink="http://www.w3.org/1999/xlink" width="1233.726318" height="1024.000000" viewBox="0 0 1233.726318 1024.000000">

  <g transform="translate(486.675735 514.144775)" style="fill: rgb(0.000000%,0.000000%,0.000000%);">
    <text font-size="9.962646">vc</text>
  </g>
  <g transform="translate(1013.469925 1313.212524)" style="fill: rgb(0.000000%,0.000000%,0.000000%);">
    <text font-size="9.962646">right</text>
  </g>
  <path d="M286.718719 819.200012C175.662262 752.878098,100.424957 640.022110,81.918732 512.000031C59.068268 353.925293,145.606430 199.733337,286.718719 204.800049C423.179810 209.699753,491.518707 360.605423,491.518707 512.000031C491.518707 512.016693,491.518707 716.783356,491.518707 716.800018" style="stroke:rgb(80.000305%,80.000305%,80.000305%); stroke-width: 2.000000;stroke-linejoin: round;stroke-miterlimit: 10.000000;fill: none;"></path>
  <path d="M491.518707 512.000031C515.888855 397.346603,590.719055 282.513596,694.744949 278.525040C820.548279 273.701492,848.719162 425.106171,785.658508 573.443771C738.929337 683.364822,783.751266 792.036026,887.021805 819.200012C1042.456284 860.085052,1176.145813 698.598618,1157.118668 512.000031C1143.865723 382.028931,1067.194733 267.022415,952.318680 204.800049" style="stroke:rgb(80.000305%,80.000305%,80.000305%); stroke-width: 2.000000;stroke-linejoin: round;stroke-miterlimit: 10.000000;fill: none;"></path>
  <path d="M245.759354 1310.721863C177.881317 1242.843826,119.187912 1160.445328,122.878891 1064.960938C128.431335 921.320831,260.542343 819.200012,409.599960 819.200012C523.926956 819.200012,595.290802 941.040573,573.440582 1064.960938C555.592056 1166.186218,496.173859 1255.313492,409.599960 1310.721863" style="stroke:rgb(80.000305%,80.000305%,80.000305%); stroke-width: 2.000000;stroke-linejoin: round;stroke-miterlimit: 10.000000;fill: none;"></path>
  <path d="M860.159317 1310.721863C792.281281 1242.843826,733.587875 1160.445328,737.278854 1064.960938C742.831299 921.320831,874.942307 819.200012,1023.999924 819.200012C1138.326920 819.200012,1209.690765 941.040573,1187.840546 1064.960938C1169.992020 1166.186218,1110.573822 1255.313492,1023.999924 1310.721863" style="stroke:rgb(80.000305%,80.000305%,80.000305%); stroke-width: 2.000000;stroke-linejoin: round;stroke-miterlimit: 10.000000;fill: none;"></path>
</svg>
