<?xml version="1.0"?>

<svg version="1.1" xmlns="http://www.w3.org/2000/svg" xmlns:xlink="http://www.w3.org/1999/xlink" width="1200.888992" height="1024.000000" viewBox="0 0 1200.888992 1024.000000">

  <g transform="translate(691.475723 821.344757)" style="fill: rgb(0.000000%,0.000000%,0.000000%);">
    <text font-size="9.962646">vc</text>
  </g>
  <g transform="translate(1001.732407 755.607834)" style="fill: rgb(0.000000%,0.000000%,0.000000%);">
    <text font-size="9.962646">bottom</text>
  </g>
  <g transform="translate(1006.976654 754.639236)" style="fill: rgb(0.000000%,0.000000%,0.000000%);">
    <text font-size="9.962646">right</text>
  </g>
  <path d="M286.718719 763.901016C175.662262 704.211700,100.424957 602.641998,81.918732 487.422913C59.068268 345.156616,145.606430 206.384796,286.718719 210.944809C423.179810 215.354507,491.518707 351.168686,491.518707 487.422913C491.518707 487.437912,491.518707 671.726654,491.518707 671.741653" style="stroke:rgb(80.000305%,80.000305%,80.000305%); stroke-width: 2.000000;stroke-linejoin: round;stroke-miterlimit: 10.000000;fill: none;"></path>
  <path d="M496.742691 465.303650C519.179565 370.302109,597.542755 279.166031,694.744949 277.296844C820.300323 274.882446,848.134766 410.456192,785.658508 542.721909C738.929337 641.650177,783.751266 739.453598,887.021805 763.901016C1042.456284 800.697311,1176.145813 655.360504,1157.118668 487.422913C1143.865723 370.449722,1067.194733 266.944550,952.318680 210.944809" style="stroke:rgb(80.000305%,80.000305%,80.000305%); stroke-width: 2.000000;stroke-linejoin: round;stroke-miterlimit: 10.000000;fill: none;"></path>
  <path d="M614.400726 1206.267685C507.643784 1172.357788,428.065338 1086.097580,416.018738 991.228638C400.963181 872.663666,492.963104 776.189575,627.238281 776.189575C760.574158 776.189575,881.799606 872.882416,907.540588 991.228638C928.173889 1086.091949,874.370117 1174.012039,783.422516 1174.012039C682.112579 1174.012039,628.308807 1086.091949,648.942108 991.228638C674.683090 872.882416,795.908539 776.189575,929.244415 776.189575C1063.519592 776.189575,1155.519516 872.663666,1140.463959 991.228638C1128.417358 1086.097580,1048.838913 1172.357788,942.081955 1206.267685" style="stroke:rgb(80.000305%,80.000305%,80.000305%); stroke-width: 2.000000;stroke-linejoin: round;stroke-miterlimit: 10.000000;fill: none;"></path>
</svg>
