<?xml version="1.0"?>

<svg version="1.1" xmlns="http://www.w3.org/2000/svg" xmlns:xlink="http://www.w3.org/1999/xlink" width="1403.964417" height="1024.000000" viewBox="0 0 1403.964417 1024.000000">

  <g transform="translate(691.475723 821.344757)" style="fill: rgb(0.000000%,0.000000%,0.000000%);">
    <text font-size="9.962646">vc</text>
  </g>
  <path d="M491.518707 763.901016C380.462250 704.211700,305.224945 602.641998,286.718719 487.422913C263.868256 345.156616,350.406418 206.384796,491.518707 210.944809C627.979797 215.354507,696.318695 351.168686,696.318695 487.422913C696.318695 487.437912,696.318695 671.726654,696.318695 671.741653" style="stroke:rgb(80.000305%,80.000305%,80.000305%); stroke-width: 2.000000;stroke-linejoin: round;stroke-miterlimit: 10.000000;fill: none;"></path>
  <path d="M701.542679 465.303650C723.979553 370.302109,802.342743 279.166031,899.544937 277.296844C1025.100311 274.882446,1052.934753 410.456192,990.458496 542.721909C943.729324 641.650177,988.551254 739.453598,1091.821793 763.901016C1232.747360 797.262573,1358.275818 669.739105,1361.918655 512.000031C1365.042786 376.722183,1283.192123 253.946182,1157.118668 204.800049" style="stroke:rgb(80.000305%,80.000305%,80.000305%); stroke-width: 2.000000;stroke-linejoin: round;stroke-miterlimit: 10.000000;fill: none;"></path>
  <path d="M835.584061 1163.882782C728.827103 1131.910278,649.248672 1050.578415,637.202057 961.129669C622.146500 849.338730,714.146423 758.376556,848.421600 758.376556C981.757477 758.376556,1102.982925 849.544983,1128.723907 961.129669C1149.357208 1050.573105,1095.553452 1133.470016,1004.605850 1133.470016C903.295898 1133.470016,849.492126 1050.573105,870.125443 961.129669C895.866409 849.544983,1017.091873 758.376556,1150.427734 758.376556C1279.110397 758.376556,1356.922211 852.168579,1361.647278 961.129669C1368.993530 1130.535233,1206.462891 1268.934036,999.424667 1299.051514C493.628159 1372.628830,57.946106 1002.021667,81.918732 555.623444C88.437180 434.242462,131.166763 316.157623,204.799194 210.940674" style="stroke:rgb(80.000305%,80.000305%,80.000305%); stroke-width: 2.000000;stroke-linejoin: round;stroke-miterlimit: 10.000000;fill: none;"></path>
</svg>
