<?xml version="1.0"?>

<svg version="1.1" xmlns="http://www.w3.org/2000/svg" xmlns:xlink="http://www.w3.org/1999/xlink" width="1198.866043" height="1024.000000" viewBox="0 0 1198.866043 1024.000000">

  <g transform="translate(507.155746 824.224747)" style="fill: rgb(0.000000%,0.000000%,0.000000%);">
    <text font-size="9.962646">vc</text>
  </g>
  <g transform="translate(931.424438 845.699112)" style="fill: rgb(0.000000%,0.000000%,0.000000%);">
    <text font-size="9.962646">bottom</text>
  </g>
  <g transform="translate(936.668686 844.730515)" style="fill: rgb(0.000000%,0.000000%,0.000000%);">
    <text font-size="9.962646">right</text>
  </g>
  <path d="M158.718735 819.200012C103.651413 764.132690,66.953766 690.145126,81.918732 614.400024C100.149246 522.126297,186.123352 460.800034,281.598724 460.800034C373.238922 460.800034,449.934677 530.827209,435.198715 614.400024C419.535355 703.232407,362.492065 779.290115,281.598724 819.200012" style="stroke:rgb(80.000305%,80.000305%,80.000305%); stroke-width: 2.000000;stroke-linejoin: round;stroke-miterlimit: 10.000000;fill: none;"></path>
  <path d="M281.598724 819.200012C430.423004 765.031784,593.574417 873.368240,742.398697 842.239853C657.551483 757.392639,584.184998 654.394897,588.798706 535.039871C595.739243 355.490433,760.877380 227.839890,947.198685 227.839890C1090.106873 227.839890,1179.311356 380.140015,1151.998672 535.039871C1129.688110 661.570984,1055.415649 772.979660,947.198685 842.239853" style="stroke:rgb(80.000305%,80.000305%,80.000305%); stroke-width: 2.000000;stroke-linejoin: round;stroke-miterlimit: 10.000000;fill: none;"></path>
</svg>
