<?xml version="1.0"?>

<svg version="1.1" xmlns="http://www.w3.org/2000/svg" xmlns:xlink="http://www.w3.org/1999/xlink" width="1812.853867" height="1024.000000" viewBox="0 0 1812.853867 1024.000000">

  <g transform="translate(583.955734 821.344757)" style="fill: rgb(0.000000%,0.000000%,0.000000%);">
    <text font-size="9.962646">vc</text>
  </g>
  <path d="M158.718735 819.200012C103.651413 764.132690,66.953766 690.145126,81.918732 614.400024C100.149246 522.126297,186.123352 460.800034,281.598724 460.800034C373.238922 460.800034,449.934677 530.827209,435.198715 614.400024C419.535355 703.232407,362.492065 779.290115,281.598724 819.200012" style="stroke:rgb(80.000305%,80.000305%,80.000305%); stroke-width: 2.000000;stroke-linejoin: round;stroke-miterlimit: 10.000000;fill: none;"></path>
  <path d="M281.598724 819.200012C480.031097 746.975708,697.566315 891.424316,895.998688 819.200012" style="stroke:rgb(80.000305%,80.000305%,80.000305%); stroke-width: 2.000000;stroke-linejoin: round;stroke-miterlimit: 10.000000;fill: none;"></path>
  <path d="M895.998688 819.200012C773.457611 765.748764,693.407135 645.673050,691.198700 512.000031C689.017242 379.960709,774.245697 259.990860,895.998688 266.243790C1044.127365 273.851303,1100.798676 447.480347,1100.798676 614.400024C1100.798676 614.412521,1100.798676 767.987518,1100.798676 768.000015" style="stroke:rgb(80.000305%,80.000305%,80.000305%); stroke-width: 2.000000;stroke-linejoin: round;stroke-miterlimit: 10.000000;fill: none;"></path>
  <path d="M1100.798676 614.400024C1132.666245 387.663177,1281.581055 173.994049,1465.567398 204.800049C1595.608673 226.573685,1639.552567 369.246262,1627.190826 512.000031C1613.429611 670.915176,1515.805099 826.563980,1379.214279 819.200012C1281.048019 813.907608,1228.347687 717.262833,1254.398666 614.400024C1291.272949 468.801102,1449.772049 375.001251,1590.383011 409.600037C1687.491394 433.494553,1750.952591 514.875061,1766.398636 614.400024C1812.709518 912.799622,1490.855194 1157.272049,1278.751785 1024.000000" style="stroke:rgb(80.000305%,80.000305%,80.000305%); stroke-width: 2.000000;stroke-linejoin: round;stroke-miterlimit: 10.000000;fill: none;"></path>
</svg>
