<?xml version="1.0"?>

<svg version="1.1" xmlns="http://www.w3.org/2000/svg" xmlns:xlink="http://www.w3.org/1999/xlink" width="1213.493454" height="1024.000000" viewBox="0 0 1213.493454 1024.000000">

  <g transform="translate(507.155746 824.224747)" style="fill: rgb(0.000000%,0.000000%,0.000000%);">
    <text font-size="9.962646">vc</text>
  </g>
  <g transform="translate(1140.985611 492.254059)" style="fill: rgb(0.000000%,0.000000%,0.000000%);">
    <text font-size="9.962646">bottom</text>
  </g>
  <g transform="translate(1146.229858 491.285461)" style="fill: rgb(0.000000%,0.000000%,0.000000%);">
    <text font-size="9.962646">right</text>
  </g>
  <path d="M158.718735 819.200012C103.651413 764.132690,66.953766 690.145126,81.918732 614.400024C100.149246 522.126297,186.123352 460.800034,281.598724 460.800034C373.238922 460.800034,449.934677 530.827209,435.198715 614.400024C419.535355 703.232407,362.492065 779.290115,281.598724 819.200012" style="stroke:rgb(80.000305%,80.000305%,80.000305%); stroke-width: 2.000000;stroke-linejoin: round;stroke-miterlimit: 10.000000;fill: none;"></path>
  <path d="M281.598724 819.200012C430.423004 765.031784,593.574417 873.368240,742.398697 842.239853C657.551483 757.392639,584.184998 654.394897,588.798706 535.039871C595.739243 355.490433,760.877380 227.839890,947.198685 227.839890C1075.815186 227.839890,1160.932266 351.201324,1156.759857 488.794800" style="stroke:rgb(80.000305%,80.000305%,80.000305%); stroke-width: 2.000000;stroke-linejoin: round;stroke-miterlimit: 10.000000;fill: none;"></path>
  <path d="M1156.759857 488.794800C1125.805908 842.592285,894.376190 1159.168732,558.769257 1159.168747C456.413879 1159.168747,353.969269 1114.699570,353.969269 1024.000000C353.969269 840.167236,614.812714 888.469040,849.559875 1024.000000" style="stroke:rgb(80.000305%,80.000305%,80.000305%); stroke-width: 2.000000;stroke-linejoin: round;stroke-miterlimit: 10.000000;fill: none;"></path>
</svg>
