<?xml version="1.0"?>

<svg version="1.1" xmlns="http://www.w3.org/2000/svg" xmlns:xlink="http://www.w3.org/1999/xlink" width="1678.593826" height="1024.000000" viewBox="0 0 1678.593826 1024.000000">

  <g transform="translate(583.955734 821.344757)" style="fill: rgb(0.000000%,0.000000%,0.000000%);">
    <text font-size="9.962646">vc</text>
  </g>
  <path d="M158.718735 819.200012C103.651413 764.132690,66.953766 690.145126,81.918732 614.400024C100.149246 522.126297,186.123352 460.800034,281.598724 460.800034C373.238922 460.800034,449.934677 530.827209,435.198715 614.400024C419.535355 703.232407,362.492065 779.290115,281.598724 819.200012" style="stroke:rgb(80.000305%,80.000305%,80.000305%); stroke-width: 2.000000;stroke-linejoin: round;stroke-miterlimit: 10.000000;fill: none;"></path>
  <path d="M281.598724 819.200012C480.031097 746.975708,697.566315 891.424316,895.998688 819.200012" style="stroke:rgb(80.000305%,80.000305%,80.000305%); stroke-width: 2.000000;stroke-linejoin: round;stroke-miterlimit: 10.000000;fill: none;"></path>
  <path d="M895.998688 819.200012C773.457611 765.748764,693.407135 645.673050,691.198700 512.000031C689.017242 379.960709,774.245697 259.990860,895.998688 266.243790C1044.127365 273.851303,1100.798676 447.480347,1100.798676 614.400024C1100.798676 614.412521,1100.798676 767.987518,1100.798676 768.000015" style="stroke:rgb(80.000305%,80.000305%,80.000305%); stroke-width: 2.000000;stroke-linejoin: round;stroke-miterlimit: 10.000000;fill: none;"></path>
  <path d="M1100.798676 614.400024C1131.993301 392.451126,1279.027725 181.945129,1465.567398 204.800049C1601.630127 221.470505,1661.386002 364.890396,1627.190826 512.000031C1596.874466 642.422745,1503.599899 757.973785,1379.214279 819.200012" style="stroke:rgb(80.000305%,80.000305%,80.000305%); stroke-width: 2.000000;stroke-linejoin: round;stroke-miterlimit: 10.000000;fill: none;"></path>
</svg>
