<?xml version="1.0"?>

<svg version="1.1" xmlns="http://www.w3.org/2000/svg" xmlns:xlink="http://www.w3.org/1999/xlink" width="1303.268860" height="1024.000000" viewBox="0 0 1303.268860 1024.000000">

  <g transform="translate(458.612244 805.279861)" style="fill: rgb(0.000000%,0.000000%,0.000000%);">
    <text font-size="9.962646">vc</text>
  </g>
  <g transform="translate(1208.032730 821.690674)" style="fill: rgb(0.000000%,0.000000%,0.000000%);">
    <text font-size="9.962646">right</text>
  </g>
  <path d="M158.718735 819.200012C103.651413 764.132690,66.953766 690.145126,81.918732 614.400024C100.149246 522.126297,186.123352 460.800034,281.598724 460.800034C373.238922 460.800034,449.934677 530.827209,435.198715 614.400024C419.535355 703.232407,362.492065 779.290115,281.598724 819.200012" style="stroke:rgb(80.000305%,80.000305%,80.000305%); stroke-width: 2.000000;stroke-linejoin: round;stroke-miterlimit: 10.000000;fill: none;"></path>
  <path d="M281.598724 819.200012C399.298676 776.360245,525.968140 819.200012,650.242447 819.200012" style="stroke:rgb(80.000305%,80.000305%,80.000305%); stroke-width: 2.000000;stroke-linejoin: round;stroke-miterlimit: 10.000000;fill: none;"></path>
  <path d="M650.242447 819.200012C841.830170 819.200012,1037.110382 885.244003,1218.562729 819.200012C1289.793961 793.273666,1259.320877 697.049637,1218.562729 614.400024C1170.810211 517.567184,1170.810211 404.032883,1218.562729 307.200043" style="stroke:rgb(80.000305%,80.000305%,80.000305%); stroke-width: 2.000000;stroke-linejoin: round;stroke-miterlimit: 10.000000;fill: none;"></path>
  <path d="M803.842438 665.600021C694.687851 632.130737,628.407303 521.663162,650.242447 409.600037C676.823135 273.181686,814.446564 192.414963,957.442429 204.800049C1078.238831 215.262405,1181.326920 301.365082,1162.242416 409.600037C1126.751480 610.881699,959.743973 754.838882,765.496262 825.540070" style="stroke:rgb(80.000305%,80.000305%,80.000305%); stroke-width: 2.000000;stroke-linejoin: round;stroke-miterlimit: 10.000000;fill: none;"></path>
</svg>
