<?xml version="1.0"?>

<svg version="1.1" xmlns="http://www.w3.org/2000/svg" xmlns:xlink="http://www.w3.org/1999/xlink" width="1065.991196" height="1024.000000" viewBox="0 0 1065.991196 1024.000000">

  <path d="M291.015533 450.556290C362.533951 450.556290,434.957855 415.119461,451.776459 348.156296C472.473282 265.752014,399.162933 196.856766,308.201523 204.800049C171.138687 216.769165,90.662521 363.647858,81.918732 512.000031C73.350357 657.375900,131.629990 801.349747,265.235901 819.200012C338.451431 828.981888,413.606293 786.960342,425.996826 716.800018C448.871445 587.274506,273.238800 521.303268,105.479660 614.400024" style="stroke:rgb(80.000305%,80.000305%,80.000305%); stroke-width: 2.000000;stroke-linejoin: round;stroke-miterlimit: 10.000000;fill: none;"></path>
  <path d="M612.319824 386.954803C629.657639 296.338364,683.851761 227.839890,775.177200 227.839890C905.642685 227.839890,999.625061 367.633911,1019.915527 512.000031C1038.176819 641.928650,995.707489 768.153931,891.923065 792.101074C780.992966 817.697006,667.488800 764.627274,610.315552 665.600021" style="stroke:rgb(80.000305%,80.000305%,80.000305%); stroke-width: 2.000000;stroke-linejoin: round;stroke-miterlimit: 10.000000;fill: none;"></path>
</svg>
