<?xml version="1.0"?>

<svg version="1.1" xmlns="http://www.w3.org/2000/svg" xmlns:xlink="http://www.w3.org/1999/xlink" width="1393.735245" height="1024.000000" viewBox="0 0 1393.735245 1024.000000">

  <path d="M286.718719 512.000031C421.794479 430.733124,592.249680 488.133331,601.079651 614.400024C606.802856 696.240891,564.677734 773.120331,489.299133 773.120331C370.065414 773.120331,293.698822 644.432755,286.718719 512.000031C279.240814 370.122330,338.959839 231.275269,470.035904 204.800049C634.040024 171.673889,785.757278 326.654266,798.718689 512.000031C798.718689 512.016693,798.718689 716.783356,798.718689 716.800018" style="stroke:rgb(80.000305%,80.000305%,80.000305%); stroke-width: 2.000000;stroke-linejoin: round;stroke-miterlimit: 10.000000;fill: none;"></path>
  <path d="M798.718689 512.000031C798.718689 334.151733,937.048737 185.797867,1105.918671 204.800049C1252.217270 221.262390,1348.497314 359.702682,1351.678650 512.000031C1356.973267 765.464890,1145.293106 959.700485,890.878677 1024.000000C536.948792 1113.450592,161.481659 951.325073,81.918732 614.400024C47.663620 469.339935,85.830063 316.674194,184.318726 204.800049" style="stroke:rgb(80.000305%,80.000305%,80.000305%); stroke-width: 2.000000;stroke-linejoin: round;stroke-miterlimit: 10.000000;fill: none;"></path>
</svg>
