<?xml version="1.0"?>

<svg version="1.1" xmlns="http://www.w3.org/2000/svg" xmlns:xlink="http://www.w3.org/1999/xlink" width="1190.624802" height="1024.000000" viewBox="0 0 1190.624802 1024.000000">

  <path d="M286.718719 819.200012C164.177643 765.748764,84.127167 645.673050,81.918732 512.000031C79.737274 379.960709,164.965729 259.990860,286.718719 266.243790C434.847397 273.851303,491.518707 447.480347,491.518707 614.400024C491.518707 614.412521,491.518707 767.987518,491.518707 768.000015" style="stroke:rgb(80.000305%,80.000305%,80.000305%); stroke-width: 2.000000;stroke-linejoin: round;stroke-miterlimit: 10.000000;fill: none;"></path>
  <path d="M491.518707 614.400024C491.518707 395.064758,608.334259 186.507431,798.718689 204.800049C941.263428 218.496109,1029.605225 364.054077,1003.518677 512.000031C977.044617 662.143829,829.345718 742.397034,696.318695 819.200012" style="stroke:rgb(80.000305%,80.000305%,80.000305%); stroke-width: 2.000000;stroke-linejoin: round;stroke-miterlimit: 10.000000;fill: none;"></path>
  <path d="M696.318695 819.200012C828.606949 771.050476,973.630417 867.349548,1105.918671 819.200012C1177.149902 793.273666,1146.676819 697.049637,1105.918671 614.400024C1058.166153 517.567184,1058.166153 404.032883,1105.918671 307.200043" style="stroke:rgb(80.000305%,80.000305%,80.000305%); stroke-width: 2.000000;stroke-linejoin: round;stroke-miterlimit: 10.000000;fill: none;"></path>
</svg>
