<?xml version="1.0"?>

<svg version="1.1" xmlns="http://www.w3.org/2000/svg" xmlns:xlink="http://www.w3.org/1999/xlink" width="1353.373474" height="1024.000000" viewBox="0 0 1353.373474 1024.000000">

  <path d="M127.998413 865.279694C151.989044 764.284851,151.989044 659.074554,127.998413 558.079712C102.560364 450.991608,57.758957 334.328156,127.998413 250.879730C257.741745 96.737366,483.109756 260.365356,619.520264 496.635971C702.013367 639.518646,616.703506 816.063126,465.920273 819.200012C378.551056 821.017639,306.230621 751.044312,312.320282 665.600021C319.125076 570.121582,415.333069 512.000031,517.120270 512.000031C688.305115 512.000031,800.471909 340.855896,721.920258 204.800049L1029.120239 204.800049C1018.960876 262.417404,961.170959 300.462372,952.320236 358.400040C939.791656 440.413254,1015.982834 506.003586,1105.920227 512.000031C1207.018433 518.740601,1301.260345 455.444031,1310.720215 358.400040C1317.449738 289.365295,1274.632874 225.139999,1208.320221 204.800049" style="stroke:rgb(80.000305%,80.000305%,80.000305%); stroke-width: 2.000000;stroke-linejoin: round;stroke-miterlimit: 10.000000;fill: none;"></path>
</svg>
