<?xml version="1.0"?>

<svg version="1.1" xmlns="http://www.w3.org/2000/svg" xmlns:xlink="http://www.w3.org/1999/xlink" width="1665.034134" height="1024.000000" viewBox="0 0 1665.034134 1024.000000">

  <path d="M77.621902 573.443771C83.554214 488.612839,157.132370 419.843781,241.963303 419.843781C326.794235 419.843781,390.754196 488.612839,384.821884 573.443771C378.889572 658.274704,305.311417 727.043762,220.480484 727.043762C135.649551 727.043762,71.689590 658.274704,77.621902 573.443771" style="stroke:rgb(80.000305%,80.000305%,80.000305%); stroke-width: 2.000000;stroke-linejoin: round;stroke-miterlimit: 10.000000;fill: none;"></path>
  <path d="M722.743744 819.200012C606.642151 761.518463,534.682480 641.586899,538.421875 512.000031C543.381317 340.132843,677.689331 198.523239,845.621857 204.800049C1005.962570 210.793091,1123.477585 349.157181,1152.821838 512.000031C1180.759552 667.037384,1104.699020 822.281616,968.499969 819.200012C867.086884 816.905472,796.613113 718.111267,814.899979 614.400024C838.842163 478.615463,972.456329 396.143494,1114.990143 396.143494" style="stroke:rgb(80.000305%,80.000305%,80.000305%); stroke-width: 2.000000;stroke-linejoin: round;stroke-miterlimit: 10.000000;fill: none;"></path>
  <path d="M1315.493301 573.443771C1321.425613 488.612839,1395.003769 419.843781,1479.834702 419.843781C1564.665634 419.843781,1628.625595 488.612839,1622.693283 573.443771C1616.760971 658.274704,1543.182816 727.043762,1458.351883 727.043762C1373.520950 727.043762,1309.560989 658.274704,1315.493301 573.443771" style="stroke:rgb(80.000305%,80.000305%,80.000305%); stroke-width: 2.000000;stroke-linejoin: round;stroke-miterlimit: 10.000000;fill: none;"></path>
</svg>
