<?xml version="1.0"?>

<svg version="1.1" xmlns="http://www.w3.org/2000/svg" xmlns:xlink="http://www.w3.org/1999/xlink" width="1306.964767" height="1024.000000" viewBox="0 0 1306.964767 1024.000000">

  <path d="M81.918732 512.000031C216.994492 430.733124,387.449692 488.133331,396.279663 614.400024C402.002869 696.240891,359.877747 773.120331,284.499146 773.120331C165.265427 773.120331,88.898834 644.432755,81.918732 512.000031C74.440826 370.122330,134.159851 231.275269,265.235916 204.800049C429.240036 171.673889,580.957291 326.654266,593.918701 512.000031C593.918701 512.016693,593.918701 716.783356,593.918701 716.800018" style="stroke:rgb(80.000305%,80.000305%,80.000305%); stroke-width: 2.000000;stroke-linejoin: round;stroke-miterlimit: 10.000000;fill: none;"></path>
  <path d="M593.918701 512.000031C593.918701 325.459656,735.310654 169.631653,901.118683 204.800049C1032.551010 232.677261,1097.052078 371.732239,1105.918671 512.000031C1115.924362 670.288239,1039.124146 825.207840,901.118683 819.200012C808.452530 815.165955,741.838013 730.033279,747.518692 634.878143C756.191528 489.602463,905.190765 396.979477,1054.718674 430.078156C1157.608109 452.853195,1239.648224 531.785217,1259.518661 634.878143C1304.485321 868.176712,1065.198593 1058.609879,829.440567 972.800003" style="stroke:rgb(80.000305%,80.000305%,80.000305%); stroke-width: 2.000000;stroke-linejoin: round;stroke-miterlimit: 10.000000;fill: none;"></path>
</svg>
