<?xml version="1.0"?>

<svg version="1.1" xmlns="http://www.w3.org/2000/svg" xmlns:xlink="http://www.w3.org/1999/xlink" width="1190.893555" height="1024.000000" viewBox="0 0 1190.893555 1024.000000">

  <path d="M81.918732 1126.399994C216.994492 1045.133087,387.449692 1102.533295,396.279663 1228.799988C402.002869 1310.640854,359.877747 1387.520294,284.499146 1387.520294C165.265427 1387.520294,88.898834 1258.832718,81.918732 1126.399994C74.440826 984.522293,134.159851 845.675232,265.235916 819.200012C429.240036 786.073853,580.957291 941.054230,593.918701 1126.399994C593.918701 1126.416656,593.918701 1331.183319,593.918701 1331.199982" style="stroke:rgb(80.000305%,80.000305%,80.000305%); stroke-width: 2.000000;stroke-linejoin: round;stroke-miterlimit: 10.000000;fill: none;"></path>
  <path d="M593.918701 1126.399994C593.918701 946.759033,732.737274 796.591309,901.118683 819.200012C1044.140060 838.403610,1131.525848 977.159607,1146.878662 1126.399994C1163.172867 1284.791199,1081.460068 1439.157608,942.078674 1433.599976C848.089432 1429.852280,779.189865 1344.464172,788.478683 1249.278107C804.850922 1081.505630,1008.592087 1007.865463,1128.447067 1126.399994" style="stroke:rgb(80.000305%,80.000305%,80.000305%); stroke-width: 2.000000;stroke-linejoin: round;stroke-miterlimit: 10.000000;fill: none;"></path>
</svg>
