<?xml version="1.0"?>

<svg version="1.1" xmlns="http://www.w3.org/2000/svg" xmlns:xlink="http://www.w3.org/1999/xlink" width="1306.964767" height="1024.000000" viewBox="0 0 1306.964767 1024.000000">

  <path d="M81.918732 1126.399994C216.994492 1045.133087,387.449692 1102.533295,396.279663 1228.799988C402.002869 1310.640854,359.877747 1387.520294,284.499146 1387.520294C165.265427 1387.520294,88.898834 1258.832718,81.918732 1126.399994C74.440826 984.522293,134.159851 845.675232,265.235916 819.200012C429.240036 786.073853,580.957291 941.054230,593.918701 1126.399994C593.918701 1126.416656,593.918701 1331.183319,593.918701 1331.199982" style="stroke:rgb(80.000305%,80.000305%,80.000305%); stroke-width: 2.000000;stroke-linejoin: round;stroke-miterlimit: 10.000000;fill: none;"></path>
  <path d="M593.918701 1126.399994C593.918701 939.859619,735.310654 784.031616,901.118683 819.200012C1032.551010 847.077225,1097.052078 986.132202,1105.918671 1126.399994C1115.924362 1284.688202,1039.124146 1439.607803,901.118683 1433.599976C808.452530 1429.565918,741.838013 1344.433243,747.518692 1249.278107C756.191528 1104.002426,905.190765 1011.379440,1054.718674 1044.478119C1157.608109 1067.253159,1239.648224 1146.185181,1259.518661 1249.278107C1304.485321 1482.576675,1065.198593 1673.009842,829.440567 1587.199966" style="stroke:rgb(80.000305%,80.000305%,80.000305%); stroke-width: 2.000000;stroke-linejoin: round;stroke-miterlimit: 10.000000;fill: none;"></path>
</svg>
