<?xml version="1.0"?>

<svg version="1.1" xmlns="http://www.w3.org/2000/svg" xmlns:xlink="http://www.w3.org/1999/xlink" width="982.132309" height="1024.000000" viewBox="0 0 982.132309 1024.000000">

  <path d="M235.518723 819.200012C150.671509 734.352798,77.305023 631.355057,81.918732 512.000031C88.859268 332.450592,253.997406 204.800049,440.318710 204.800049C583.226898 204.800049,672.431381 357.100174,645.118698 512.000031C622.808136 638.531143,548.535675 749.939819,440.318710 819.200012" style="stroke:rgb(80.000305%,80.000305%,80.000305%); stroke-width: 2.000000;stroke-linejoin: round;stroke-miterlimit: 10.000000;fill: none;"></path>
  <path d="M440.318710 819.200012C579.220764 768.643219,731.494751 869.756805,870.396805 819.200012C968.268494 762.693924,918.566147 628.291107,870.396805 512.000031C828.904129 411.827866,816.534393 298.092743,870.396805 204.800049" style="stroke:rgb(80.000305%,80.000305%,80.000305%); stroke-width: 2.000000;stroke-linejoin: round;stroke-miterlimit: 10.000000;fill: none;"></path>
  <path d="M919.392532 654.096298C935.262878 744.102615,956.897522 837.981079,919.392532 921.600006C866.303223 1039.964844,723.729034 1088.395432,612.192551 1024.000000" style="stroke:rgb(80.000305%,80.000305%,80.000305%); stroke-width: 2.000000;stroke-linejoin: round;stroke-miterlimit: 10.000000;fill: none;"></path>
</svg>
