<?xml version="1.0"?>

<svg version="1.1" xmlns="http://www.w3.org/2000/svg" xmlns:xlink="http://www.w3.org/1999/xlink" width="1052.695419" height="1024.000000" viewBox="0 0 1052.695419 1024.000000">

  <path d="M286.718719 819.200012C162.578598 767.676086,81.733078 646.407806,81.918732 512.000031C82.096725 383.129959,165.434509 266.243790,286.718719 266.243790C435.178864 266.243790,491.518707 443.689926,491.518707 614.400024C491.518707 614.412521,491.518707 767.987518,491.518707 768.000015" style="stroke:rgb(80.000305%,80.000305%,80.000305%); stroke-width: 2.000000;stroke-linejoin: round;stroke-miterlimit: 10.000000;fill: none;"></path>
  <path d="M491.518707 614.400024C516.661270 435.511353,625.049759 258.221252,788.370987 250.879730C905.819778 245.600250,983.393570 340.933121,1005.346588 455.679718C1034.891785 610.109924,939.282562 771.113266,808.570038 762.879700C683.647171 755.010818,667.400146 600.934219,698.146606 455.679718C730.338699 303.595749,767.570755 150.350296,762.191803 0.000061" style="stroke:rgb(80.000305%,80.000305%,80.000305%); stroke-width: 2.000000;stroke-linejoin: round;stroke-miterlimit: 10.000000;fill: none;"></path>
</svg>
