<?xml version="1.0"?>

<svg version="1.1" xmlns="http://www.w3.org/2000/svg" xmlns:xlink="http://www.w3.org/1999/xlink" width="1507.561859" height="1024.000000" viewBox="0 0 1507.561859 1024.000000">

  <path d="M286.718719 819.200012C164.177643 765.748764,84.127167 645.673050,81.918732 512.000031C79.737274 379.960709,164.965729 259.990860,286.718719 266.243790C434.847397 273.851303,491.518707 447.480347,491.518707 614.400024C491.518707 614.412521,491.518707 767.987518,491.518707 768.000015" style="stroke:rgb(80.000305%,80.000305%,80.000305%); stroke-width: 2.000000;stroke-linejoin: round;stroke-miterlimit: 10.000000;fill: none;"></path>
  <path d="M491.518707 614.400024C521.028885 404.435974,676.379562 214.418579,850.531082 245.756302C980.089310 269.069672,1024.916443 410.697739,1012.154510 552.956284C998.068497 709.974213,901.368362 864.213776,764.177963 860.156265C670.502975 857.385757,613.647430 771.435471,636.484177 675.834396C677.366470 504.689484,896.449280 430.668900,1000.173340 552.956284C1081.060684 648.319916,1187.745972 731.469864,1307.373322 706.556274C1384.397110 690.515305,1444.078171 629.910202,1460.973312 552.956284C1485.550827 441.010818,1409.059738 334.472153,1307.373322 348.156296C1180.832855 365.185104,1149.450775 535.327484,1230.573318 675.836273" style="stroke:rgb(80.000305%,80.000305%,80.000305%); stroke-width: 2.000000;stroke-linejoin: round;stroke-miterlimit: 10.000000;fill: none;"></path>
</svg>
