<?xml version="1.0"?>

<svg version="1.1" xmlns="http://www.w3.org/2000/svg" xmlns:xlink="http://www.w3.org/1999/xlink" width="2014.636459" height="1024.000000" viewBox="0 0 2014.636459 1024.000000">

  <path d="M158.718735 819.200012C103.651413 764.132690,66.953766 690.145126,81.918732 614.400024C100.149246 522.126297,186.123352 460.800034,281.598724 460.800034C373.238922 460.800034,449.934677 530.827209,435.198715 614.400024C419.535355 703.232407,362.492065 779.290115,281.598724 819.200012" style="stroke:rgb(80.000305%,80.000305%,80.000305%); stroke-width: 2.000000;stroke-linejoin: round;stroke-miterlimit: 10.000000;fill: none;"></path>
  <path d="M281.598724 819.200012C480.031097 746.975708,697.566315 891.424316,895.998688 819.200012" style="stroke:rgb(80.000305%,80.000305%,80.000305%); stroke-width: 2.000000;stroke-linejoin: round;stroke-miterlimit: 10.000000;fill: none;"></path>
  <path d="M895.998688 819.200012C773.457611 765.748764,693.407135 645.673050,691.198700 512.000031C689.017242 379.960709,774.245697 259.990860,895.998688 266.243790C1044.127365 273.851303,1100.798676 447.480347,1100.798676 614.400024C1100.798676 614.412521,1100.798676 767.987518,1100.798676 768.000015" style="stroke:rgb(80.000305%,80.000305%,80.000305%); stroke-width: 2.000000;stroke-linejoin: round;stroke-miterlimit: 10.000000;fill: none;"></path>
  <path d="M1100.798676 614.400024C1131.738144 394.266556,1278.133118 185.096359,1465.567398 204.800049C1604.682755 219.424301,1670.147797 364.175430,1627.190826 512.000031C1594.744980 623.653488,1501.236633 719.101761,1393.606461 716.800018C1308.799179 714.986359,1248.917313 647.388962,1261.594757 563.200027C1282.527679 424.187820,1456.016373 344.966949,1590.383011 409.600037C1656.364624 441.338531,1704.091797 504.744049,1780.790817 512.000031C1901.832489 523.450974,2005.091324 403.161911,1963.175186 307.200043" style="stroke:rgb(80.000305%,80.000305%,80.000305%); stroke-width: 2.000000;stroke-linejoin: round;stroke-miterlimit: 10.000000;fill: none;"></path>
</svg>
