<?xml version="1.0" encoding="UTF-8" standalone="no"?>
<svg
   xmlns:dc="http://purl.org/dc/elements/1.1/"
   xmlns:cc="http://creativecommons.org/ns#"
   xmlns:rdf="http://www.w3.org/1999/02/22-rdf-syntax-ns#"
   xmlns:svg="http://www.w3.org/2000/svg"
   xmlns="http://www.w3.org/2000/svg"
   xmlns:sodipodi="http://sodipodi.sourceforge.net/DTD/sodipodi-0.dtd"
   xmlns:inkscape="http://www.inkscape.org/namespaces/inkscape"
   version="1.1"
   width="639.79395"
   height="347.08325"
   id="svg2992"
   inkscape:version="1.0.1 (3bc2e813f5, 2020-09-07)"
   sodipodi:docname="ൺ.svg">
  <sodipodi:namedview
     pagecolor="#ffffff"
     bordercolor="#666666"
     borderopacity="1"
     objecttolerance="10"
     gridtolerance="10"
     guidetolerance="10"
     inkscape:pageopacity="0"
     inkscape:pageshadow="2"
     inkscape:window-width="1920"
     inkscape:window-height="1015"
     id="namedview7"
     showgrid="true"
     inkscape:zoom="0.056660504"
     inkscape:cx="-5359.0823"
     inkscape:cy="-1719.4477"
     inkscape:window-x="0"
     inkscape:window-y="0"
     inkscape:window-maximized="1"
     inkscape:current-layer="layer1-5"
     showguides="true"
     inkscape:guide-bbox="true"
     inkscape:document-rotation="0">
    <inkscape:grid
       type="xygrid"
       id="grid2984"
       originx="-1479.9338"
       originy="-538.45411" />
    <sodipodi:guide
       orientation="0,1"
       position="-3479.9338,485.53734"
       id="guide2984" />
    <sodipodi:guide
       orientation="0,1"
       position="-2319.9338,-514.46264"
       id="guide2986" />
  </sodipodi:namedview>
  <defs
     id="defs5498">
    <inkscape:path-effect
       effect="spiro"
       id="path-effect4143"
       is_visible="true"
       lpeversion="0" />
    <inkscape:path-effect
       effect="spiro"
       id="path-effect4372-5-9-5"
       is_visible="true"
       lpeversion="0" />
    <inkscape:path-effect
       effect="spiro"
       id="path-effect4372-5-9-5-9"
       is_visible="true"
       lpeversion="0" />
    <inkscape:path-effect
       effect="spiro"
       id="path-effect4143-4"
       is_visible="true"
       lpeversion="0" />
    <inkscape:path-effect
       effect="spiro"
       id="path-effect4372-5-9-5-9-8"
       is_visible="true"
       lpeversion="0" />
    <inkscape:path-effect
       effect="spiro"
       id="path-effect4372-5-9-5-9-81"
       is_visible="true"
       lpeversion="0" />
    <inkscape:path-effect
       effect="spiro"
       id="path-effect4372-5-9-5-9-7"
       is_visible="true"
       lpeversion="0" />
    <inkscape:path-effect
       effect="spiro"
       id="path-effect4372-5-9-5-9-3"
       is_visible="true"
       lpeversion="0" />
    <inkscape:path-effect
       effect="spiro"
       id="path-effect4372-5-9-5-9-1"
       is_visible="true"
       lpeversion="0" />
    <inkscape:path-effect
       effect="spiro"
       id="path-effect4372-5-9-5-9-1-6"
       is_visible="true"
       lpeversion="0" />
    <inkscape:path-effect
       effect="spiro"
       id="path-effect4372-5-9-5-9-1-2"
       is_visible="true"
       lpeversion="0" />
    <inkscape:path-effect
       effect="spiro"
       id="path-effect4372-5-9-5-9-1-2-2"
       is_visible="true"
       lpeversion="0" />
    <inkscape:path-effect
       effect="spiro"
       id="path-effect4372-5-9-5-9-76"
       is_visible="true"
       lpeversion="0" />
    <inkscape:path-effect
       effect="spiro"
       id="path-effect4372-5-9-5-9-76-5"
       is_visible="true"
       lpeversion="0" />
    <inkscape:path-effect
       effect="spiro"
       id="path-effect4372-5-9-5-9-76-6"
       is_visible="true"
       lpeversion="0" />
    <inkscape:path-effect
       effect="spiro"
       id="path-effect4372-5-9-5-9-76-4"
       is_visible="true"
       lpeversion="0" />
  </defs>
  <metadata
     id="metadata5594">
    <rdf:RDF>
      <cc:Work
         rdf:about="">
        <dc:format>image/svg+xml</dc:format>
        <dc:type
           rdf:resource="http://purl.org/dc/dcmitype/StillImage" />
        <dc:title />
      </cc:Work>
    </rdf:RDF>
  </metadata>
  <g
     transform="translate(-1479.9338,461.54588)"
     id="layer1">
    <g
       id="layer1-0"
       transform="translate(-987.35221,29.044484)">
      <g
         transform="translate(106.2572,-6.4316186)"
         id="layer1-5">
        <path
           style="fill:none;fill-rule:evenodd;stroke:#000000;stroke-width:35;stroke-linecap:round;stroke-linejoin:round;stroke-miterlimit:4;stroke-dasharray:none;stroke-opacity:1"
           d="m 2433.5907,-160.32163 c -12.8724,-5.87525 -23.5706,-16.38354 -29.6755,-29.14868 -6.1048,-12.76515 -7.5695,-27.68929 -4.0628,-41.39773 3.5066,-13.70844 11.9578,-26.09608 23.4424,-34.36179 11.4846,-8.2657 25.9146,-12.3461 40.0271,-11.31852 13.4217,0.97728 26.469,6.55442 36.4372,15.59506 9.9682,9.04063 16.7911,21.48946 19.0299,34.75916 2.2389,13.2697 -0.1243,27.27437 -6.6104,39.06537 -6.4861,11.79101 -17.0551,21.28843 -29.4773,26.4641 -13.2081,5.50311 -28.286,6.07312 -42.0811,2.27427 -13.7951,-3.79886 -26.2861,-11.84676 -36,-22.35286 -9.7139,-10.50609 -16.6951,-23.40703 -20.8969,-37.08484 -4.2017,-13.6778 -5.6702,-28.12171 -5.0623,-42.41742 1.3434,-31.59072 13.209,-62.9624 34.6007,-86.24702 21.3917,-23.28462 52.4351,-37.93024 84.0537,-37.71743 16.2217,0.10918 32.4344,4.06363 46.7628,11.66991 14.3283,7.60628 26.6747,18.85367 35.7471,32.30164 9.0724,13.44798 14.8157,28.98054 17.8034,44.92514 2.9877,15.9446 3.2431,32.2583 3.3453,48.48008 l 0.5822,92.45279 -0.6873,-92.13458 c -0.1148,-15.38284 -0.1768,-30.81719 1.7393,-46.08065 1.9162,-15.26347 5.8448,-30.38848 12.8824,-44.06754 7.0377,-13.67906 17.2481,-25.85758 30.1042,-34.30533 12.8562,-8.44775 28.3729,-13.03015 43.7241,-12.03757 14.4491,0.93426 28.4125,6.76585 39.7912,15.71991 11.3787,8.95406 20.2075,20.93071 26.3123,34.06015 12.2094,26.25888 13.1396,56.15859 13.3711,85.11625 l 0.7494,93.75618 -0.4851,-94.67191 c -0.087,-16.93645 0.01,-33.99372 3.2708,-50.61276 3.2648,-16.61904 9.7428,-32.73834 19.9621,-46.24454 10.2193,-13.5062 24.1044,-24.24204 39.8312,-30.52846 15.7268,-6.28642 33.162,-8.11825 49.9029,-5.5508 27.3926,4.20103 52.3785,20.09179 69.7048,41.72064 17.3262,21.62884 27.2577,48.66156 30.494,76.18485 2.9247,24.87297 0.2737,51.1751 -12.4382,72.75351 -6.3559,10.78921 -15.1807,20.20841 -25.9053,26.67274 -10.7246,6.46433 -23.3707,9.88801 -35.8642,9.04056 -10.3632,-0.70295 -20.4713,-4.32211 -29.1137,-10.0839 -8.6424,-5.76179 -15.8239,-13.63112 -21.0649,-22.59891 -10.482,-17.93559 -12.9695,-39.87771 -9.2565,-60.31717 4.3848,-24.13776 16.7591,-45.94759 28.4922,-67.4927 11.7331,-21.5451 23.2282,-44.03404 25.5717,-68.45464 2.9273,-30.50354 -9.7456,-62.09673 -32.9412,-82.12168"
           id="path4370-9-3-9-2"
           inkscape:path-effect="#path-effect4372-5-9-5-9-76"
           inkscape:original-d="m 2433.5907,-160.32163 c -3.2868,-96.46082 -10.2226,-117.9205 29.7312,-116.22672 39.1292,1.65881 53.9997,97.57313 19.3794,115.88369 -42.4357,22.44406 -102.9895,-51.58689 -104.0403,-99.58085 -1.252,-57.18579 61.5529,-127.31167 118.6544,-123.96445 57.2675,3.35696 101.8048,104.80262 103.6586,137.37677 l 0.5822,92.45279 -0.6873,-92.13458 c -4.6657,-112.13285 34.2474,-137.64527 88.45,-136.49109 52.1771,1.11105 79.1957,113.96712 79.4746,134.89631 l 0.7494,93.75618 -0.4851,-94.67191 c 2.0297,-169.5392 62.4467,-161.73276 112.967,-132.93656 76.4955,43.60192 97.5081,66.39891 100.1988,117.90549 2.2853,43.74779 -30.4057,109.15335 -74.2077,108.46681 -36.7855,-0.57657 -55.9424,-56.37618 -59.4351,-92.99998 -4.6297,-48.54742 54.1364,-87.17971 54.0639,-135.94734 -0.044,-29.49402 -32.9412,-82.12168 -32.9412,-82.12168"
           inkscape:connector-curvature="0"
           sodipodi:nodetypes="caaaacccasccsaaaac" />
      </g>
    </g>
  </g>
</svg>
