<?xml version="1.0"?>

<svg version="1.1" xmlns="http://www.w3.org/2000/svg" xmlns:xlink="http://www.w3.org/1999/xlink" width="1147.647186" height="1024.000000" viewBox="0 0 1147.647186 1024.000000">

  <path d="M332.798401 819.200012C210.927139 764.951782,131.200134 645.361282,127.998413 512.000031C124.312637 358.476349,225.304199 219.625168,373.758392 204.800049C542.662460 187.932755,680.405899 335.195145,680.958374 512.000031C681.281387 615.373047,623.136383 713.493347,527.358383 716.800018C427.440979 720.249603,358.549469 619.020096,373.758392 512.000031C397.727097 343.340393,576.436752 255.999390,757.756912 255.999390C918.433594 255.999390,1063.726959 357.364136,1099.089645 512.000031C1127.666824 636.963806,1061.023865 764.221069,945.489655 768.000671C808.599960 772.478897,728.962601 609.275009,791.889664 460.800690C837.376007 353.477188,945.489655 272.349197,945.489655 153.600708C945.489655 56.465454,883.773743 -29.938568,791.889664 -61.443680" style="stroke:rgb(80.000305%,80.000305%,80.000305%); stroke-width: 2.000000;stroke-linejoin: round;stroke-miterlimit: 10.000000;fill: none;"></path>
</svg>
