<?xml version="1.0"?>

<svg version="1.1" xmlns="http://www.w3.org/2000/svg" xmlns:xlink="http://www.w3.org/1999/xlink" width="1008.791626" height="1024.000000" viewBox="0 0 1008.791626 1024.000000">

  <path d="M546.138916 365.221909C483.971985 306.913391,397.966660 281.302063,314.028824 296.102386C156.084183 323.951935,53.815063 477.768311,81.918732 637.154190C96.197937 718.136597,156.107986 784.860779,236.658798 796.160172C429.854340 823.260986,507.183578 586.151367,546.138916 365.221909" style="stroke:rgb(80.000305%,80.000305%,80.000305%); stroke-width: 2.000000;stroke-linejoin: round;stroke-miterlimit: 10.000000;fill: none;"></path>
  <path d="M498.243988 543.155579C744.932037 632.943710,994.889969 583.200165,964.279419 409.596909C947.550766 314.722794,836.885971 277.638245,732.169327 296.102386C574.224686 323.951935,471.955566 477.768311,500.059235 637.154190C515.449478 724.437714,596.347931 780.397339,685.744476 796.160172C795.197586 815.459473,909.569321 777.426605,964.279419 682.665649" style="stroke:rgb(80.000305%,80.000305%,80.000305%); stroke-width: 2.000000;stroke-linejoin: round;stroke-miterlimit: 10.000000;fill: none;"></path>
</svg>
