<?xml version="1.0"?>

<svg version="1.1" xmlns="http://www.w3.org/2000/svg" xmlns:xlink="http://www.w3.org/1999/xlink" width="331.236664" height="1024.000000" viewBox="0 0 331.236664 1024.000000">

  <path d="M243.197617 382.288376C243.197617 363.955917,235.914001 346.376511,222.951981 333.414490C209.989960 320.452469,192.410553 313.168854,174.078094 313.168854C155.745636 313.168854,138.166229 320.452469,125.204208 333.414490C112.242188 346.376511,104.958572 363.955917,104.958572 382.288376C104.958572 400.620834,112.242188 418.200241,125.204208 431.162262C138.166229 444.124283,155.745636 451.407898,174.078094 451.407898C192.410553 451.407898,209.989960 444.124283,222.951981 431.162262C235.914001 418.200241,243.197617 400.620834,243.197617 382.288376Z" style="stroke:rgb(80.000305%,80.000305%,80.000305%); stroke-width: 2.000000;stroke-linejoin: round;stroke-miterlimit: 10.000000;fill: none;"></path>
  <path d="M243.197617 655.357117C243.197617 637.024658,235.914001 619.445251,222.951981 606.483231C209.989960 593.521210,192.410553 586.237595,174.078094 586.237595C155.745636 586.237595,138.166229 593.521210,125.204208 606.483231C112.242188 619.445251,104.958572 637.024658,104.958572 655.357117C104.958572 673.689575,112.242188 691.268982,125.204208 704.231003C138.166229 717.193024,155.745636 724.476639,174.078094 724.476639C192.410553 724.476639,209.989960 717.193024,222.951981 704.231003C235.914001 691.268982,243.197617 673.689575,243.197617 655.357117Z" style="stroke:rgb(80.000305%,80.000305%,80.000305%); stroke-width: 2.000000;stroke-linejoin: round;stroke-miterlimit: 10.000000;fill: none;"></path>
</svg>
