<?xml version="1.0"?>

<svg version="1.1" xmlns="http://www.w3.org/2000/svg" xmlns:xlink="http://www.w3.org/1999/xlink" width="670.015564" height="1024.000000" viewBox="0 0 670.015564 1024.000000">

  <path d="M81.918732 546.131271C262.571152 514.277771,447.403778 577.984772,628.056198 546.131271" style="stroke:rgb(80.000305%,80.000305%,80.000305%); stroke-width: 2.000000;stroke-linejoin: round;stroke-miterlimit: 10.000000;fill: none;"></path>
  <path d="M410.282959 409.596909C410.282959 394.930984,404.456070 380.867493,394.086472 370.497910C383.716888 360.128311,369.653397 354.301422,354.987473 354.301422C340.321548 354.301422,326.258057 360.128311,315.888474 370.497910C305.518875 380.867493,299.691986 394.930984,299.691986 409.596909C299.691986 424.262833,305.518875 438.326324,315.888474 448.695908C326.258057 459.065506,340.321548 464.892395,354.987473 464.892395C369.653397 464.892395,383.716888 459.065506,394.086472 448.695908C404.456070 438.326324,410.282959 424.262833,410.282959 409.596909Z" style="stroke:rgb(80.000305%,80.000305%,80.000305%); stroke-width: 2.000000;stroke-linejoin: round;stroke-miterlimit: 10.000000;fill: none;"></path>
  <path d="M410.282959 682.665649C410.282959 667.999725,404.456070 653.936234,394.086472 643.566650C383.716888 633.197052,369.653397 627.370163,354.987473 627.370163C340.321548 627.370163,326.258057 633.197052,315.888474 643.566650C305.518875 653.936234,299.691986 667.999725,299.691986 682.665649C299.691986 697.331573,305.518875 711.395065,315.888474 721.764648C326.258057 732.134247,340.321548 737.961136,354.987473 737.961136C369.653397 737.961136,383.716888 732.134247,394.086472 721.764648C404.456070 711.395065,410.282959 697.331573,410.282959 682.665649Z" style="stroke:rgb(80.000305%,80.000305%,80.000305%); stroke-width: 2.000000;stroke-linejoin: round;stroke-miterlimit: 10.000000;fill: none;"></path>
</svg>
