<?xml version="1.0"?>

<svg version="1.1" xmlns="http://www.w3.org/2000/svg" xmlns:xlink="http://www.w3.org/1999/xlink" width="488.540726" height="1024.000000" viewBox="0 0 488.540726 1024.000000">

  <path d="M109.227264 273.062546C91.066879 362.950928,81.918732 454.426743,81.918732 546.131271C81.918732 640.593872,89.236191 737.274460,136.535797 819.200012" style="stroke:rgb(80.000305%,80.000305%,80.000305%); stroke-width: 2.000000;stroke-linejoin: round;stroke-miterlimit: 10.000000;fill: none;"></path>
  <path d="M178.346786 92.836182C178.346786 74.503723,171.063171 56.924316,158.101151 43.962296C145.139130 31.000275,127.559723 23.716660,109.227264 23.716660C90.894806 23.716660,73.315399 31.000275,60.353378 43.962296C47.391357 56.924316,40.107742 74.503723,40.107742 92.836182C40.107742 111.168640,47.391357 128.748047,60.353378 141.710068C73.315399 154.672089,90.894806 161.955704,109.227264 161.955704C127.559723 161.955704,145.139130 154.672089,158.101151 141.710068C171.063171 128.748047,178.346786 111.168640,178.346786 92.836182Z" style="stroke:rgb(80.000305%,80.000305%,80.000305%); stroke-width: 2.000000;stroke-linejoin: round;stroke-miterlimit: 10.000000;fill: none;"></path>
  <path d="M350.153305 273.062546C318.397049 360.311127,335.069595 454.754196,350.153305 546.131287C365.072403 636.511154,378.022675 727.664581,373.193146 819.200012C367.770126 921.984055,320.166168 1024.000000,227.555939 1024.000000C150.607391 1024.000000,86.878876 964.255188,81.918732 887.466675" style="stroke:rgb(80.000305%,80.000305%,80.000305%); stroke-width: 2.000000;stroke-linejoin: round;stroke-miterlimit: 10.000000;fill: none;"></path>
  <path d="M446.581360 92.836182C446.581360 74.503723,439.297745 56.924316,426.335724 43.962296C413.373703 31.000275,395.794296 23.716660,377.461838 23.716660C359.129379 23.716660,341.549973 31.000275,328.587952 43.962296C315.625931 56.924316,308.342316 74.503723,308.342316 92.836182C308.342316 111.168640,315.625931 128.748047,328.587952 141.710068C341.549973 154.672089,359.129379 161.955704,377.461838 161.955704C395.794296 161.955704,413.373703 154.672089,426.335724 141.710068C439.297745 128.748047,446.581360 111.168640,446.581360 92.836182Z" style="stroke:rgb(80.000305%,80.000305%,80.000305%); stroke-width: 2.000000;stroke-linejoin: round;stroke-miterlimit: 10.000000;fill: none;"></path>
</svg>
