<?xml version="1.0"?>

<svg version="1.1" xmlns="http://www.w3.org/2000/svg" xmlns:xlink="http://www.w3.org/1999/xlink" width="482.278076" height="1024.000000" viewBox="0 0 482.278076 1024.000000">

  <path d="M235.518723 409.600037C275.342300 472.058899,275.342300 551.941162,235.518723 614.400024C188.520660 688.111252,89.640305 729.406631,81.918732 819.200012C74.777756 902.241638,148.054779 968.079529,235.518723 972.800003C331.991089 978.006668,418.304855 913.271347,440.318710 819.200012" style="stroke:rgb(80.000305%,80.000305%,80.000305%); stroke-width: 2.000000;stroke-linejoin: round;stroke-miterlimit: 10.000000;fill: none;"></path>
  <path d="M304.638245 204.800049C304.638245 186.467590,297.354630 168.888184,284.392609 155.926163C271.430588 142.964142,253.851181 135.680527,235.518723 135.680527C217.186264 135.680527,199.606857 142.964142,186.644836 155.926163C173.682816 168.888184,166.399200 186.467590,166.399200 204.800049C166.399200 223.132507,173.682816 240.711914,186.644836 253.673935C199.606857 266.635956,217.186264 273.919571,235.518723 273.919571C253.851181 273.919571,271.430588 266.635956,284.392609 253.673935C297.354630 240.711914,304.638245 223.132507,304.638245 204.800049Z" style="stroke:rgb(80.000305%,80.000305%,80.000305%); stroke-width: 2.000000;stroke-linejoin: round;stroke-miterlimit: 10.000000;fill: none;"></path>
</svg>
