<?xml version="1.0"?>

<svg version="1.1" xmlns="http://www.w3.org/2000/svg" xmlns:xlink="http://www.w3.org/1999/xlink" width="1554.573563" height="1024.000000" viewBox="0 0 1554.573563 1024.000000">

  <path d="M81.918732 512.000031C222.210602 408.063492,397.492508 483.221603,386.407990 642.560181C380.245926 731.139114,306.223297 813.047272,218.726624 819.200012C80.857224 828.894943,40.067215 670.952454,68.095383 512.000031C91.785690 377.648392,193.935577 256.473755,327.064117 204.800049C529.164581 126.354950,732.062134 209.613022,704.083633 358.400040C686.098541 454.043045,580.472763 512.000031,477.695358 512.000031C644.153381 512.000031,797.364487 582.405670,756.110962 716.800018C719.350693 836.556427,562.646271 868.349411,434.518799 819.200012" style="stroke:rgb(80.000305%,80.000305%,80.000305%); stroke-width: 2.000000;stroke-linejoin: round;stroke-miterlimit: 10.000000;fill: none;"></path>
  <path d="M914.829697 512.000031C865.617630 476.468887,836.927368 419.088379,838.029694 358.400040C839.663803 268.434067,908.088593 193.058884,991.629684 204.800049C1087.266708 218.241226,1145.229675 312.996948,1145.229675 413.693787C1145.229675 413.704285,1145.229675 542.711411,1145.229675 542.721909" style="stroke:rgb(80.000305%,80.000305%,80.000305%); stroke-width: 2.000000;stroke-linejoin: round;stroke-miterlimit: 10.000000;fill: none;"></path>
  <path d="M1145.229675 413.693787C1166.313614 294.119354,1243.226166 185.967941,1350.029663 204.800049C1478.350800 227.426239,1536.377304 373.912262,1503.629654 512.000031C1462.622772 684.914734,1312.460739 810.048477,1134.985931 819.200012" style="stroke:rgb(80.000305%,80.000305%,80.000305%); stroke-width: 2.000000;stroke-linejoin: round;stroke-miterlimit: 10.000000;fill: none;"></path>
</svg>
