<?xml version="1.0"?>

<svg version="1.1" xmlns="http://www.w3.org/2000/svg" xmlns:xlink="http://www.w3.org/1999/xlink" width="1148.231781" height="1024.000000" viewBox="0 0 1148.231781 1024.000000">

  <g transform="translate(589.075729 206.944794)" style="fill: rgb(0.000000%,0.000000%,0.000000%);">
    <text font-size="9.962646">vc</text>
  </g>
  <g transform="translate(1068.192566 767.415131)" style="fill: rgb(0.000000%,0.000000%,0.000000%);">
    <text font-size="9.962646">bottom</text>
  </g>
  <path d="M389.118713 450.556290C389.118713 321.670273,472.584686 204.800049,593.918701 204.800049C730.486420 204.800049,798.718689 358.192932,798.718689 512.000031C798.718689 665.807129,730.486420 819.200012,593.918701 819.200012C472.584686 819.200012,389.118713 702.329788,389.118713 573.443771C389.118713 688.354843,341.034317 804.704285,235.518723 819.200012C158.528488 829.776932,88.364059 773.717499,81.918732 696.321899C74.624207 608.729248,148.155182 540.386734,235.518723 512.000031C468.458023 436.311951,719.379379 436.311951,952.318680 512.000031C1039.277054 540.255081,1111.981323 608.695572,1105.918671 696.321899C1098.929581 797.338486,993.539383 860.571625,901.118683 819.200012" style="stroke:rgb(80.000305%,80.000305%,80.000305%); stroke-width: 2.000000;stroke-linejoin: round;stroke-miterlimit: 10.000000;fill: none;"></path>
</svg>
