<?xml version="1.0"?>

<svg version="1.1" xmlns="http://www.w3.org/2000/svg" xmlns:xlink="http://www.w3.org/1999/xlink" width="2106.645172" height="1024.000000" viewBox="0 0 2106.645172 1024.000000">

  <g transform="translate(1611.528671 1067.104111)" style="fill: rgb(0.000000%,0.000000%,0.000000%);">
    <text font-size="9.962646">vc</text>
  </g>
  <g transform="translate(1927.601501 874.649582)" style="fill: rgb(0.000000%,0.000000%,0.000000%);">
    <text font-size="9.962646">right</text>
  </g>
  <path d="M593.918701 450.556290C593.918701 321.670273,677.384674 204.800049,798.718689 204.800049C935.286407 204.800049,1003.518677 358.192932,1003.518677 512.000031C1003.518677 665.807129,935.286407 819.200012,798.718689 819.200012C677.384674 819.200012,593.918701 702.329788,593.918701 573.443771C593.918701 688.354843,545.834305 804.704285,440.318710 819.200012C363.328476 829.776932,293.164047 773.717499,286.718719 696.321899C279.424194 608.729248,352.955170 540.386734,440.318710 512.000031C673.258011 436.311951,924.179367 436.311951,1157.118668 512.000031" style="stroke:rgb(80.000305%,80.000305%,80.000305%); stroke-width: 2.000000;stroke-linejoin: round;stroke-miterlimit: 10.000000;fill: none;"></path>
  <path d="M1405.095215 819.200012C1271.649536 770.757095,1172.176865 647.527695,1157.118668 512.000031C1138.299286 342.620773,1253.298752 204.800049,1421.142090 204.800049C1587.811295 204.800049,1739.342529 342.933273,1771.518631 512.000031C1797.310165 647.519653,1730.055710 773.120331,1616.371643 773.120331C1489.734695 773.120331,1422.480240 647.519653,1448.271774 512.000031C1480.447876 342.933273,1631.979111 204.800049,1798.648315 204.800049C1966.491653 204.800049,2081.491119 342.620773,2062.671738 512.000031" style="stroke:rgb(80.000305%,80.000305%,80.000305%); stroke-width: 2.000000;stroke-linejoin: round;stroke-miterlimit: 10.000000;fill: none;"></path>
  <path d="M2062.671738 512.000031C2062.671738 781.510880,1879.331177 1018.593079,1616.371643 1064.959366C1278.162643 1124.594009,932.127701 1124.594009,593.918701 1064.959366C369.417328 1025.374207,155.246185 908.533768,81.918732 696.321899C19.792114 516.525620,82.071808 317.229858,235.518723 204.800049" style="stroke:rgb(80.000305%,80.000305%,80.000305%); stroke-width: 2.000000;stroke-linejoin: round;stroke-miterlimit: 10.000000;fill: none;"></path>
</svg>
