<?xml version="1.0"?>

<svg version="1.1" xmlns="http://www.w3.org/2000/svg" xmlns:xlink="http://www.w3.org/1999/xlink" width="1743.606583" height="1024.000000" viewBox="0 0 1743.606583 1024.000000">

  <g transform="translate(589.075729 206.944794)" style="fill: rgb(0.000000%,0.000000%,0.000000%);">
    <text font-size="9.962646">vc</text>
  </g>
  <g transform="translate(1622.622513 822.659271)" style="fill: rgb(0.000000%,0.000000%,0.000000%);">
    <text font-size="9.962646">bottom</text>
  </g>
  <g transform="translate(1627.866760 821.690674)" style="fill: rgb(0.000000%,0.000000%,0.000000%);">
    <text font-size="9.962646">right</text>
  </g>
  <path d="M389.118713 450.556290C389.118713 321.670273,472.584686 204.800049,593.918701 204.800049C730.486420 204.800049,798.718689 358.192932,798.718689 512.000031C798.718689 665.807129,730.486420 819.200012,593.918701 819.200012C472.584686 819.200012,389.118713 702.329788,389.118713 573.443771C389.118713 688.003433,340.890244 803.870468,235.518723 819.200012C157.744904 830.514618,86.315063 774.158966,81.918732 696.321899C77.048660 610.097183,153.572784 548.876022,235.518723 512.000031C462.370163 409.915985,721.227585 419.194672,952.318680 512.000031C1039.685638 547.086273,1121.526352 610.316055,1105.918671 696.321899C1090.460571 781.503448,993.085693 811.153763,901.118683 819.200012" style="stroke:rgb(80.000305%,80.000305%,80.000305%); stroke-width: 2.000000;stroke-linejoin: round;stroke-miterlimit: 10.000000;fill: none;"></path>
  <path d="M901.118683 819.200012C1139.236923 732.531082,1400.278519 905.868942,1638.396759 819.200012C1745.570450 780.191544,1696.375656 636.336563,1638.396759 512.000031C1592.382736 413.322311,1584.257019 298.573090,1638.396759 204.800049" style="stroke:rgb(80.000305%,80.000305%,80.000305%); stroke-width: 2.000000;stroke-linejoin: round;stroke-miterlimit: 10.000000;fill: none;"></path>
  <path d="M1638.396759 204.800049C1593.922470 326.990784,1553.801498 464.089798,1433.596771 512.000031C1166.865967 618.311478,1049.084976 281.367752,1228.796783 204.800049C1338.025742 158.262146,1433.596771 291.634125,1433.596771 450.556290L1433.596771 819.200012" style="stroke:rgb(80.000305%,80.000305%,80.000305%); stroke-width: 2.000000;stroke-linejoin: round;stroke-miterlimit: 10.000000;fill: none;"></path>
</svg>
