<?xml version="1.0"?>

<svg version="1.1" xmlns="http://www.w3.org/2000/svg" xmlns:xlink="http://www.w3.org/1999/xlink" width="1019.825760" height="1024.000000" viewBox="0 0 1019.825760 1024.000000">

  <g transform="translate(384.275742 206.944794)" style="fill: rgb(0.000000%,0.000000%,0.000000%);">
    <text font-size="9.962646">vc</text>
  </g>
  <g transform="translate(905.822556 822.659271)" style="fill: rgb(0.000000%,0.000000%,0.000000%);">
    <text font-size="9.962646">bottom</text>
  </g>
  <g transform="translate(911.066803 821.690674)" style="fill: rgb(0.000000%,0.000000%,0.000000%);">
    <text font-size="9.962646">right</text>
  </g>
  <path d="M95.742081 512.000031C222.315445 417.070007,402.942062 507.383331,402.942062 665.600021C402.942062 745.382370,354.244659 819.200012,280.062073 819.200012C140.608063 819.200012,58.909988 666.579971,81.918732 512.000031C106.348907 347.870346,227.572983 210.770340,389.118713 204.800049C558.847229 198.527344,696.318695 339.860809,696.318695 512.000031C696.318695 643.273773,606.514099 752.807587,491.518707 819.200012" style="stroke:rgb(80.000305%,80.000305%,80.000305%); stroke-width: 2.000000;stroke-linejoin: round;stroke-miterlimit: 10.000000;fill: none;"></path>
  <path d="M491.518707 819.200012C630.420761 768.643219,782.694748 869.756805,921.596802 819.200012C1019.468491 762.693924,969.766144 628.291107,921.596802 512.000031C880.104126 411.827866,867.734390 298.092743,921.596802 204.800049" style="stroke:rgb(80.000305%,80.000305%,80.000305%); stroke-width: 2.000000;stroke-linejoin: round;stroke-miterlimit: 10.000000;fill: none;"></path>
</svg>
