<?xml version="1.0"?>

<svg version="1.1" xmlns="http://www.w3.org/2000/svg" xmlns:xlink="http://www.w3.org/1999/xlink" width="1042.145126" height="1024.000000" viewBox="0 0 1042.145126 1024.000000">

  <g transform="translate(486.709122 282.714737)" style="fill: rgb(0.000000%,0.000000%,0.000000%);">
    <text font-size="9.962646">vc</text>
  </g>
  <g transform="translate(941.664749 822.659271)" style="fill: rgb(0.000000%,0.000000%,0.000000%);">
    <text font-size="9.962646">bottom</text>
  </g>
  <g transform="translate(946.908997 821.690674)" style="fill: rgb(0.000000%,0.000000%,0.000000%);">
    <text font-size="9.962646">right</text>
  </g>
  <path d="M184.318726 204.800049C117.849808 293.425278,81.918732 401.218491,81.918732 512.000031C81.918732 640.033890,124.172668 773.120331,235.518723 773.120331C346.833313 773.120331,372.722198 634.869354,389.118713 512.000031C413.041733 332.729980,535.951370 176.523315,696.318695 204.800049C802.664169 223.551392,889.596283 303.584213,901.118683 409.600037C927.223785 649.789185,633.191254 730.363861,389.118713 819.200012" style="stroke:rgb(80.000305%,80.000305%,80.000305%); stroke-width: 2.000000;stroke-linejoin: round;stroke-miterlimit: 10.000000;fill: none;"></path>
  <path d="M389.118713 819.200012C572.668762 752.392502,773.888947 886.007523,957.438995 819.200012C1028.670227 793.273666,998.197144 697.049637,957.438995 614.400024C909.686478 517.567184,909.686478 404.032883,957.438995 307.200043" style="stroke:rgb(80.000305%,80.000305%,80.000305%); stroke-width: 2.000000;stroke-linejoin: round;stroke-miterlimit: 10.000000;fill: none;"></path>
</svg>
