<?xml version="1.0"?>

<svg version="1.1" xmlns="http://www.w3.org/2000/svg" xmlns:xlink="http://www.w3.org/1999/xlink" width="1834.799484" height="1024.000000" viewBox="0 0 1834.799484 1024.000000">

  <g transform="translate(1101.075699 360.544785)" style="fill: rgb(0.000000%,0.000000%,0.000000%);">
    <text font-size="9.962646">vc</text>
  </g>
  <g transform="translate(1601.130371 942.251358)" style="fill: rgb(0.000000%,0.000000%,0.000000%);">
    <text font-size="9.962646">bottom</text>
  </g>
  <g transform="translate(1606.374619 941.282761)" style="fill: rgb(0.000000%,0.000000%,0.000000%);">
    <text font-size="9.962646">right</text>
  </g>
  <path d="M389.118713 204.800049C322.649796 293.425278,286.718719 401.218491,286.718719 512.000031C286.718719 640.033890,328.972656 773.120331,440.318710 773.120331C551.970688 773.120331,573.332367 633.004929,593.918701 512.000031C622.051422 346.638123,740.039871 204.800049,901.118683 204.800049C1006.008408 204.800049,1105.918671 262.632141,1105.918671 358.400040C1105.918671 454.167938,1006.008408 512.000031,901.118683 512.000031C1018.826035 512.000031,1138.696915 559.250839,1146.878662 665.600021C1157.104675 798.521301,994.516678 875.557053,839.678680 819.200012" style="stroke:rgb(80.000305%,80.000305%,80.000305%); stroke-width: 2.000000;stroke-linejoin: round;stroke-miterlimit: 10.000000;fill: none;"></path>
  <path d="M886.184845 832.183411C1124.125031 918.787521,1377.706696 755.903046,1377.706696 512.000031" style="stroke:rgb(80.000305%,80.000305%,80.000305%); stroke-width: 2.000000;stroke-linejoin: round;stroke-miterlimit: 10.000000;fill: none;"></path>
  <path d="M1377.706696 307.200043C1377.706696 307.216705,1377.706696 511.983368,1377.706696 512.000031C1377.706696 655.280746,1448.442627 795.561188,1582.506683 819.200012C1721.539093 843.714874,1817.367859 682.487640,1787.306671 512.000031C1764.996109 385.468918,1690.723648 274.060242,1582.506683 204.800049" style="stroke:rgb(80.000305%,80.000305%,80.000305%); stroke-width: 2.000000;stroke-linejoin: round;stroke-miterlimit: 10.000000;fill: none;"></path>
  <path d="M1790.898239 611.768036C1790.898239 834.549042,1594.738266 991.085770,1377.706696 1070.079681C1096.988251 1172.253998,789.245377 1172.253998,508.526932 1070.079681C268.940475 982.876358,99.521057 765.873230,81.918732 512.000031C74.565643 405.948669,95.782288 299.865494,143.358734 204.800049" style="stroke:rgb(80.000305%,80.000305%,80.000305%); stroke-width: 2.000000;stroke-linejoin: round;stroke-miterlimit: 10.000000;fill: none;"></path>
</svg>
