<?xml version="1.0"?>

<svg version="1.1" xmlns="http://www.w3.org/2000/svg" xmlns:xlink="http://www.w3.org/1999/xlink" width="1098.141479" height="1024.000000" viewBox="0 0 1098.141479 1024.000000">

  <g transform="translate(384.275742 452.701035)" style="fill: rgb(0.000000%,0.000000%,0.000000%);">
    <text font-size="9.962646">vc</text>
  </g>
  <path d="M389.118713 450.556290C389.118713 321.670273,472.584686 204.800049,593.918701 204.800049C730.486420 204.800049,798.718689 358.192932,798.718689 512.000031C798.718689 665.807129,730.486420 819.200012,593.918701 819.200012C472.584686 819.200012,389.118713 702.329788,389.118713 573.443771C389.118713 687.983490,340.881760 803.822830,235.518723 819.200012C157.698624 830.557434,86.197266 774.182129,81.918732 696.321899C77.183777 610.155533,153.908768 549.336609,235.518723 512.000031C427.232834 424.290756,642.812988 411.232193,849.918686 450.556290C926.269775 465.053421,1003.518677 501.744080,1003.518677 573.434402C1003.518677 639.312088,925.469360 665.600021,849.918686 665.600021C942.040909 665.600021,1041.507065 687.208740,1054.718674 770.046890C1072.352539 880.613022,927.304199 954.882416,798.718689 880.643753" style="stroke:rgb(80.000305%,80.000305%,80.000305%); stroke-width: 2.000000;stroke-linejoin: round;stroke-miterlimit: 10.000000;fill: none;"></path>
  <path d="M81.918732 512.000031C25.561752 357.162186,102.597397 194.574265,235.518723 204.800049C341.866837 212.981522,389.118713 332.850342,389.118713 450.556290" style="stroke:rgb(80.000305%,80.000305%,80.000305%); stroke-width: 2.000000;stroke-linejoin: round;stroke-miterlimit: 10.000000;fill: none;"></path>
</svg>
