<?xml version="1.0"?>

<svg version="1.1" xmlns="http://www.w3.org/2000/svg" xmlns:xlink="http://www.w3.org/1999/xlink" width="940.555115" height="1024.000000" viewBox="0 0 940.555115 1024.000000">

  <g transform="translate(347.951218 299.101044)" style="fill: rgb(0.000000%,0.000000%,0.000000%);">
    <text font-size="9.962646">vc</text>
  </g>
  <g transform="translate(804.985046 1073.538940)" style="fill: rgb(0.000000%,0.000000%,0.000000%);">
    <text font-size="9.962646">bottom</text>
  </g>
  <g transform="translate(810.229294 1072.570343)" style="fill: rgb(0.000000%,0.000000%,0.000000%);">
    <text font-size="9.962646">right</text>
  </g>
  <path d="M209.434204 614.400024C168.545120 573.510941,143.776077 518.365219,147.994202 460.800034C155.684830 355.845123,250.252106 278.875595,352.794189 296.956299C455.036865 314.984207,526.215546 408.569275,516.634186 512.000031C498.802643 704.491562,269.152786 751.051620,81.918732 819.200012" style="stroke:rgb(80.000305%,80.000305%,80.000305%); stroke-width: 2.000000;stroke-linejoin: round;stroke-miterlimit: 10.000000;fill: none;"></path>
  <path d="M81.918732 819.200012C300.195557 739.752853,539.485611 898.647171,757.762436 819.200012C864.936127 780.191544,815.741333 636.336563,757.762436 512.000031C711.748413 413.322311,703.622696 298.573090,757.762436 204.800049" style="stroke:rgb(80.000305%,80.000305%,80.000305%); stroke-width: 2.000000;stroke-linejoin: round;stroke-miterlimit: 10.000000;fill: none;"></path>
  <path d="M419.840591 819.200012C419.840591 936.661453,327.975723 1028.974197,215.040604 1070.079681C410.669189 998.875900,625.130707 1141.283463,820.759293 1070.079681C966.501709 1017.033188,873.933975 828.169907,813.674835 662.611160" style="stroke:rgb(80.000305%,80.000305%,80.000305%); stroke-width: 2.000000;stroke-linejoin: round;stroke-miterlimit: 10.000000;fill: none;"></path>
</svg>
