<?xml version="1.0"?>

<svg version="1.1" xmlns="http://www.w3.org/2000/svg" xmlns:xlink="http://www.w3.org/1999/xlink" width="2213.387115" height="1024.000000" viewBox="0 0 2213.387115 1024.000000">

  <g transform="translate(1955.549271 821.690674)" style="fill: rgb(0.000000%,0.000000%,0.000000%);">
    <text font-size="9.962646">right</text>
  </g>
  <path d="M204.798721 204.800049C266.145966 235.695145,311.003616 291.767227,327.678711 358.400040C353.324661 460.879898,297.681213 564.999725,204.798721 563.200027C130.706284 561.764389,82.193192 488.696640,81.918732 409.600037C81.585602 313.594254,143.058380 227.391968,235.518723 204.800049C366.190613 172.871445,491.519363 273.870438,491.519363 409.600037C491.519363 409.610031,491.519363 532.470032,491.519363 532.480026" style="stroke:rgb(80.000305%,80.000305%,80.000305%); stroke-width: 2.000000;stroke-linejoin: round;stroke-miterlimit: 10.000000;fill: none;"></path>
  <path d="M491.519363 409.600037C502.484924 284.265930,576.469589 167.992844,696.319351 153.600052C817.986252 138.989044,921.458374 240.879349,901.119339 358.400040C878.469864 489.270584,727.753250 528.898300,593.919357 563.200027C406.975281 611.113937,232.416977 698.393097,81.919388 819.200012" style="stroke:rgb(80.000305%,80.000305%,80.000305%); stroke-width: 2.000000;stroke-linejoin: round;stroke-miterlimit: 10.000000;fill: none;"></path>
  <path d="M593.919357 563.200027C847.748871 495.186569,1140.050018 392.518951,1208.319321 614.400024C1241.694977 722.873779,1161.105057 831.205399,1054.719330 819.200012C929.877029 805.111832,901.119339 652.328964,901.119339 512.000031C901.119339 369.601364,972.377411 230.751923,1105.919327 204.800049C1272.423294 172.442490,1413.119308 327.096298,1413.119308 512.000031L1413.119308 716.800018" style="stroke:rgb(80.000305%,80.000305%,80.000305%); stroke-width: 2.000000;stroke-linejoin: round;stroke-miterlimit: 10.000000;fill: none;"></path>
  <path d="M1413.119308 512.000031C1413.119308 358.192932,1481.351578 204.800049,1617.919296 204.800049C1785.584839 204.800049,1919.624924 342.660980,1925.119278 512.000031C1928.533737 617.235992,1868.083237 716.800018,1771.519287 716.800018C1674.955338 716.800018,1614.504822 617.235992,1617.919296 512.000031C1623.413635 342.660980,1757.453735 204.800049,1925.119278 204.800049C2076.051834 204.800049,2179.931213 351.878586,2170.879257 512.000031C2163.418335 643.977661,2085.035187 761.552383,1966.079269 819.200012" style="stroke:rgb(80.000305%,80.000305%,80.000305%); stroke-width: 2.000000;stroke-linejoin: round;stroke-miterlimit: 10.000000;fill: none;"></path>
</svg>
