<?xml version="1.0"?>

<svg version="1.1" xmlns="http://www.w3.org/2000/svg" xmlns:xlink="http://www.w3.org/1999/xlink" width="579.622437" height="1024.000000" viewBox="0 0 579.622437 1024.000000">

  <g transform="translate(281.875748 821.344757)" style="fill: rgb(0.000000%,0.000000%,0.000000%);">
    <text font-size="9.962646">vc</text>
  </g>
  <g transform="translate(507.198578 1048.044006)" style="fill: rgb(0.000000%,0.000000%,0.000000%);">
    <text font-size="9.962646">right</text>
  </g>
  <g transform="translate(501.954330 1049.012604)" style="fill: rgb(0.000000%,0.000000%,0.000000%);">
    <text font-size="9.962646">bottom</text>
  </g>
  <path d="M81.918732 742.400009C141.479553 786.979324,212.531708 813.623871,286.718719 819.200012C383.680283 826.487961,481.829575 784.576553,491.518707 696.321899C502.498932 596.307281,394.034164 539.777206,286.718719 512.000031C186.513931 486.063354,81.596283 439.403687,81.918732 343.043793C82.233154 249.079117,183.167130 192.967346,286.718719 204.800049C369.526962 214.262436,444.200012 259.065598,491.518707 327.678162" style="stroke:rgb(80.000305%,80.000305%,80.000305%); stroke-width: 2.000000;stroke-linejoin: round;stroke-miterlimit: 10.000000;fill: none;"></path>
  <path d="M286.718719 819.200012C408.871841 819.200012,534.322433 864.618637,537.598389 972.800003C540.941360 1083.194626,414.148636 1141.906448,286.718719 1126.399994C195.445557 1115.293304,108.815338 1079.933990,35.839050 1024.000000" style="stroke:rgb(80.000305%,80.000305%,80.000305%); stroke-width: 2.000000;stroke-linejoin: round;stroke-miterlimit: 10.000000;fill: none;"></path>
</svg>
