<?xml version="1.0" encoding="UTF-8" standalone="no"?>
<svg
   version="1.1"
   width="1307.011475"
   height="1024.000000"
   viewBox="0 0 1307.011475 1024.000000"
   id="svg18"
   sodipodi:docname="ഡ.svg"
   inkscape:version="1.2.2 (b0a8486541, 2022-12-01)"
   xmlns:inkscape="http://www.inkscape.org/namespaces/inkscape"
   xmlns:sodipodi="http://sodipodi.sourceforge.net/DTD/sodipodi-0.dtd"
   xmlns="http://www.w3.org/2000/svg"
   xmlns:svg="http://www.w3.org/2000/svg">
  <defs
     id="defs22" />
  <sodipodi:namedview
     id="namedview20"
     pagecolor="#ffffff"
     bordercolor="#666666"
     borderopacity="1.0"
     inkscape:showpageshadow="2"
     inkscape:pageopacity="0.0"
     inkscape:pagecheckerboard="0"
     inkscape:deskcolor="#d1d1d1"
     showgrid="false"
     inkscape:zoom="1.3037281"
     inkscape:cx="754.37507"
     inkscape:cy="452.93186"
     inkscape:window-width="1920"
     inkscape:window-height="1012"
     inkscape:window-x="0"
     inkscape:window-y="0"
     inkscape:window-maximized="1"
     inkscape:current-layer="svg18" />
  <g
     transform="translate(845.075714 514.144775)"
     style="fill: rgb(0.000000%,0.000000%,0.000000%);"
     id="g4">
    <text
       font-size="9.962646"
       id="text2">vc</text>
  </g>
  <g
     transform="translate(1150.177048 799.336639)"
     style="fill: rgb(0.000000%,0.000000%,0.000000%);"
     id="g8">
    <text
       font-size="9.962646"
       id="text6">bottom</text>
  </g>
  <g
     transform="translate(1155.421295 798.368042)"
     style="fill: rgb(0.000000%,0.000000%,0.000000%);"
     id="g12">
    <text
       font-size="9.962646"
       id="text10">right</text>
  </g>
  <path
     d="M 243.54216,819.20001 C 157.68079,737.51952 86.39296,637.04625 81.918732,512.00003 76.376312,357.10014 186.98689,204.7999 329.89528,204.80005 c 142.90817,1.5e-4 210.70706,152.30022 161.62343,307.19998 -46.04908,145.32318 -15.96332,297.43134 110.42343,307.19998 131.37269,10.15401 222.53579,-144.23732 247.39343,-299.47909 0.61731,-3.85526 0.0404,-208.65949 0.58312,-212.52088"
     style="fill:none;stroke:#cccccc;stroke-width:2;stroke-linejoin:round;stroke-miterlimit:10"
     id="path14"
     sodipodi:nodetypes="csssssc" />
  <path
     d="M849.918686 307.200043C849.918686 307.216705,849.918686 511.983368,849.918686 512.000031C849.918686 655.280746,920.654617 795.561188,1054.718674 819.200012C1193.751083 843.714874,1289.579849 682.487640,1259.518661 512.000031C1237.208099 385.468918,1162.935638 274.060242,1054.718674 204.800049"
     style="stroke:rgb(80.000305%,80.000305%,80.000305%); stroke-width: 2.000000;stroke-linejoin: round;stroke-miterlimit: 10.000000;fill: none;"
     id="path16" />
</svg>
