<?xml version="1.0"?>

<svg version="1.1" xmlns="http://www.w3.org/2000/svg" xmlns:xlink="http://www.w3.org/1999/xlink" width="1538.528015" height="1024.000000" viewBox="0 0 1538.528015 1024.000000">

  <g transform="translate(538.488129 821.344757)" style="fill: rgb(0.000000%,0.000000%,0.000000%);">
    <text font-size="9.962646">vc</text>
  </g>
  <path d="M329.895279 819.200012C196.449600 770.757095,96.976929 647.527695,81.918732 512.000031C63.099350 342.620773,178.098816 204.800049,345.942154 204.800049C514.433609 204.800049,669.327255 342.494095,696.318695 512.000031C716.870834 641.067245,648.091156 757.756271,543.331100 757.756271C421.299377 757.756271,352.519699 641.067245,373.071838 512.000031C400.063263 342.494095,554.956924 204.800049,723.448380 204.800049C891.291718 204.800049,1006.291183 342.620773,987.471802 512.000031" style="stroke:rgb(80.000305%,80.000305%,80.000305%); stroke-width: 2.000000;stroke-linejoin: round;stroke-miterlimit: 10.000000;fill: none;"></path>
  <path d="M1021.095245 819.200012C983.959381 724.654907,972.411850 619.151154,987.471802 512.000031C1007.500504 369.496414,1098.232437 230.473083,1235.448349 204.800049C1407.928558 172.529083,1515.255478 322.842606,1440.248337 409.600037C1388.717255 469.203751,1261.661102 425.365631,1235.448349 512.000031C1210.015305 596.057434,1324.051010 634.878143,1440.248337 634.878143C1491.255417 634.878143,1531.383240 675.987473,1542.648331 727.034393C1582.891541 909.393616,1350.794571 985.605942,1133.048355 1024.000000" style="stroke:rgb(80.000305%,80.000305%,80.000305%); stroke-width: 2.000000;stroke-linejoin: round;stroke-miterlimit: 10.000000;fill: none;"></path>
  <path d="M1133.048355 1024.000000C1231.232635 988.263443,1337.577255 1005.896118,1440.248337 1024.000000C1489.872589 1032.750183,1541.272385 1041.272629,1588.728012 1024.000000" style="stroke:rgb(80.000305%,80.000305%,80.000305%); stroke-width: 2.000000;stroke-linejoin: round;stroke-miterlimit: 10.000000;fill: none;"></path>
</svg>
