<?xml version="1.0"?>

<svg version="1.1" xmlns="http://www.w3.org/2000/svg" xmlns:xlink="http://www.w3.org/1999/xlink" width="1662.708755" height="1024.000000" viewBox="0 0 1662.708755 1024.000000">

  <g transform="translate(538.488129 821.344757)" style="fill: rgb(0.000000%,0.000000%,0.000000%);">
    <text font-size="9.962646">vc</text>
  </g>
  <g transform="translate(1468.796417 808.632324)" style="fill: rgb(0.000000%,0.000000%,0.000000%);">
    <text font-size="9.962646">right</text>
  </g>
  <path d="M329.895279 819.200012C196.449600 770.757095,96.976929 647.527695,81.918732 512.000031C63.099350 342.620773,178.098816 204.800049,345.942154 204.800049C514.433609 204.800049,669.327255 342.494095,696.318695 512.000031C716.870834 641.067245,648.091156 757.756271,543.331100 757.756271C417.289536 757.756271,340.819656 641.029922,373.071838 512.000031C409.868896 364.787659,562.053558 266.243790,714.812546 266.243790C854.642105 266.243790,956.183578 372.621475,953.338470 512.000031C951.945099 580.259583,951.945099 648.540466,953.338470 716.800018" style="stroke:rgb(80.000305%,80.000305%,80.000305%); stroke-width: 2.000000;stroke-linejoin: round;stroke-miterlimit: 10.000000;fill: none;"></path>
  <path d="M953.338470 512.000031C953.337769 393.780243,1047.792374 276.530670,1156.564713 278.525040C1281.365433 280.813293,1308.647690 429.554962,1247.478271 573.443771C1200.749100 683.364822,1245.571030 792.036026,1348.841568 819.200012C1504.276047 860.085052,1637.965576 698.598618,1618.938431 512.000031C1605.685486 382.028931,1529.014496 267.022415,1414.138443 204.800049" style="stroke:rgb(80.000305%,80.000305%,80.000305%); stroke-width: 2.000000;stroke-linejoin: round;stroke-miterlimit: 10.000000;fill: none;"></path>
</svg>
