<?xml version="1.0"?>

<svg version="1.1" xmlns="http://www.w3.org/2000/svg" xmlns:xlink="http://www.w3.org/1999/xlink" width="1845.385086" height="1024.000000" viewBox="0 0 1845.385086 1024.000000">

  <g transform="translate(1561.524200 1003.861069)" style="fill: rgb(0.000000%,0.000000%,0.000000%);">
    <text font-size="9.962646">right</text>
  </g>
  <path d="M491.518707 819.200012C370.467087 763.984726,291.128357 644.976639,286.718719 512.000031C281.570358 356.746780,383.140915 215.495483,532.478699 204.800049C695.844040 193.099976,820.476608 339.749802,839.678680 512.000031C853.407120 635.149567,795.030609 757.643127,686.078690 757.760010C589.873337 757.863205,530.542114 658.116211,532.478699 552.960022C535.736160 376.080139,677.840576 232.954803,839.678680 266.243790C972.868347 293.639984,1044.478668 431.582718,1044.478668 573.443771C1044.478668 573.455444,1044.478668 716.788345,1044.478668 716.800018" style="stroke:rgb(80.000305%,80.000305%,80.000305%); stroke-width: 2.000000;stroke-linejoin: round;stroke-miterlimit: 10.000000;fill: none;"></path>
  <path d="M1045.478668 716.800018C1045.478668 716.788345,1045.478668 573.455444,1045.478668 573.443771C1045.478668 431.582718,1117.088989 293.639984,1250.278656 266.243790C1412.116760 232.954803,1554.221176 376.080139,1557.478638 552.960022C1559.415222 658.116211,1500.084000 757.863205,1403.878647 757.760010C1294.926727 757.643127,1236.550217 635.149567,1250.278656 512.000031C1269.480728 339.749802,1394.113297 193.099976,1557.478638 204.800049C1706.816422 215.495483,1808.386978 356.746780,1803.238617 512.000031" style="stroke:rgb(80.000305%,80.000305%,80.000305%); stroke-width: 2.000000;stroke-linejoin: round;stroke-miterlimit: 10.000000;fill: none;"></path>
  <path d="M1803.238617 512.000031C1803.238617 776.117462,1654.605881 1025.870270,1403.878647 1070.079681C1153.416992 1114.242279,897.159821 1114.242279,646.698166 1070.079681C354.567230 1018.569748,112.623978 802.477417,81.918732 512.000031C70.685837 405.734863,92.118698 298.570633,143.358734 204.800049" style="stroke:rgb(80.000305%,80.000305%,80.000305%); stroke-width: 2.000000;stroke-linejoin: round;stroke-miterlimit: 10.000000;fill: none;"></path>
</svg>
