<?xml version="1.0"?>

<svg version="1.1" xmlns="http://www.w3.org/2000/svg" xmlns:xlink="http://www.w3.org/1999/xlink" width="1436.106232" height="1024.000000" viewBox="0 0 1436.106232 1024.000000">

  <g transform="translate(529.852295 206.944794)" style="fill: rgb(0.000000%,0.000000%,0.000000%);">
    <text font-size="9.962646">vc</text>
  </g>
  <g transform="translate(1211.006516 982.867676)" style="fill: rgb(0.000000%,0.000000%,0.000000%);">
    <text font-size="9.962646">bottom</text>
  </g>
  <g transform="translate(1216.250763 981.899078)" style="fill: rgb(0.000000%,0.000000%,0.000000%);">
    <text font-size="9.962646">right</text>
  </g>
  <path d="M320.342163 819.200012C283.206299 724.654907,271.658768 619.151154,286.718719 512.000031C306.747421 369.496414,397.479355 230.473083,534.695267 204.800049C644.754669 184.207993,737.050995 256.593948,717.906982 358.400040C699.921890 454.043045,594.296112 512.000031,491.518707 512.000031C657.976730 512.000031,811.187836 582.405670,769.934311 716.800018C733.174042 836.556427,576.469620 868.349411,448.342148 819.200012" style="stroke:rgb(80.000305%,80.000305%,80.000305%); stroke-width: 2.000000;stroke-linejoin: round;stroke-miterlimit: 10.000000;fill: none;"></path>
  <path d="M487.491592 831.510132C725.409531 918.106155,979.013443 755.619217,979.013443 512.000031" style="stroke:rgb(80.000305%,80.000305%,80.000305%); stroke-width: 2.000000;stroke-linejoin: round;stroke-miterlimit: 10.000000;fill: none;"></path>
  <path d="M979.013443 307.200043C979.013443 307.216705,979.013443 511.983368,979.013443 512.000031C979.013443 655.280746,1049.749374 795.561188,1183.813431 819.200012C1322.845840 843.714874,1418.674606 682.487640,1388.613419 512.000031C1366.302856 385.468918,1292.030396 274.060242,1183.813431 204.800049" style="stroke:rgb(80.000305%,80.000305%,80.000305%); stroke-width: 2.000000;stroke-linejoin: round;stroke-miterlimit: 10.000000;fill: none;"></path>
  <path d="M1392.204987 611.768036C1392.204987 857.086929,1215.881531 1070.079681,979.013443 1070.079681L612.445541 1070.079681C319.318802 1070.079681,97.130447 814.053070,81.918732 512.000031C76.584885 406.087830,97.699707 300.513672,143.358734 204.800049" style="stroke:rgb(80.000305%,80.000305%,80.000305%); stroke-width: 2.000000;stroke-linejoin: round;stroke-miterlimit: 10.000000;fill: none;"></path>
</svg>
