<?xml version="1.0"?>

<svg version="1.1" xmlns="http://www.w3.org/2000/svg" xmlns:xlink="http://www.w3.org/1999/xlink" width="1231.306244" height="1024.000000" viewBox="0 0 1231.306244 1024.000000">

  <g transform="translate(325.052307 206.944794)" style="fill: rgb(0.000000%,0.000000%,0.000000%);">
    <text font-size="9.962646">vc</text>
  </g>
  <g transform="translate(1074.471817 799.336639)" style="fill: rgb(0.000000%,0.000000%,0.000000%);">
    <text font-size="9.962646">bottom</text>
  </g>
  <g transform="translate(1079.716064 798.368042)" style="fill: rgb(0.000000%,0.000000%,0.000000%);">
    <text font-size="9.962646">right</text>
  </g>
  <path d="M115.542175 819.200012C78.406311 724.654907,66.858780 619.151154,81.918732 512.000031C101.947433 369.496414,192.679367 230.473083,329.895279 204.800049C439.954681 184.207993,532.251007 256.593948,513.106995 358.400040C495.121902 454.043045,389.496124 512.000031,286.718719 512.000031C453.176743 512.000031,606.387848 582.405670,565.134323 716.800018C528.374054 836.556427,371.669632 868.349411,243.542160 819.200012" style="stroke:rgb(80.000305%,80.000305%,80.000305%); stroke-width: 2.000000;stroke-linejoin: round;stroke-miterlimit: 10.000000;fill: none;"></path>
  <path d="M282.691605 831.510132C520.609543 918.106155,774.213455 755.619217,774.213455 512.000031" style="stroke:rgb(80.000305%,80.000305%,80.000305%); stroke-width: 2.000000;stroke-linejoin: round;stroke-miterlimit: 10.000000;fill: none;"></path>
  <path d="M774.213455 307.200043C774.213455 307.216705,774.213455 511.983368,774.213455 512.000031C774.213455 655.280746,844.949387 795.561188,979.013443 819.200012C1118.045853 843.714874,1213.874619 682.487640,1183.813431 512.000031C1161.502869 385.468918,1087.230408 274.060242,979.013443 204.800049" style="stroke:rgb(80.000305%,80.000305%,80.000305%); stroke-width: 2.000000;stroke-linejoin: round;stroke-miterlimit: 10.000000;fill: none;"></path>
</svg>
