<?xml version="1.0"?>

<svg version="1.1" xmlns="http://www.w3.org/2000/svg" xmlns:xlink="http://www.w3.org/1999/xlink" width="1194.544693" height="1024.000000" viewBox="0 0 1194.544693 1024.000000">

  <g transform="translate(691.475723 718.944763)" style="fill: rgb(0.000000%,0.000000%,0.000000%);">
    <text font-size="9.962646">vc</text>
  </g>
  <g transform="translate(1096.044846 915.057632)" style="fill: rgb(0.000000%,0.000000%,0.000000%);">
    <text font-size="9.962646">right</text>
  </g>
  <path d="M491.518707 819.200012C367.366821 767.690399,286.515320 646.413162,286.718719 512.000031C286.913696 383.152267,370.239456 266.289673,491.518707 266.243790C612.852905 266.197891,696.318695 383.093216,696.318695 512.000031C696.318695 512.016693,696.318695 716.783356,696.318695 716.800018" style="stroke:rgb(80.000305%,80.000305%,80.000305%); stroke-width: 2.000000;stroke-linejoin: round;stroke-miterlimit: 10.000000;fill: none;"></path>
  <path d="M696.318695 512.000031C716.347397 369.496414,807.079330 230.473083,944.295242 204.800049C1054.354645 184.207993,1146.650970 256.593948,1127.506958 358.400040C1109.521866 454.043045,1003.896088 512.000031,901.118683 512.000031C1061.652100 512.000031,1180.465302 661.312943,1146.874924 819.200012C1117.363586 957.914093,982.963943 1039.693954,839.674942 1064.959366C752.028183 1080.413666,662.353348 1080.413666,574.706589 1064.959366C330.103867 1021.829849,117.630707 855.282043,81.918732 614.400024C60.674744 471.106461,111.867004 330.290451,184.318726 204.800049" style="stroke:rgb(80.000305%,80.000305%,80.000305%); stroke-width: 2.000000;stroke-linejoin: round;stroke-miterlimit: 10.000000;fill: none;"></path>
</svg>
