<?xml version="1.0"?>

<svg version="1.1" xmlns="http://www.w3.org/2000/svg" xmlns:xlink="http://www.w3.org/1999/xlink" width="1672.062881" height="1024.000000" viewBox="0 0 1672.062881 1024.000000">

  <g transform="translate(486.675735 616.544769)" style="fill: rgb(0.000000%,0.000000%,0.000000%);">
    <text font-size="9.962646">vc</text>
  </g>
  <g transform="translate(1496.682388 821.690674)" style="fill: rgb(0.000000%,0.000000%,0.000000%);">
    <text font-size="9.962646">right</text>
  </g>
  <path d="M286.718719 819.200012C164.177643 765.748764,84.127167 645.673050,81.918732 512.000031C79.737274 379.960709,164.965729 259.990860,286.718719 266.243790C434.847397 273.851303,491.518707 447.480347,491.518707 614.400024C491.518707 614.412521,491.518707 767.987518,491.518707 768.000015" style="stroke:rgb(80.000305%,80.000305%,80.000305%); stroke-width: 2.000000;stroke-linejoin: round;stroke-miterlimit: 10.000000;fill: none;"></path>
  <path d="M491.518707 614.400024C522.713333 392.451126,669.747757 181.945129,856.287430 204.800049C992.350159 221.470505,1052.106033 364.890396,1017.910858 512.000031C987.594498 642.422745,894.319931 757.973785,769.934311 819.200012" style="stroke:rgb(80.000305%,80.000305%,80.000305%); stroke-width: 2.000000;stroke-linejoin: round;stroke-miterlimit: 10.000000;fill: none;"></path>
  <path d="M769.934311 819.200012C997.779495 687.653900,1285.749207 974.524185,1507.212387 819.200012C1602.516357 752.358170,1629.253494 629.720795,1630.090500 512.000031C1631.195282 356.617249,1561.981750 202.089645,1425.290512 204.800049C1290.034729 207.481979,1231.348572 361.860596,1220.490524 512.000031C1213.092911 614.290451,1211.550659 717.019180,1220.490524 819.200012" style="stroke:rgb(80.000305%,80.000305%,80.000305%); stroke-width: 2.000000;stroke-linejoin: round;stroke-miterlimit: 10.000000;fill: none;"></path>
</svg>
