<?xml version="1.0"?>

<svg version="1.1" xmlns="http://www.w3.org/2000/svg" xmlns:xlink="http://www.w3.org/1999/xlink" width="1369.530167" height="1024.000000" viewBox="0 0 1369.530167 1024.000000">

  <g transform="translate(640.275726 821.344757)" style="fill: rgb(0.000000%,0.000000%,0.000000%);">
    <text font-size="9.962646">vc</text>
  </g>
  <path d="M286.718719 819.200012C164.177643 765.748764,84.127167 645.673050,81.918732 512.000031C79.737274 379.960709,164.965729 259.990860,286.718719 266.243790C434.847397 273.851303,491.518707 447.480347,491.518707 614.400024C491.518707 614.412521,491.518707 767.987518,491.518707 768.000015" style="stroke:rgb(80.000305%,80.000305%,80.000305%); stroke-width: 2.000000;stroke-linejoin: round;stroke-miterlimit: 10.000000;fill: none;"></path>
  <path d="M491.518707 614.400024C491.518707 509.510300,549.350800 409.600037,645.118698 409.600037C740.886597 409.600037,798.718689 509.510300,798.718689 614.400024C798.718689 614.412521,798.718689 767.987518,798.718689 768.000015" style="stroke:rgb(80.000305%,80.000305%,80.000305%); stroke-width: 2.000000;stroke-linejoin: round;stroke-miterlimit: 10.000000;fill: none;"></path>
  <path d="M798.718689 614.400024C830.531418 388.053391,979.283310 174.623688,1163.487411 204.800049C1293.927124 226.168716,1339.176147 368.776917,1325.110840 512.000031C1309.843033 667.467758,1214.551086 820.643143,1077.134293 819.200012C980.911835 818.189499,920.982605 730.739700,949.440506 634.878143C993.775970 485.532379,1188.242889 426.001083,1325.110840 512.000031" style="stroke:rgb(80.000305%,80.000305%,80.000305%); stroke-width: 2.000000;stroke-linejoin: round;stroke-miterlimit: 10.000000;fill: none;"></path>
</svg>
