<?xml version="1.0"?>

<svg version="1.1" xmlns="http://www.w3.org/2000/svg" xmlns:xlink="http://www.w3.org/1999/xlink" width="1281.574570" height="1024.000000" viewBox="0 0 1281.574570 1024.000000">

  <g transform="translate(589.075729 821.344757)" style="fill: rgb(0.000000%,0.000000%,0.000000%);">
    <text font-size="9.962646">vc</text>
  </g>
  <g transform="translate(1161.822540 822.659271)" style="fill: rgb(0.000000%,0.000000%,0.000000%);">
    <text font-size="9.962646">bottom</text>
  </g>
  <g transform="translate(1167.066788 821.690674)" style="fill: rgb(0.000000%,0.000000%,0.000000%);">
    <text font-size="9.962646">right</text>
  </g>
  <path d="M81.918732 512.000031C216.994492 430.733124,387.449692 488.133331,396.279663 614.400024C402.002869 696.240891,359.877747 773.120331,284.499146 773.120331C165.265427 773.120331,88.898834 644.432755,81.918732 512.000031C74.440826 370.122330,134.159851 231.275269,265.235916 204.800049C429.240036 171.673889,580.957291 326.654266,593.918701 512.000031C593.918701 512.016693,593.918701 716.783356,593.918701 716.800018" style="stroke:rgb(80.000305%,80.000305%,80.000305%); stroke-width: 2.000000;stroke-linejoin: round;stroke-miterlimit: 10.000000;fill: none;"></path>
  <path d="M593.918701 512.000031C593.918701 376.611542,678.248215 253.243317,798.718689 266.243790C893.297668 276.450211,950.106903 370.937698,952.318680 471.043777C955.306686 606.282089,873.503296 728.987183,747.518692 778.243759" style="stroke:rgb(80.000305%,80.000305%,80.000305%); stroke-width: 2.000000;stroke-linejoin: round;stroke-miterlimit: 10.000000;fill: none;"></path>
  <path d="M747.518692 778.243759C886.420746 727.686966,1038.694733 828.800552,1177.596786 778.243759C1275.468475 721.737671,1225.766129 587.334854,1177.596786 471.043777C1136.104111 370.871613,1123.734375 257.136490,1177.596786 163.843796" style="stroke:rgb(80.000305%,80.000305%,80.000305%); stroke-width: 2.000000;stroke-linejoin: round;stroke-miterlimit: 10.000000;fill: none;"></path>
  <path d="M1233.659760 663.388046C1270.359451 871.524872,1133.715988 1070.322006,926.459778 1116.159363C807.159256 1142.544189,697.511444 1073.163437,721.659790 983.040634C755.722488 855.916992,943.232346 887.172562,1080.059769 1024.000000" style="stroke:rgb(80.000305%,80.000305%,80.000305%); stroke-width: 2.000000;stroke-linejoin: round;stroke-miterlimit: 10.000000;fill: none;"></path>
</svg>
