<?xml version="1.0"?>

<svg version="1.1" xmlns="http://www.w3.org/2000/svg" xmlns:xlink="http://www.w3.org/1999/xlink" width="1303.265427" height="1024.000000" viewBox="0 0 1303.265427 1024.000000">

  <g transform="translate(589.075729 821.344757)" style="fill: rgb(0.000000%,0.000000%,0.000000%);">
    <text font-size="9.962646">vc</text>
  </g>
  <g transform="translate(1147.221848 837.090256)" style="fill: rgb(0.000000%,0.000000%,0.000000%);">
    <text font-size="9.962646">bottom</text>
  </g>
  <g transform="translate(1152.466095 836.121658)" style="fill: rgb(0.000000%,0.000000%,0.000000%);">
    <text font-size="9.962646">right</text>
  </g>
  <path d="M235.518723 665.600021C126.364136 632.130737,60.083588 521.663162,81.918732 409.600037C108.499420 273.181686,246.122849 192.414963,389.118713 204.800049C509.915115 215.262405,613.003204 301.365082,593.918701 409.600037C559.457581 605.041260,383.531067 730.933060,193.884720 799.959473" style="stroke:rgb(80.000305%,80.000305%,80.000305%); stroke-width: 2.000000;stroke-linejoin: round;stroke-miterlimit: 10.000000;fill: none;"></path>
  <path d="M81.918732 819.200012C265.468781 752.392502,466.688965 886.007523,650.239014 819.200012" style="stroke:rgb(80.000305%,80.000305%,80.000305%); stroke-width: 2.000000;stroke-linejoin: round;stroke-miterlimit: 10.000000;fill: none;"></path>
  <path d="M788.474945 665.600021C679.320358 632.130737,613.039810 521.663162,634.874954 409.600037C661.455643 273.181686,799.079071 192.414963,942.074936 204.800049C1062.871338 215.262405,1165.959427 301.365082,1146.874924 409.600037C1112.413803 605.041260,936.487289 730.933060,746.840942 799.959473" style="stroke:rgb(80.000305%,80.000305%,80.000305%); stroke-width: 2.000000;stroke-linejoin: round;stroke-miterlimit: 10.000000;fill: none;"></path>
  <path d="M650.239014 819.200012C833.789062 752.392502,1035.009247 886.007523,1218.559296 819.200012C1289.790527 793.273666,1259.317444 697.049637,1218.559296 614.400024C1170.806778 517.567184,1170.806778 404.032883,1218.559296 307.200043" style="stroke:rgb(80.000305%,80.000305%,80.000305%); stroke-width: 2.000000;stroke-linejoin: round;stroke-miterlimit: 10.000000;fill: none;"></path>
</svg>
