<?xml version="1.0"?>

<svg version="1.1" xmlns="http://www.w3.org/2000/svg" xmlns:xlink="http://www.w3.org/1999/xlink" width="1293.963943" height="1024.000000" viewBox="0 0 1293.963943 1024.000000">

  <path d="M471.040588 819.200012C355.033676 761.416016,283.114273 641.551575,286.718719 512.000031C291.507309 339.887802,425.934952 197.963028,593.918701 204.800049C753.768494 211.306015,869.853546 349.892624,901.118683 512.000031C931.684875 670.483429,852.878540 827.997070,716.796814 819.200012C582.393051 810.511429,516.710419 645.725830,593.916824 512.000031C688.995209 347.318970,856.555679 239.817368,1043.714493 204.800049C1153.773895 184.207993,1246.070221 256.593948,1226.926208 358.400040C1208.941116 454.043045,1103.315338 512.000031,1000.537933 512.000031C1161.071350 512.000031,1279.884552 661.312943,1246.294174 819.200012C1216.782837 957.914093,1082.383194 1039.693954,939.094193 1064.959366C817.153488 1086.460541,692.391174 1086.460541,570.450470 1064.959366C330.210770 1022.599152,128.664673 851.560699,81.918732 614.400024C53.344162 469.429932,90.884644 319.267975,184.318726 204.800049" style="stroke:rgb(80.000305%,80.000305%,80.000305%); stroke-width: 2.000000;stroke-linejoin: round;stroke-miterlimit: 10.000000;fill: none;"></path>
</svg>
