<?xml version="1.0"?>

<svg version="1.1" xmlns="http://www.w3.org/2000/svg" xmlns:xlink="http://www.w3.org/1999/xlink" width="791.364670" height="1024.000000" viewBox="0 0 791.364670 1024.000000">

  <g transform="translate(333.075745 821.344757)" style="fill: rgb(0.000000%,0.000000%,0.000000%);">
    <text font-size="9.962646">vc</text>
  </g>
  <g transform="translate(677.079041 1079.402069)" style="fill: rgb(0.000000%,0.000000%,0.000000%);">
    <text font-size="9.962646">right</text>
  </g>
  <path d="M235.518723 512.000031C340.376465 620.060837,523.668991 558.963318,542.718704 409.600037C557.253510 295.636749,457.433105 200.568802,337.918716 204.800049C149.457153 211.472290,37.711777 419.898224,104.958572 614.400024C138.342575 710.958542,212.326416 789.128677,309.758560 819.200012C475.806763 870.448929,650.139984 776.937851,719.358536 614.400024C778.774673 474.880081,748.481934 313.318832,642.558533 204.800049" style="stroke:rgb(80.000305%,80.000305%,80.000305%); stroke-width: 2.000000;stroke-linejoin: round;stroke-miterlimit: 10.000000;fill: none;"></path>
  <path d="M381.436676 906.971436C385.192871 1014.542984,351.111160 1126.399994,258.558563 1126.399994C173.727631 1126.399994,104.958572 1057.630936,104.958572 972.800003C104.958572 895.603470,153.970566 825.162537,227.836685 819.200012C313.638657 812.274033,369.844421 893.844482,412.158554 972.800003C454.305405 1051.443390,510.703476 1132.099884,596.480423 1126.399994C671.628677 1121.406387,723.382431 1050.624069,719.358536 972.800003C715.621811 900.529648,666.167542 838.710876,596.480423 819.200012" style="stroke:rgb(80.000305%,80.000305%,80.000305%); stroke-width: 2.000000;stroke-linejoin: round;stroke-miterlimit: 10.000000;fill: none;"></path>
</svg>
