<?xml version="1.0"?>

<svg version="1.1" xmlns="http://www.w3.org/2000/svg" xmlns:xlink="http://www.w3.org/1999/xlink" width="1680.865768" height="1024.000000" viewBox="0 0 1680.865768 1024.000000">

  <g transform="translate(875.678833 821.344757)" style="fill: rgb(0.000000%,0.000000%,0.000000%);">
    <text font-size="9.962646">vc</text>
  </g>
  <g transform="translate(1554.624832 1051.723709)" style="fill: rgb(0.000000%,0.000000%,0.000000%);">
    <text font-size="9.962646">right</text>
  </g>
  <path d="M95.742081 512.000031C236.033951 408.063492,411.315857 483.221603,400.231339 642.560181C394.069275 731.139114,320.046646 813.047272,232.549973 819.200012C94.680573 828.894943,53.890564 670.952454,81.918732 512.000031C105.609039 377.648392,207.758926 256.473755,340.887466 204.800049C542.987930 126.354950,745.885483 209.613022,717.906982 358.400040C699.921890 454.043045,594.296112 512.000031,491.518707 512.000031C657.976730 512.000031,811.187836 582.405670,769.934311 716.800018C747.740250 789.103104,683.801041 836.851410,615.676849 870.400009C452.747253 950.636703,266.112122 961.989670,95.742081 1024.000000" style="stroke:rgb(80.000305%,80.000305%,80.000305%); stroke-width: 2.000000;stroke-linejoin: round;stroke-miterlimit: 10.000000;fill: none;"></path>
  <path d="M95.742081 1024.000000C213.564407 981.115692,341.179245 1002.275131,464.385803 1024.000000C603.465027 1048.523682,747.520462 1072.409088,880.521805 1024.000000" style="stroke:rgb(80.000305%,80.000305%,80.000305%); stroke-width: 2.000000;stroke-linejoin: round;stroke-miterlimit: 10.000000;fill: none;"></path>
  <path d="M894.345154 512.000031C1034.637024 408.063492,1209.918930 483.221603,1198.834412 642.560181C1192.672348 731.139114,1118.649719 813.047272,1031.153046 819.200012C893.283646 828.894943,852.493637 670.952454,880.521805 512.000031C904.212112 377.648392,1006.362000 256.473755,1139.490540 204.800049C1341.591003 126.354950,1544.488556 209.613022,1516.510056 358.400040C1498.524963 454.043045,1392.899185 512.000031,1290.121780 512.000031C1456.579803 512.000031,1609.790909 582.405670,1568.537384 716.800018C1546.343323 789.103104,1482.404114 836.851410,1414.279922 870.400009C1251.350327 950.636703,1064.715195 961.989670,894.345154 1024.000000" style="stroke:rgb(80.000305%,80.000305%,80.000305%); stroke-width: 2.000000;stroke-linejoin: round;stroke-miterlimit: 10.000000;fill: none;"></path>
  <path d="M894.345154 1024.000000C1012.167480 981.115692,1139.782318 1002.275131,1262.988876 1024.000000C1388.159332 1046.071167,1517.360458 1067.625336,1638.906403 1036.426178" style="stroke:rgb(80.000305%,80.000305%,80.000305%); stroke-width: 2.000000;stroke-linejoin: round;stroke-miterlimit: 10.000000;fill: none;"></path>
</svg>
