<?xml version="1.0"?>

<svg version="1.1" xmlns="http://www.w3.org/2000/svg" xmlns:xlink="http://www.w3.org/1999/xlink" width="1202.537659" height="1024.000000" viewBox="0 0 1202.537659 1024.000000">

  <g transform="translate(640.275726 206.944794)" style="fill: rgb(0.000000%,0.000000%,0.000000%);">
    <text font-size="9.962646">vc</text>
  </g>
  <g transform="translate(1043.114090 983.824463)" style="fill: rgb(0.000000%,0.000000%,0.000000%);">
    <text font-size="9.962646">right</text>
  </g>
  <path d="M440.318710 819.200012C355.471497 734.352798,282.105011 631.355057,286.718719 512.000031C293.659256 332.450592,458.797394 204.800049,645.118698 204.800049C788.026886 204.800049,877.231369 357.100174,849.918686 512.000031C827.608124 638.531143,753.335663 749.939819,645.118698 819.200012" style="stroke:rgb(80.000305%,80.000305%,80.000305%); stroke-width: 2.000000;stroke-linejoin: round;stroke-miterlimit: 10.000000;fill: none;"></path>
  <path d="M645.118698 819.200012C784.020752 768.643219,936.294739 869.756805,1075.196793 819.200012C1173.068481 762.693924,1123.366135 628.291107,1075.196793 512.000031C1033.704117 411.827866,1021.334381 298.092743,1075.196793 204.800049" style="stroke:rgb(80.000305%,80.000305%,80.000305%); stroke-width: 2.000000;stroke-linejoin: round;stroke-miterlimit: 10.000000;fill: none;"></path>
  <path d="M1075.196793 512.000031C1141.893204 627.521942,1192.431610 761.413696,1136.640533 880.643753C1056.902023 1051.051407,840.272690 1064.959366,645.118698 1064.959366C333.282257 1064.959366,75.275543 819.383942,81.918732 512.000031C84.380142 398.109665,128.035049 288.970718,204.796844 204.800049" style="stroke:rgb(80.000305%,80.000305%,80.000305%); stroke-width: 2.000000;stroke-linejoin: round;stroke-miterlimit: 10.000000;fill: none;"></path>
</svg>
