<?xml version="1.0"?>

<svg version="1.1" xmlns="http://www.w3.org/2000/svg" xmlns:xlink="http://www.w3.org/1999/xlink" width="1183.717712" height="1024.000000" viewBox="0 0 1183.717712 1024.000000">

  <g transform="translate(589.075729 222.308853)" style="fill: rgb(0.000000%,0.000000%,0.000000%);">
    <text font-size="9.962646">vc</text>
  </g>
  <path d="M184.318726 204.800049C117.849808 293.425278,81.918732 401.218491,81.918732 512.000031C81.918732 640.033890,124.172668 773.120331,235.518723 773.120331C363.716232 773.120331,370.614044 606.027328,389.118713 465.920349C404.840057 346.887177,478.601425 238.931061,593.918701 220.164108C777.619583 190.268295,918.161606 378.874268,901.118683 588.807831C893.005722 688.742828,840.308105 785.180054,747.518692 788.478134C656.567902 791.710861,593.878952 702.340424,593.918701 604.156265C593.983932 443.012024,727.151230 316.480545,890.878052 296.956284C1010.386948 282.704971,1129.634399 341.450302,1136.638031 450.556274C1142.080521 535.342255,1070.087921 604.156265,983.038040 604.156265C1082.014374 604.156265,1174.034546 663.225052,1187.838028 757.756256C1225.072601 1012.752060,866.320221 975.968857,593.918701 1024.000000" style="stroke:rgb(80.000305%,80.000305%,80.000305%); stroke-width: 2.000000;stroke-linejoin: round;stroke-miterlimit: 10.000000;fill: none;"></path>
  <path d="M593.918701 1024.000000C696.193832 986.774475,806.969330 1005.141815,913.918213 1024.000000C1020.867096 1042.858185,1131.642578 1061.225525,1233.917709 1024.000000" style="stroke:rgb(80.000305%,80.000305%,80.000305%); stroke-width: 2.000000;stroke-linejoin: round;stroke-miterlimit: 10.000000;fill: none;"></path>
</svg>
