<?xml version="1.0"?>

<svg version="1.1" xmlns="http://www.w3.org/2000/svg" xmlns:xlink="http://www.w3.org/1999/xlink" width="1257.552322" height="1024.000000" viewBox="0 0 1257.552322 1024.000000">

  <g transform="translate(819.477615 821.344757)" style="fill: rgb(0.000000%,0.000000%,0.000000%);">
    <text font-size="9.962646">vc</text>
  </g>
  <g transform="translate(1132.528717 923.822403)" style="fill: rgb(0.000000%,0.000000%,0.000000%);">
    <text font-size="9.962646">bottom</text>
  </g>
  <g transform="translate(1137.772964 922.853806)" style="fill: rgb(0.000000%,0.000000%,0.000000%);">
    <text font-size="9.962646">right</text>
  </g>
  <path d="M363.518723 819.200012C308.451401 764.132690,271.753754 690.145126,286.718719 614.400024C304.949234 522.126297,390.923340 460.800034,486.398712 460.800034C578.038910 460.800034,654.734665 530.827209,639.998703 614.400024C624.335342 703.232407,567.292053 779.290115,486.398712 819.200012" style="stroke:rgb(80.000305%,80.000305%,80.000305%); stroke-width: 2.000000;stroke-linejoin: round;stroke-miterlimit: 10.000000;fill: none;"></path>
  <path d="M486.398712 819.200012C695.505569 698.472458,953.135559 939.927567,1162.242416 819.200012C1261.133377 762.105453,1199.150803 629.058548,1162.242416 512.000031C1130.942078 412.727951,1144.199326 307.128799,1162.242416 204.800049" style="stroke:rgb(80.000305%,80.000305%,80.000305%); stroke-width: 2.000000;stroke-linejoin: round;stroke-miterlimit: 10.000000;fill: none;"></path>
  <path d="M1162.242416 204.800049C1138.755447 338.002930,1072.443054 466.628952,947.198685 512.000031C660.551743 615.840851,557.642426 269.513840,732.154953 204.800049C838.268906 165.450241,916.476822 299.629517,916.476822 450.556290L916.476822 819.200012" style="stroke:rgb(80.000305%,80.000305%,80.000305%); stroke-width: 2.000000;stroke-linejoin: round;stroke-miterlimit: 10.000000;fill: none;"></path>
  <path d="M1197.209732 619.188248C1254.360397 832.477310,1110.631516 1043.375168,894.238297 1116.159363C539.561127 1235.455582,169.192261 991.919205,81.918732 614.400024C49.792465 475.431427,61.856750 328.229752,133.118729 204.800049" style="stroke:rgb(80.000305%,80.000305%,80.000305%); stroke-width: 2.000000;stroke-linejoin: round;stroke-miterlimit: 10.000000;fill: none;"></path>
</svg>
