<?xml version="1.0"?>

<svg version="1.1" xmlns="http://www.w3.org/2000/svg" xmlns:xlink="http://www.w3.org/1999/xlink" width="1342.438705" height="1024.000000" viewBox="0 0 1342.438705 1024.000000">

  <path d="M109.565598 450.556290C236.138962 355.626266,416.765579 445.939590,416.765579 604.156281C416.765579 694.806473,350.934860 773.120331,263.165588 773.120331C142.995255 773.120331,71.344482 644.712219,81.918732 512.000031C95.702072 339.012207,224.192230 193.563843,389.118713 204.800049C540.280777 215.098511,645.119354 355.266922,645.119354 512.000031C645.119354 622.781570,609.188278 730.574783,542.719360 819.200012" style="stroke:rgb(80.000305%,80.000305%,80.000305%); stroke-width: 2.000000;stroke-linejoin: round;stroke-miterlimit: 10.000000;fill: none;"></path>
  <path d="M764.925583 450.556290C891.498947 355.626266,1072.125565 445.939590,1072.125565 604.156281C1072.125565 694.806473,1006.294846 773.120331,918.525574 773.120331C798.355240 773.120331,726.704468 644.712219,737.278717 512.000031C751.062057 339.012207,879.552216 193.563843,1044.478699 204.800049C1195.640762 215.098511,1300.479340 355.266922,1300.479340 512.000031C1300.479340 622.781570,1264.548264 730.574783,1198.079346 819.200012" style="stroke:rgb(80.000305%,80.000305%,80.000305%); stroke-width: 2.000000;stroke-linejoin: round;stroke-miterlimit: 10.000000;fill: none;"></path>
</svg>
