<?xml version="1.0"?>

<svg version="1.1" xmlns="http://www.w3.org/2000/svg" xmlns:xlink="http://www.w3.org/1999/xlink" width="1285.113724" height="1024.000000" viewBox="0 0 1285.113724 1024.000000">

  <path d="M109.565598 450.556290C236.138962 355.626266,416.765579 445.939590,416.765579 604.156281C416.765579 694.806473,350.934860 773.120331,263.165588 773.120331C142.995255 773.120331,71.344482 644.712219,81.918732 512.000031C95.702072 339.012207,224.192230 193.563843,389.118713 204.800049C540.280777 215.098511,645.119354 355.266922,645.119354 512.000031C645.119354 622.781570,609.188278 730.574783,542.719360 819.200012" style="stroke:rgb(80.000305%,80.000305%,80.000305%); stroke-width: 2.000000;stroke-linejoin: round;stroke-miterlimit: 10.000000;fill: none;"></path>
  <path d="M831.442352 386.954803C848.780167 296.338364,902.974289 227.839890,994.299728 227.839890C1124.765213 227.839890,1218.747589 367.633911,1239.038055 512.000031C1257.299347 641.928650,1214.830017 768.153931,1111.045593 792.101074C1000.115494 817.697006,886.611328 764.627274,829.438080 665.600021" style="stroke:rgb(80.000305%,80.000305%,80.000305%); stroke-width: 2.000000;stroke-linejoin: round;stroke-miterlimit: 10.000000;fill: none;"></path>
</svg>
