<?xml version="1.0"?>

<svg version="1.1" xmlns="http://www.w3.org/2000/svg" xmlns:xlink="http://www.w3.org/1999/xlink" width="1545.981949" height="1024.000000" viewBox="0 0 1545.981949 1024.000000">

  <path d="M109.565598 450.556290C236.138962 355.626266,416.765579 445.939590,416.765579 604.156281C416.765579 694.806473,350.934860 773.120331,263.165588 773.120331C142.995255 773.120331,71.344482 644.712219,81.918732 512.000031C95.702072 339.012207,224.192230 193.563843,389.118713 204.800049C540.280777 215.098511,645.119354 355.266922,645.119354 512.000031C645.119354 622.781570,609.188278 730.574783,542.719360 819.200012" style="stroke:rgb(80.000305%,80.000305%,80.000305%); stroke-width: 2.000000;stroke-linejoin: round;stroke-miterlimit: 10.000000;fill: none;"></path>
  <path d="M906.238083 512.000031C857.026016 476.468887,828.335754 419.088379,829.438080 358.400040C831.072189 268.434067,899.496979 193.058884,983.038071 204.800049C1078.675095 218.241226,1136.638062 312.996948,1136.638062 413.693787C1136.638062 413.704285,1136.638062 542.711411,1136.638062 542.721909" style="stroke:rgb(80.000305%,80.000305%,80.000305%); stroke-width: 2.000000;stroke-linejoin: round;stroke-miterlimit: 10.000000;fill: none;"></path>
  <path d="M1136.638062 413.693787C1157.722000 294.119354,1234.634552 185.967941,1341.438049 204.800049C1469.759186 227.426239,1527.785690 373.912262,1495.038040 512.000031C1454.031158 684.914734,1303.869125 810.048477,1126.394318 819.200012" style="stroke:rgb(80.000305%,80.000305%,80.000305%); stroke-width: 2.000000;stroke-linejoin: round;stroke-miterlimit: 10.000000;fill: none;"></path>
</svg>
