<?xml version="1.0"?>

<svg version="1.1" xmlns="http://www.w3.org/2000/svg" xmlns:xlink="http://www.w3.org/1999/xlink" width="862.599365" height="1024.000000" viewBox="0 0 862.599365 1024.000000">

  <path d="M204.796844 204.800049C118.192230 232.488617,65.593506 320.154495,81.918732 409.600037C109.513870 560.793167,284.578949 612.122787,450.562454 614.400024C620.905594 616.737091,799.846848 562.857666,819.206177 409.600037C832.965546 300.674423,745.907471 205.524231,634.884308 204.800049C531.556396 204.126083,446.742661 287.029449,450.562439 389.121918C453.469299 466.814453,509.027542 528.702438,573.440552 573.443787C622.743057 607.689362,680.193237 638.337814,696.318665 696.321899C729.375061 815.186600,595.941376 917.909897,450.562424 880.643753C310.264893 844.680176,220.935974 705.725296,266.240555 573.443771C305.862732 457.753876,450.562424 393.075287,450.562424 266.243790C450.562424 138.245361,327.685547 46.085358,204.806183 81.921921" style="stroke:rgb(80.000305%,80.000305%,80.000305%); stroke-width: 2.000000;stroke-linejoin: round;stroke-miterlimit: 10.000000;fill: none;"></path>
</svg>
