<?xml version="1.0"?>

<svg version="1.1" xmlns="http://www.w3.org/2000/svg" xmlns:xlink="http://www.w3.org/1999/xlink" width="1455.741180" height="1024.000000" viewBox="0 0 1455.741180 1024.000000">

  <path d="M286.718719 204.800049C179.905563 275.479660,106.079483 386.218811,81.918732 512.000031C49.190536 682.383545,146.973221 843.840607,286.718719 819.200012C420.782776 795.561188,491.518707 655.280746,491.518707 512.000031C491.518707 511.983368,491.518707 307.216705,491.518707 307.200043" style="stroke:rgb(80.000305%,80.000305%,80.000305%); stroke-width: 2.000000;stroke-linejoin: round;stroke-miterlimit: 10.000000;fill: none;"></path>
  <path d="M491.518707 307.200043C491.518707 307.216705,491.518707 511.983368,491.518707 512.000031C491.518707 655.280746,562.254639 795.561188,696.318695 819.200012C830.455338 842.851624,901.118683 679.272369,901.118683 512.000031C901.118683 511.983368,901.118683 307.216705,901.118683 307.200043" style="stroke:rgb(80.000305%,80.000305%,80.000305%); stroke-width: 2.000000;stroke-linejoin: round;stroke-miterlimit: 10.000000;fill: none;"></path>
  <path d="M901.118683 512.000031C901.118683 654.995361,972.016281 794.820236,1105.918671 819.200012C1269.841553 849.045654,1403.686218 694.772156,1413.118652 512.000031C1428.018600 223.283569,1189.835144 -14.899887,901.118683 0.000061" style="stroke:rgb(80.000305%,80.000305%,80.000305%); stroke-width: 2.000000;stroke-linejoin: round;stroke-miterlimit: 10.000000;fill: none;"></path>
</svg>
