<?xml version="1.0"?>

<svg version="1.1" xmlns="http://www.w3.org/2000/svg" xmlns:xlink="http://www.w3.org/1999/xlink" width="1146.543732" height="1024.000000" viewBox="0 0 1146.543732 1024.000000">

  <path d="M81.918732 512.000031C216.994492 430.733124,387.449692 488.133331,396.279663 614.400024C402.002869 696.240891,359.877747 773.120331,284.499146 773.120331C165.265427 773.120331,88.898834 644.432755,81.918732 512.000031C74.440826 370.122330,134.159851 231.275269,265.235916 204.800049C429.240036 171.673889,580.957291 326.654266,593.918701 512.000031C593.918701 512.016693,593.918701 716.783356,593.918701 716.800018" style="stroke:rgb(80.000305%,80.000305%,80.000305%); stroke-width: 2.000000;stroke-linejoin: round;stroke-miterlimit: 10.000000;fill: none;"></path>
  <path d="M593.918701 512.000031C614.055954 368.724060,738.351044 246.654892,876.378799 250.879730C990.831284 254.382965,1064.680664 346.697006,1093.354401 455.679718C1139.016312 629.230804,1040.401749 819.264313,888.662109 819.200012C751.761017 819.141998,697.306610 657.918701,778.238678 512.000031C837.966171 404.312714,958.319138 323.592224,975.015228 204.800049C990.449921 94.982620,946.217590 -6.538391,858.835449 -61.443680" style="stroke:rgb(80.000305%,80.000305%,80.000305%); stroke-width: 2.000000;stroke-linejoin: round;stroke-miterlimit: 10.000000;fill: none;"></path>
</svg>
