<?xml version="1.0"?>

<svg version="1.1" xmlns="http://www.w3.org/2000/svg" xmlns:xlink="http://www.w3.org/1999/xlink" width="2356.199844" height="1024.000000" viewBox="0 0 2356.199844 1024.000000">

  <path d="M81.918732 819.200012C143.116669 759.037521,194.898148 689.995544,235.518723 614.400024C303.169235 488.501328,338.363907 347.722672,337.918716 204.800049" style="stroke:rgb(80.000305%,80.000305%,80.000305%); stroke-width: 2.000000;stroke-linejoin: round;stroke-miterlimit: 10.000000;fill: none;"></path>
  <path d="M337.918716 204.800049C335.702744 307.188049,335.702744 409.612030,337.918716 512.000031C341.430283 674.249817,407.669968 836.022125,542.718704 819.200012C667.263214 803.686340,692.238434 650.705841,696.318695 512.000031C700.839874 358.305161,765.130142 203.297546,901.118683 204.800049C1036.412430 206.294861,1094.812225 361.371780,1105.918671 512.000031C1117.590500 670.296097,1175.758560 833.159409,1310.718658 819.200012C1435.754059 806.267166,1464.709976 652.944031,1464.318649 512.000031C1463.865967 348.957748,1533.708328 188.171326,1669.118637 204.800049C1793.752136 220.105362,1822.718628 372.219803,1822.718628 512.000031C1822.718628 365.036102,1891.902191 219.431778,2027.518616 204.800049C2187.314041 187.559631,2302.673630 358.553604,2232.318604 512.000031C2157.046921 676.169800,1923.655151 675.047928,1822.718628 819.200012" style="stroke:rgb(80.000305%,80.000305%,80.000305%); stroke-width: 2.000000;stroke-linejoin: round;stroke-miterlimit: 10.000000;fill: none;"></path>
  <path d="M1822.718628 819.200012L2314.240479 819.200012C2259.364624 724.151962,2259.364624 607.048080,2314.240479 512.000031" style="stroke:rgb(80.000305%,80.000305%,80.000305%); stroke-width: 2.000000;stroke-linejoin: round;stroke-miterlimit: 10.000000;fill: none;"></path>
</svg>
