<?xml version="1.0"?>

<svg version="1.1" xmlns="http://www.w3.org/2000/svg" xmlns:xlink="http://www.w3.org/1999/xlink" width="1301.478027" height="1024.000000" viewBox="0 0 1301.478027 1024.000000">

  <path d="M337.918716 819.200012C222.836411 757.203979,146.083420 642.074478,133.118729 512.000031C121.294571 393.368607,178.267639 274.923447,286.718719 266.243790C422.771835 255.355072,491.518707 413.822693,491.518707 573.443771C491.518707 573.455444,491.518707 716.788345,491.518707 716.800018" style="stroke:rgb(80.000305%,80.000305%,80.000305%); stroke-width: 2.000000;stroke-linejoin: round;stroke-miterlimit: 10.000000;fill: none;"></path>
  <path d="M491.518707 573.443771C491.518707 363.722275,620.073669 173.858139,798.718689 204.800049C931.792877 227.848938,997.400848 369.433212,1003.518677 512.000031C1010.158066 666.721191,936.383240 819.205643,798.718689 819.200012C713.887878 819.196533,645.118698 750.429642,645.118698 665.600021C645.118683 433.379715,964.471130 404.610306,1259.518661 512.000031" style="stroke:rgb(80.000305%,80.000305%,80.000305%); stroke-width: 2.000000;stroke-linejoin: round;stroke-miterlimit: 10.000000;fill: none;"></path>
</svg>
