<?xml version="1.0"?>

<svg version="1.1" xmlns="http://www.w3.org/2000/svg" xmlns:xlink="http://www.w3.org/1999/xlink" width="1199.506699" height="1024.000000" viewBox="0 0 1199.506699 1024.000000">

  <path d="M389.118713 450.556290C389.118713 321.670273,472.584686 204.800049,593.918701 204.800049C730.486420 204.800049,798.718689 358.192932,798.718689 512.000031C798.718689 665.807129,730.486420 819.200012,593.918701 819.200012C472.584686 819.200012,389.118713 702.329788,389.118713 573.443771C389.118713 688.137375,340.946304 804.189407,235.518723 819.200012C158.050507 830.229797,87.101715 773.998123,81.918732 696.321899C76.135773 609.653946,151.393311 545.723511,235.518723 512.000031C429.378250 434.287277,642.702911 475.329514,849.918686 493.568436C1005.059586 507.223785,1166.977051 561.572311,1157.118668 696.321899C1151.524261 772.789200,1081.042572 827.193802,1003.518677 819.200012C872.804474 805.721573,810.989685 654.250519,849.918686 512.000031C878.681503 406.897812,952.318680 314.601990,952.318680 204.800049C952.318680 106.436325,915.831833 11.569199,849.918686 -61.443680" style="stroke:rgb(80.000305%,80.000305%,80.000305%); stroke-width: 2.000000;stroke-linejoin: round;stroke-miterlimit: 10.000000;fill: none;"></path>
</svg>
