<?xml version="1.0"?>

<svg version="1.1" xmlns="http://www.w3.org/2000/svg" xmlns:xlink="http://www.w3.org/1999/xlink" width="1027.562775" height="1024.000000" viewBox="0 0 1027.562775 1024.000000">

  <path d="M81.918732 546.131271C90.879684 417.996780,176.616379 304.757263,300.374557 296.102386C430.014313 287.036163,528.426132 408.919479,518.830383 546.131271C509.869431 674.265778,424.132736 787.505295,300.374557 796.160172C170.734802 805.226395,72.322983 683.343063,81.918732 546.131271" style="stroke:rgb(80.000305%,80.000305%,80.000305%); stroke-width: 2.000000;stroke-linejoin: round;stroke-miterlimit: 10.000000;fill: none;"></path>
  <path d="M517.015137 543.155579C763.703186 632.943710,1013.661118 583.200165,983.050568 409.596909C966.321915 314.722794,855.657120 277.638245,750.940475 296.102386C592.995834 323.951935,490.726715 477.768311,518.830383 637.154190C534.220627 724.437714,615.119080 780.397339,704.515625 796.160172C813.968735 815.459473,928.340469 777.426605,983.050568 682.665649" style="stroke:rgb(80.000305%,80.000305%,80.000305%); stroke-width: 2.000000;stroke-linejoin: round;stroke-miterlimit: 10.000000;fill: none;"></path>
</svg>
