<?xml version="1.0"?>

<svg version="1.1" xmlns="http://www.w3.org/2000/svg" xmlns:xlink="http://www.w3.org/1999/xlink" width="482.475250" height="1024.000000" viewBox="0 0 482.475250 1024.000000">

  <path d="M81.918732 358.400040C102.960876 263.697906,189.912872 198.483917,286.718719 204.800049C372.888260 210.422226,444.781082 275.503372,440.318710 358.400040C435.323486 451.195251,336.861771 498.157562,286.718719 573.443771C237.151993 647.864655,237.151993 744.779129,286.718719 819.200012" style="stroke:rgb(80.000305%,80.000305%,80.000305%); stroke-width: 2.000000;stroke-linejoin: round;stroke-miterlimit: 10.000000;fill: none;"></path>
  <path d="M355.838242 972.800003C355.838242 954.467545,348.554626 936.888138,335.592606 923.926117C322.630585 910.964096,305.051178 903.680481,286.718719 903.680481C268.386261 903.680481,250.806854 910.964096,237.844833 923.926117C224.882812 936.888138,217.599197 954.467545,217.599197 972.800003C217.599197 991.132462,224.882812 1008.711868,237.844833 1021.673889C250.806854 1034.635910,268.386261 1041.919525,286.718719 1041.919525C305.051178 1041.919525,322.630585 1034.635910,335.592606 1021.673889C348.554626 1008.711868,355.838242 991.132462,355.838242 972.800003Z" style="stroke:rgb(80.000305%,80.000305%,80.000305%); stroke-width: 2.000000;stroke-linejoin: round;stroke-miterlimit: 10.000000;fill: none;"></path>
</svg>
