<?xml version="1.0"?>

<svg version="1.1" xmlns="http://www.w3.org/2000/svg" xmlns:xlink="http://www.w3.org/1999/xlink" width="779.228073" height="1024.000000" viewBox="0 0 779.228073 1024.000000">

  <path d="M263.964554 145.629227L263.964554 391.391708L263.964554 637.154190" style="stroke:rgb(80.000305%,80.000305%,80.000305%); stroke-width: 2.000000;stroke-linejoin: round;stroke-miterlimit: 10.000000;fill: none;"></path>
  <path d="M231.708923 219.354965C285.176743 180.672623,352.887527 159.453262,422.854736 159.453262C499.261810 159.453262,566.214111 205.600616,566.214111 268.510468C566.214111 386.784683,417.133606 452.832321,263.964554 452.832321" style="stroke:rgb(80.000305%,80.000305%,80.000305%); stroke-width: 2.000000;stroke-linejoin: round;stroke-miterlimit: 10.000000;fill: none;"></path>
  <path d="M375.809250 440.664352C426.381378 515.745804,478.409454 593.701660,566.214111 637.154190" style="stroke:rgb(80.000305%,80.000305%,80.000305%); stroke-width: 2.000000;stroke-linejoin: round;stroke-miterlimit: 10.000000;fill: none;"></path>
  <path d="M81.918732 409.600037C81.918732 206.015228,216.911606 23.039902,409.593719 23.039902C602.275833 23.039902,737.268707 206.015228,737.268707 409.600037C737.268707 613.184845,602.275833 796.160172,409.593719 796.160172C216.911606 796.160172,81.918732 613.184845,81.918732 409.600037" style="stroke:rgb(80.000305%,80.000305%,80.000305%); stroke-width: 2.000000;stroke-linejoin: round;stroke-miterlimit: 10.000000;fill: none;"></path>
</svg>
