<?xml version="1.0"?>

<svg version="1.1" xmlns="http://www.w3.org/2000/svg" xmlns:xlink="http://www.w3.org/1999/xlink" width="1487.433167" height="1024.000000" viewBox="0 0 1487.433167 1024.000000">

  <path d="M266.240601 819.200012C145.639404 750.676636,74.237640 619.774017,81.918732 481.278152C91.480789 308.867203,218.813599 164.989059,389.118713 143.356308C742.157104 98.512146,740.211258 512.000031,542.718704 512.000031C627.724670 512.000031,696.778824 580.754135,696.318695 665.600021C695.862411 749.736664,627.283722 817.365341,542.718704 819.200012C421.410019 821.831833,337.918716 703.544495,337.918716 573.440033C337.918716 423.657471,437.967300 290.650681,583.678696 266.240051C742.763718 239.588974,890.878677 354.598724,890.878677 512.000031C890.878677 512.016693,890.878677 716.783356,890.878677 716.800018" style="stroke:rgb(80.000305%,80.000305%,80.000305%); stroke-width: 2.000000;stroke-linejoin: round;stroke-miterlimit: 10.000000;fill: none;"></path>
  <path d="M890.878677 512.000031C890.878677 332.604370,1029.625290 182.675415,1198.078659 204.800049C1341.497223 223.636627,1430.095825 362.284012,1443.838638 512.000031C1458.089661 667.252365,1378.305618 819.200012,1239.038651 819.200012C1137.633194 819.200012,1066.951904 719.244949,1085.438660 614.400024C1112.094421 463.225769,1268.473877 372.489899,1412.947586 424.369888" style="stroke:rgb(80.000305%,80.000305%,80.000305%); stroke-width: 2.000000;stroke-linejoin: round;stroke-miterlimit: 10.000000;fill: none;"></path>
</svg>
