<?xml version="1.0" encoding="UTF-8" standalone="no"?>
<svg
   xmlns:dc="http://purl.org/dc/elements/1.1/"
   xmlns:cc="http://creativecommons.org/ns#"
   xmlns:rdf="http://www.w3.org/1999/02/22-rdf-syntax-ns#"
   xmlns:svg="http://www.w3.org/2000/svg"
   xmlns="http://www.w3.org/2000/svg"
   xmlns:sodipodi="http://sodipodi.sourceforge.net/DTD/sodipodi-0.dtd"
   xmlns:inkscape="http://www.inkscape.org/namespaces/inkscape"
   width="679.91779"
   height="351.05527"
   id="svg2992"
   version="1.1"
   inkscape:version="1.0.1 (3bc2e813f5, 2020-09-07)"
   sodipodi:docname="ആ.svg">
  <defs
     id="defs5498">
    <inkscape:path-effect
       effect="spiro"
       id="path-effect4372-5-8"
       is_visible="true"
       lpeversion="0" />
    <inkscape:path-effect
       effect="spiro"
       id="path-effect4372-5-8-0"
       is_visible="true"
       lpeversion="0" />
    <inkscape:path-effect
       effect="spiro"
       id="path-effect4372-5-8-0-8"
       is_visible="true"
       lpeversion="0" />
    <inkscape:path-effect
       effect="spiro"
       id="path-effect4372-5-8-0-5"
       is_visible="true"
       lpeversion="0" />
    <inkscape:path-effect
       effect="spiro"
       id="path-effect4372-5-8-0-0"
       is_visible="true"
       lpeversion="0" />
    <inkscape:path-effect
       effect="spiro"
       id="path-effect4372-5-8-0-7"
       is_visible="true"
       lpeversion="0" />
    <inkscape:path-effect
       effect="spiro"
       id="path-effect4372-5-8-0-7-3"
       is_visible="true"
       lpeversion="0" />
    <inkscape:path-effect
       effect="spiro"
       id="path-effect4372-5-8-0-4"
       is_visible="true"
       lpeversion="0" />
    <inkscape:path-effect
       effect="spiro"
       id="path-effect4372-5-8-0-58"
       is_visible="true"
       lpeversion="0" />
    <inkscape:path-effect
       effect="spiro"
       id="path-effect4372-5-8-0-58-4"
       is_visible="true"
       lpeversion="0" />
    <inkscape:path-effect
       effect="spiro"
       id="path-effect4372-5-8-0-3"
       is_visible="true"
       lpeversion="0" />
    <inkscape:path-effect
       effect="spiro"
       id="path-effect4372-5-8-0-3-7"
       is_visible="true"
       lpeversion="0" />
    <inkscape:path-effect
       effect="spiro"
       id="path-effect4372-5-8-0-3-2"
       is_visible="true"
       lpeversion="0" />
    <inkscape:path-effect
       effect="spiro"
       id="path-effect4372-5-8-0-3-2-8"
       is_visible="true"
       lpeversion="0" />
    <inkscape:path-effect
       effect="spiro"
       id="path-effect4372-5-8-0-3-4"
       is_visible="true"
       lpeversion="0" />
    <inkscape:path-effect
       effect="spiro"
       id="path-effect4372-5-8-0-3-44"
       is_visible="true"
       lpeversion="0" />
  </defs>
  <sodipodi:namedview
     inkscape:window-height="1015"
     inkscape:window-width="1920"
     inkscape:pageshadow="2"
     inkscape:pageopacity="0.0"
     borderopacity="1.0"
     bordercolor="#666666"
     pagecolor="#ffffff"
     id="base"
     showgrid="true"
     showguides="true"
     inkscape:guide-bbox="true"
     inkscape:zoom="1"
     inkscape:cx="547.48163"
     inkscape:cy="73.297678"
     inkscape:window-x="1920"
     inkscape:window-y="0"
     inkscape:current-layer="layer1"
     inkscape:window-maximized="1"
     inkscape:document-rotation="0">
    <sodipodi:guide
       orientation="horizontal"
       position="-1097.5307,-152.75319"
       id="guide5596" />
    <inkscape:grid
       type="xygrid"
       id="grid3769"
       empspacing="3"
       visible="true"
       enabled="true"
       snapvisiblegridlinesonly="true"
       spacingx="4"
       units="px"
       dotted="true"
       spacingy="4"
       originx="-1097.5307"
       originy="-944.19154" />
    <sodipodi:guide
       orientation="0,1"
       position="-2137.5307,847.24681"
       id="guide2985" />
  </sodipodi:namedview>
  <metadata
     id="metadata5594">
    <rdf:RDF>
      <cc:Work
         rdf:about="">
        <dc:format>image/svg+xml</dc:format>
        <dc:type
           rdf:resource="http://purl.org/dc/dcmitype/StillImage" />
        <dc:title />
      </cc:Work>
    </rdf:RDF>
  </metadata>
  <g
     inkscape:label="Layer 1"
     inkscape:groupmode="layer"
     id="layer1"
     transform="translate(-1097.5307,103.80846)">
    <path
       style="fill:none;fill-rule:evenodd;stroke:#000000;stroke-width:35;stroke-linecap:round;stroke-linejoin:round;stroke-miterlimit:4;stroke-dasharray:none;stroke-opacity:1"
       d="m 1178.581,143.09093 c -18.4008,-9.46793 -34.212,-23.90997 -45.3033,-41.38027 -11.0914,-17.47031 -17.4341,-37.923581 -18.1737,-58.604079 -1.1662,-32.612216 11.9105,-65.298252 34.5191,-88.830513 22.6086,-23.532261 54.3245,-37.825195 86.8698,-40.216568 18.9912,-1.395443 38.377,1.159564 55.9931,8.390601 17.6161,7.231038 33.3961,19.231157 44.2549,34.874109 7.4283,10.701034 12.5894,23.486812 11.8128,36.4902023 -0.6323,10.5868528 -5.3129,20.8817947 -12.875,28.3179577 -7.5621,7.436163 -17.9341,11.943372 -28.5301,12.397831 15.7429,-1.984392 32.2798,3.824814 43.323,15.218876 11.0432,11.394063 16.3325,28.104447 13.8569,43.777628 -2.2491,14.239055 -10.675,27.243815 -22.2871,35.785945 -11.6121,8.54214 -26.219,12.69563 -40.631,12.3762 -12.8595,-0.28502 -25.581,-4.03853 -36.7248,-10.46216 -11.1438,-6.42363 -20.7118,-15.48013 -28.0468,-26.04639 -14.6699,-21.132514 -20.0894,-47.90568 -17.6158,-73.51177 3.446,-35.6719012 22.1652,-69.666415 50.647,-91.418369 28.4818,-21.751954 66.3379,-30.86138 101.5438,-24.160271 14.0784,2.679685 27.7385,7.812653 39.8014,15.550056 12.0629,7.737403 22.4478,18.091872 30.1328,30.188246 7.685,12.096374 12.601,25.843097 15.1383,39.9478241 2.5373,14.1047279 2.7018,28.5147389 2.7176,42.8458599 l 0.1077,97.731874 -0.3947,-97.428399 c -0.068,-16.916519 0.1086,-33.985779 3.8478,-50.4840005 3.7393,-16.4982215 11.0657,-32.2902655 22.0709,-45.1378125 11.0052,-12.847547 25.5179,-22.584638 41.4436,-28.289429 15.9257,-5.704792 33.123,-7.45441 49.9954,-6.231219 33.5985,2.435775 66.391,16.880223 90.0719,40.838651 23.6808,23.958428 37.8219,57.369512 37.4151,91.053687 -0.2874,23.796995 -7.9063,47.779593 -23.066,66.125282 -15.1596,18.3457 -38.0998,30.56548 -61.896,30.91368 -23.9916,0.35106 -47.8471,-11.73971 -61.6811,-31.34428 -13.8341,-19.604574 -17.2227,-46.177447 -8.6741,-68.597124 5.628,-14.75993 16.0633,-27.500704 28.9024,-36.7032982 12.8391,-9.2025942 28.0057,-14.9411158 43.5954,-17.4886258 20.6403,-3.372815 42.1588,-1.188274 61.7089,6.2409206 19.55,7.4291948 37.084,20.0821064 50.3148,36.2791354 13.2307,16.197029 22.1281,35.897075 25.5564,56.528196 3.4284,20.631126 1.3821,42.143616 -5.8516,61.766836 -13.8749,37.6393 -47.5666,67.31796 -86.6555,76.33386 -39.0889,9.0159 -82.3762,-2.90747 -111.3354,-30.66704"
       id="path4370-9-4-7"
       inkscape:original-d="m 1178.581,143.09093 c 0,0 -67.2052,-60.683373 -63.477,-99.984349 5.5773,-58.791961 63.5608,-117.067436 121.3889,-129.047081 35.6385,-7.382865 75.755,16.34443 100.248,43.26471 8.6039,9.456525 14.8563,24.07285 11.8128,36.4902023 -4.6078,18.8003147 -41.4051,40.7157887 -41.4051,40.7157887 0,0 59.2006,31.684763 57.1799,58.996504 -1.9487,26.339885 -36.755,51.778545 -62.9181,48.162145 -45.3847,-6.2733 -88.7473,-64.647661 -82.3874,-110.02032 8.8427,-63.084365 89.3138,-125.79171 152.1908,-115.57864 51.2129,8.318465 87.411,68.807345 87.7901,128.531986 l 0.1077,97.731874 -0.3947,-97.428399 c 1.3372,-67.318986 58.9523,-129.131151 117.3577,-130.142461 61.1359,-1.05859 125.9806,70.765785 127.487,131.892338 1.0591,42.979337 -42.0297,99.311282 -84.962,97.038962 -40.6836,-2.1533 -76.7558,-59.706768 -70.3552,-99.941404 4.74,-29.796514 42.5483,-57.842746 72.4978,-54.191924 68.784,8.3847253 139.0128,122.029748 131.7285,160.815088 -11.1883,59.57229 -197.9909,45.66682 -197.9909,45.66682"
       inkscape:connector-curvature="0"
       sodipodi:nodetypes="caaaacaaaacccaaaaasc"
       inkscape:path-effect="#path-effect4372-5-8-0-3" />
  </g>
</svg>
