<?xml version="1.0" encoding="UTF-8" standalone="no"?>
<svg
   xmlns:dc="http://purl.org/dc/elements/1.1/"
   xmlns:cc="http://creativecommons.org/ns#"
   xmlns:rdf="http://www.w3.org/1999/02/22-rdf-syntax-ns#"
   xmlns:svg="http://www.w3.org/2000/svg"
   xmlns="http://www.w3.org/2000/svg"
   xmlns:sodipodi="http://sodipodi.sourceforge.net/DTD/sodipodi-0.dtd"
   xmlns:inkscape="http://www.inkscape.org/namespaces/inkscape"
   width="443.04489"
   height="345.77817"
   id="svg2992"
   version="1.1"
   inkscape:version="1.0.1 (3bc2e813f5, 2020-09-07)"
   sodipodi:docname="ഇ.svg">
  <defs
     id="defs5498">
    <inkscape:path-effect
       effect="spiro"
       id="path-effect4142"
       is_visible="true"
       lpeversion="0" />
    <inkscape:path-effect
       effect="spiro"
       id="path-effect4142-0"
       is_visible="true"
       lpeversion="0" />
    <inkscape:path-effect
       effect="spiro"
       id="path-effect4142-0-3"
       is_visible="true"
       lpeversion="0" />
    <inkscape:path-effect
       effect="spiro"
       id="path-effect4142-0-3-5"
       is_visible="true"
       lpeversion="0" />
    <inkscape:path-effect
       effect="spiro"
       id="path-effect4142-0-3-5-2"
       is_visible="true"
       lpeversion="0" />
    <inkscape:path-effect
       effect="spiro"
       id="path-effect4142-0-3-5-2-3"
       is_visible="true"
       lpeversion="0" />
    <inkscape:path-effect
       effect="spiro"
       id="path-effect4142-0-3-5-3"
       is_visible="true"
       lpeversion="0" />
    <inkscape:path-effect
       effect="spiro"
       id="path-effect4142-0-3-5-30"
       is_visible="true"
       lpeversion="0" />
  </defs>
  <sodipodi:namedview
     inkscape:window-height="1015"
     inkscape:window-width="1920"
     inkscape:pageshadow="2"
     inkscape:pageopacity="0.0"
     borderopacity="1.0"
     bordercolor="#666666"
     pagecolor="#ffffff"
     id="base"
     showgrid="true"
     showguides="true"
     inkscape:guide-bbox="true"
     inkscape:zoom="0.08025662"
     inkscape:cx="4744.3328"
     inkscape:cy="-1046.638"
     inkscape:window-x="1920"
     inkscape:window-y="0"
     inkscape:current-layer="layer1"
     inkscape:window-maximized="1"
     inkscape:snap-grids="false"
     inkscape:document-rotation="0">
    <sodipodi:guide
       orientation="horizontal"
       position="1212.5934,-164.03841"
       id="guide5596" />
    <inkscape:grid
       type="xygrid"
       id="grid3769"
       empspacing="3"
       visible="true"
       enabled="true"
       snapvisiblegridlinesonly="true"
       spacingx="4"
       units="px"
       dotted="true"
       spacingy="4"
       originx="1212.5934"
       originy="-938.18345" />
    <sodipodi:guide
       orientation="0,1"
       position="172.59335,835.96159"
       id="guide2985" />
  </sodipodi:namedview>
  <metadata
     id="metadata5594">
    <rdf:RDF>
      <cc:Work
         rdf:about="">
        <dc:format>image/svg+xml</dc:format>
        <dc:type
           rdf:resource="http://purl.org/dc/dcmitype/StillImage" />
        <dc:title />
      </cc:Work>
    </rdf:RDF>
  </metadata>
  <g
     inkscape:label="Layer 1"
     inkscape:groupmode="layer"
     id="layer1"
     transform="translate(1212.5934,109.81655)">
    <path
       style="fill:none;fill-rule:evenodd;stroke:#000000;stroke-width:35;stroke-linecap:round;stroke-linejoin:round;stroke-miterlimit:4;stroke-dasharray:none;stroke-opacity:1"
       d="m -1189.9724,34.418801 c 0.4375,-17.298395 8.5286,-34.26472213 21.6951,-45.492752 13.1666,-11.228031 31.1978,-16.538095 48.3482,-14.238169 15.2263,2.041896 29.5968,10.008524 39.3209,21.9018424 9.7241,11.8933185 14.6797,27.5998376 13.4452,42.9127426 -1.2346,15.312905 -8.6683,30.053632 -20.3109,40.07661 -11.6426,10.022979 -27.3657,15.185881 -42.676,13.91967 -10.4888,-0.867461 -20.6801,-4.656844 -29.3755,-10.586304 -8.6954,-5.92946 -15.8997,-13.964807 -21.1363,-23.094216 -10.4733,-18.258818 -12.8414,-40.511419 -8.8868,-61.1859202 5.4647,-28.5695328 22.8786,-54.5899388 47.0013,-70.8434418 24.1227,-16.253503 54.6231,-22.625661 83.2999,-17.755038 12.3919,2.104715 24.486,6.265995 35.2512,12.754553 10.7652,6.488559 20.1255,15.323444 27.08841,25.788031 6.96294,10.464587 11.45651,22.472596 13.77115,34.827053 2.31463,12.3544569 2.45546,24.9995527 2.45546,37.568965 v 69.251448 l -0.46003,-68.508798 c -0.0944,-14.0602351 -0.0273,-28.2218967 2.68517,-42.018329 2.71249,-13.796432 8.09441,-27.16258 16.49663,-38.436525 8.40222,-11.273945 19.74202,-20.33267 32.58787,-26.049582 12.84586,-5.716911 27.09091,-8.109682 41.13388,-7.406841 27.06946,1.354807 53.1738,14.352486 71.34722,34.460156 18.17341,20.107669 28.41623,46.976864 29.28921,74.066146 0.55907,17.348418 -2.65185,34.873789 -9.87663,50.656147 -7.22477,15.782358 -18.48288,29.695485 -32.41591,40.046841 -13.93304,10.35137 -30.39649,17.04304 -47.40391,20.51116 -17.00742,3.46812 -34.48289,3.73884 -51.84015,3.81371 l -165.93707,0.7158 c -20.0254,0.0864 -40.3551,-0.71615 -59.7977,4.08114 -9.7212,2.39865 -19.2045,6.44789 -26.7545,13.0247 -7.5499,6.57681 -13.0219,15.93879 -13.439,25.94291 -0.3333,7.99335 2.5876,15.95857 7.4623,22.30221 4.8747,6.34365 11.6104,11.12043 18.9421,14.32217 14.6633,6.40347 31.1857,6.55744 47.1863,6.56462 l 334.42679,0.1501"
       id="path4140-7-5-5"
       inkscape:path-effect="#path-effect4142-0-3-5"
       inkscape:original-d="m -1189.9724,34.418801 c 0,0 42.7594,-73.771101 70.0433,-59.730921 35.3447,18.1881823 28.4199,109.48588 -10.2208,118.810865 -36.2681,8.752425 -67.071,-58.354571 -59.3986,-94.8664402 10.801,-51.4005298 78.6147,-97.9357098 130.3012,-88.5984798 44.5919,8.055595 78.56622,70.86745 78.56622,110.938602 v 69.251448 l -0.46003,-68.508798 c 3.28378,-73.606652 43.93071,-112.355207 92.90355,-113.911277 49.31031,-1.566795 104.10331,59.313075 100.63643,108.526302 -4.27217,60.64446 -64.60508,114.695988 -141.5366,115.027858 l -165.93707,0.7158 c -75.894,0.32739 -97.7396,6.83055 -99.9912,43.04875 -1.7649,28.3879 13.5907,43.16205 73.5907,43.189 l 334.42679,0.1501"
       inkscape:connector-curvature="0"
       sodipodi:nodetypes="caaaasccaassasc" />
    <path
       style="opacity:1;fill:#ffffff;fill-opacity:1;fill-rule:evenodd;stroke:none;stroke-width:0;stroke-linecap:round;stroke-linejoin:round;stroke-miterlimit:4;stroke-dasharray:none;stroke-opacity:1"
       d="m -267.89066,1750.7168 a 174.44046,174.44046 0 0 1 -174.44046,174.4405 174.44046,174.44046 0 0 1 -174.44046,-174.4405 174.44046,174.44046 0 0 1 174.44046,-174.4405 174.44046,174.44046 0 0 1 174.44046,174.4405 z"
       id="path4182" />
  </g>
</svg>
