<?xml version="1.0"?>

<svg version="1.1" xmlns="http://www.w3.org/2000/svg" xmlns:xlink="http://www.w3.org/1999/xlink" width="769.801254" height="1024.000000" viewBox="0 0 769.801254 1024.000000">

  <path d="M235.518723 450.556290C303.181564 450.556290,357.860245 395.519470,358.396835 327.678177C358.940414 258.952637,303.619507 202.644836,235.518723 204.800064C158.852722 207.226349,104.531525 279.510468,112.640610 358.400055C126.363678 491.905502,276.419586 545.584274,419.840591 563.200043C568.920761 581.510895,727.040573 633.023438,727.040573 768.000031C727.040573 904.567749,573.647690 972.800018,419.840591 972.800018C266.033493 972.800018,112.640610 904.567749,112.640610 768.000031C112.640610 633.023438,270.760422 581.510895,419.840591 563.200043C563.261597 545.584274,713.317505 491.905502,727.040573 358.400055C735.149658 279.510468,680.828445 207.226349,604.162460 204.800064C536.061676 202.644836,480.740768 258.952637,481.284348 327.678177C481.820938 395.519470,536.499619 450.556290,604.162460 450.556290" style="stroke:rgb(80.000305%,80.000305%,80.000305%); stroke-width: 2.000000;stroke-linejoin: round;stroke-miterlimit: 10.000000;fill: none;"></path>
</svg>
