<?xml version="1.0"?>

<svg version="1.1" xmlns="http://www.w3.org/2000/svg" xmlns:xlink="http://www.w3.org/1999/xlink" width="1244.680191" height="1024.000000" viewBox="0 0 1244.680191 1024.000000">

  <path d="M158.718735 819.200012C103.651413 764.132690,66.953766 690.145126,81.918732 614.400024C100.149246 522.126297,186.123352 460.800034,281.598724 460.800034C373.238922 460.800034,449.934677 530.827209,435.198715 614.400024C419.535355 703.232407,362.492065 779.290115,281.598724 819.200012" style="stroke:rgb(80.000305%,80.000305%,80.000305%); stroke-width: 2.000000;stroke-linejoin: round;stroke-miterlimit: 10.000000;fill: none;"></path>
  <path d="M281.598724 819.200012C480.031097 746.975708,697.566315 891.424316,895.998688 819.200012C967.166656 793.296692,937.458954 696.954361,895.998688 614.400024C850.266937 523.340454,845.264618 415.552414,895.998688 327.678162" style="stroke:rgb(80.000305%,80.000305%,80.000305%); stroke-width: 2.000000;stroke-linejoin: round;stroke-miterlimit: 10.000000;fill: none;"></path>
  <path d="M938.683716 759.697083C938.683716 878.395935,894.160095 1000.425262,785.083725 1024.000000C585.640610 1067.105743,470.374863 790.749252,580.283737 512.000031C639.322876 362.265823,732.156631 212.829178,887.483719 204.800049C1048.594803 196.471939,1165.931473 343.484833,1194.683701 512.000031C1220.502243 663.321075,1183.524155 818.628387,1092.283707 942.078125" style="stroke:rgb(80.000305%,80.000305%,80.000305%); stroke-width: 2.000000;stroke-linejoin: round;stroke-miterlimit: 10.000000;fill: none;"></path>
</svg>
