<?xml version="1.0"?>

<svg version="1.1" xmlns="http://www.w3.org/2000/svg" xmlns:xlink="http://www.w3.org/1999/xlink" width="1889.799545" height="1024.000000" viewBox="0 0 1889.799545 1024.000000">

  <path d="M803.838089 819.200012C748.770767 764.132690,712.073120 690.145126,727.038086 614.400024C745.268600 522.126297,831.242706 460.800034,926.718079 460.800034C1018.358276 460.800034,1095.054031 530.827209,1080.318069 614.400024C1064.654709 703.232407,1007.611420 779.290115,926.718079 819.200012" style="stroke:rgb(80.000305%,80.000305%,80.000305%); stroke-width: 2.000000;stroke-linejoin: round;stroke-miterlimit: 10.000000;fill: none;"></path>
  <path d="M926.718079 819.200012C1125.150452 746.975708,1342.685669 891.424316,1541.118042 819.200012C1612.286011 793.296692,1582.578308 696.954361,1541.118042 614.400024C1495.386292 523.340454,1490.383972 415.552414,1541.118042 327.678162" style="stroke:rgb(80.000305%,80.000305%,80.000305%); stroke-width: 2.000000;stroke-linejoin: round;stroke-miterlimit: 10.000000;fill: none;"></path>
  <path d="M1583.803070 759.697083C1583.803070 878.395935,1539.279449 1000.425262,1430.203079 1024.000000C1230.759964 1067.105743,1115.494217 790.749252,1225.403091 512.000031C1284.442230 362.265823,1377.275986 212.829178,1532.603073 204.800049C1693.714157 196.471939,1811.050827 343.484833,1839.803055 512.000031C1865.621597 663.321075,1828.643509 818.628387,1737.403061 942.078125" style="stroke:rgb(80.000305%,80.000305%,80.000305%); stroke-width: 2.000000;stroke-linejoin: round;stroke-miterlimit: 10.000000;fill: none;"></path>
  <path d="M109.565598 450.556290C236.138962 355.626266,416.765579 445.939590,416.765579 604.156281C416.765579 694.806473,350.934860 773.120331,263.165588 773.120331C142.995255 773.120331,71.344482 644.712219,81.918732 512.000031C95.702072 339.012207,224.192230 193.563843,389.118713 204.800049C540.280777 215.098511,645.119354 355.266922,645.119354 512.000031C645.119354 622.781570,609.188278 730.574783,542.719360 819.200012" style="stroke:rgb(80.000305%,80.000305%,80.000305%); stroke-width: 2.000000;stroke-linejoin: round;stroke-miterlimit: 10.000000;fill: none;"></path>
</svg>
