<?xml version="1.0"?>

<svg version="1.1" xmlns="http://www.w3.org/2000/svg" xmlns:xlink="http://www.w3.org/1999/xlink" width="1357.798340" height="1024.000000" viewBox="0 0 1357.798340 1024.000000">

  <g transform="translate(793.875717 821.344757)" style="fill: rgb(0.000000%,0.000000%,0.000000%);">
    <text font-size="9.962646">vc</text>
  </g>
  <path d="M389.118713 450.556290C389.118713 321.670273,472.584686 204.800049,593.918701 204.800049C730.486420 204.800049,798.718689 358.192932,798.718689 512.000031C798.718689 665.807129,730.486420 819.200012,593.918701 819.200012C472.584686 819.200012,389.118713 702.329788,389.118713 573.443771C389.118713 688.354843,341.034317 804.704285,235.518723 819.200012C158.528488 829.776932,88.364059 773.717499,81.918732 696.321899C74.624207 608.729248,148.155182 540.386734,235.518723 512.000031C468.458023 436.311951,719.379379 436.311951,952.318680 512.000031C1039.908234 540.460159,1113.885361 608.756271,1105.918671 696.321899C1098.959290 772.815811,1029.266220 827.597702,952.318680 819.200012C823.990234 805.194870,769.231018 654.883118,798.718689 512.000031C831.982559 350.819321,946.606461 212.214996,1105.918671 204.800049C1207.877441 200.054535,1303.436996 261.733597,1310.718658 358.400040C1317.303314 445.813354,1244.531982 518.584686,1157.118668 512.000031" style="stroke:rgb(80.000305%,80.000305%,80.000305%); stroke-width: 2.000000;stroke-linejoin: round;stroke-miterlimit: 10.000000;fill: none;"></path>
  <path d="M1157.118668 512.000031C1255.205185 501.196228,1344.826080 568.411896,1361.918655 665.600021C1404.995651 910.535233,1082.477158 973.966354,798.718689 1024.000000" style="stroke:rgb(80.000305%,80.000305%,80.000305%); stroke-width: 2.000000;stroke-linejoin: round;stroke-miterlimit: 10.000000;fill: none;"></path>
  <path d="M798.718689 1024.000000C896.902969 988.263443,1003.247589 1005.896118,1105.918671 1024.000000C1206.878464 1041.802124,1311.450577 1059.140915,1407.998337 1024.000000" style="stroke:rgb(80.000305%,80.000305%,80.000305%); stroke-width: 2.000000;stroke-linejoin: round;stroke-miterlimit: 10.000000;fill: none;"></path>
</svg>
