<?xml version="1.0" encoding="UTF-8" standalone="no"?>
<svg
   xmlns:dc="http://purl.org/dc/elements/1.1/"
   xmlns:cc="http://creativecommons.org/ns#"
   xmlns:rdf="http://www.w3.org/1999/02/22-rdf-syntax-ns#"
   xmlns:svg="http://www.w3.org/2000/svg"
   xmlns="http://www.w3.org/2000/svg"
   xmlns:sodipodi="http://sodipodi.sourceforge.net/DTD/sodipodi-0.dtd"
   xmlns:inkscape="http://www.inkscape.org/namespaces/inkscape"
   width="432.53897"
   height="403.06241"
   id="svg2992"
   version="1.1"
   inkscape:version="1.0.1 (3bc2e813f5, 2020-09-07)"
   sodipodi:docname="കൂ.svg">
  <defs
     id="defs5498">
    <inkscape:path-effect
       effect="spiro"
       id="path-effect3846"
       is_visible="true"
       lpeversion="0" />
    <inkscape:path-effect
       effect="spiro"
       id="path-effect3801"
       is_visible="true"
       lpeversion="0" />
    <inkscape:path-effect
       is_visible="true"
       id="path-effect3846-9"
       effect="spiro"
       lpeversion="0" />
    <inkscape:path-effect
       is_visible="true"
       id="path-effect3801-9"
       effect="spiro"
       lpeversion="0" />
    <inkscape:path-effect
       is_visible="true"
       id="path-effect4500"
       effect="spiro"
       lpeversion="0" />
    <inkscape:path-effect
       is_visible="true"
       id="path-effect4500-8"
       effect="spiro"
       lpeversion="0" />
    <inkscape:path-effect
       is_visible="true"
       id="path-effect4500-0"
       effect="spiro"
       lpeversion="0" />
    <inkscape:path-effect
       is_visible="true"
       id="path-effect4500-0-5"
       effect="spiro"
       lpeversion="0" />
    <inkscape:path-effect
       is_visible="true"
       id="path-effect4500-0-5-7"
       effect="spiro"
       lpeversion="0" />
    <inkscape:path-effect
       is_visible="true"
       id="path-effect4500-0-5-1"
       effect="spiro"
       lpeversion="0" />
    <inkscape:path-effect
       is_visible="true"
       id="path-effect4500-0-5-18"
       effect="spiro"
       lpeversion="0" />
    <inkscape:path-effect
       is_visible="true"
       id="path-effect4500-0-5-18-1"
       effect="spiro"
       lpeversion="0" />
    <inkscape:path-effect
       is_visible="true"
       id="path-effect4500-0-5-18-1-7"
       effect="spiro"
       lpeversion="0" />
    <inkscape:path-effect
       is_visible="true"
       id="path-effect4500-0-5-18-1-7-2"
       effect="spiro"
       lpeversion="0" />
    <inkscape:path-effect
       is_visible="true"
       id="path-effect4500-0-5-18-1-7-1"
       effect="spiro"
       lpeversion="0" />
    <inkscape:path-effect
       is_visible="true"
       id="path-effect4500-0-5-18-1-7-1-7"
       effect="spiro"
       lpeversion="0" />
    <inkscape:path-effect
       is_visible="true"
       id="path-effect4500-0-5-18-1-7-3"
       effect="spiro"
       lpeversion="0" />
    <inkscape:path-effect
       is_visible="true"
       id="path-effect4500-0-5-18-1-7-1-4"
       effect="spiro"
       lpeversion="0" />
    <inkscape:path-effect
       is_visible="true"
       id="path-effect4500-0-5-18-1-7-16"
       effect="spiro"
       lpeversion="0" />
    <inkscape:path-effect
       is_visible="true"
       id="path-effect4500-0-5-18-1-7-7"
       effect="spiro"
       lpeversion="0" />
  </defs>
  <sodipodi:namedview
     inkscape:window-height="1015"
     inkscape:window-width="1920"
     inkscape:pageshadow="2"
     inkscape:pageopacity="0.0"
     borderopacity="1.0"
     bordercolor="#666666"
     pagecolor="#ffffff"
     id="base"
     showgrid="true"
     showguides="true"
     inkscape:guide-bbox="true"
     inkscape:zoom="0.770811"
     inkscape:cx="89.361627"
     inkscape:cy="251.0194"
     inkscape:window-x="0"
     inkscape:window-y="0"
     inkscape:current-layer="layer1-2"
     inkscape:window-maximized="1"
     inkscape:document-rotation="0">
    <sodipodi:guide
       orientation="horizontal"
       position="1373.6845,-33.172242"
       id="guide5596" />
    <inkscape:grid
       type="xygrid"
       id="grid3769"
       empspacing="3"
       visible="true"
       enabled="true"
       snapvisiblegridlinesonly="true"
       spacingx="4"
       units="px"
       dotted="true"
       spacingy="4"
       originx="1373.6845"
       originy="-1011.7654" />
    <sodipodi:guide
       orientation="0,1"
       position="333.68465,966.8278"
       id="guide2985" />
    <sodipodi:guide
       position="-1314.3154,990.8278"
       orientation="0,1"
       id="guide4159"
       inkscape:label=""
       inkscape:color="rgb(0,0,255)" />
  </sodipodi:namedview>
  <metadata
     id="metadata5594">
    <rdf:RDF>
      <cc:Work
         rdf:about="">
        <dc:format>image/svg+xml</dc:format>
        <dc:type
           rdf:resource="http://purl.org/dc/dcmitype/StillImage" />
        <dc:title />
      </cc:Work>
    </rdf:RDF>
  </metadata>
  <g
     inkscape:label="Layer 1"
     inkscape:groupmode="layer"
     id="layer1"
     transform="translate(1373.6845,36.234644)">
    <g
       id="layer1-2"
       inkscape:label="Layer 1"
       transform="translate(-900.90145,-124.23254)">
      <path
         sodipodi:nodetypes="caasscssassaacaassasc"
         inkscape:connector-curvature="0"
         inkscape:original-d="m -342.15984,196.20496 c 1.06077,-46.64084 46.48035,-92.51472 88.4609,-89.96843 45.36722,2.75171 82.58551,62.62073 83.14533,108.06788 0.59421,48.23848 -37.15779,116.72749 -85.39978,116.84438 -43.89066,0.10635 -82.09156,-56.16039 -87.5809,-102.84509 -0.55376,-4.70944 1.28368,-9.65202 1.37445,-14.09874 0,0 -0.81776,5.59624 -2.70989,13.8887 -6.88672,30.18183 -24.42114,103.54771 -59.16745,105.98606 -26.22165,1.84013 -55.88595,-39.48008 -49.39665,-66.25125 11.40715,-47.0594 61.21736,-63.4088 130.51954,-63.7734 l 131.4144,-0.69137 c 43.48325,-0.22875 113.135524,1.59511 125.141121,44.17072 5.40455,19.16624 -19.72742,37.70141 -37.647701,46.38575 -4.06937,1.97205 -13.56485,0.18327 -13.56485,0.18327 0,0 9.61324,-1.12588 13.9692,0.52905 17.500906,6.649 42.738606,16.96662 43.376951,35.67713 1.02182,29.95062 -49.858771,61.57287 -65.381371,61.70924 l -242.7578,2.1327 c -54.1205,0.47546 -87.47516,15.71404 -84.71576,48.06338 2.58702,30.32851 71.35662,31.17891 85.90806,30.95809 l 309.427921,-4.69583"
         inkscape:path-effect="#path-effect4500-0-5-18-1-7"
         id="path4498-7-1-0-1-5"
         d="m -342.15984,196.20496 c -3.78228,-24.1219 4.47365,-49.8326 21.59233,-67.24301 17.11868,-17.41041 42.68621,-26.09959 66.86857,-22.72542 24.41217,3.40623 46.38028,18.55101 60.63456,38.66001 14.25428,20.109 21.21071,44.79352 22.51077,69.40787 1.41793,26.84617 -3.94088,54.60529 -18.74478,77.04569 -7.40196,11.22021 -17.10219,20.98196 -28.55429,28.0198 -11.45211,7.03784 -24.66733,11.30345 -38.10071,11.77889 -12.6362,0.44723 -25.33577,-2.46291 -36.66971,-8.06786 -11.33394,-5.60494 -21.30057,-13.87069 -29.17364,-23.76455 -15.74612,-19.78772 -22.77145,-45.7456 -21.73755,-71.01268 0.19315,-4.7204 0.65227,-9.42991 1.37445,-14.09874 -1.02863,4.60393 -1.93237,9.23577 -2.70989,13.8887 -3.61717,21.64639 -4.57053,44.0165 -12.44884,64.5002 -3.93916,10.24185 -9.65196,19.93209 -17.58786,27.51061 -7.93589,7.57853 -18.20608,12.94375 -29.13075,13.97525 -8.0257,0.75778 -16.23528,-0.84216 -23.47288,-4.39228 -7.23759,-3.55011 -13.49549,-9.02342 -18.13223,-15.61786 -9.27347,-13.1889 -11.72431,-30.60533 -7.79154,-46.24111 3.19668,-12.70927 10.36589,-24.27103 19.75331,-33.41547 9.38741,-9.14444 20.93128,-15.9234 33.19747,-20.53696 24.53238,-9.22713 51.35887,-9.68308 77.56876,-9.82097 l 131.4144,-0.69137 c 24.06811,-0.12662 48.34835,-1.64881 72.08071,2.3593 11.86618,2.00406 23.639802,5.74054 33.507196,12.62945 4.933698,3.44445 9.34907,7.6716 12.777418,12.6165 3.428348,4.9449 5.854096,10.61937 6.775797,16.56547 1.695859,10.94037 -1.923798,22.45148 -9.075412,30.90264 -7.151614,8.45115 -17.621307,13.8572 -28.572289,15.48311 -4.48639,0.6661 -9.0621,0.72792 -13.56485,0.18327 4.6562,-0.35818 9.35343,-0.18029 13.9692,0.52905 9.758734,1.49969 19.17999,5.43417 26.882298,11.61125 7.702308,6.17709 13.634811,14.61584 16.494653,24.06588 2.585512,8.54355 2.616538,17.85447 0.0053,26.3902 -2.611204,8.53573 -7.854191,16.21633 -14.731496,21.90665 -6.877305,5.69032 -15.294529,9.3532 -24.01541,11.2567 -8.720878,1.90349 -17.713938,2.07727 -26.639798,2.15569 l -242.7578,2.1327 c -18.5864,0.16329 -37.68741,-0.152 -55.11554,6.30874 -8.71406,3.23038 -16.90671,8.34301 -22.64868,15.65054 -2.87099,3.65376 -5.0989,7.83342 -6.35471,12.30729 -1.25582,4.47386 -1.52508,9.24369 -0.59683,13.79681 1.64845,8.08573 7.0124,15.10648 13.72078,19.9121 6.70838,4.80562 14.69485,7.58473 22.79745,9.14815 16.2052,3.12683 32.88762,2.14827 49.38983,1.89784 l 309.427921,-4.69583"
         style="fill:none;fill-rule:evenodd;stroke:#000000;stroke-width:35;stroke-linecap:round;stroke-linejoin:round;stroke-miterlimit:4;stroke-dasharray:none;stroke-opacity:1" />
    </g>
  </g>
</svg>
