<?xml version="1.0"?>

<svg version="1.1" xmlns="http://www.w3.org/2000/svg" xmlns:xlink="http://www.w3.org/1999/xlink" width="1360.729431" height="1024.000000" viewBox="0 0 1360.729431 1024.000000">

  <g transform="translate(437.099411 289.127960)" style="fill: rgb(0.000000%,0.000000%,0.000000%);">
    <text font-size="9.962646">vc</text>
  </g>
  <g transform="translate(1138.565231 207.290710)" style="fill: rgb(0.000000%,0.000000%,0.000000%);">
    <text font-size="9.962646">right</text>
  </g>
  <path d="M184.318726 204.800049C117.849808 293.425278,81.918732 401.218491,81.918732 512.000031C81.918732 640.033890,124.172668 773.120331,235.518723 773.120331C346.780991 773.120331,387.725998 639.720734,389.118713 512.000031C390.937729 345.186676,459.896133 181.168549,593.918701 204.800049C727.982758 228.438873,798.718689 368.719315,798.718689 512.000031C798.718689 512.016693,798.718689 716.783356,798.718689 716.800018" style="stroke:rgb(80.000305%,80.000305%,80.000305%); stroke-width: 2.000000;stroke-linejoin: round;stroke-miterlimit: 10.000000;fill: none;"></path>
  <path d="M798.718689 512.000031C824.444061 328.964767,985.936981 175.772751,1149.095230 204.800049C1282.321289 228.502151,1341.698242 367.907150,1310.718658 512.000031C1282.511841 643.196167,1188.448837 759.723938,1062.742111 819.200012" style="stroke:rgb(80.000305%,80.000305%,80.000305%); stroke-width: 2.000000;stroke-linejoin: round;stroke-miterlimit: 10.000000;fill: none;"></path>
</svg>
