<?xml version="1.0"?>

<svg version="1.1" xmlns="http://www.w3.org/2000/svg" xmlns:xlink="http://www.w3.org/1999/xlink" width="948.198364" height="1024.000000" viewBox="0 0 948.198364 1024.000000">

  <g transform="translate(486.709122 282.714737)" style="fill: rgb(0.000000%,0.000000%,0.000000%);">
    <text font-size="9.962646">vc</text>
  </g>
  <g transform="translate(885.344437 822.659271)" style="fill: rgb(0.000000%,0.000000%,0.000000%);">
    <text font-size="9.962646">bottom</text>
  </g>
  <path d="M184.318726 204.800049C117.849808 293.425278,81.918732 401.218491,81.918732 512.000031C81.918732 640.033890,124.172668 773.120331,235.518723 773.120331C346.833313 773.120331,372.722198 634.869354,389.118713 512.000031C413.041733 332.729980,535.951370 176.523315,696.318695 204.800049C793.065140 221.858841,891.344528 266.169449,901.118683 358.400040C910.073395 442.898224,836.179123 512.000031,747.518692 512.000031C848.510864 512.000031,943.627289 570.311325,952.318680 665.600021C960.666336 757.120117,882.868927 825.780365,798.718689 870.400009C669.559372 938.885178,526.361496 974.047150,389.118713 1024.000000" style="stroke:rgb(80.000305%,80.000305%,80.000305%); stroke-width: 2.000000;stroke-linejoin: round;stroke-miterlimit: 10.000000;fill: none;"></path>
  <path d="M389.118713 1024.000000C506.941040 981.115692,634.555878 1002.275131,757.762436 1024.000000C838.186752 1038.181137,921.488647 1051.993164,998.398361 1024.000000" style="stroke:rgb(80.000305%,80.000305%,80.000305%); stroke-width: 2.000000;stroke-linejoin: round;stroke-miterlimit: 10.000000;fill: none;"></path>
</svg>
