<?xml version="1.0"?>

<svg version="1.1" xmlns="http://www.w3.org/2000/svg" xmlns:xlink="http://www.w3.org/1999/xlink" width="1629.999496" height="1024.000000" viewBox="0 0 1629.999496 1024.000000">

  <g transform="translate(896.275711 360.544785)" style="fill: rgb(0.000000%,0.000000%,0.000000%);">
    <text font-size="9.962646">vc</text>
  </g>
  <g transform="translate(1473.165070 799.336639)" style="fill: rgb(0.000000%,0.000000%,0.000000%);">
    <text font-size="9.962646">bottom</text>
  </g>
  <g transform="translate(1478.409317 798.368042)" style="fill: rgb(0.000000%,0.000000%,0.000000%);">
    <text font-size="9.962646">right</text>
  </g>
  <path d="M184.318726 204.800049C117.849808 293.425278,81.918732 401.218491,81.918732 512.000031C81.918732 640.033890,124.172668 773.120331,235.518723 773.120331C347.170700 773.120331,368.532379 633.004929,389.118713 512.000031C417.251434 346.638123,535.239883 204.800049,696.318695 204.800049C801.208420 204.800049,901.118683 262.632141,901.118683 358.400040C901.118683 454.167938,801.208420 512.000031,696.318695 512.000031C814.026047 512.000031,933.896927 559.250839,942.078674 665.600021C952.304688 798.521301,789.716690 875.557053,634.878693 819.200012" style="stroke:rgb(80.000305%,80.000305%,80.000305%); stroke-width: 2.000000;stroke-linejoin: round;stroke-miterlimit: 10.000000;fill: none;"></path>
  <path d="M681.384857 832.183411C919.325043 918.787521,1172.906708 755.903046,1172.906708 512.000031" style="stroke:rgb(80.000305%,80.000305%,80.000305%); stroke-width: 2.000000;stroke-linejoin: round;stroke-miterlimit: 10.000000;fill: none;"></path>
  <path d="M1172.906708 307.200043C1172.906708 307.216705,1172.906708 511.983368,1172.906708 512.000031C1172.906708 655.280746,1243.642639 795.561188,1377.706696 819.200012C1516.739105 843.714874,1612.567871 682.487640,1582.506683 512.000031C1560.196121 385.468918,1485.923660 274.060242,1377.706696 204.800049" style="stroke:rgb(80.000305%,80.000305%,80.000305%); stroke-width: 2.000000;stroke-linejoin: round;stroke-miterlimit: 10.000000;fill: none;"></path>
</svg>
