<?xml version="1.0"?>

<svg version="1.1" xmlns="http://www.w3.org/2000/svg" xmlns:xlink="http://www.w3.org/1999/xlink" width="1251.022400" height="1024.000000" viewBox="0 0 1251.022400 1024.000000">

  <g transform="translate(645.399475 821.344757)" style="fill: rgb(0.000000%,0.000000%,0.000000%);">
    <text font-size="9.962646">vc</text>
  </g>
  <g transform="translate(1020.352585 775.641708)" style="fill: rgb(0.000000%,0.000000%,0.000000%);">
    <text font-size="9.962646">right</text>
  </g>
  <path d="M158.718735 614.400024C103.651413 559.332703,66.953766 485.345139,81.918732 409.600037C100.149246 317.326309,186.123352 256.000046,281.598724 256.000046C373.238922 256.000046,449.934677 326.027222,435.198715 409.600037C419.535355 498.432419,362.492065 574.490128,281.598724 614.400024" style="stroke:rgb(80.000305%,80.000305%,80.000305%); stroke-width: 2.000000;stroke-linejoin: round;stroke-miterlimit: 10.000000;fill: none;"></path>
  <path d="M281.598724 614.400024C392.303696 550.484665,524.454041 595.709030,650.242447 614.400024C769.986771 632.192917,900.361115 613.736557,957.442429 512.000031C1037.694138 368.966705,921.893234 193.180756,752.642441 204.800049C571.410187 217.241882,474.951019 425.929947,547.842453 614.400024C584.313202 708.699829,657.703003 784.644485,752.642441 819.200012C913.988632 877.925873,1084.346985 775.858734,1162.242416 614.400024C1224.669922 485.002670,1224.669922 334.197403,1162.242416 204.800049" style="stroke:rgb(80.000305%,80.000305%,80.000305%); stroke-width: 2.000000;stroke-linejoin: round;stroke-miterlimit: 10.000000;fill: none;"></path>
</svg>
