<?xml version="1.0" encoding="UTF-8" standalone="no"?>
<svg
   xmlns:dc="http://purl.org/dc/elements/1.1/"
   xmlns:cc="http://creativecommons.org/ns#"
   xmlns:rdf="http://www.w3.org/1999/02/22-rdf-syntax-ns#"
   xmlns:svg="http://www.w3.org/2000/svg"
   xmlns="http://www.w3.org/2000/svg"
   xmlns:sodipodi="http://sodipodi.sourceforge.net/DTD/sodipodi-0.dtd"
   xmlns:inkscape="http://www.inkscape.org/namespaces/inkscape"
   width="461.30975"
   height="263.58093"
   id="svg2992"
   version="1.1"
   inkscape:version="1.0.1 (3bc2e813f5, 2020-09-07)"
   sodipodi:docname="ങ.svg">
  <defs
     id="defs5498">
    <inkscape:path-effect
       effect="spiro"
       id="path-effect4372-5-0-7-0-2"
       is_visible="true"
       lpeversion="0" />
    <inkscape:path-effect
       effect="spiro"
       id="path-effect4372-5-0-7-0-2-7"
       is_visible="true"
       lpeversion="0" />
    <inkscape:path-effect
       effect="spiro"
       id="path-effect4372-5-0-7-0-2-7-2"
       is_visible="true"
       lpeversion="0" />
    <inkscape:path-effect
       effect="spiro"
       id="path-effect4372-5-0-7-0-2-7-1"
       is_visible="true"
       lpeversion="0" />
    <inkscape:path-effect
       effect="spiro"
       id="path-effect4372-5-0-7-0-2-7-25"
       is_visible="true"
       lpeversion="0" />
    <inkscape:path-effect
       effect="spiro"
       id="path-effect4372-5-0-7-0-2-7-25-6"
       is_visible="true"
       lpeversion="0" />
    <inkscape:path-effect
       effect="spiro"
       id="path-effect4372-5-0-7-0-2-7-3"
       is_visible="true"
       lpeversion="0" />
    <inkscape:path-effect
       effect="spiro"
       id="path-effect4372-5-0-7-0-2-7-35"
       is_visible="true"
       lpeversion="0" />
    <inkscape:path-effect
       effect="spiro"
       id="path-effect4372-5-0-7-0-2-7-6"
       is_visible="true"
       lpeversion="0" />
    <inkscape:path-effect
       effect="spiro"
       id="path-effect4372-5-0-7-0-2-7-8"
       is_visible="true"
       lpeversion="0" />
  </defs>
  <sodipodi:namedview
     inkscape:window-height="1015"
     inkscape:window-width="1920"
     inkscape:pageshadow="2"
     inkscape:pageopacity="0.0"
     borderopacity="1.0"
     bordercolor="#666666"
     pagecolor="#ffffff"
     id="base"
     showgrid="true"
     showguides="true"
     inkscape:guide-bbox="true"
     inkscape:zoom="0.1767767"
     inkscape:cx="680.29174"
     inkscape:cy="1334.7805"
     inkscape:window-x="0"
     inkscape:window-y="0"
     inkscape:current-layer="layer1"
     inkscape:window-maximized="1"
     inkscape:document-rotation="0">
    <sodipodi:guide
       orientation="horizontal"
       position="-717.80978,-371.89553"
       id="guide5596" />
    <inkscape:grid
       type="xygrid"
       id="grid3769"
       empspacing="3"
       visible="true"
       enabled="true"
       snapvisiblegridlinesonly="true"
       spacingx="4"
       units="px"
       dotted="true"
       spacingy="4"
       originx="-717.80978"
       originy="-812.52353" />
    <sodipodi:guide
       orientation="0,1"
       position="-1757.8098,628.1045"
       id="guide2985" />
  </sodipodi:namedview>
  <metadata
     id="metadata5594">
    <rdf:RDF>
      <cc:Work
         rdf:about="">
        <dc:format>image/svg+xml</dc:format>
        <dc:type
           rdf:resource="http://purl.org/dc/dcmitype/StillImage" />
        <dc:title />
      </cc:Work>
    </rdf:RDF>
  </metadata>
  <g
     inkscape:label="Layer 1"
     inkscape:groupmode="layer"
     id="layer1"
     transform="translate(-717.80978,235.47647)">
    <path
       style="fill:none;fill-rule:evenodd;stroke:#000000;stroke-width:35;stroke-linecap:round;stroke-linejoin:round;stroke-miterlimit:4;stroke-dasharray:none;stroke-opacity:1"
       d="m 750.7434,-31.372178 c -6.4206,-15.135431 -7.24398,-32.572224 -2.27817,-48.245327 4.9658,-15.673103 15.68017,-29.454325 29.64525,-38.130835 13.96508,-8.67651 31.06666,-12.17735 47.31782,-9.68636 16.25117,2.49099 31.519,10.95344 42.2441,23.41448 7.73476,8.98669 13.11954,19.985134 15.43356,31.61408 2.31402,11.628946 1.54743,23.861788 -2.23942,35.097748 -3.78686,11.235961 -10.58887,21.445514 -19.5266,29.2368051 C 852.40222,-0.28029593 841.34928,5.0686328 829.68598,7.2027862 816.57624,9.60161 802.81894,7.9234644 790.47191,2.9064557 778.12487,-2.1105529 767.19184,-10.403462 758.63532,-20.621371 741.5223,-41.057191 734.33554,-68.618258 735.41748,-95.25109 c 1.26313,-31.09311 13.5326,-61.80549 34.83737,-84.48772 21.30477,-22.68223 51.61041,-36.94134 82.71623,-37.83842 16.30249,-0.47016 32.75412,2.67694 47.52703,9.5873 14.77291,6.91037 27.7522,17.59622 37.40092,30.74515 9.64871,13.14893 15.88253,28.62906 19.14194,44.60931 3.25941,15.98024 3.5687,32.39548 3.69996,48.704217 l 0.76272,94.764074 -0.56558,-94.453475 c -0.10016,-16.727756 0.009,-33.585016 3.37956,-49.970036 3.37028,-16.38502 10.02684,-32.20183 20.27553,-45.42272 10.2487,-13.22089 23.96724,-23.69497 39.35364,-30.25889 15.3865,-6.56391 32.3093,-9.25846 49.0248,-8.60954 18.6346,0.72342 37.3388,5.66236 52.9193,15.91019 15.5806,10.24782 27.8156,26.05556 32.0337,44.22087 2.0489,8.82374 2.1849,18.14118 -0.07,26.91464 -2.2545,8.77347 -6.9373,16.92091 -13.4547,23.21223 -6.5173,6.29131 -14.7768,10.63934 -23.5019,13.074497 -8.725,2.435156 -17.8502,2.975543 -26.8993,3.387253 l -17.3857,0.790999 14.9243,0.09825 c 8.5775,0.05647 17.2034,0.184095 25.6365,1.752236 8.4331,1.568142 16.6613,4.597137 23.7231,9.466076 7.0619,4.868938 12.8914,11.566082 16.4996,19.347945 3.6081,7.781863 4.9674,16.598356 3.8169,25.098502 -1.9413,14.342421 -11.051,27.2798441 -23.2704,35.03616022 -12.2194,7.75631608 -27.2655,10.52489578 -41.6501,8.92562398 -9.7962,-1.0891382 -19.371,-4.1342864 -27.9966,-8.90400995"
       id="path4370-9-0-9-5-7-8"
       inkscape:path-effect="#path-effect4372-5-0-7-0-2-7"
       inkscape:original-d="m 750.7434,-31.372178 c 7.74838,-45.494553 81.35378,-101.774362 116.929,-72.648042 30.06985,24.618947 -0.21335,103.08438625 -37.98642,111.2230062 -45.00473,9.6967498 -94.77183,-56.0485762 -94.2685,-102.4538762 0.61334,-56.54806 61.05557,-124.78208 117.5536,-122.32614 57.17419,2.48534 107.8624,113.02718 107.76985,133.645977 l 0.76272,94.764074 -0.56558,-94.453475 c -3.62617,-54.164946 54.23513,-126.720926 112.03353,-134.261186 34.402,-4.48802 81.6647,25.59372 84.953,60.13106 2.9164,30.63037 -36.5735,65.344186 -63.9255,66.58862 l -17.3857,0.790999 14.9243,0.09825 c 30.1525,0.198497 70.8346,25.662808 69.6761,55.664759 -1.0197,26.4086152 -39.0548,40.2202592 -64.9205,43.9617842 -9.692,1.4019548 -16.8935,-3.357205 -27.9966,-8.90400995"
       inkscape:connector-curvature="0"
       sodipodi:nodetypes="caaaacccaascsaac" />
  </g>
</svg>
