<?xml version="1.0"?>

<svg version="1.1" xmlns="http://www.w3.org/2000/svg" xmlns:xlink="http://www.w3.org/1999/xlink" width="1521.667969" height="1024.000000" viewBox="0 0 1521.667969 1024.000000">

  <g transform="translate(524.052383 138.922256)" style="fill: rgb(0.000000%,0.000000%,0.000000%);">
    <text font-size="9.962646">vc</text>
  </g>
  <g transform="translate(1409.397583 793.693146)" style="fill: rgb(0.000000%,0.000000%,0.000000%);">
    <text font-size="9.962646">bottom</text>
  </g>
  <g transform="translate(1414.641830 792.724548)" style="fill: rgb(0.000000%,0.000000%,0.000000%);">
    <text font-size="9.962646">right</text>
  </g>
  <path d="M81.918732 643.657166C81.918732 558.826233,150.687790 490.057175,235.518723 490.057175C320.349655 490.057175,389.118713 558.826233,389.118713 643.657166C389.118713 728.488098,320.349655 797.257156,235.518723 797.257156C104.188889 797.257156,41.295746 642.047348,68.095383 490.057175C105.658875 277.021423,307.483185 139.112747,528.895355 136.777512C862.511124 133.258850,849.421722 490.057175,682.495346 490.057175" style="stroke:rgb(80.000305%,80.000305%,80.000305%); stroke-width: 2.000000;stroke-linejoin: round;stroke-miterlimit: 10.000000;fill: none;"></path>
  <path d="M682.495346 490.057175C767.501312 490.057175,836.555466 558.811279,836.095337 643.657166C835.639053 727.793808,767.060364 795.422485,682.495346 797.257156C561.186661 799.888977,477.695358 681.601639,477.695358 551.497177C477.695358 411.622803,550.864212 277.287003,682.495346 244.297195C839.063492 205.057587,989.695328 326.702667,989.695328 490.057175C989.695328 490.082169,989.695328 797.232162,989.695328 797.257156" style="stroke:rgb(80.000305%,80.000305%,80.000305%); stroke-width: 2.000000;stroke-linejoin: round;stroke-miterlimit: 10.000000;fill: none;"></path>
  <path d="M989.695328 512.000031C1009.724030 369.496414,1100.455963 230.473083,1237.671875 204.800049C1347.731277 184.207993,1440.027603 256.593948,1420.883591 358.400040C1402.898499 454.043045,1297.272720 512.000031,1194.495316 512.000031C1360.953339 512.000031,1514.164444 582.405670,1472.910919 716.800018C1436.150650 836.556427,1279.446228 868.349411,1151.318756 819.200012" style="stroke:rgb(80.000305%,80.000305%,80.000305%); stroke-width: 2.000000;stroke-linejoin: round;stroke-miterlimit: 10.000000;fill: none;"></path>
</svg>
