<?xml version="1.0"?>

<svg version="1.1" xmlns="http://www.w3.org/2000/svg" xmlns:xlink="http://www.w3.org/1999/xlink" width="1295.729050" height="1024.000000" viewBox="0 0 1295.729050 1024.000000">

  <g transform="translate(660.753845 452.701035)" style="fill: rgb(0.000000%,0.000000%,0.000000%);">
    <text font-size="9.962646">vc</text>
  </g>
  <path d="M665.596817 450.556290C665.596817 321.670273,749.062790 204.800049,870.396805 204.800049C1006.964523 204.800049,1075.196793 358.192932,1075.196793 512.000031C1075.196793 665.807129,1006.964523 819.200012,870.396805 819.200012C749.062790 819.200012,665.596817 702.329788,665.596817 573.443771C665.596817 687.913467,617.329880 803.655411,511.996826 819.200012C434.012772 830.708572,362.260788 774.261734,358.396835 696.321899C354.134445 610.345215,431.587921 550.933777,511.996826 512.000031C712.581711 414.877426,949.497437 382.912292,1126.396790 512.000031C1188.331100 557.194992,1235.927216 620.908264,1249.274902 696.321899C1285.874207 903.105682,1093.520691 1064.857193,870.396805 1116.159363C463.019821 1209.826279,51.196854 987.316132,51.196854 614.400024C51.196854 463.787552,105.763992 318.275192,204.796844 204.800049" style="stroke:rgb(80.000305%,80.000305%,80.000305%); stroke-width: 2.000000;stroke-linejoin: round;stroke-miterlimit: 10.000000;fill: none;"></path>
  <path d="M358.396835 512.000031C302.039856 357.162186,379.075500 194.574265,511.996826 204.800049C618.344940 212.981522,665.596817 332.850342,665.596817 450.556290" style="stroke:rgb(80.000305%,80.000305%,80.000305%); stroke-width: 2.000000;stroke-linejoin: round;stroke-miterlimit: 10.000000;fill: none;"></path>
</svg>
