<?xml version="1.0" encoding="UTF-8" standalone="no"?>
<svg
   xmlns:dc="http://purl.org/dc/elements/1.1/"
   xmlns:cc="http://creativecommons.org/ns#"
   xmlns:rdf="http://www.w3.org/1999/02/22-rdf-syntax-ns#"
   xmlns:svg="http://www.w3.org/2000/svg"
   xmlns="http://www.w3.org/2000/svg"
   xmlns:sodipodi="http://sodipodi.sourceforge.net/DTD/sodipodi-0.dtd"
   xmlns:inkscape="http://www.inkscape.org/namespaces/inkscape"
   width="424.00333"
   height="262.97095"
   id="svg2992"
   version="1.1"
   inkscape:version="1.0.1 (3bc2e813f5, 2020-09-07)"
   sodipodi:docname="ങ്ക.svg">
  <defs
     id="defs5498">
    <inkscape:path-effect
       effect="spiro"
       id="path-effect3846"
       is_visible="true"
       lpeversion="0" />
    <inkscape:path-effect
       effect="spiro"
       id="path-effect3801"
       is_visible="true"
       lpeversion="0" />
    <inkscape:path-effect
       effect="spiro"
       id="path-effect4530"
       is_visible="true"
       lpeversion="0" />
    <inkscape:path-effect
       effect="spiro"
       id="path-effect4530-3"
       is_visible="true"
       lpeversion="0" />
    <inkscape:path-effect
       effect="spiro"
       id="path-effect4530-3-5"
       is_visible="true"
       lpeversion="0" />
    <inkscape:path-effect
       is_visible="true"
       id="path-effect4500-0-5-18"
       effect="spiro"
       lpeversion="0" />
    <inkscape:path-effect
       effect="spiro"
       id="path-effect4530-3-5-0"
       is_visible="true"
       lpeversion="0" />
    <inkscape:path-effect
       is_visible="true"
       id="path-effect4500-0-5-18-9"
       effect="spiro"
       lpeversion="0" />
    <inkscape:path-effect
       is_visible="true"
       id="path-effect4500-0-5-18-3"
       effect="spiro"
       lpeversion="0" />
    <inkscape:path-effect
       effect="spiro"
       id="path-effect4530-3-5-7"
       is_visible="true"
       lpeversion="0" />
    <inkscape:path-effect
       effect="spiro"
       id="path-effect4530-3-5-7-8"
       is_visible="true"
       lpeversion="0" />
    <inkscape:path-effect
       is_visible="true"
       id="path-effect4500-0-5-18-3-5"
       effect="spiro"
       lpeversion="0" />
    <inkscape:path-effect
       effect="spiro"
       id="path-effect4530-3-5-7-1"
       is_visible="true"
       lpeversion="0" />
    <inkscape:path-effect
       is_visible="true"
       id="path-effect4500-0-5-18-3-4"
       effect="spiro"
       lpeversion="0" />
    <inkscape:path-effect
       effect="spiro"
       id="path-effect4530-3-5-7-1-6"
       is_visible="true"
       lpeversion="0" />
    <inkscape:path-effect
       is_visible="true"
       id="path-effect4500-0-5-18-3-4-9"
       effect="spiro"
       lpeversion="0" />
    <inkscape:path-effect
       effect="spiro"
       id="path-effect4530-3-5-7-1-5"
       is_visible="true"
       lpeversion="0" />
    <inkscape:path-effect
       is_visible="true"
       id="path-effect4500-0-5-18-3-4-3"
       effect="spiro"
       lpeversion="0" />
    <inkscape:path-effect
       effect="spiro"
       id="path-effect4530-3-5-7-0"
       is_visible="true"
       lpeversion="0" />
    <inkscape:path-effect
       is_visible="true"
       id="path-effect4500-0-5-18-3-0"
       effect="spiro"
       lpeversion="0" />
  </defs>
  <sodipodi:namedview
     inkscape:window-height="1015"
     inkscape:window-width="1920"
     inkscape:pageshadow="2"
     inkscape:pageopacity="0.0"
     borderopacity="1.0"
     bordercolor="#666666"
     pagecolor="#ffffff"
     id="base"
     showgrid="true"
     showguides="true"
     inkscape:guide-bbox="true"
     inkscape:zoom="0.32102648"
     inkscape:cx="591.08016"
     inkscape:cy="683.17956"
     inkscape:window-x="1920"
     inkscape:window-y="0"
     inkscape:current-layer="layer1"
     inkscape:window-maximized="1"
     inkscape:document-rotation="0">
    <sodipodi:guide
       orientation="horizontal"
       position="-777.91679,-373.15884"
       id="guide5596" />
    <inkscape:grid
       type="xygrid"
       id="grid3769"
       empspacing="3"
       visible="true"
       enabled="true"
       snapvisiblegridlinesonly="true"
       spacingx="4"
       units="px"
       dotted="true"
       spacingy="4"
       originx="-777.91679"
       originy="-811.87021" />
    <sodipodi:guide
       orientation="0,1"
       position="-1817.9168,626.84117"
       id="guide2985" />
    <sodipodi:guide
       position="2582.0832,736.84117"
       orientation="0,1"
       id="guide4184"
       inkscape:label=""
       inkscape:color="rgb(0,0,255)" />
  </sodipodi:namedview>
  <metadata
     id="metadata5594">
    <rdf:RDF>
      <cc:Work
         rdf:about="">
        <dc:format>image/svg+xml</dc:format>
        <dc:type
           rdf:resource="http://purl.org/dc/dcmitype/StillImage" />
        <dc:title />
      </cc:Work>
    </rdf:RDF>
  </metadata>
  <g
     inkscape:label="Layer 1"
     inkscape:groupmode="layer"
     id="layer1"
     transform="translate(-777.91679,236.12979)">
    <path
       style="fill:none;fill-rule:evenodd;stroke:#000000;stroke-width:35;stroke-linecap:round;stroke-linejoin:round;stroke-miterlimit:4;stroke-dasharray:none;stroke-opacity:1"
       d="m 886.43883,-121.48324 c -8.30587,0.19127 -16.62927,-0.38506 -24.82951,-1.71927 -17.15217,-2.79071 -34.32751,-9.29995 -46.28428,-21.91029 -5.97838,-6.30517 -10.51038,-14.06651 -12.52981,-22.51743 -2.01944,-8.45093 -1.44564,-17.58702 2.11532,-25.51267 3.73908,-8.32209 10.63735,-15.03577 18.71265,-19.28164 8.0753,-4.24588 17.27139,-6.11777 26.39448,-6.20221 19.06234,-0.17643 38.07566,7.58842 51.56487,21.05858 13.4892,13.47016 21.28091,32.47249 21.13141,51.53506 0.62496,-19.42138 9.2538,-38.4648 23.44392,-51.73962 14.19013,-13.27482 33.76579,-20.61661 53.18569,-19.94714 12.71393,0.4383 25.24513,4.19556 36.33803,10.42312 11.093,6.22757 20.7574,14.8891 28.5355,24.95575 15.5562,20.1333 23.3431,45.49142 25.4304,70.84862 2.3422,28.452928 -2.5284,58.246269 -18.3065,82.039262 -7.889,11.896496 -18.4324,22.1126208 -30.9063,29.05277815 C 1027.9608,6.5398175 1013.5428,10.127714 999.29892,9.1923963 976.43579,7.6911018 955.31199,-5.4385172 940.92888,-23.273949 c -14.38311,-17.835431 -22.56587,-40.003145 -26.96231,-62.48976 -1.72492,-8.822484 -2.90382,-17.751681 -3.52774,-26.719531 2.09411,9.88709 3.28103,19.966139 3.54099,30.069224 0.52373,20.354179 -2.93856,41.324048 -13.5697,58.689121 -5.31557,8.682536 -12.39033,16.3462119 -20.91093,21.9176659 -8.5206,5.571454 -18.50523,9.0028135 -28.67996,9.3442754 -15.39279,0.516579 -30.79013,-6.2967197 -41.07539,-17.7605003 -10.28527,-11.463781 -15.38394,-27.312582 -14.13514,-42.663329 0.99658,-12.250432 5.88875,-24.071384 13.37264,-33.821132 7.4839,-9.749748 17.48878,-17.439775 28.53172,-22.836035 22.08589,-10.79253 47.47876,-11.92237 72.05766,-12.29988 l 178.97188,-2.74887 c 11.4115,-0.17527 22.8904,-0.25053 34.1509,1.60843 11.2604,1.85896 22.2797,5.6752 31.8255,11.93066 9.5458,6.25545 17.5317,14.924559 22.7578,25.070533 5.2261,10.145974 7.6695,21.700442 7.0468,33.096294 -0.9485,17.357489 -9.1613,34.203858 -22.2512,45.6422669 -13.0899,11.4384091 -30.8851,17.3188421 -48.2131,15.9319974"
       id="path4528-8-0-8"
       inkscape:path-effect="#path-effect4530-3-5-7"
       inkscape:original-d="m 886.43883,-121.48324 c -4.48684,-0.34837 -20.76391,-0.92847 -24.82951,-1.71927 -41.12493,-7.99923 -60.61264,-40.55842 -56.69877,-69.94039 2.28026,-17.11816 27.9954,-27.81184 45.10713,-25.48385 33.93259,4.61642 72.69628,72.59364 72.69628,72.59364 0.93495,-47.22072 42.21293,-73.9835 76.62961,-71.68676 46.37153,3.09453 88.86513,59.77507 90.30393,106.22749 1.5557,50.228249 -40.099,120.1620463 -90.34858,120.6847763 -39.44699,0.410355 -75.27798,-56.4362913 -85.33235,-94.9561053 -1.67577,-6.420155 -3.16662,-21.413661 -3.52774,-26.719531 0,0 6.36728,20.84049 3.54099,30.069224 C 905.10971,-53.45031 879.2685,4.9023463 850.81923,7.5370463 823.65251,10.052971 791.71647,-25.88288 795.6087,-52.886783 c 6.3342,-43.946075 44.66707,-67.892737 113.96202,-68.957047 l 178.97188,-2.74887 c 43.4787,-0.6678 94.275,31.851569 95.781,71.705917 1.1778,31.170005 -70.4643,61.5742643 -70.4643,61.5742643"
       inkscape:connector-curvature="0"
       sodipodi:nodetypes="cssacaasscssassac" />
  </g>
</svg>
