<?xml version="1.0"?>

<svg version="1.1" xmlns="http://www.w3.org/2000/svg" xmlns:xlink="http://www.w3.org/1999/xlink" width="1108.684525" height="1024.000000" viewBox="0 0 1108.684525 1024.000000">

  <g transform="translate(384.275742 452.701035)" style="fill: rgb(0.000000%,0.000000%,0.000000%);">
    <text font-size="9.962646">vc</text>
  </g>
  <path d="M389.118713 450.556290C389.118713 321.670273,472.584686 204.800049,593.918701 204.800049C730.486420 204.800049,798.718689 358.192932,798.718689 512.000031C798.718689 665.807129,730.486420 819.200012,593.918701 819.200012C472.584686 819.200012,389.118713 702.329788,389.118713 573.443771C389.118713 689.108337,341.311432 806.460312,235.518723 819.200012C160.020523 828.291595,92.593414 772.571579,81.918732 696.321899C68.722015 602.057251,141.028748 520.578003,235.518723 491.521912C368.829742 450.528183,716.028717 452.499176,849.918686 491.521912C948.877533 520.363831,1026.979721 597.142822,1054.718674 696.321899C1111.676270 899.970566,958.828979 1101.828140,747.518692 1101.828125C652.811615 1101.828125,542.718704 1106.359039,542.718704 1024.000000C542.718704 936.164703,646.785431 901.120010,747.518692 901.120010C833.238449 901.120010,911.979965 948.364914,952.318680 1024.000000" style="stroke:rgb(80.000305%,80.000305%,80.000305%); stroke-width: 2.000000;stroke-linejoin: round;stroke-miterlimit: 10.000000;fill: none;"></path>
  <path d="M81.918732 512.000031C25.561752 357.162186,102.597397 194.574265,235.518723 204.800049C341.866837 212.981522,389.118713 332.850342,389.118713 450.556290" style="stroke:rgb(80.000305%,80.000305%,80.000305%); stroke-width: 2.000000;stroke-linejoin: round;stroke-miterlimit: 10.000000;fill: none;"></path>
</svg>
