<?xml version="1.0"?>

<svg version="1.1" xmlns="http://www.w3.org/2000/svg" xmlns:xlink="http://www.w3.org/1999/xlink" width="923.184601" height="1024.000000" viewBox="0 0 923.184601 1024.000000">

  <g transform="translate(347.951218 299.101044)" style="fill: rgb(0.000000%,0.000000%,0.000000%);">
    <text font-size="9.962646">vc</text>
  </g>
  <g transform="translate(741.988190 822.659271)" style="fill: rgb(0.000000%,0.000000%,0.000000%);">
    <text font-size="9.962646">bottom</text>
  </g>
  <g transform="translate(747.232437 821.690674)" style="fill: rgb(0.000000%,0.000000%,0.000000%);">
    <text font-size="9.962646">right</text>
  </g>
  <path d="M209.434204 614.400024C168.545120 573.510941,143.776077 518.365219,147.994202 460.800034C155.684830 355.845123,250.252106 278.875595,352.794189 296.956299C455.036865 314.984207,526.215546 408.569275,516.634186 512.000031C498.802643 704.491562,269.152786 751.051620,81.918732 819.200012" style="stroke:rgb(80.000305%,80.000305%,80.000305%); stroke-width: 2.000000;stroke-linejoin: round;stroke-miterlimit: 10.000000;fill: none;"></path>
  <path d="M81.918732 819.200012C300.195557 739.752853,539.485611 898.647171,757.762436 819.200012C864.936127 780.191544,815.741333 636.336563,757.762436 512.000031C711.748413 413.322311,703.622696 298.573090,757.762436 204.800049" style="stroke:rgb(80.000305%,80.000305%,80.000305%); stroke-width: 2.000000;stroke-linejoin: round;stroke-miterlimit: 10.000000;fill: none;"></path>
  <path d="M151.795456 1120.253357C127.322220 1089.599213,111.493820 1052.654892,119.910950 1012.733841C132.394623 953.525970,193.262238 905.214310,260.062103 905.214310C325.218491 905.214310,366.689377 954.250763,365.671875 1012.733841C363.885910 1115.387482,255.250412 1199.380219,133.142883 1236.375854" style="stroke:rgb(80.000305%,80.000305%,80.000305%); stroke-width: 2.000000;stroke-linejoin: round;stroke-miterlimit: 10.000000;fill: none;"></path>
  <path d="M20.474991 1249.278107C210.970306 1188.610123,419.804382 1309.946091,610.299698 1249.278107C542.853149 1190.262863,487.990295 1117.484833,487.419235 1034.239059C486.589172 913.235016,597.112381 813.644592,733.180161 819.200012C861.279236 824.430069,955.252518 920.660934,978.941086 1034.239059C1001.578918 1142.779236,940.510376 1251.480743,831.483032 1249.278107C750.352753 1247.639069,693.976227 1178.500427,708.602570 1105.918747C727.733551 1010.983261,834.629471 953.458923,948.561264 953.458923" style="stroke:rgb(80.000305%,80.000305%,80.000305%); stroke-width: 2.000000;stroke-linejoin: round;stroke-miterlimit: 10.000000;fill: none;"></path>
</svg>
