<?xml version="1.0" encoding="UTF-8" standalone="no"?>
<svg
   xmlns:dc="http://purl.org/dc/elements/1.1/"
   xmlns:cc="http://creativecommons.org/ns#"
   xmlns:rdf="http://www.w3.org/1999/02/22-rdf-syntax-ns#"
   xmlns:svg="http://www.w3.org/2000/svg"
   xmlns="http://www.w3.org/2000/svg"
   xmlns:sodipodi="http://sodipodi.sourceforge.net/DTD/sodipodi-0.dtd"
   xmlns:inkscape="http://www.inkscape.org/namespaces/inkscape"
   width="328.87451"
   height="269.40396"
   id="svg2992"
   version="1.1"
   inkscape:version="1.0.1 (3bc2e813f5, 2020-09-07)"
   sodipodi:docname="ജ.svg">
  <defs
     id="defs5498">
    <inkscape:path-effect
       effect="spiro"
       id="path-effect4142"
       is_visible="true"
       lpeversion="0" />
    <inkscape:path-effect
       effect="spiro"
       id="path-effect4142-0"
       is_visible="true"
       lpeversion="0" />
    <inkscape:path-effect
       effect="spiro"
       id="path-effect4142-0-1"
       is_visible="true"
       lpeversion="0" />
    <inkscape:path-effect
       effect="spiro"
       id="path-effect4142-0-1-0"
       is_visible="true"
       lpeversion="0" />
    <inkscape:path-effect
       effect="spiro"
       id="path-effect4142-0-1-0-9"
       is_visible="true"
       lpeversion="0" />
    <inkscape:path-effect
       effect="spiro"
       id="path-effect4142-0-1-0-0"
       is_visible="true"
       lpeversion="0" />
    <inkscape:path-effect
       effect="spiro"
       id="path-effect4142-0-1-0-8"
       is_visible="true"
       lpeversion="0" />
    <inkscape:path-effect
       effect="spiro"
       id="path-effect4142-0-1-0-01"
       is_visible="true"
       lpeversion="0" />
    <inkscape:path-effect
       effect="spiro"
       id="path-effect4142-0-1-0-4"
       is_visible="true"
       lpeversion="0" />
    <inkscape:path-effect
       effect="spiro"
       id="path-effect4142-0-1-0-4-3"
       is_visible="true"
       lpeversion="0" />
    <inkscape:path-effect
       effect="spiro"
       id="path-effect4142-0-1-0-06"
       is_visible="true"
       lpeversion="0" />
    <inkscape:path-effect
       effect="spiro"
       id="path-effect4142-0-1-0-1"
       is_visible="true"
       lpeversion="0" />
    <inkscape:path-effect
       effect="spiro"
       id="path-effect4142-0-1-0-3"
       is_visible="true"
       lpeversion="0" />
  </defs>
  <sodipodi:namedview
     inkscape:window-height="1015"
     inkscape:window-width="1920"
     inkscape:pageshadow="2"
     inkscape:pageopacity="0.0"
     borderopacity="1.0"
     bordercolor="#666666"
     pagecolor="#ffffff"
     id="base"
     showgrid="false"
     showguides="true"
     inkscape:guide-bbox="true"
     inkscape:zoom="0.80084197"
     inkscape:cx="164.43731"
     inkscape:cy="134.70198"
     inkscape:window-x="1920"
     inkscape:window-y="0"
     inkscape:current-layer="layer1"
     inkscape:window-maximized="1"
     inkscape:document-rotation="0">
    <sodipodi:guide
       orientation="horizontal"
       position="1096.9419,-353.56614"
       id="guide5596" />
    <inkscape:grid
       type="xygrid"
       id="grid3769"
       empspacing="3"
       visible="true"
       enabled="true"
       snapvisiblegridlinesonly="true"
       spacingx="4"
       units="px"
       dotted="true"
       spacingy="4"
       originx="1096.9419"
       originy="-825.0299" />
    <sodipodi:guide
       orientation="0,1"
       position="56.941925,646.43386"
       id="guide2985" />
    <sodipodi:guide
       position="2536.9419,-401.56614"
       orientation="0,1"
       id="guide4153" />
  </sodipodi:namedview>
  <metadata
     id="metadata5594">
    <rdf:RDF>
      <cc:Work
         rdf:about="">
        <dc:format>image/svg+xml</dc:format>
        <dc:type
           rdf:resource="http://purl.org/dc/dcmitype/StillImage" />
        <dc:title />
      </cc:Work>
    </rdf:RDF>
  </metadata>
  <g
     inkscape:label="Layer 1"
     inkscape:groupmode="layer"
     id="layer1"
     transform="translate(1096.9419,222.9701)">
    <path
       style="fill:none;fill-rule:evenodd;stroke:#000000;stroke-width:35;stroke-linecap:round;stroke-linejoin:round;stroke-miterlimit:4;stroke-dasharray:none;stroke-opacity:1"
       d="m -1072.241,-111.08657 c -5.0247,-10.31588 -5.1753,-22.88143 -0.3995,-33.31483 3.9485,-8.62604 11.1594,-15.71202 19.856,-19.50255 8.6966,-3.79053 18.7988,-4.24893 27.8007,-1.25466 9.8135,3.26423 18.1832,10.60928 22.7659,19.88067 4.58262,9.2714 5.34058,20.34815 2.1397,30.18247 -2.4688,7.58507 -7.2484,14.42021 -13.6033,19.241281 -6.355,4.82107 -14.2664,7.588605 -22.2429,7.653363 -6.9348,0.0563 -13.8463,-1.909721 -19.8248,-5.424164 -5.9786,-3.514443 -11.0245,-8.55154 -14.7342,-14.41088 -7.4195,-11.71868 -9.3006,-26.45847 -6.6594,-40.07466 3.532,-18.2088 14.9953,-34.6347 30.588,-44.67978 15.5927,-10.04509 35.0652,-13.70323 53.33968,-10.52844 19.126,3.32272 36.86159,14.07804 48.64906,29.50204 11.78747,15.42401 17.50818,35.36144 15.69201,54.68878 l -0.54878,29.365194 0.26779,-28.944704 c 0.11342,-12.25888 0.41133,-24.64259 3.46668,-36.51516 3.05536,-11.87256 8.90612,-23.12842 17.54568,-31.82617 8.63956,-8.69776 19.93104,-14.68937 31.948,-17.11539 12.01696,-2.42603 24.63115,-1.3516 36.29551,2.42142 14.90385,4.82088 28.40782,14.08831 37.90349,26.54616 9.49566,12.45784 14.87426,28.08795 14.59933,43.74968 -0.19985,11.38462 -3.3353,22.65633 -8.6671,32.717222 -5.3318,10.060889 -12.82812,18.919982 -21.59747,26.182772 -17.5387,14.525579 -39.82838,22.469816 -62.37144,25.696102 -45.08611,6.452571 -90.67335,-4.96895 -136.20884,-5.924281 -13.1669,-0.27624 -26.7096,0.404466 -38.7795,5.67351 -6.0349,2.634522 -11.6195,6.41968 -15.9535,11.377198 -4.334,4.957517 -7.3767,11.118608 -8.2169,17.649676 -0.9325,7.248504 0.8934,14.7415115 4.6471,21.0120917 3.7536,6.2705803 9.3643,11.3388313 15.7564,14.8816423 12.7841,7.085621 28.1564,8.009766 42.6706,6.284104 24.78778,-2.947127 48.18391,-13.023141 70.18626,-24.81366591 22.00235,-11.79052509 43.02675,-25.40643809 65.50141,-36.26966409 14.65548,-7.083791 30.31971,-13.061098 46.597,-13.174865 8.13865,-0.05688 16.34211,1.393159 23.75646,4.749982 7.41434,3.356824 14.0128,8.670194 18.4267,15.508193 5.06313,7.843776 7.0871,17.593925 5.57489,26.8065957 -1.51222,9.2126707 -6.54399,17.8010713 -13.83438,23.6329033 -7.29039,5.831833 -16.76988,8.854479 -26.0911,8.330027 -9.32121,-0.524452 -18.39842,-4.588848 -25.00511,-11.185196 -4.82705,-4.819497 -8.33835,-10.944572 -10.05591,-17.54593154 -1.71756,-6.60135956 -1.6366,-13.66168046 0.2341,-20.22128546 1.87071,-6.559606 5.52647,-12.601051 10.47103,-17.299914 4.94455,-4.698864 11.16493,-8.042444 17.81237,-9.571981 10.05975,-2.314689 21.03328,-0.340584 29.65561,5.334954"
       id="path4140-7-4-0"
       inkscape:path-effect="#path-effect4142-0-1-0"
       inkscape:original-d="m -1072.241,-111.08657 c 0,0 -7.2046,-24.41406 -0.3995,-33.31483 10.3812,-13.57806 31.3754,-26.68543 47.6567,-20.75721 17.5138,6.37701 29.20458,31.92698 24.9056,50.06314 -3.4453,14.53515 -21.1044,29.307581 -35.8462,26.894644 -23.9215,-3.915487 -45.8715,-36.120654 -41.2184,-59.909704 6.428,-32.86323 50.9143,-60.81415 83.92768,-55.20822 34.82208,5.91306 63.24628,61.52869 64.34107,84.19082 l -0.54878,29.365194 0.26779,-28.944704 c 0.23559,-51.25351 48.10064,-87.43187 89.25587,-83.0353 29.48054,3.14937 61.12011,42.34801 52.50282,70.29584 -23.76719,77.082434 -155.10862,45.967869 -228.84485,78.671815 -21.9026,9.714351 -61.9245,10.762175 -62.9499,34.700384 -1.0824,25.2691533 37.8693,40.075813 63.0741,42.177838 49.42938,4.1223 86.81597,-52.609013 135.68767,-61.08333 26.38934,-5.031219 80.06155,-21.295014 88.78016,7.08331 7.44721,24.2400473 -38.2369,61.621315 -59.3557,47.58433 -18.66174,-12.4038527 -0.55572,-52.787625 18.46159,-64.639112 8.52411,-5.312176 29.65561,5.334954 29.65561,5.334954"
       inkscape:connector-curvature="0"
       sodipodi:nodetypes="csaaaaasccsaaaacaaac" />
  </g>
</svg>
