<?xml version="1.0"?>

<svg version="1.1" xmlns="http://www.w3.org/2000/svg" xmlns:xlink="http://www.w3.org/1999/xlink" width="945.646439" height="1024.000000" viewBox="0 0 945.646439 1024.000000">

  <path d="M204.798721 204.800049C266.145966 235.695145,311.003616 291.767227,327.678711 358.400040C353.324661 460.879898,297.681213 564.999725,204.798721 563.200027C130.706284 561.764389,82.193192 488.696640,81.918732 409.600037C81.585602 313.594254,143.058380 227.391968,235.518723 204.800049C366.190613 172.871445,491.519363 273.870438,491.519363 409.600037C491.519363 409.610031,491.519363 532.470032,491.519363 532.480026" style="stroke:rgb(80.000305%,80.000305%,80.000305%); stroke-width: 2.000000;stroke-linejoin: round;stroke-miterlimit: 10.000000;fill: none;"></path>
  <path d="M491.519363 409.600037C502.484924 284.265930,576.469589 167.992844,696.319351 153.600052C817.986252 138.989044,921.458374 240.879349,901.119339 358.400040C878.469864 489.270584,727.753250 528.898300,593.919357 563.200027C406.975281 611.113937,232.416977 698.393097,81.919388 819.200012" style="stroke:rgb(80.000305%,80.000305%,80.000305%); stroke-width: 2.000000;stroke-linejoin: round;stroke-miterlimit: 10.000000;fill: none;"></path>
  <path d="M81.919388 819.200012C201.209564 732.739838,549.011093 616.805527,696.319351 614.400024C798.711929 612.727982,895.318832 672.035751,901.119339 768.000015C906.235031 852.634811,834.409637 921.148560,747.519348 921.600006C594.751266 922.393723,505.273163 749.879639,593.919357 625.458694" style="stroke:rgb(80.000305%,80.000305%,80.000305%); stroke-width: 2.000000;stroke-linejoin: round;stroke-miterlimit: 10.000000;fill: none;"></path>
</svg>
