<?xml version="1.0"?>

<svg version="1.1" xmlns="http://www.w3.org/2000/svg" xmlns:xlink="http://www.w3.org/1999/xlink" width="1979.932693" height="1024.000000" viewBox="0 0 1979.932693 1024.000000">

  <path d="M204.798721 204.800049C266.145966 235.695145,311.003616 291.767227,327.678711 358.400040C353.324661 460.879898,297.681213 564.999725,204.798721 563.200027C130.706284 561.764389,82.193192 488.696640,81.918732 409.600037C81.585602 313.594254,143.058380 227.391968,235.518723 204.800049C366.190613 172.871445,491.519363 273.870438,491.519363 409.600037C491.519363 409.610031,491.519363 532.470032,491.519363 532.480026" style="stroke:rgb(80.000305%,80.000305%,80.000305%); stroke-width: 2.000000;stroke-linejoin: round;stroke-miterlimit: 10.000000;fill: none;"></path>
  <path d="M491.519363 409.600037C502.484924 284.265930,576.469589 167.992844,696.319351 153.600052C817.986252 138.989044,921.458374 240.879349,901.119339 358.400040C878.469864 489.270584,727.753250 528.898300,593.919357 563.200027C406.975281 611.113937,232.416977 698.393097,81.919388 819.200012" style="stroke:rgb(80.000305%,80.000305%,80.000305%); stroke-width: 2.000000;stroke-linejoin: round;stroke-miterlimit: 10.000000;fill: none;"></path>
  <path d="M81.919388 819.200012C201.209564 732.739838,549.011093 616.805527,696.319351 614.400024C798.711929 612.727982,895.318832 672.035751,901.119339 768.000015C906.235031 852.634811,834.409637 921.148560,747.519348 921.600006C594.751266 922.393723,505.273163 749.879639,593.919357 625.458694" style="stroke:rgb(80.000305%,80.000305%,80.000305%); stroke-width: 2.000000;stroke-linejoin: round;stroke-miterlimit: 10.000000;fill: none;"></path>
  <path d="M1023.999329 204.800049C1085.346573 235.695145,1130.204224 291.767227,1146.879318 358.400040C1172.525269 460.879898,1116.881821 564.999725,1023.999329 563.200027C949.906891 561.764389,901.393799 488.696640,901.119339 409.600037C900.786209 313.594254,962.258987 227.391968,1054.719330 204.800049C1185.391220 172.871445,1310.719971 273.870438,1310.719971 409.600037C1310.719971 409.610031,1310.719971 532.470032,1310.719971 532.480026" style="stroke:rgb(80.000305%,80.000305%,80.000305%); stroke-width: 2.000000;stroke-linejoin: round;stroke-miterlimit: 10.000000;fill: none;"></path>
  <path d="M1310.719971 409.600037C1321.685532 284.265930,1395.670197 167.992844,1515.519958 153.600052C1637.186859 138.989044,1740.658981 240.879349,1720.319946 358.400040C1697.670471 489.270584,1546.953857 528.898300,1413.119965 563.200027C1226.175888 611.113937,1051.617584 698.393097,901.119995 819.200012" style="stroke:rgb(80.000305%,80.000305%,80.000305%); stroke-width: 2.000000;stroke-linejoin: round;stroke-miterlimit: 10.000000;fill: none;"></path>
  <path d="M901.119995 819.200012C1020.367340 732.656479,1368.195953 616.713150,1515.519958 614.400024C1617.814880 612.793900,1714.310532 672.067093,1720.319946 768.000015C1725.636322 852.869614,1653.721283 921.805725,1566.719955 921.600006C1480.083267 921.395157,1408.615234 852.751907,1413.119965 768.000015C1416.536133 703.728394,1464.874542 654.748596,1515.519958 614.400024C1700.440918 467.075790,1914.333664 554.307159,1884.163681 691.200027C1873.916870 737.693726,1830.083069 768.000031,1781.763687 768.000031C1853.404053 768.000031,1923.544281 803.367996,1935.363678 870.400024C1965.409912 1040.802826,1730.472290 1064.959366,1515.519958 1064.959366" style="stroke:rgb(80.000305%,80.000305%,80.000305%); stroke-width: 2.000000;stroke-linejoin: round;stroke-miterlimit: 10.000000;fill: none;"></path>
  <path d="M1515.519958 1064.959366C1581.794891 1040.836990,1653.578110 1052.739151,1722.881668 1064.959366C1792.185211 1077.179581,1863.968430 1089.081741,1930.243362 1064.959366" style="stroke:rgb(80.000305%,80.000305%,80.000305%); stroke-width: 2.000000;stroke-linejoin: round;stroke-miterlimit: 10.000000;fill: none;"></path>
</svg>
