<?xml version="1.0"?>

<svg version="1.1" xmlns="http://www.w3.org/2000/svg" xmlns:xlink="http://www.w3.org/1999/xlink" width="1147.882431" height="1024.000000" viewBox="0 0 1147.882431 1024.000000">

  <path d="M204.798721 204.800049C266.145966 235.695145,311.003616 291.767227,327.678711 358.400040C353.324661 460.879898,297.681213 564.999725,204.798721 563.200027C130.706284 561.764389,82.193192 488.696640,81.918732 409.600037C81.585602 313.594254,143.058380 227.391968,235.518723 204.800049C366.190613 172.871445,491.519363 273.870438,491.519363 409.600037C491.519363 409.610031,491.519363 532.470032,491.519363 532.480026" style="stroke:rgb(80.000305%,80.000305%,80.000305%); stroke-width: 2.000000;stroke-linejoin: round;stroke-miterlimit: 10.000000;fill: none;"></path>
  <path d="M491.519363 409.600037C501.134003 299.706528,587.003494 211.246323,696.319351 204.800049C817.063416 197.679855,918.263870 294.869736,901.119339 409.600037C881.439621 541.295670,730.220108 583.437042,593.919357 614.400024C413.561584 655.371307,240.779358 724.484192,81.919388 819.200012" style="stroke:rgb(80.000305%,80.000305%,80.000305%); stroke-width: 2.000000;stroke-linejoin: round;stroke-miterlimit: 10.000000;fill: none;"></path>
  <path d="M81.919388 819.200012C201.166733 732.656479,548.995346 616.713150,696.319351 614.400024C798.614273 612.793900,895.109924 672.067093,901.119339 768.000015C906.435715 852.869614,834.520676 921.805725,747.519348 921.600006C660.882660 921.395157,589.414627 852.751907,593.919357 768.000015C597.335526 703.728394,645.673935 654.748596,696.319351 614.400024C881.240311 467.075790,1095.133057 554.307159,1064.963074 691.200027C1054.716263 737.693726,1010.882462 768.000031,962.563080 768.000031C1034.203445 768.000031,1104.343674 803.367996,1116.163071 870.400024C1146.209305 1040.802826,911.271683 1064.959366,696.319351 1064.959366" style="stroke:rgb(80.000305%,80.000305%,80.000305%); stroke-width: 2.000000;stroke-linejoin: round;stroke-miterlimit: 10.000000;fill: none;"></path>
  <path d="M696.319351 1064.959366C771.594559 1037.561111,853.126099 1051.079620,931.841217 1064.959366C1010.556335 1078.839111,1092.087860 1092.357605,1167.363068 1064.959366" style="stroke:rgb(80.000305%,80.000305%,80.000305%); stroke-width: 2.000000;stroke-linejoin: round;stroke-miterlimit: 10.000000;fill: none;"></path>
</svg>
