<?xml version="1.0" encoding="UTF-8" standalone="no"?>
<svg
   xmlns:dc="http://purl.org/dc/elements/1.1/"
   xmlns:cc="http://creativecommons.org/ns#"
   xmlns:rdf="http://www.w3.org/1999/02/22-rdf-syntax-ns#"
   xmlns:svg="http://www.w3.org/2000/svg"
   xmlns="http://www.w3.org/2000/svg"
   xmlns:sodipodi="http://sodipodi.sourceforge.net/DTD/sodipodi-0.dtd"
   xmlns:inkscape="http://www.inkscape.org/namespaces/inkscape"
   width="806.75458"
   height="395.54645"
   id="svg2992"
   version="1.1"
   inkscape:version="1.0.1 (3bc2e813f5, 2020-09-07)"
   sodipodi:docname="ജ്ജൂ.svg">
  <defs
     id="defs5498">
    <inkscape:path-effect
       effect="spiro"
       id="path-effect4142-0-1-0"
       is_visible="true"
       lpeversion="0" />
    <inkscape:path-effect
       effect="spiro"
       id="path-effect4142-0-1-0-3"
       is_visible="true"
       lpeversion="0" />
    <inkscape:path-effect
       effect="spiro"
       id="path-effect4142-0-1-0-5"
       is_visible="true"
       lpeversion="0" />
    <inkscape:path-effect
       effect="spiro"
       id="path-effect4142-0-1-0-4"
       is_visible="true"
       lpeversion="0" />
    <inkscape:path-effect
       effect="spiro"
       id="path-effect4142-0-1-0-4-7"
       is_visible="true"
       lpeversion="0" />
    <inkscape:path-effect
       effect="spiro"
       id="path-effect4142-0-1-0-4-7-6"
       is_visible="true"
       lpeversion="0" />
    <inkscape:path-effect
       effect="spiro"
       id="path-effect4142-0-1-0-54-6"
       is_visible="true"
       lpeversion="0" />
    <inkscape:path-effect
       effect="spiro"
       id="path-effect4142-0-1-0-6"
       is_visible="true"
       lpeversion="0" />
  </defs>
  <sodipodi:namedview
     inkscape:window-height="1015"
     inkscape:window-width="1920"
     inkscape:pageshadow="2"
     inkscape:pageopacity="0.0"
     borderopacity="1.0"
     bordercolor="#666666"
     pagecolor="#ffffff"
     id="base"
     showgrid="true"
     showguides="true"
     inkscape:guide-bbox="true"
     inkscape:zoom="0.227"
     inkscape:cx="-66.282293"
     inkscape:cy="1116.2676"
     inkscape:window-x="1920"
     inkscape:window-y="0"
     inkscape:current-layer="layer1"
     inkscape:window-maximized="1"
     inkscape:document-rotation="0">
    <sodipodi:guide
       orientation="horizontal"
       position="-1321.4272,-33.680917"
       id="guide5596" />
    <inkscape:grid
       type="xygrid"
       id="grid3769"
       empspacing="3"
       visible="true"
       enabled="true"
       snapvisiblegridlinesonly="true"
       spacingx="4"
       units="px"
       dotted="true"
       spacingy="4"
       originx="-1321.4272"
       originy="-1018.7726" />
    <sodipodi:guide
       orientation="0,1"
       position="-2361.4272,966.31903"
       id="guide2985" />
    <sodipodi:guide
       position="3190.5728,1076.319"
       orientation="0,1"
       id="guide4148"
       inkscape:label=""
       inkscape:color="rgb(0,0,255)" />
  </sodipodi:namedview>
  <metadata
     id="metadata5594">
    <rdf:RDF>
      <cc:Work
         rdf:about="">
        <dc:format>image/svg+xml</dc:format>
        <dc:type
           rdf:resource="http://purl.org/dc/dcmitype/StillImage" />
        <dc:title />
      </cc:Work>
    </rdf:RDF>
  </metadata>
  <g
     inkscape:label="Layer 1"
     inkscape:groupmode="layer"
     id="layer1"
     transform="translate(-1321.4272,29.227362)">
    <path
       style="fill:none;fill-rule:evenodd;stroke:#000000;stroke-width:35;stroke-linecap:round;stroke-linejoin:round;stroke-miterlimit:4;stroke-dasharray:none;stroke-opacity:1"
       d="m 1341.3466,40.62398 c 4.51,-10.107507 13.0704,-18.338487 23.347,-22.448678 10.2766,-4.110191 22.152,-4.052623 32.3882,0.157008 10.2363,4.20963 18.7164,12.523217 23.1283,22.673974 4.4118,10.150757 4.7049,22.022682 0.7993,32.378774 -2.7867,7.389163 -7.6603,13.992004 -13.9581,18.756744 -6.2978,4.764741 -14.0051,7.664411 -21.8881,8.137908 -7.4321,0.44642 -14.9599,-1.256823 -21.553,-4.716064 -6.5932,-3.459242 -12.2452,-8.650944 -16.3878,-14.837649 -8.285,-12.373409 -10.2258,-28.49787 -6.2776,-42.855994 4.8064,-17.479208 17.9171,-32.1215973 34.0204,-40.4467548 16.1033,-8.3251572 34.9343,-10.6278332 52.9072,-8.2614662 9.4629,1.2459115 18.8089,3.7758803 27.3282,8.0793107 8.5193,4.3034304 16.1521,10.4118138 22.0022,17.9533453 5.8501,7.541531 9.8393,16.446932 12.0523,25.731366 2.2131,9.284434 2.6494,18.887259 2.9584,28.426796 l 0.9512,29.365195 -1.2322,-28.9447 c -2.2278,-22.924682 7.2431,-46.682335 24.6312,-61.7871759 17.3882,-15.1048407 42.2369,-21.1601191 64.6247,-15.7481268 14.576,3.5235699 28.0341,11.737163 37.5647,23.3147937 9.5307,11.577631 15.0241,26.485475 14.9381,41.481047 -0.068,11.882081 -3.5749,23.648075 -9.4995,33.947947 -5.9246,10.29987 -14.2176,19.15481 -23.7494,26.24941 -19.0636,14.1892 -42.6146,21.17967 -66.1337,24.58665 -42.7673,6.19527 -86.2514,1.37349 -129.4623,0.88781 -13.2669,-0.14912 -26.9202,0.18804 -39.153,5.3252 -6.1165,2.56859 -11.7875,6.34847 -16.1045,11.38551 -4.3171,5.03704 -7.2254,11.37225 -7.6924,17.98967 -0.5279,7.48102 2.0997,15.01483 6.6147,21.00303 4.5151,5.98821 10.8211,10.48944 17.6867,13.50743 13.7311,6.03596 29.2139,6.23258 44.2123,6.39342 49.2306,0.52793 98.9071,1.69666 147.2107,-7.8266 25.0664,-4.94195 49.8369,-12.87089 71.4834,-26.44204 21.6466,-13.57116 40.0688,-33.14315 49.3007,-56.96584 6.463,-16.67772 8.2535,-34.725916 11.7742,-52.262211 3.5207,-17.536296 9.2341,-35.437381 21.7379,-48.226947 6.6384,-6.79015 15.0412,-11.874681 24.1898,-14.419588 9.1487,-2.5449076 19.024,-2.5207625 28.106,0.252688 9.0819,2.77345 17.3283,8.311227 23.1834,15.787323 5.8552,7.476096 9.2654,16.871503 9.3801,26.366843 0.145,12.005068 -5.0824,23.939345 -13.8759,32.113442 -8.7936,8.174097 -20.9926,12.509207 -32.9835,11.90896 -13.4748,-0.674528 -26.471,-7.576764 -34.7401,-18.237311 -8.2691,-10.660546 -11.7239,-24.868907 -9.4783,-38.172381 1.5341,-9.088419 5.6149,-17.687418 11.4073,-24.856862 5.7924,-7.169443 13.2648,-12.9223218 21.5203,-17.02102087 16.511,-8.19739813 35.7849,-9.66207443 54.0001,-6.83034283 9.4102,1.4629073 18.6984,4.0615019 27.1918,8.3689191 8.4934,4.3074172 16.1342,10.3591196 22.0129,17.8513326 5.8786,7.492213 9.9113,16.356223 12.1493,25.612728 2.2381,9.256505 2.6787,18.839611 2.987,28.357838 l 0.9512,29.3652 -1.2322,-28.9447 c -2.5144,-22.990483 6.8745,-46.961864 24.3343,-62.128939 17.4598,-15.1670758 42.5087,-21.1113615 64.9216,-15.4063787 14.4674,3.68254324 27.7409,12.0214689 37.1891,23.5799717 9.4482,11.558503 14.9912,26.2906 15.3137,41.215871 0.2482,11.486595 -2.5432,22.97384 -7.6448,33.268335 -5.1017,10.2945 -12.4787,19.40431 -21.2051,26.87773 -17.453,14.94684 -39.944,23.13179 -62.6951,26.35719 -45.5021,6.45079 -91.386,-5.83646 -137.2998,-7.83143 -13.2924,-0.57756 -27.0227,-0.2079 -39.2446,5.05008 -6.111,2.62899 -11.7517,6.48684 -16.0373,11.57501 -4.2855,5.08818 -7.1653,11.44184 -7.668,18.07529 -0.5331,7.03425 1.6357,14.16194 5.5994,19.99749 3.9638,5.83555 9.6526,10.40498 16.0022,13.47855 12.6993,6.14713 27.5199,6.29558 41.4725,4.20181 24.5767,-3.68804 47.7195,-13.82932 69.7325,-25.3638 22.0129,-11.53449 43.2679,-24.57533 65.9551,-34.71955 14.6738,-6.56115 30.2701,-11.95167 46.3439,-11.94045 8.037,0.006 16.1182,1.39254 23.5177,4.52946 7.3994,3.13691 14.0991,8.0628 18.9186,14.49431 6.0174,8.03008 8.9232,18.35827 7.8497,28.33519 -1.0735,9.97692 -6.1443,19.48967 -13.909,25.84578 -7.7647,6.35612 -18.1455,9.45058 -28.109,8.25907 -9.9636,-1.19152 -19.3617,-6.68547 -25.1874,-14.85571 -4.2613,-5.97628 -6.5969,-13.23291 -7.0604,-20.5582 -0.4634,-7.3253 0.902,-14.71169 3.5416,-21.56058 5.2792,-13.69778 15.4189,-24.98872 26.4894,-34.62938 9.2842,-8.0851 19.4259,-15.27986 30.5664,-20.51964 11.1405,-5.23978 23.3202,-8.4889 35.6313,-8.5514 12.311,-0.0625 24.7507,3.16182 34.9997,9.98274 10.2489,6.82091 18.1646,17.3437 21.0141,29.32061 2.6259,11.03738 0.8287,23.06274 -4.9096,32.85005 -5.7383,9.78731 -15.3543,17.22854 -26.2683,20.32745 6.8584,-4.21593 14.9928,-6.32441 23.0356,-5.97093 8.0427,0.35349 15.9608,3.16748 22.4229,7.96885 6.462,4.80137 11.4415,11.57038 14.1011,19.1689 2.6597,7.59852 2.9886,15.99533 0.9314,23.7786 -1.9984,7.56101 -6.1927,14.46267 -11.6318,20.08213 -5.4392,5.61946 -12.0961,9.98883 -19.2279,13.19814 -14.2637,6.41861 -30.1707,8.26821 -45.809,8.57044 -31.2768,0.60445 -62.527,-2.28384 -93.8085,-2.01786 l -147.664,1.25555 c -16.8853,0.14357 -33.905,-0.8985 -50.5839,1.73716 -8.3395,1.31783 -16.6485,3.84887 -23.5425,8.72289 -3.447,2.43701 -6.5058,5.45677 -8.8035,8.99815 -2.2977,3.54139 -3.8196,7.61449 -4.1809,11.82048 -0.3406,3.96493 0.3547,7.99463 1.8465,11.68398 1.4917,3.68936 3.7676,7.04215 6.5264,9.91017 5.5177,5.73603 12.8554,9.47663 20.4838,11.74684 15.2568,4.5404 31.5026,3.966 47.4207,3.99281 l 313.002,0.52712"
       id="path4140-7-4-0"
       inkscape:path-effect="#path-effect4142-0-1-0"
       inkscape:original-d="m 1341.3466,40.62398 c 7.9815,8.804965 72.0169,19.751655 79.6628,32.761078 8.241,14.02196 -21.0882,29.205912 -35.8462,26.894652 -25.1886,-3.944797 -49.8276,-37.538757 -44.2184,-62.409707 7.3073,-32.4008357 54.3229,-55.044431 86.9276,-48.708221 33.6414,6.5376803 63.2463,57.528691 64.3411,80.190818 l 0.9512,29.365195 -1.2322,-28.9447 c 3.5868,-44.551163 49.9959,-80.970938 89.2559,-77.5353027 27.6931,2.423425 55.0501,37.1138197 52.5028,64.7958407 -3.9901,43.361437 -58.577,69.583967 -99.3826,84.784007 -40.4405,15.06408 -87.7062,-10.01147 -129.4623,0.88781 -23.1834,6.05139 -62.5374,10.74377 -62.9499,34.70038 -0.4578,26.5944 42.0619,38.1149 68.5137,40.90388 43.0755,4.54173 102.5228,6.35901 147.2107,-7.8266 52.6712,-16.71977 91.4013,-44.28486 120.7841,-83.40788 21.2047,-28.233892 1.9539,-84.65015 33.5121,-100.489158 26.6204,-13.36074 78.423,-1.09415 84.8593,27.987266 4.6312,20.925132 -25.4896,45.647182 -46.8594,44.022402 -23.8229,-1.81129 -48.909,-32.982957 -44.2184,-56.409692 6.5209,-32.5682307 54.323,-55.044441 86.9277,-48.7082257 33.6413,6.53768504 63.6065,57.5141677 64.341,80.1908177 l 0.9512,29.3652 -1.2322,-28.9447 c 3.5868,-44.551168 49.9959,-80.9709577 89.2559,-77.5353177 27.6932,2.42343 60.1678,38.0744857 52.5028,64.7958427 -22.2412,77.536495 -155.1086,45.967885 -228.8448,78.671825 -21.9026,9.71434 -62.5345,10.74381 -62.9499,34.70038 -0.4247,24.4866 38.6291,36.18952 63.0741,37.67785 49.3737,3.00609 86.9241,-51.78204 135.6876,-60.08335 29.2664,-4.9822 80.0616,-21.29501 88.7802,7.08332 7.4472,24.24005 -38.3258,61.75418 -59.3557,47.58433 -22.1459,-14.92184 0.9041,-61.70907 22.9706,-76.74816 33.7804,-23.02253 103.3889,-26.05625 122.2115,10.23231 9.4611,18.24009 -31.1779,53.1775 -31.1779,53.1775 0,0 65.5982,20.34982 60.491,44.94542 -11.8645,57.13749 -149.2603,39.65245 -170.4772,39.83285 l -147.664,1.25555 c -5.4137,0.0461 -85.408,0.47364 -87.1108,31.27868 -1.5623,28.26478 70.5901,37.32422 76.2774,37.3338 l 313.002,0.52712"
       inkscape:connector-curvature="0"
       sodipodi:nodetypes="csaaasccaaaaassaaaaaasccaaaaaaaaaacassasc" />
  </g>
</svg>
