<?xml version="1.0" encoding="UTF-8" standalone="no"?>
<svg
   version="1.1"
   width="1649.364578"
   height="1024.000000"
   viewBox="0 0 1649.364578 1024.000000"
   id="svg719"
   sodipodi:docname="à´.svg"
   inkscape:version="1.2.2 (b0a8486541, 2022-12-01)"
   xmlns:inkscape="http://www.inkscape.org/namespaces/inkscape"
   xmlns:sodipodi="http://sodipodi.sourceforge.net/DTD/sodipodi-0.dtd"
   xmlns="http://www.w3.org/2000/svg"
   xmlns:svg="http://www.w3.org/2000/svg">
  <defs
     id="defs723" />
  <sodipodi:namedview
     id="namedview721"
     pagecolor="#ffffff"
     bordercolor="#666666"
     borderopacity="1.0"
     inkscape:showpageshadow="2"
     inkscape:pageopacity="0.0"
     inkscape:pagecheckerboard="0"
     inkscape:deskcolor="#d1d1d1"
     showgrid="false"
     inkscape:zoom="0.921875"
     inkscape:cx="764.20339"
     inkscape:cy="548.33898"
     inkscape:window-width="1920"
     inkscape:window-height="1012"
     inkscape:window-x="0"
     inkscape:window-y="0"
     inkscape:window-maximized="1"
     inkscape:current-layer="svg719" />
  <g
     transform="translate(536.328735 821.344757)"
     style="fill: rgb(0.000000%,0.000000%,0.000000%);"
     id="g703">
    <text
       font-size="9.962646"
       id="text701">vc</text>
  </g>
  <g
     transform="translate(1476.179184 822.659271)"
     style="fill: rgb(0.000000%,0.000000%,0.000000%);"
     id="g707">
    <text
       font-size="9.962646"
       id="text705">bottom</text>
  </g>
  <g
     transform="translate(1481.423431 821.690674)"
     style="fill: rgb(0.000000%,0.000000%,0.000000%);"
     id="g711">
    <text
       font-size="9.962646"
       id="text709">right</text>
  </g>
  <path
     d="M329.895279 819.200012C196.449600 770.757095,96.976929 647.527695,81.918732 512.000031C63.099350 342.620773,178.098816 204.800049,345.942154 204.800049C512.611359 204.800049,664.142593 342.933273,696.318695 512.000031C722.110229 647.519653,654.855774 773.120331,541.171707 773.120331C412.679337 773.120331,341.373886 647.554306,373.071838 512.000031C410.340240 352.624069,567.667542 234.312469,714.812546 266.243790C825.247849 290.208893,885.072388 394.749435,885.071808 512.000031"
     style="stroke:rgb(80.000305%,80.000305%,80.000305%); stroke-width: 2.000000;stroke-linejoin: round;stroke-miterlimit: 10.000000;fill: none;"
     id="path713" />
  <path
     d="m 885.07181,512.00003 c 0,134.38741 37.45456,276.4781 153.59999,276.4781 112.0892,0 150.8879,-132.33941 153.4612,-262.37649 0.093,-4.70568 0.1388,-217.67953 0.1388,-222.3728"
     style="fill:none;stroke:#cccccc;stroke-width:2;stroke-linejoin:round;stroke-miterlimit:10"
     id="path715"
     sodipodi:nodetypes="cssc" />
  <path
     d="m 1192.2718,307.20004 -1.1186,212.79999 c -0.7532,143.27874 71.8545,275.56116 205.9186,299.19998 139.0324,24.51486 234.8612,-136.71237 204.8,-307.19998 -22.3106,-126.53111 -96.5831,-237.93979 -204.8,-307.19998"
     style="fill:none;stroke:#cccccc;stroke-width:2;stroke-linejoin:round;stroke-miterlimit:10"
     id="path717"
     sodipodi:nodetypes="csssc" />
</svg>
