<?xml version="1.0"?>

<svg version="1.1" xmlns="http://www.w3.org/2000/svg" xmlns:xlink="http://www.w3.org/1999/xlink" width="1649.364578" height="1024.000000" viewBox="0 0 1649.364578 1024.000000">

  <g transform="translate(536.328735 821.344757)" style="fill: rgb(0.000000%,0.000000%,0.000000%);">
    <text font-size="9.962646">vc</text>
  </g>
  <g transform="translate(1476.179184 822.659271)" style="fill: rgb(0.000000%,0.000000%,0.000000%);">
    <text font-size="9.962646">bottom</text>
  </g>
  <g transform="translate(1481.423431 821.690674)" style="fill: rgb(0.000000%,0.000000%,0.000000%);">
    <text font-size="9.962646">right</text>
  </g>
  <path d="M329.895279 819.200012C196.449600 770.757095,96.976929 647.527695,81.918732 512.000031C63.099350 342.620773,178.098816 204.800049,345.942154 204.800049C512.611359 204.800049,664.142593 342.933273,696.318695 512.000031C722.110229 647.519653,654.855774 773.120331,541.171707 773.120331C412.679337 773.120331,341.373886 647.554306,373.071838 512.000031C410.340240 352.624069,567.667542 234.312469,714.812546 266.243790C825.247849 290.208893,885.072388 394.749435,885.071808 512.000031" style="stroke:rgb(80.000305%,80.000305%,80.000305%); stroke-width: 2.000000;stroke-linejoin: round;stroke-miterlimit: 10.000000;fill: none;"></path>
  <path d="M885.071808 512.000031C885.071808 646.387436,922.526367 788.478134,1038.671799 788.478134C1154.817230 788.478134,1192.271790 646.387436,1192.271790 512.000031" style="stroke:rgb(80.000305%,80.000305%,80.000305%); stroke-width: 2.000000;stroke-linejoin: round;stroke-miterlimit: 10.000000;fill: none;"></path>
  <path d="M1192.271790 307.200043C1192.271790 307.216705,1192.271790 511.983368,1192.271790 512.000031C1192.271790 655.280746,1263.007721 795.561188,1397.071777 819.200012C1536.104187 843.714874,1631.932953 682.487640,1601.871765 512.000031C1579.561203 385.468918,1505.288742 274.060242,1397.071777 204.800049" style="stroke:rgb(80.000305%,80.000305%,80.000305%); stroke-width: 2.000000;stroke-linejoin: round;stroke-miterlimit: 10.000000;fill: none;"></path>
</svg>
