<?xml version="1.0" encoding="UTF-8" standalone="no"?>
<svg
   xmlns:dc="http://purl.org/dc/elements/1.1/"
   xmlns:cc="http://creativecommons.org/ns#"
   xmlns:rdf="http://www.w3.org/1999/02/22-rdf-syntax-ns#"
   xmlns:svg="http://www.w3.org/2000/svg"
   xmlns="http://www.w3.org/2000/svg"
   xmlns:sodipodi="http://sodipodi.sourceforge.net/DTD/sodipodi-0.dtd"
   xmlns:inkscape="http://www.inkscape.org/namespaces/inkscape"
   width="579.40405"
   height="264.75806"
   id="svg2992"
   version="1.1"
   inkscape:version="1.0.1 (3bc2e813f5, 2020-09-07)"
   sodipodi:docname="ഞ.svg">
  <defs
     id="defs5498">
    <inkscape:path-effect
       effect="spiro"
       id="path-effect857"
       is_visible="true"
       lpeversion="1" />
    <inkscape:path-effect
       is_visible="true"
       id="path-effect3891"
       effect="spiro"
       lpeversion="0" />
    <inkscape:path-effect
       is_visible="true"
       id="path-effect4141-3-4-6-8"
       effect="spiro"
       lpeversion="0" />
    <inkscape:path-effect
       is_visible="true"
       id="path-effect4141-3-4-6-8-9"
       effect="spiro"
       lpeversion="0" />
    <inkscape:path-effect
       is_visible="true"
       id="path-effect4141-3-4-6-8-9-5"
       effect="spiro"
       lpeversion="0" />
    <inkscape:path-effect
       effect="spiro"
       id="path-effect3782"
       is_visible="true"
       lpeversion="0" />
    <inkscape:path-effect
       effect="spiro"
       id="path-effect3846"
       is_visible="true"
       lpeversion="0" />
    <inkscape:path-effect
       effect="spiro"
       id="path-effect3801"
       is_visible="true"
       lpeversion="0" />
    <inkscape:path-effect
       effect="spiro"
       id="path-effect4918"
       is_visible="true"
       lpeversion="0" />
    <inkscape:path-effect
       effect="spiro"
       id="path-effect4372-5-8-0"
       is_visible="true"
       lpeversion="0" />
    <inkscape:path-effect
       effect="spiro"
       id="path-effect4372-5-8-0-0"
       is_visible="true"
       lpeversion="0" />
    <inkscape:path-effect
       is_visible="true"
       id="path-effect4141-3-4-6-8-9-5-3"
       effect="spiro"
       lpeversion="0" />
    <inkscape:path-effect
       is_visible="true"
       id="path-effect4141-3-4-6-8-9-5-4"
       effect="spiro"
       lpeversion="0" />
    <inkscape:path-effect
       is_visible="true"
       id="path-effect4141-3-4-6-8-9-5-4-6"
       effect="spiro"
       lpeversion="0" />
    <inkscape:path-effect
       is_visible="true"
       id="path-effect4141-3-4-6-8-9-5-4-6-5"
       effect="spiro"
       lpeversion="0" />
    <inkscape:path-effect
       is_visible="true"
       id="path-effect4141-3-4-6-8-9-5-4-6-5-7"
       effect="spiro"
       lpeversion="0" />
    <inkscape:path-effect
       is_visible="true"
       id="path-effect4141-3-4-6-8-9-5-4-6-5-5"
       effect="spiro"
       lpeversion="0" />
    <inkscape:path-effect
       is_visible="true"
       id="path-effect4141-3-4-6-8-9-5-4-6-5-8"
       effect="spiro"
       lpeversion="0" />
    <inkscape:path-effect
       is_visible="true"
       id="path-effect4141-3-4-6-8-9-5-4-6-5-54"
       effect="spiro"
       lpeversion="0" />
    <inkscape:path-effect
       is_visible="true"
       id="path-effect4141-3-4-6-8-9-5-4-6-5-54-7"
       effect="spiro"
       lpeversion="0" />
    <inkscape:path-effect
       is_visible="true"
       id="path-effect4141-3-4-6-8-9-5-4-6-5-87"
       effect="spiro"
       lpeversion="0" />
  </defs>
  <sodipodi:namedview
     inkscape:window-height="1015"
     inkscape:window-width="1920"
     inkscape:pageshadow="2"
     inkscape:pageopacity="0.0"
     borderopacity="1.0"
     bordercolor="#666666"
     pagecolor="#ffffff"
     id="base"
     showgrid="true"
     showguides="true"
     inkscape:guide-bbox="true"
     inkscape:zoom="0.16051324"
     inkscape:cx="-1481.0665"
     inkscape:cy="1483.655"
     inkscape:window-x="1920"
     inkscape:window-y="0"
     inkscape:current-layer="layer1-05"
     inkscape:window-maximized="1"
     inkscape:document-rotation="0">
    <sodipodi:guide
       orientation="horizontal"
       position="-954.05613,-374.77991"
       id="guide5596" />
    <inkscape:grid
       type="xygrid"
       id="grid3769"
       empspacing="3"
       visible="true"
       enabled="true"
       snapvisiblegridlinesonly="true"
       spacingx="4"
       units="px"
       dotted="true"
       spacingy="4"
       originx="-954.05613"
       originy="-808.46202" />
    <sodipodi:guide
       orientation="0,1"
       position="-1994.0562,625.2201"
       id="guide2985" />
  </sodipodi:namedview>
  <metadata
     id="metadata5594">
    <rdf:RDF>
      <cc:Work
         rdf:about="">
        <dc:format>image/svg+xml</dc:format>
        <dc:type
           rdf:resource="http://purl.org/dc/dcmitype/StillImage" />
        <dc:title />
      </cc:Work>
    </rdf:RDF>
  </metadata>
  <g
     inkscape:label="Layer 1"
     inkscape:groupmode="layer"
     id="layer1"
     transform="translate(-954.05613,239.53798)">
    <g
       id="layer1-05"
       inkscape:label="Layer 1"
       transform="translate(-185.15889,-518.04243)">
      <g
         transform="translate(-2634.3901,235.93018)"
         inkscape:label="Layer 1"
         id="layer1-0" />
      <g
         transform="translate(-2612.1519,1410.0117)"
         inkscape:label="Layer 1"
         id="layer1-0-3" />
      <path
         sodipodi:nodetypes="caaaaacccaaaaaac"
         inkscape:connector-curvature="0"
         id="path4139-1-0-4-2-2-4-1-2-0"
         d="m 1217.9747,521.08815 c -13.3743,-3.52443 -25.5389,-11.4867 -34.1205,-22.33331 -8.5816,-10.84661 -13.532,-24.51666 -13.8853,-38.34301 -0.4226,-16.53745 5.8149,-33.14223 16.9835,-45.3458 11.1686,-12.20357 27.1367,-19.87971 43.6395,-21.03059 16.8973,-1.17839 34.1839,4.51019 47.0435,15.53468 12.8596,11.02449 21.1277,27.2619 22.4242,44.15057 1.2966,16.88868 -4.4085,34.21792 -15.5259,46.99729 -11.1174,12.77937 -27.5133,20.83357 -44.4259,21.76699 -11.2956,0.62341 -22.6977,-1.83594 -32.9117,-6.69951 -10.214,-4.86357 -19.2443,-12.0947 -26.5388,-20.7417 -14.589,-17.29399 -21.9811,-39.88214 -23.5903,-62.45052 -1.4616,-20.49793 1.646,-41.35314 9.393,-60.3869 7.7471,-19.03376 20.1556,-36.20206 36.0536,-49.22334 15.8981,-13.02129 35.2773,-21.83307 55.6028,-24.8626 20.3254,-3.02953 41.542,-0.2183 60.216,8.35973 19.9033,9.14271 36.6606,25.17343 46.0615,44.95606 9.401,19.78264 10.7298,42.30647 10.8138,64.20905 l 0.4217,109.93363 -0.068,-110.8356 c -0.01,-15.01083 0.1774,-30.14177 3.3487,-44.81378 3.1713,-14.67201 9.35,-28.79104 18.7564,-40.48914 9.4063,-11.69809 21.92,-20.83665 35.8516,-26.42555 13.9316,-5.5889 29.1603,-7.6729 44.1473,-6.82792 31.1127,1.75415 61.067,16.19459 82.9132,38.41672 21.8461,22.22214 35.6491,51.87977 40.1045,82.72174 3.5368,24.4831 1.0849,50.53435 -11.2919,71.95275 -6.1883,10.7092 -14.807,20.08721 -25.2956,26.64257 -10.4885,6.55537 -22.8648,10.21433 -35.2268,9.81096 -11.4436,-0.3734 -22.6825,-4.2113 -32.2618,-10.48277 -9.5794,-6.27147 -17.5161,-14.92387 -23.4022,-24.74476 -11.7721,-19.64179 -15.1702,-43.42669 -13.4558,-66.26181 2.5889,-34.48199 16.8173,-68.3971 41.4172,-92.69852 24.5998,-24.30142 59.7305,-38.26296 94.1622,-35.07463 29.7011,2.75028 57.8447,18.13201 76.9697,41.02195 19.1251,22.88995 29.2189,52.92061 28.8088,82.74594 -0.5568,40.49418 -20.805,80.26423 -53.2231,104.53682"
         style="fill:none;fill-rule:evenodd;stroke:#000000;stroke-width:35;stroke-linecap:round;stroke-linejoin:round;stroke-miterlimit:4;stroke-dasharray:none;stroke-opacity:1"
         inkscape:path-effect="#path-effect857"
         inkscape:original-d="m 1217.9747,521.08815 c 0,0 -48.9184,-34.90237 -48.0058,-60.67632 1.0604,-29.94598 32.3053,-76.1738 60.623,-66.37639 40.5741,14.03785 48.8935,111.34063 9.5159,128.44953 -37.4138,16.25561 -86.3274,-49.23178 -83.0408,-89.89173 5.498,-68.01879 94.5728,-140.56558 161.2654,-126.11311 40.1002,8.68981 56.5411,41.45131 56.8753,109.16511 l 0.4217,109.93363 -0.068,-110.8356 c -0.045,-57.5699 49.9934,-116.41556 102.104,-118.55639 57.5014,-2.36229 117.0429,63.8996 123.0177,121.13846 4.5,43.11091 -28.47,108.12852 -71.8143,108.40628 -40.9295,0.26229 -73.5547,-60.79999 -69.1198,-101.48934 6.7288,-61.73443 73.5696,-131.12005 135.5794,-127.77315 54.1917,2.92492 99.3824,69.87562 105.7785,123.76789 4.6085,38.82941 -53.2231,104.53682 -53.2231,104.53682" />
    </g>
  </g>
</svg>
