<?xml version="1.0"?>

<svg version="1.1" xmlns="http://www.w3.org/2000/svg" xmlns:xlink="http://www.w3.org/1999/xlink" width="1394.186508" height="1024.000000" viewBox="0 0 1394.186508 1024.000000">

  <g transform="translate(1202.609741 780.275772)" style="fill: rgb(0.000000%,0.000000%,0.000000%);">
    <text font-size="9.962646">right</text>
  </g>
  <g transform="translate(1197.365494 781.244370)" style="fill: rgb(0.000000%,0.000000%,0.000000%);">
    <text font-size="9.962646">bottom</text>
  </g>
  <path d="M81.918732 512.000031C216.994492 430.733124,387.449692 488.133331,396.279663 614.400024C402.002869 696.240891,359.877747 773.120331,284.499146 773.120331C165.265427 773.120331,88.898834 644.432755,81.918732 512.000031C74.440826 370.122330,134.159851 231.275269,265.235916 204.800049C429.240036 171.673889,580.957291 326.654266,593.918701 512.000031C593.918701 512.016693,593.918701 716.783356,593.918701 716.800018" style="stroke:rgb(80.000305%,80.000305%,80.000305%); stroke-width: 2.000000;stroke-linejoin: round;stroke-miterlimit: 10.000000;fill: none;"></path>
  <path d="M593.918701 512.000031C593.918701 358.192932,662.150970 204.800049,798.718689 204.800049C966.384232 204.800049,1100.424316 342.660980,1105.918671 512.000031C1109.333130 617.235992,1048.882629 716.800018,952.318680 716.800018C855.754730 716.800018,795.304214 617.235992,798.718689 512.000031C804.213028 342.660980,938.253128 204.800049,1105.918671 204.800049C1256.851227 204.800049,1360.730606 351.878586,1351.678650 512.000031C1344.217728 643.977661,1265.834579 761.552383,1146.878662 819.200012" style="stroke:rgb(80.000305%,80.000305%,80.000305%); stroke-width: 2.000000;stroke-linejoin: round;stroke-miterlimit: 10.000000;fill: none;"></path>
</svg>
