<?xml version="1.0" encoding="UTF-8" standalone="no"?>
<svg
   xmlns:dc="http://purl.org/dc/elements/1.1/"
   xmlns:cc="http://creativecommons.org/ns#"
   xmlns:rdf="http://www.w3.org/1999/02/22-rdf-syntax-ns#"
   xmlns:svg="http://www.w3.org/2000/svg"
   xmlns="http://www.w3.org/2000/svg"
   xmlns:sodipodi="http://sodipodi.sourceforge.net/DTD/sodipodi-0.dtd"
   xmlns:inkscape="http://www.inkscape.org/namespaces/inkscape"
   width="907.5733"
   height="266.95468"
   id="svg2992"
   version="1.1"
   inkscape:version="1.0.1 (3bc2e813f5, 2020-09-07)"
   sodipodi:docname="ഞ്ഞ.svg">
  <defs
     id="defs5498">
    <inkscape:path-effect
       effect="spiro"
       id="path-effect854"
       is_visible="true"
       lpeversion="1" />
    <inkscape:path-effect
       effect="spiro"
       id="path-effect3891"
       is_visible="true"
       lpeversion="0" />
    <inkscape:path-effect
       effect="spiro"
       id="path-effect4141-3-4-6-8"
       is_visible="true"
       lpeversion="0" />
    <inkscape:path-effect
       effect="spiro"
       id="path-effect4141-3-4-6-8-9"
       is_visible="true"
       lpeversion="0" />
    <inkscape:path-effect
       effect="spiro"
       id="path-effect4141-3-4-6-8-9-5"
       is_visible="true"
       lpeversion="0" />
    <inkscape:path-effect
       is_visible="true"
       id="path-effect3782"
       effect="spiro"
       lpeversion="0" />
    <inkscape:path-effect
       is_visible="true"
       id="path-effect3846"
       effect="spiro"
       lpeversion="0" />
    <inkscape:path-effect
       is_visible="true"
       id="path-effect3801"
       effect="spiro"
       lpeversion="0" />
    <inkscape:path-effect
       is_visible="true"
       id="path-effect4918"
       effect="spiro"
       lpeversion="0" />
    <inkscape:path-effect
       is_visible="true"
       id="path-effect4372-5-8-0"
       effect="spiro"
       lpeversion="0" />
    <inkscape:path-effect
       is_visible="true"
       id="path-effect4372-5-8-0-0"
       effect="spiro"
       lpeversion="0" />
    <inkscape:path-effect
       effect="spiro"
       id="path-effect4141-3-4-6-8-9-5-3"
       is_visible="true"
       lpeversion="0" />
    <inkscape:path-effect
       effect="spiro"
       id="path-effect4141-3-4-6-8-9-5-9"
       is_visible="true"
       lpeversion="0" />
    <inkscape:path-effect
       effect="spiro"
       id="path-effect4141-3-4-6-8-9-5-9-8"
       is_visible="true"
       lpeversion="0" />
    <inkscape:path-effect
       effect="spiro"
       id="path-effect4141-3-4-6-8-9-5-9-9"
       is_visible="true"
       lpeversion="0" />
    <inkscape:path-effect
       effect="spiro"
       id="path-effect4141-3-4-6-8-9-5-9-9-4"
       is_visible="true"
       lpeversion="0" />
    <inkscape:path-effect
       effect="spiro"
       id="path-effect4141-3-4-6-8-9-5-9-5"
       is_visible="true"
       lpeversion="0" />
    <inkscape:path-effect
       effect="spiro"
       id="path-effect4141-3-4-6-8-9-5-9-5-1"
       is_visible="true"
       lpeversion="0" />
    <inkscape:path-effect
       effect="spiro"
       id="path-effect4141-3-4-6-8-9-5-9-5-6"
       is_visible="true"
       lpeversion="0" />
  </defs>
  <sodipodi:namedview
     inkscape:window-height="1015"
     inkscape:window-width="1920"
     inkscape:pageshadow="2"
     inkscape:pageopacity="0.0"
     borderopacity="1.0"
     bordercolor="#666666"
     pagecolor="#ffffff"
     id="base"
     showgrid="true"
     showguides="true"
     inkscape:guide-bbox="true"
     inkscape:zoom="0.32102648"
     inkscape:cx="1301.7317"
     inkscape:cy="-263.17199"
     inkscape:window-x="1920"
     inkscape:window-y="0"
     inkscape:current-layer="layer1"
     inkscape:window-maximized="1"
     inkscape:document-rotation="0">
    <inkscape:grid
       type="xygrid"
       id="grid3769"
       empspacing="3"
       visible="true"
       enabled="true"
       snapvisiblegridlinesonly="true"
       spacingx="4"
       units="px"
       dotted="true"
       spacingy="4"
       originx="-1537.4789"
       originy="-816.11193" />
    <sodipodi:guide
       orientation="0,1"
       position="-2577.4789,635.06659"
       id="guide2985" />
    <sodipodi:guide
       orientation="0,1"
       position="-2017.4789,-364.93339"
       id="guide3939"
       inkscape:label=""
       inkscape:color="rgb(0,0,255)" />
    <sodipodi:guide
       position="-2017.4789,659.06659"
       orientation="0,1"
       id="guide4174"
       inkscape:label=""
       inkscape:color="rgb(0,0,255)" />
  </sodipodi:namedview>
  <metadata
     id="metadata5594">
    <rdf:RDF>
      <cc:Work
         rdf:about="">
        <dc:format>image/svg+xml</dc:format>
        <dc:type
           rdf:resource="http://purl.org/dc/dcmitype/StillImage" />
        <dc:title />
      </cc:Work>
    </rdf:RDF>
  </metadata>
  <g
     inkscape:label="Layer 1"
     inkscape:groupmode="layer"
     id="layer1"
     transform="translate(-1537.4789,231.88807)">
    <g
       id="layer1-0"
       inkscape:label="Layer 1"
       transform="translate(-2634.3901,235.93018)" />
    <path
       style="fill:none;fill-rule:evenodd;stroke:#000000;stroke-width:35;stroke-linecap:round;stroke-linejoin:round;stroke-miterlimit:4;stroke-dasharray:none;stroke-opacity:1"
       d="m 1564.5301,-30.092878 c -4.3891,-15.995953 -2.3076,-33.669397 5.6778,-48.207916 7.9854,-14.538518 21.7836,-25.776446 37.6376,-30.653726 15.8539,-4.87728 33.5828,-3.33835 48.3593,4.19776 14.7764,7.536107 26.4319,20.983511 31.7927,36.680532 6.357,18.613723 3.5787,40.161876 -7.4811,56.427244 -11.0599,16.2653679 -30.1938,26.797816 -49.8587,27.215205 -13.8924,0.294867 -27.7323,-4.264977 -39.1616,-12.1679036 -11.4293,-7.9029271 -20.4749,-19.0489044 -26.5368,-31.5524504 -12.1237,-25.007092 -12.1418,-54.536104 -5.4823,-81.517417 6.7124,-27.19528 20.193,-53.03181 40.4554,-72.37284 20.2623,-19.34104 47.5303,-31.79974 75.5405,-32.05752 15.3846,-0.14159 30.8243,3.38445 44.4881,10.4559 13.6637,7.07144 25.4518,17.68112 34.0539,30.43682 8.6021,12.75569 13.9608,27.53871 16.6151,42.69322 2.6544,15.15451 2.6297,30.634238 2.4542,46.018442 l -1.1292,98.984274 0.9325,-99.335599 c 0.1375,-14.64734 0.4165,-29.372397 3.0911,-43.774137 2.6746,-14.40173 7.7567,-28.43694 15.7142,-40.73494 7.9576,-12.29801 18.7331,-22.76442 31.2841,-30.31669 12.5509,-7.55227 26.7953,-12.19166 41.3479,-13.86038 34.8854,-4.00023 70.9156,9.56249 96.0559,34.07694 25.1403,24.51444 39.4697,59.22379 41.1676,94.296707 1.1142,23.016461 -3.2251,46.838353 -15.831,66.128051 -6.3029,9.6448492 -14.6214,18.0305844 -24.4852,23.9850982 -9.8637,5.9545138 -21.2855,9.4278518 -32.8071,9.4751998 -11.8906,0.04886 -23.7013,-3.556268 -33.8235,-9.7957029 -10.1222,-6.2394347 -18.5696,-15.0561721 -24.83,-25.1654561 -12.5206,-20.218567 -16.0804,-45.041402 -13.8087,-68.71409 3.0994,-32.297617 16.9118,-63.700027 39.6522,-86.843447 22.7403,-23.14341 54.4286,-37.61942 86.868,-38.27281 15.3163,-0.3085 30.7576,2.42905 44.7731,8.61364 14.0155,6.18459 26.4928,15.84733 35.8904,27.94558 9.3977,12.09824 15.613,26.50496 18.9382,41.45909 3.3252,14.95412 3.7788,30.37718 4.0473,45.694197 l 1.8755,106.977124 -1.858,-109.900124 c -0.2411,-14.263787 -0.3105,-28.631417 2.2972,-42.656877 2.6077,-14.02546 7.9083,-27.63293 16.2054,-39.23773 8.2972,-11.60479 19.4953,-21.08892 32.2283,-27.52201 12.7329,-6.43309 26.8984,-9.84453 41.143,-10.62333 33.6457,-1.83952 67.5647,11.23592 92.3064,34.11093 24.7417,22.87501 40.2984,55.07086 44.3594,88.521192 2.9585,24.368728 -0.2485,50.12262 -12.9957,71.101082 -6.3736,10.4892309 -15.0761,19.62939008 -25.5446,26.036967 -10.4685,6.407577 -22.7172,10.018797 -34.9883,9.760875 -11.9624,-0.251434 -23.7529,-4.172411 -33.7794,-10.7017774 -10.0265,-6.529366 -18.3039,-15.6104236 -24.3439,-25.9391236 -12.0799,-20.657399 -15.008,-45.732345 -12.0406,-69.477823 4.5731,-36.594622 23.1276,-71.532202 51.8479,-94.667192 28.7202,-23.13498 67.4639,-33.84167 103.7559,-27.28652 24.9967,4.51497 48.4886,17.01478 66.1988,35.22382 17.7103,18.20905 29.553,42.03893 33.3721,67.15141 3.8191,25.112471 -0.4038,51.385634 -11.9001,74.03643 -11.4962,22.650795 -30.2099,41.5692713 -52.7343,53.311301"
       id="path4139-1-0-4-2-2-4-4"
       inkscape:connector-curvature="0"
       sodipodi:nodetypes="caaaascsaaaaascsaaaaac"
       inkscape:path-effect="#path-effect854"
       inkscape:original-d="m 1564.5301,-30.092878 c -12.303,-1.2789 97.9551,-72.670932 123.4674,-37.98335 20.028,27.231092 -23.5665,85.063769 -57.3398,83.642449 -47.9752,-2.018985 -78.8542,-77.83729 -71.1807,-125.237771 8.3141,-51.35784 64.2098,-109.42518 115.9959,-104.43036 53.8337,5.1923 98.3837,61.89415 97.6113,129.604382 l -1.1292,98.984274 0.9325,-99.335599 c 0.2475,-56.850177 39.0814,-123.408217 91.4373,-128.686147 62.3207,-6.28248 131.4267,66.00585 137.2235,128.373647 3.8114,41.006935 -31.9424,100.068914 -73.1233,99.588349 -42.1599,-0.49199 -76.272,-61.684919 -72.4622,-103.675249 5.3595,-59.069557 67.2729,-127.890937 126.5202,-125.116257 53.739,2.51671 102.4743,56.70669 103.649,123.712507 l 1.8755,106.977124 -1.858,-109.900124 c -0.9731,-57.561697 41.7043,-115.355427 91.8739,-120.039947 60.9415,-5.69032 129.4312,61.85465 136.6658,122.632122 5.1119,42.945245 -30.282,107.295009 -73.5286,106.898924 -42.4039,-0.388365 -76.9586,-64.260974 -70.1639,-106.118724 10.5592,-65.048502 94.3454,-146.247992 155.6038,-121.953712 71.9994,28.55401 34.9365,229.722961 34.9365,229.722961" />
  </g>
</svg>
