<?xml version="1.0"?>

<svg version="1.1" xmlns="http://www.w3.org/2000/svg" xmlns:xlink="http://www.w3.org/1999/xlink" width="2110.544983" height="1024.000000" viewBox="0 0 2110.544983 1024.000000">

  <g transform="translate(1920.885483 781.663986)" style="fill: rgb(0.000000%,0.000000%,0.000000%);">
    <text font-size="9.962646">right</text>
  </g>
  <g transform="translate(1915.641235 782.632584)" style="fill: rgb(0.000000%,0.000000%,0.000000%);">
    <text font-size="9.962646">bottom</text>
  </g>
  <path d="M81.918732 512.000031C216.994492 430.733124,387.449692 488.133331,396.279663 614.400024C402.002869 696.240891,359.877747 773.120331,284.499146 773.120331C165.265427 773.120331,88.898834 644.432755,81.918732 512.000031C74.440826 370.122330,134.159851 231.275269,265.235916 204.800049C429.240036 171.673889,580.957291 326.654266,593.918701 512.000031C593.918701 512.016693,593.918701 716.783356,593.918701 716.800018" style="stroke:rgb(80.000305%,80.000305%,80.000305%); stroke-width: 2.000000;stroke-linejoin: round;stroke-miterlimit: 10.000000;fill: none;"></path>
  <path d="M593.918701 512.000031C593.918701 369.638947,665.200516 230.852005,798.718689 204.800049C965.402802 172.276779,1106.527252 326.981781,1105.918671 512.000031C1105.573807 616.845840,1048.012085 716.800018,952.318680 716.800018C856.625259 716.800018,799.063553 616.845856,798.718689 512.000031C798.110107 326.981781,939.234558 172.276779,1105.918671 204.800049C1239.436844 230.852005,1310.718658 369.638947,1310.718658 512.000031C1310.718658 512.016693,1310.718658 716.783356,1310.718658 716.800018" style="stroke:rgb(80.000305%,80.000305%,80.000305%); stroke-width: 2.000000;stroke-linejoin: round;stroke-miterlimit: 10.000000;fill: none;"></path>
  <path d="M1310.718658 512.000031C1310.718658 369.658951,1382.013184 230.905350,1515.518646 204.800049C1682.299530 172.188187,1823.651840 326.921814,1822.718628 512.000031C1822.191330 616.576904,1764.771851 716.289780,1669.118637 716.800018C1572.969604 717.312912,1513.802063 617.334900,1515.518646 512.000031C1518.393051 335.616379,1654.587006 188.590820,1822.718628 204.800049C1971.288254 219.123352,2072.341049 358.270477,2068.478607 512.000031C2065.129089 645.314545,1985.449890 764.833344,1863.678619 819.200012" style="stroke:rgb(80.000305%,80.000305%,80.000305%); stroke-width: 2.000000;stroke-linejoin: round;stroke-miterlimit: 10.000000;fill: none;"></path>
</svg>
