<?xml version="1.0" encoding="UTF-8" standalone="no"?>
<svg
   xmlns:dc="http://purl.org/dc/elements/1.1/"
   xmlns:cc="http://creativecommons.org/ns#"
   xmlns:rdf="http://www.w3.org/1999/02/22-rdf-syntax-ns#"
   xmlns:svg="http://www.w3.org/2000/svg"
   xmlns="http://www.w3.org/2000/svg"
   xmlns:sodipodi="http://sodipodi.sourceforge.net/DTD/sodipodi-0.dtd"
   xmlns:inkscape="http://www.inkscape.org/namespaces/inkscape"
   width="652.05646"
   height="269.59442"
   id="svg2992"
   version="1.1"
   inkscape:version="1.0.1 (3bc2e813f5, 2020-09-07)"
   sodipodi:docname="ഞ്ജ.svg">
  <defs
     id="defs5498">
    <inkscape:path-effect
       effect="spiro"
       id="path-effect847"
       is_visible="true"
       lpeversion="1" />
    <inkscape:path-effect
       is_visible="true"
       id="path-effect4141-3-4-6-8-9-5-4-6-5"
       effect="spiro"
       lpeversion="0" />
    <inkscape:path-effect
       effect="spiro"
       id="path-effect4142-0-1-0"
       is_visible="true"
       lpeversion="0" />
    <inkscape:path-effect
       is_visible="true"
       id="path-effect4141-3-4-6-8-9-5-4-6-5-4"
       effect="spiro"
       lpeversion="0" />
    <inkscape:path-effect
       is_visible="true"
       id="path-effect4141-3-4-6-8-9-5-4-6-5-5"
       effect="spiro"
       lpeversion="0" />
    <inkscape:path-effect
       effect="spiro"
       id="path-effect4142-0-1-0-0"
       is_visible="true"
       lpeversion="0" />
    <inkscape:path-effect
       is_visible="true"
       id="path-effect4141-3-4-6-8-9-5-4-6-5-5-3"
       effect="spiro"
       lpeversion="0" />
    <inkscape:path-effect
       is_visible="true"
       id="path-effect4141-3-4-6-8-9-5-4-6-5-50"
       effect="spiro"
       lpeversion="0" />
    <inkscape:path-effect
       is_visible="true"
       id="path-effect4141-3-4-6-8-9-5-4-6-5-50-4"
       effect="spiro"
       lpeversion="0" />
    <inkscape:path-effect
       is_visible="true"
       id="path-effect4141-3-4-6-8-9-5-4-6-5-5-2"
       effect="spiro"
       lpeversion="0" />
    <inkscape:path-effect
       is_visible="true"
       id="path-effect4141-3-4-6-8-9-5-4-6-5-5-4"
       effect="spiro"
       lpeversion="0" />
    <inkscape:path-effect
       is_visible="true"
       id="path-effect4141-3-4-6-8-9-5-4-6-5-5-32"
       effect="spiro"
       lpeversion="0" />
    <inkscape:path-effect
       is_visible="true"
       id="path-effect4141-3-4-6-8-9-5-4-6-5-5-32-8"
       effect="spiro"
       lpeversion="0" />
    <inkscape:path-effect
       is_visible="true"
       id="path-effect4141-3-4-6-8-9-5-4-6-5-5-22"
       effect="spiro"
       lpeversion="0" />
  </defs>
  <sodipodi:namedview
     inkscape:window-height="1015"
     inkscape:window-width="1920"
     inkscape:pageshadow="2"
     inkscape:pageopacity="0.0"
     borderopacity="1.0"
     bordercolor="#666666"
     pagecolor="#ffffff"
     id="base"
     showgrid="true"
     showguides="true"
     inkscape:guide-bbox="true"
     inkscape:zoom="0.5"
     inkscape:cx="709.44379"
     inkscape:cy="388.20038"
     inkscape:window-x="1920"
     inkscape:window-y="0"
     inkscape:current-layer="layer1"
     inkscape:window-maximized="1"
     inkscape:document-rotation="0">
    <sodipodi:guide
       orientation="horizontal"
       position="-1003.0052,-348.37014"
       id="guide5596" />
    <inkscape:grid
       type="xygrid"
       id="grid3769"
       empspacing="3"
       visible="true"
       enabled="true"
       snapvisiblegridlinesonly="true"
       spacingx="4"
       units="px"
       dotted="true"
       spacingy="4"
       originx="-1003.0052"
       originy="-830.03544" />
    <sodipodi:guide
       orientation="0,1"
       position="-2043.0052,651.62988"
       id="guide2985" />
  </sodipodi:namedview>
  <metadata
     id="metadata5594">
    <rdf:RDF>
      <cc:Work
         rdf:about="">
        <dc:format>image/svg+xml</dc:format>
        <dc:type
           rdf:resource="http://purl.org/dc/dcmitype/StillImage" />
        <dc:title />
      </cc:Work>
    </rdf:RDF>
  </metadata>
  <g
     inkscape:label="Layer 1"
     inkscape:groupmode="layer"
     id="layer1"
     transform="translate(-1003.0052,217.96456)">
    <path
       sodipodi:nodetypes="caaaaacccaaaaasccaaaaaaaac"
       inkscape:connector-curvature="0"
       id="path4139-1-0-4-2-2-4-1-2-0"
       d="m 1082.7502,27.605484 c -13.47,-3.150898 -25.8353,-10.843623 -34.6146,-21.5344901 -8.7792,-10.6908672 -13.9201,-24.3162009 -14.3911,-38.1418329 -0.5641,-16.560806 5.6561,-33.234909 16.8554,-45.447759 11.1993,-12.21285 27.2329,-19.841976 43.7676,-20.928618 16.8718,-1.108791 34.1053,4.611404 46.9257,15.635201 12.8204,11.023797 21.0643,27.230682 22.3635,44.088858 1.2991,16.858177 -4.3779,34.1589336 -15.4587,46.9300548 -11.0809,12.7711212 -27.4337,20.8370172 -44.3147,21.7954112 -11.2982,0.641437 -22.7076,-1.807755 -32.9274,-6.667332 -10.2198,-4.859576 -19.2543,-12.092568 -26.5495,-20.7435733 -14.5905,-17.3020097 -21.9692,-39.9043587 -23.5639,-62.4808187 -2.5815,-36.548029 9.96,-74.213905 35.0529,-100.911695 25.0928,-26.6978 62.6187,-41.63219 99.0782,-38.00883 15.1741,1.50801 30.076,6.12426 43.2348,13.82971 13.1587,7.70545 24.4852,18.50362 32.8409,31.25932 8.3558,12.7557 13.6774,27.36634 16.4411,42.36263 2.7637,14.996301 2.9834,30.329872 3.0518,45.578559 l 0.4216,93.933625 -0.068,-94.8356 c -0.01,-14.010556 0.08,-28.076033 2.1257,-41.936394 2.046,-13.86037 6.0576,-27.50065 12.6461,-39.86543 13.1769,-24.72957 37.2552,-43.51228 64.611,-49.58205 21.6797,-4.81034 45.3424,-1.74527 64.1852,10.00635 9.4213,5.87581 17.5641,13.83883 23.4467,23.25594 5.8826,9.41711 9.4774,20.28542 10.1326,31.36955 0.7359,12.44933 -2.3526,25.25575 -9.5349,35.450956 -7.1823,10.195202 -18.5857,17.552772 -30.9808,18.927276 -7.4712,0.828491 -15.1443,-0.491635 -21.9885,-3.60007 -6.8442,-3.108434 -12.8538,-7.980904 -17.4605,-13.920964 -9.2132,-11.880118 -12.5315,-27.803298 -10.2207,-42.658658 3.1299,-20.12094 16.2413,-38.08868 33.5992,-48.73527 17.358,-10.6466 38.5757,-14.24237 58.7797,-11.70296 9.9162,1.24635 19.706,3.94888 28.5602,8.58437 8.8542,4.63549 16.7042,11.23586 22.5732,19.3253 5.869,8.08945 9.6755,17.58668 11.5532,27.40293 1.8777,9.81625 1.8322,19.88557 1.6545,29.87822 l -0.5488,30.865192 0.2678,-25.944702 c 0.1232,-11.93957 0.3937,-23.97473 3.0531,-35.615 2.6595,-11.64027 7.7376,-22.82166 15.4597,-31.92863 7.7222,-9.10698 18.0062,-16.01801 29.363,-19.70468 11.3568,-3.68667 23.6802,-4.17055 35.3801,-1.78699 17.1638,3.4967 33.0194,13.23902 43.7323,27.09756 10.7128,13.85854 16.1528,31.73652 14.7705,49.19828 -1.7776,22.45448 -14.6201,43.199701 -32.21,57.269476 -17.5899,14.069775 -39.5581,21.903397 -61.825,25.30176 -44.5338,6.796724 -89.7644,-3.303187 -134.8099,-3.899423 -13.1463,-0.174008 -26.6536,0.541942 -38.706,5.794946 -6.0262,2.626502 -11.6084,6.391065 -15.9532,11.324229 -4.3449,4.933164 -7.4124,11.066407 -8.2906,17.5812102 -0.9788,7.2610139 0.8101,14.7849411 4.5456,21.0877848 3.7356,6.302843 9.3466,11.403649 15.7507,14.962706 12.8084,7.118115 28.2451,8.003879 42.7778,6.12735 25.0109,-3.229514 48.4358,-14.000544 70.3501,-26.4799808 21.9143,-12.4794364 42.7911,-26.8057782 65.3375,-38.1033522 14.6052,-7.318386 30.3109,-13.427941 46.6467,-13.535196 8.1679,-0.05363 16.401,1.435771 23.8167,4.859927 7.4157,3.424156 13.9852,8.833643 18.3168,15.758579 4.8966,7.828238 6.7751,17.4882213 5.1932,26.5852428 -1.5818,9.0970212 -6.6044,17.5488482 -13.8231,23.3063212 -7.2187,5.757474 -16.5663,8.773678 -25.7899,8.345912 -9.2236,-0.427767 -18.2443,-4.2907 -24.9359,-10.653143 -5.6074,-5.331621 -9.5698,-12.370299 -11.2193,-19.9299774 -1.6495,-7.559678 -0.9794,-15.6091406 1.8974,-22.7920086 2.8769,-7.182868 7.9485,-13.469481 14.3603,-17.800511 6.4119,-4.33103 14.1375,-6.688593 21.875,-6.675425"
       style="fill:none;fill-rule:evenodd;stroke:#000000;stroke-width:35;stroke-linecap:round;stroke-linejoin:round;stroke-miterlimit:4;stroke-dasharray:none;stroke-opacity:1"
       inkscape:path-effect="#path-effect847"
       inkscape:original-d="m 1082.7502,27.605484 c 0,0 -49.6826,-33.9454433 -49.0057,-59.676323 0.7879,-29.954384 32.3052,-76.173791 60.623,-66.376377 40.574,14.037853 48.8934,111.34063 9.5158,128.449525 -37.4138,16.25561 -83.4907,-49.101651 -83.0408,-89.891724 0.7099,-64.364885 69.9312,-143.579755 134.1311,-138.920525 54.4568,3.95212 95.2343,65.31642 95.5686,133.030219 l 0.4216,93.933625 -0.068,-94.8356 c -0.045,-57.569904 29.4659,-120.138824 79.3828,-131.383874 38.1107,-8.58539 91.0336,26.15036 97.7645,64.63184 3.8945,22.26606 -17.9186,53.816882 -40.5157,54.378232 -26.002,0.645933 -53.575,-34.464562 -49.6697,-60.179692 5.525,-36.38056 56.126,-66.74691 92.3789,-60.43823 35.0591,6.10093 64.7444,62.50585 64.3411,85.19082 l -0.5488,30.865192 0.2678,-25.944702 c 0.2356,-51.25352 42.6721,-91.01953 83.2559,-89.0353 32.0097,1.56501 67.7516,45.61148 58.5028,76.29584 -23.279,77.231282 -155.1086,45.967865 -228.8449,78.671813 -21.9025,9.714345 -61.9244,10.762175 -62.9498,34.7003852 -1.0824,25.2691508 37.8484,40.3435958 63.0741,42.1778408 49.9593,3.632695 86.4266,-55.501618 135.6876,-64.583333 29.1954,-5.382438 80.0616,-21.29501 88.7802,7.08331 7.4472,24.24004717 -38.9856,62.687228 -59.3557,47.584333 -19.3828,-14.3708048 26.9134,-67.197922 26.9134,-67.197922" />
  </g>
</svg>
