<?xml version="1.0"?>

<svg version="1.1" xmlns="http://www.w3.org/2000/svg" xmlns:xlink="http://www.w3.org/1999/xlink" width="1307.011475" height="1024.000000" viewBox="0 0 1307.011475 1024.000000">

  <g transform="translate(845.075714 514.144775)" style="fill: rgb(0.000000%,0.000000%,0.000000%);">
    <text font-size="9.962646">vc</text>
  </g>
  <g transform="translate(1150.177048 799.336639)" style="fill: rgb(0.000000%,0.000000%,0.000000%);">
    <text font-size="9.962646">bottom</text>
  </g>
  <g transform="translate(1155.421295 798.368042)" style="fill: rgb(0.000000%,0.000000%,0.000000%);">
    <text font-size="9.962646">right</text>
  </g>
  <path d="M243.542160 819.200012C157.680786 737.519516,86.392960 637.046249,81.918732 512.000031C76.376312 357.100143,186.986893 204.799896,329.895279 204.800049C472.803452 204.800201,540.602341 357.100266,491.518707 512.000031C445.469635 657.323212,475.555389 809.431366,601.942139 819.200012C736.577332 829.606186,827.522278 671.349884,849.918686 512.000031" style="stroke:rgb(80.000305%,80.000305%,80.000305%); stroke-width: 2.000000;stroke-linejoin: round;stroke-miterlimit: 10.000000;fill: none;"></path>
  <path d="M849.918686 307.200043C849.918686 307.216705,849.918686 511.983368,849.918686 512.000031C849.918686 655.280746,920.654617 795.561188,1054.718674 819.200012C1193.751083 843.714874,1289.579849 682.487640,1259.518661 512.000031C1237.208099 385.468918,1162.935638 274.060242,1054.718674 204.800049" style="stroke:rgb(80.000305%,80.000305%,80.000305%); stroke-width: 2.000000;stroke-linejoin: round;stroke-miterlimit: 10.000000;fill: none;"></path>
</svg>
