<?xml version="1.0"?>

<svg version="1.1" xmlns="http://www.w3.org/2000/svg" xmlns:xlink="http://www.w3.org/1999/xlink" width="1363.937927" height="1024.000000" viewBox="0 0 1363.937927 1024.000000">

  <g transform="translate(845.075714 514.144775)" style="fill: rgb(0.000000%,0.000000%,0.000000%);">
    <text font-size="9.962646">vc</text>
  </g>
  <path d="M243.542160 819.200012C157.680786 737.519516,86.392960 637.046249,81.918732 512.000031C76.376312 357.100143,186.986893 204.799896,329.895279 204.800049C472.803452 204.800201,540.602341 357.100266,491.518707 512.000031C445.469635 657.323212,475.555389 809.431366,601.942139 819.200012C736.577332 829.606186,827.522278 671.349884,849.918686 512.000031" style="stroke:rgb(80.000305%,80.000305%,80.000305%); stroke-width: 2.000000;stroke-linejoin: round;stroke-miterlimit: 10.000000;fill: none;"></path>
  <path d="M849.918686 307.200043C849.918686 307.216705,849.918686 511.983368,849.918686 512.000031C849.918686 655.280746,920.654617 795.561188,1054.718674 819.200012C1193.751083 843.714874,1289.579849 682.487640,1259.518661 512.000031C1237.208099 385.468918,1162.935638 274.060242,1054.718674 204.800049" style="stroke:rgb(80.000305%,80.000305%,80.000305%); stroke-width: 2.000000;stroke-linejoin: round;stroke-miterlimit: 10.000000;fill: none;"></path>
  <path d="M539.118439 1249.278107C479.015732 1192.102020,429.114471 1121.771027,425.982529 1034.239059C422.102844 925.809616,499.529922 819.199905,599.565353 819.200012C699.600632 819.200119,747.059647 925.809692,712.701263 1034.239059C680.467056 1135.964844,701.526993 1242.440094,789.997330 1249.278107C884.241547 1256.562408,947.902740 1145.783478,963.580154 1034.239059" style="stroke:rgb(80.000305%,80.000305%,80.000305%); stroke-width: 2.000000;stroke-linejoin: round;stroke-miterlimit: 10.000000;fill: none;"></path>
  <path d="M963.580154 890.879700C963.580154 890.891357,963.580154 1034.227402,963.580154 1034.239059C963.580154 1134.535126,1013.095093 1232.731003,1106.939514 1249.278107C1223.940948 1269.908356,1321.978561 1162.534775,1321.978561 1034.239059C1321.978561 926.574570,1274.216187 819.200012,1178.619202 819.200012C1106.655426 819.200012,1055.801178 889.534561,1071.099670 962.559372C1094.076950 1072.237427,1229.346252 1112.981140,1309.076508 1034.239059" style="stroke:rgb(80.000305%,80.000305%,80.000305%); stroke-width: 2.000000;stroke-linejoin: round;stroke-miterlimit: 10.000000;fill: none;"></path>
</svg>
