<?xml version="1.0" encoding="UTF-8" standalone="no"?>
<svg
   xmlns:dc="http://purl.org/dc/elements/1.1/"
   xmlns:cc="http://creativecommons.org/ns#"
   xmlns:rdf="http://www.w3.org/1999/02/22-rdf-syntax-ns#"
   xmlns:svg="http://www.w3.org/2000/svg"
   xmlns="http://www.w3.org/2000/svg"
   xmlns:sodipodi="http://sodipodi.sourceforge.net/DTD/sodipodi-0.dtd"
   xmlns:inkscape="http://www.inkscape.org/namespaces/inkscape"
   width="613.58649"
   height="255.68608"
   id="svg2992"
   version="1.1"
   inkscape:version="1.0.1 (3bc2e813f5, 2020-09-07)"
   sodipodi:docname="ഢ.svg">
  <defs
     id="defs5498">
    <inkscape:path-effect
       effect="spiro"
       id="path-effect848"
       is_visible="true"
       lpeversion="1" />
    <inkscape:path-effect
       effect="spiro"
       id="path-effect3846"
       is_visible="true"
       lpeversion="0" />
    <inkscape:path-effect
       effect="spiro"
       id="path-effect3801"
       is_visible="true"
       lpeversion="0" />
    <inkscape:path-effect
       effect="spiro"
       id="path-effect4372-52"
       is_visible="true"
       lpeversion="0" />
    <inkscape:path-effect
       effect="spiro"
       id="path-effect4372-52-4"
       is_visible="true"
       lpeversion="0" />
    <inkscape:path-effect
       effect="spiro"
       id="path-effect4372-52-4-9"
       is_visible="true"
       lpeversion="0" />
    <inkscape:path-effect
       effect="spiro"
       id="path-effect4372-52-4-9-3"
       is_visible="true"
       lpeversion="0" />
    <inkscape:path-effect
       effect="spiro"
       id="path-effect4372-52-4-9-7"
       is_visible="true"
       lpeversion="0" />
    <inkscape:path-effect
       effect="spiro"
       id="path-effect4372-52-4-9-7-7"
       is_visible="true"
       lpeversion="0" />
    <inkscape:path-effect
       effect="spiro"
       id="path-effect4372-52-4-9-39"
       is_visible="true"
       lpeversion="0" />
    <inkscape:path-effect
       effect="spiro"
       id="path-effect4372-52-4-9-39-8"
       is_visible="true"
       lpeversion="0" />
    <inkscape:path-effect
       effect="spiro"
       id="path-effect4372-52-4-9-7-5"
       is_visible="true"
       lpeversion="0" />
    <inkscape:path-effect
       effect="spiro"
       id="path-effect4372-52-4-9-7-5-3"
       is_visible="true"
       lpeversion="0" />
    <inkscape:path-effect
       effect="spiro"
       id="path-effect4372-52-4-9-5"
       is_visible="true"
       lpeversion="0" />
  </defs>
  <sodipodi:namedview
     inkscape:window-height="1015"
     inkscape:window-width="1920"
     inkscape:pageshadow="2"
     inkscape:pageopacity="0.0"
     borderopacity="1.0"
     bordercolor="#666666"
     pagecolor="#ffffff"
     id="base"
     showgrid="true"
     showguides="true"
     inkscape:guide-bbox="true"
     inkscape:zoom="0.227"
     inkscape:cx="884.81463"
     inkscape:cy="-35.200019"
     inkscape:window-x="1920"
     inkscape:window-y="0"
     inkscape:current-layer="layer1"
     inkscape:window-maximized="1"
     inkscape:document-rotation="0">
    <sodipodi:guide
       orientation="horizontal"
       position="-967.87359,-379.05495"
       id="guide5596" />
    <inkscape:grid
       type="xygrid"
       id="grid3769"
       empspacing="3"
       visible="true"
       enabled="true"
       snapvisiblegridlinesonly="true"
       spacingx="4"
       units="px"
       dotted="true"
       spacingy="4"
       originx="-967.87359"
       originy="-813.25896" />
    <sodipodi:guide
       orientation="0,1"
       position="-2007.8736,620.94508"
       id="guide2985" />
    <sodipodi:guide
       position="5440.1264,730.94508"
       orientation="0,1"
       id="guide4174"
       inkscape:label=""
       inkscape:color="rgb(0,0,255)" />
  </sodipodi:namedview>
  <metadata
     id="metadata5594">
    <rdf:RDF>
      <cc:Work
         rdf:about="">
        <dc:format>image/svg+xml</dc:format>
        <dc:type
           rdf:resource="http://purl.org/dc/dcmitype/StillImage" />
        <dc:title />
      </cc:Work>
    </rdf:RDF>
  </metadata>
  <g
     inkscape:label="Layer 1"
     inkscape:groupmode="layer"
     id="layer1"
     transform="translate(-967.87359,234.74104)">
    <path
       style="fill:none;fill-rule:evenodd;stroke:#000000;stroke-width:35;stroke-linecap:round;stroke-linejoin:round;stroke-miterlimit:4;stroke-dasharray:none;stroke-opacity:1"
       d="m 1097.7445,1.9884291 c -30.4289,0.7581143 -60.9545,-11.8430086 -81.9879,-33.8450391 -21.03336,-22.00203 -32.24829,-53.063654 -30.12185,-83.42763 2.12643,-30.36398 17.56125,-59.55929 41.45595,-78.41493 23.8947,-18.85565 55.8787,-27.07914 85.9049,-22.08726 15.7382,2.61648 30.9704,8.76911 43.6491,18.45352 12.6787,9.68441 22.7236,22.95464 27.8765,38.0538 5.2956,15.51748 5.3462,32.29437 4.6089,48.67399 -0.7374,16.379625 -2.2001,32.887384 0.2543,49.098851 2.4292,16.045037 8.8855,31.719693 19.8802,43.655379 10.9947,11.9356861 26.7513,19.8225409 42.9789,19.7214191 13.5816,-0.084633 26.8324,-5.7022333 37.2394,-14.4292561 10.4069,-8.727022 18.09,-20.414121 23.2465,-32.97898 10.3131,-25.12972 10.7897,-53.047492 11.2427,-80.207343 l 1.4768,-88.54716 -1.5283,88.41234 c -0.2891,16.72526 -0.3365,33.607066 3.1719,49.962771 3.5084,16.355704 10.6017,32.05083 21.3939,44.831527 10.7922,12.780698 25.1145,22.4770847 40.861,28.1221053 15.7465,5.6450207 32.773,7.3143844 49.446,5.9620708 26.4986,-2.14924864 52.3789,-11.9297534 73.4795,-28.1025861 21.1006,-16.172833 37.3137,-38.712039 45.6295,-63.963643 8.5272,-25.893395 8.4898,-55.174135 -3.4066,-79.702815 -5.9482,-12.26433 -14.7802,-23.17983 -25.8149,-31.18169 -11.0347,-8.00186 -24.2794,-13.03056 -37.8819,-13.90626 -17.6254,-1.13469 -35.6108,4.8989 -48.9773,16.44369 -13.3664,11.5448 -21.9535,28.46664 -23.3656,46.07204 -1.4121,17.60539 4.3711,35.68446 15.7491,49.19316 11.378,13.508697 28.2164,22.282263 45.8083,23.854081 18.6817,1.669197 37.9506,-4.853245 51.7774,-17.526504 13.8269,-12.673257 21.9991,-31.302407 21.9596,-50.058517 -0.04,-18.75611 -8.29,-37.35069 -22.1701,-49.96564 -13.8801,-12.61495 -33.1762,-19.05624 -51.8507,-17.30843"
       id="path4370-92-1-3"
       inkscape:connector-curvature="0"
       sodipodi:nodetypes="caaaaccsaaaac"
       inkscape:path-effect="#path-effect848"
       inkscape:original-d="m 1097.7445,1.9884291 c -95.2984,-66.0522881 -51.3084,-188.3601491 15.2511,-217.7748591 27.7916,-12.28199 57.6044,29.49951 71.5256,56.50732 14.9505,29.00481 -8.3083,67.918022 4.8632,97.772841 12.0102,27.222718 33.374,67.3701931 62.8591,63.3767981 48.356,-6.549208 73.9165,-69.0919731 71.7286,-127.6155791 l 1.4768,-88.54716 -1.5283,88.41234 c -1.1108,50.058676 57.5707,123.5697641 114.8728,128.8784741 49.9669,4.629155 108.6632,-42.9845281 119.109,-92.0662291 9.8314,-46.194875 -20.8821,-134.497115 -67.1034,-124.790765 -44.3629,9.31607 34.5111,137.314288 -10.7855,135.562971 -44.9195,-1.73674 -0.2838,-134.859091 -0.2838,-134.859091" />
  </g>
</svg>
