<?xml version="1.0"?>

<svg version="1.1" xmlns="http://www.w3.org/2000/svg" xmlns:xlink="http://www.w3.org/1999/xlink" width="1405.537033" height="1024.000000" viewBox="0 0 1405.537033 1024.000000">

  <path d="M81.918732 512.000031C216.994492 430.733124,387.449692 488.133331,396.279663 614.400024C402.002869 696.240891,359.877747 773.120331,284.499146 773.120331C165.265427 773.120331,88.898834 644.432755,81.918732 512.000031C74.440826 370.122330,134.159851 231.275269,265.235916 204.800049C429.240036 171.673889,580.957291 326.654266,593.918701 512.000031C593.918701 512.016693,593.918701 716.783356,593.918701 716.800018" style="stroke:rgb(80.000305%,80.000305%,80.000305%); stroke-width: 2.000000;stroke-linejoin: round;stroke-miterlimit: 10.000000;fill: none;"></path>
  <path d="M593.918701 512.000031C593.918701 391.509567,640.797577 268.611740,747.518692 266.240051C843.251266 264.112564,901.118683 365.102814,901.118683 471.040039C901.118683 471.060043,901.118683 716.780014,901.118683 716.800018" style="stroke:rgb(80.000305%,80.000305%,80.000305%); stroke-width: 2.000000;stroke-linejoin: round;stroke-miterlimit: 10.000000;fill: none;"></path>
  <path d="M901.118683 512.000031C911.137253 346.291733,1040.046509 193.889069,1190.054596 204.800049C1329.087387 214.912720,1391.681488 361.889374,1351.678024 512.000031C1314.250641 652.444077,1202.636261 771.113754,1062.742111 819.200012" style="stroke:rgb(80.000305%,80.000305%,80.000305%); stroke-width: 2.000000;stroke-linejoin: round;stroke-miterlimit: 10.000000;fill: none;"></path>
</svg>
