<?xml version="1.0"?>

<svg version="1.1" xmlns="http://www.w3.org/2000/svg" xmlns:xlink="http://www.w3.org/1999/xlink" width="1594.318314" height="1024.000000" viewBox="0 0 1594.318314 1024.000000">

  <path d="M286.718719 819.200012C165.667099 763.984726,86.328369 644.976639,81.918732 512.000031C76.770370 356.746780,178.340927 215.495483,327.678711 204.800049C491.044052 193.099976,615.676620 339.749802,634.878693 512.000031C648.607132 635.149567,590.230621 757.643127,481.278702 757.760010C385.073349 757.863205,325.742126 658.116211,327.678711 552.960022C330.936172 376.080139,473.040588 232.954803,634.878693 266.243790C768.068359 293.639984,839.678680 431.582718,839.678680 573.443771C839.678680 573.455444,839.678680 716.788345,839.678680 716.800018" style="stroke:rgb(80.000305%,80.000305%,80.000305%); stroke-width: 2.000000;stroke-linejoin: round;stroke-miterlimit: 10.000000;fill: none;"></path>
  <path d="M840.678680 716.800018C840.678680 716.788345,840.678680 573.455444,840.678680 573.443771C840.678680 431.582718,912.289001 293.639984,1045.478668 266.243790C1207.316772 232.954803,1349.421188 376.080139,1352.678650 552.960022C1354.615234 658.116211,1295.284012 757.863205,1199.078659 757.760010C1090.126740 757.643127,1031.750229 635.149567,1045.478668 512.000031C1064.680740 339.749802,1189.313309 193.099976,1352.678650 204.800049C1502.016434 215.495483,1603.586990 356.746780,1598.438629 512.000031C1589.391327 784.829300,1322.649261 949.732300,1045.478668 1024.000000" style="stroke:rgb(80.000305%,80.000305%,80.000305%); stroke-width: 2.000000;stroke-linejoin: round;stroke-miterlimit: 10.000000;fill: none;"></path>
  <path d="M1045.478668 1024.000000C1141.208282 989.156876,1244.894241 1006.348724,1344.998489 1024.000000C1445.102737 1041.651276,1548.788696 1058.843124,1644.518311 1024.000000" style="stroke:rgb(80.000305%,80.000305%,80.000305%); stroke-width: 2.000000;stroke-linejoin: round;stroke-miterlimit: 10.000000;fill: none;"></path>
</svg>
