<?xml version="1.0" encoding="UTF-8" standalone="no"?>
<svg
   xmlns:dc="http://purl.org/dc/elements/1.1/"
   xmlns:cc="http://creativecommons.org/ns#"
   xmlns:rdf="http://www.w3.org/1999/02/22-rdf-syntax-ns#"
   xmlns:svg="http://www.w3.org/2000/svg"
   xmlns="http://www.w3.org/2000/svg"
   xmlns:sodipodi="http://sodipodi.sourceforge.net/DTD/sodipodi-0.dtd"
   xmlns:inkscape="http://www.inkscape.org/namespaces/inkscape"
   width="561.16675"
   height="262.24686"
   id="svg2992"
   version="1.1"
   inkscape:version="1.0.1 (3bc2e813f5, 2020-09-07)"
   sodipodi:docname="ദ്ധ.svg">
  <defs
     id="defs5498">
    <inkscape:path-effect
       effect="spiro"
       id="path-effect4140-6-7"
       is_visible="true"
       lpeversion="0" />
    <inkscape:path-effect
       effect="spiro"
       id="path-effect4372-5-0-6"
       is_visible="true"
       lpeversion="0" />
    <inkscape:path-effect
       effect="spiro"
       id="path-effect4140-6-7-9"
       is_visible="true"
       lpeversion="0" />
    <inkscape:path-effect
       effect="spiro"
       id="path-effect4140-6-7-6"
       is_visible="true"
       lpeversion="0" />
    <inkscape:path-effect
       effect="spiro"
       id="path-effect4140-6-7-6-6"
       is_visible="true"
       lpeversion="0" />
    <inkscape:path-effect
       effect="spiro"
       id="path-effect4140-6-7-6-2"
       is_visible="true"
       lpeversion="0" />
    <inkscape:path-effect
       effect="spiro"
       id="path-effect4140-6-7-6-4"
       is_visible="true"
       lpeversion="0" />
    <inkscape:path-effect
       effect="spiro"
       id="path-effect4140-6-7-6-5"
       is_visible="true"
       lpeversion="0" />
    <inkscape:path-effect
       effect="spiro"
       id="path-effect4140-6-7-6-29"
       is_visible="true"
       lpeversion="0" />
    <inkscape:path-effect
       effect="spiro"
       id="path-effect4140-6-7-6-29-6"
       is_visible="true"
       lpeversion="0" />
    <inkscape:path-effect
       effect="spiro"
       id="path-effect4140-6-7-6-0"
       is_visible="true"
       lpeversion="0" />
    <inkscape:path-effect
       effect="spiro"
       id="path-effect4140-6-7-6-29-8"
       is_visible="true"
       lpeversion="0" />
  </defs>
  <sodipodi:namedview
     inkscape:window-height="1015"
     inkscape:window-width="1920"
     inkscape:pageshadow="2"
     inkscape:pageopacity="0.0"
     borderopacity="1.0"
     bordercolor="#666666"
     pagecolor="#ffffff"
     id="base"
     showgrid="true"
     showguides="true"
     inkscape:guide-bbox="true"
     inkscape:zoom="1.4142136"
     inkscape:cx="247.84568"
     inkscape:cy="160.11061"
     inkscape:window-x="1920"
     inkscape:window-y="0"
     inkscape:current-layer="layer1"
     inkscape:window-maximized="1"
     inkscape:document-rotation="0">
    <sodipodi:guide
       orientation="horizontal"
       position="-1039.0276,-362.5168"
       id="guide5596" />
    <inkscape:grid
       type="xygrid"
       id="grid3769"
       empspacing="3"
       visible="true"
       enabled="true"
       snapvisiblegridlinesonly="true"
       spacingx="4"
       units="px"
       dotted="true"
       spacingy="4"
       originx="-1039.0276"
       originy="-823.23635" />
    <sodipodi:guide
       orientation="0,1"
       position="-2079.0276,637.48321"
       id="guide2985" />
    <sodipodi:guide
       position="-2527.0276,661.48321"
       orientation="0,1"
       id="guide4152"
       inkscape:label=""
       inkscape:color="rgb(0,0,255)" />
  </sodipodi:namedview>
  <metadata
     id="metadata5594">
    <rdf:RDF>
      <cc:Work
         rdf:about="">
        <dc:format>image/svg+xml</dc:format>
        <dc:type
           rdf:resource="http://purl.org/dc/dcmitype/StillImage" />
        <dc:title />
      </cc:Work>
    </rdf:RDF>
  </metadata>
  <g
     inkscape:label="Layer 1"
     inkscape:groupmode="layer"
     id="layer1"
     transform="translate(-1039.0276,224.76365)">
    <path
       style="fill:none;fill-rule:evenodd;stroke:#000000;stroke-width:35;stroke-linecap:round;stroke-linejoin:round;stroke-miterlimit:4;stroke-dasharray:none;stroke-opacity:1"
       d="m 1109.5743,18.888036 c -21.0132,-14.6911615 -37.2906,-36.04871 -45.8846,-60.205069 -8.5939,-24.156359 -9.4632,-50.995566 -2.4503,-75.657387 7.0129,-24.66182 21.8742,-47.02787 41.8927,-63.04794 20.0186,-16.02006 45.0983,-25.61725 70.6976,-27.05363 18.7924,-1.05445 38.113,2.34252 54.4388,11.70921 16.3258,9.36668 29.3806,25.04121 33.6295,43.37735 1.8137,7.82711 2.0118,16.06523 0.2131,23.89582 -1.7986,7.83059 -5.6229,15.19334 -11.0443,21.12305 -5.4215,5.92972 -12.3768,10.357144 -19.8656,13.267688 -7.4888,2.910543 -15.4641,4.309915 -23.3943,5.600245 l -6.8754,1.1187 8.2775,0.13875 c 7.2784,0.122003 14.5966,0.312815 21.7392,1.717561 7.1426,1.404746 14.0904,4.033007 20.1044,8.134391 6.0141,4.101384 11.0438,9.650733 14.4613,16.078029 3.4176,6.427296 5.2191,13.689636 5.3246,20.968293 0.199,13.726129 -5.7149,27.278564 -15.339,37.0674937 -9.6241,9.7889294 -22.7543,15.8635613 -36.3572,17.7097603 -13.8833,1.884267 -28.323,-0.558854 -40.8137,-6.9054928 21.5915,7.4364458 44.4839,11.0790088 67.3172,10.7113128 20.3245,-0.327295 40.9273,-3.937933 58.9163,-13.4029947 15.1506,-7.9715824 28.1297,-20.0231033 37.2008,-34.5420723 9.0711,-14.518969 14.211,-31.468267 14.732,-48.580081 l 0.5354,-129.363103 -0.1048,129.945578 c 3.6359,25.25051 16.0832,49.145255 34.6914,66.596418 18.6082,17.4511632 43.2517,28.340952 68.6834,30.350645 33.1155,2.616893 67.1319,-10.1971493 90.2903,-34.012508 23.1584,-23.815358 35.0162,-58.176829 31.4742,-91.206173 -3.542,-33.02935 -22.4159,-64.09525 -50.0975,-82.45869 -27.6815,-18.36345 -63.6415,-23.67344 -95.4491,-14.0944"
       id="path4138-1-7-3"
       inkscape:path-effect="#path-effect4140-6-7-6"
       inkscape:original-d="m 1109.5743,18.888036 c 0,0 -8.8263,-197.837096 64.2554,-225.964026 32.3151,-12.43712 82.7351,20.87388 88.0683,55.08656 4.2978,27.57038 -28.7536,60.043616 -54.0911,63.886803 l -6.8754,1.1187 8.2775,0.13875 c 16.499,0.276561 61.0063,21.090986 61.6295,46.898274 0.6034,24.988069 -28.0994,45.1878821 -51.6962,54.777254 -3.238,1.315876 -40.3798,-7.8801336 -40.8137,-6.9054928 17.833,4.3588978 45.3676,11.3613278 67.3172,10.7113128 20.1317,-0.59618 42.5012,-1.7331 58.9163,-13.4029947 26.6274,-18.9301143 39.151,-50.8865983 51.9328,-83.1221533 l 0.5354,-129.363103 -0.1048,129.945578 c 0,0 61.09,118.010478 103.3748,96.947063 66.5484,-33.149812 106.808,-174.476421 -23.7821,-221.771771"
       inkscape:connector-curvature="0"
       sodipodi:nodetypes="caascssscaacccac" />
  </g>
</svg>
