<?xml version="1.0"?>

<svg version="1.1" xmlns="http://www.w3.org/2000/svg" xmlns:xlink="http://www.w3.org/1999/xlink" width="1154.220215" height="1024.000000" viewBox="0 0 1154.220215 1024.000000">

  <g transform="translate(691.475723 514.144775)" style="fill: rgb(0.000000%,0.000000%,0.000000%);">
    <text font-size="9.962646">vc</text>
  </g>
  <g transform="translate(1004.148834 848.589386)" style="fill: rgb(0.000000%,0.000000%,0.000000%);">
    <text font-size="9.962646">right</text>
  </g>
  <path d="M491.518707 204.800049C384.705551 275.479660,310.879471 386.218811,286.718719 512.000031C253.990524 682.383545,351.773209 843.840607,491.518707 819.200012C625.582764 795.561188,696.318695 655.280746,696.318695 512.000031C696.318695 511.983368,696.318695 307.216705,696.318695 307.200043" style="stroke:rgb(80.000305%,80.000305%,80.000305%); stroke-width: 2.000000;stroke-linejoin: round;stroke-miterlimit: 10.000000;fill: none;"></path>
  <path d="M696.318695 307.200043C696.318695 307.216705,696.318695 511.983368,696.318695 512.000031C696.318695 655.280746,767.054626 795.561188,901.118683 819.200012C1040.864182 843.840607,1138.646866 682.383545,1105.918671 512.000031C1081.757919 386.218811,1007.931839 275.479660,901.118683 204.800049" style="stroke:rgb(80.000305%,80.000305%,80.000305%); stroke-width: 2.000000;stroke-linejoin: round;stroke-miterlimit: 10.000000;fill: none;"></path>
  <path d="M1105.918671 512.000031C1149.748810 760.576248,955.315659 983.686951,696.318695 1024.000000C413.447159 1068.029160,141.627014 891.832092,81.918732 614.400024C50.706787 469.374985,88.531693 318.075348,184.318726 204.800049" style="stroke:rgb(80.000305%,80.000305%,80.000305%); stroke-width: 2.000000;stroke-linejoin: round;stroke-miterlimit: 10.000000;fill: none;"></path>
</svg>
