<?xml version="1.0" encoding="UTF-8" standalone="no"?>
<svg
   xmlns:dc="http://purl.org/dc/elements/1.1/"
   xmlns:cc="http://creativecommons.org/ns#"
   xmlns:rdf="http://www.w3.org/1999/02/22-rdf-syntax-ns#"
   xmlns:svg="http://www.w3.org/2000/svg"
   xmlns="http://www.w3.org/2000/svg"
   xmlns:sodipodi="http://sodipodi.sourceforge.net/DTD/sodipodi-0.dtd"
   xmlns:inkscape="http://www.inkscape.org/namespaces/inkscape"
   width="438.04922"
   height="261.57861"
   id="svg2992"
   version="1.1"
   inkscape:version="1.0.1 (3bc2e813f5, 2020-09-07)"
   sodipodi:docname="ന്ദ.svg">
  <defs
     id="defs5498">
    <inkscape:path-effect
       effect="spiro"
       id="path-effect3846"
       is_visible="true"
       lpeversion="0" />
    <inkscape:path-effect
       effect="spiro"
       id="path-effect3801"
       is_visible="true"
       lpeversion="0" />
    <inkscape:path-effect
       effect="spiro"
       id="path-effect4372-5-0-6"
       is_visible="true"
       lpeversion="0" />
    <inkscape:path-effect
       effect="spiro"
       id="path-effect4372-5-0-6-9"
       is_visible="true"
       lpeversion="0" />
    <inkscape:path-effect
       effect="spiro"
       id="path-effect4372-5-0-6-9-1"
       is_visible="true"
       lpeversion="0" />
    <inkscape:path-effect
       effect="spiro"
       id="path-effect4372-5-0-6-9-2"
       is_visible="true"
       lpeversion="0" />
    <inkscape:path-effect
       effect="spiro"
       id="path-effect4372-5-0-6-9-6"
       is_visible="true"
       lpeversion="0" />
    <inkscape:path-effect
       effect="spiro"
       id="path-effect4372-5-0-7-0-2-7"
       is_visible="true"
       lpeversion="0" />
    <inkscape:path-effect
       effect="spiro"
       id="path-effect4372-5-0-7-0-2-7-8"
       is_visible="true"
       lpeversion="0" />
    <inkscape:path-effect
       effect="spiro"
       id="path-effect4372-5-0-7-0-2-7-6"
       is_visible="true"
       lpeversion="0" />
    <inkscape:path-effect
       effect="spiro"
       id="path-effect4372-5-0-7-0-2-7-6-6"
       is_visible="true"
       lpeversion="0" />
    <inkscape:path-effect
       effect="spiro"
       id="path-effect4140-6-7"
       is_visible="true"
       lpeversion="0" />
    <inkscape:path-effect
       effect="spiro"
       id="path-effect4372-5-0-7-0-2-7-7"
       is_visible="true"
       lpeversion="0" />
    <inkscape:path-effect
       effect="spiro"
       id="path-effect4372-5-0-7-0-2-7-89"
       is_visible="true"
       lpeversion="0" />
  </defs>
  <sodipodi:namedview
     inkscape:window-height="1015"
     inkscape:window-width="1920"
     inkscape:pageshadow="2"
     inkscape:pageopacity="0.0"
     borderopacity="1.0"
     bordercolor="#666666"
     pagecolor="#ffffff"
     id="base"
     showgrid="true"
     showguides="true"
     inkscape:guide-bbox="true"
     inkscape:zoom="0.1767767"
     inkscape:cx="-280.30445"
     inkscape:cy="-558.64423"
     inkscape:window-x="1920"
     inkscape:window-y="0"
     inkscape:current-layer="layer1"
     inkscape:window-maximized="1"
     inkscape:document-rotation="0">
    <sodipodi:guide
       orientation="horizontal"
       position="-948.31164,-365.67189"
       id="guide5596" />
    <inkscape:grid
       type="xygrid"
       id="grid3769"
       empspacing="3"
       visible="true"
       enabled="true"
       snapvisiblegridlinesonly="true"
       spacingx="4"
       units="px"
       dotted="true"
       spacingy="4"
       originx="-948.31164"
       originy="-820.74949" />
    <sodipodi:guide
       orientation="0,1"
       position="-1988.3116,634.32807"
       id="guide2985" />
  </sodipodi:namedview>
  <metadata
     id="metadata5594">
    <rdf:RDF>
      <cc:Work
         rdf:about="">
        <dc:format>image/svg+xml</dc:format>
        <dc:type
           rdf:resource="http://purl.org/dc/dcmitype/StillImage" />
        <dc:title />
      </cc:Work>
    </rdf:RDF>
  </metadata>
  <g
     inkscape:label="Layer 1"
     inkscape:groupmode="layer"
     id="layer1"
     transform="translate(-948.31164,227.25051)">
    <path
       style="fill:none;fill-rule:evenodd;stroke:#000000;stroke-width:35;stroke-linecap:round;stroke-linejoin:round;stroke-miterlimit:4;stroke-dasharray:none;stroke-opacity:1"
       d="m 1061.2422,16.176055 c -27.73,-5.089395 -53.4095,-20.6451152 -70.76236,-42.865298 -17.35282,-22.220182 -26.22203,-50.903878 -24.43997,-79.040707 1.53962,-24.30891 10.98398,-48.12266 26.87,-66.58689 15.88603,-18.46423 38.17443,-31.40869 62.16613,-35.61461 16.1872,-2.83774 33.1179,-1.7076 48.6199,3.74845 15.502,5.45605 29.435,15.25996 39.8529,27.97005 10.4179,12.71008 17.2176,28.16532 20.7589,44.21332 3.5414,16.048 3.8631,32.60804 3.9894,49.04165 l 0.7628,99.264075 -0.5656,-98.953477 c -0.093,-16.313975 0.039,-32.769248 3.5338,-48.704838 3.4944,-15.9356 10.3768,-31.23396 20.8102,-43.77581 10.4335,-12.54184 24.2687,-22.16896 39.549,-27.8844 15.2803,-5.71545 31.8694,-7.58177 48.1405,-6.39614 17.0074,1.23928 33.9803,5.85541 48.3459,15.0433 14.3655,9.18789 25.9616,23.18027 30.6072,39.58776 2.334,8.24336 2.8828,17.04326 1.1198,25.42732 -1.763,8.38405 -5.8804,16.27285 -11.8328,22.43484 -5.9523,6.16199 -13.6506,10.506258 -21.845,13.006586 -8.1945,2.500328 -16.8176,3.173842 -25.3676,3.719877 l -12.3857,0.790997 12.9243,1.09825 c 8.0541,0.684401 16.1395,1.427056 23.9885,3.358394 7.849,1.931338 15.4564,5.06403 22.0502,9.739421 6.5938,4.675391 12.1289,10.886833 15.7746,18.101108 3.6457,7.214276 5.3775,15.399114 4.8629,23.465836 -0.4811,7.541395 -2.9049,14.92324 -6.7857,21.407294 -3.8809,6.4840529 -9.1992,12.07413017 -15.3456,16.4702526 -12.2928,8.7922444 -27.676,12.6623054 -42.7893,12.5842394 -10.3738,-0.05359 -20.736,-1.889782 -30.4966,-5.40401"
       id="path4370-9-0-9-5-7-8"
       inkscape:path-effect="#path-effect4372-5-0-7-0-2-7"
       inkscape:original-d="M 1061.2422,16.176055 C 985.73704,7.0754695 954.73889,-53.329749 966.03987,-105.72995 c 10.08963,-46.78341 56.83823,-89.26571 89.03613,-102.2015 52.1592,-20.95538 113.3137,104.35467 113.2211,124.97347 l 0.7628,99.264075 -0.5656,-98.953477 c -3.6262,-54.164948 56.0534,-119.962968 112.0335,-126.761188 31.7703,-3.85819 75.2103,22.84695 78.9531,54.63106 3.382,28.72109 -30.5736,63.344188 -57.9256,64.588623 l -12.3857,0.790997 12.9243,1.09825 c 30.0449,2.553073 67.0497,25.927084 66.6762,54.664759 -0.3563,27.406265 -38.3152,43.875416 -64.9206,50.461786 -10.0214,2.480865 -30.4966,-5.40401 -30.4966,-5.40401"
       inkscape:connector-curvature="0"
       sodipodi:nodetypes="csscccaascsaac" />
  </g>
</svg>
