<?xml version="1.0"?>

<svg version="1.1" xmlns="http://www.w3.org/2000/svg" xmlns:xlink="http://www.w3.org/1999/xlink" width="1444.838669" height="1024.000000" viewBox="0 0 1444.838669 1024.000000">

  <g transform="translate(691.475723 616.544769)" style="fill: rgb(0.000000%,0.000000%,0.000000%);">
    <text font-size="9.962646">vc</text>
  </g>
  <g transform="translate(1209.292358 931.474136)" style="fill: rgb(0.000000%,0.000000%,0.000000%);">
    <text font-size="9.962646">bottom</text>
  </g>
  <g transform="translate(1214.536606 930.505539)" style="fill: rgb(0.000000%,0.000000%,0.000000%);">
    <text font-size="9.962646">right</text>
  </g>
  <path d="M491.518707 819.200012C368.977631 765.748764,288.927155 645.673050,286.718719 512.000031C284.537262 379.960709,369.765717 259.990860,491.518707 266.243790C639.647385 273.851303,696.318695 447.480347,696.318695 614.400024C696.318695 614.412521,696.318695 767.987518,696.318695 768.000015" style="stroke:rgb(80.000305%,80.000305%,80.000305%); stroke-width: 2.000000;stroke-linejoin: round;stroke-miterlimit: 10.000000;fill: none;"></path>
  <path d="M696.318695 614.400024C696.318695 442.953766,790.117950 279.479843,952.319336 250.879730C1088.372513 226.890182,1173.231247 388.076279,1157.119324 558.079712C1147.177917 662.975632,1100.151169 768.510101,1003.519333 773.120331C893.567368 778.366043,829.877518 653.635895,849.919342 527.360352C875.646896 365.261154,996.338821 233.149628,1157.119324 204.800049C1302.602554 179.147751,1402.879303 338.530182,1402.879303 512.000031" style="stroke:rgb(80.000305%,80.000305%,80.000305%); stroke-width: 2.000000;stroke-linejoin: round;stroke-miterlimit: 10.000000;fill: none;"></path>
  <path d="M1402.879303 512.000031C1402.879288 782.215744,1216.563660 1018.366562,952.319336 1064.959366C831.150970 1086.324356,707.178864 1086.324356,586.010498 1064.959366C311.661484 1016.584839,104.095016 789.559921,81.918732 512.000031C73.439972 405.879395,94.716553 299.496490,143.358734 204.800049" style="stroke:rgb(80.000305%,80.000305%,80.000305%); stroke-width: 2.000000;stroke-linejoin: round;stroke-miterlimit: 10.000000;fill: none;"></path>
</svg>
