<?xml version="1.0"?>

<svg version="1.1" xmlns="http://www.w3.org/2000/svg" xmlns:xlink="http://www.w3.org/1999/xlink" width="919.009094" height="1024.000000" viewBox="0 0 919.009094 1024.000000">

  <g transform="translate(522.516678 821.344757)" style="fill: rgb(0.000000%,0.000000%,0.000000%);">
    <text font-size="9.962646">vc</text>
  </g>
  <g transform="translate(757.346329 822.659271)" style="fill: rgb(0.000000%,0.000000%,0.000000%);">
    <text font-size="9.962646">bottom</text>
  </g>
  <g transform="translate(762.590576 821.690674)" style="fill: rgb(0.000000%,0.000000%,0.000000%);">
    <text font-size="9.962646">right</text>
  </g>
  <path d="M158.718735 819.200012C103.651413 764.132690,66.953766 690.145126,81.918732 614.400024C100.149246 522.126297,186.123352 460.800034,281.598724 460.800034C373.238922 460.800034,449.934677 530.827209,435.198715 614.400024C419.535355 703.232407,362.492065 779.290115,281.598724 819.200012" style="stroke:rgb(80.000305%,80.000305%,80.000305%); stroke-width: 2.000000;stroke-linejoin: round;stroke-miterlimit: 10.000000;fill: none;"></path>
  <path d="M281.598724 819.200012C433.676178 731.398300,621.043121 907.001724,773.120575 819.200012C870.992264 762.693924,821.289917 628.291107,773.120575 512.000031C731.627899 411.827866,719.258163 298.092743,773.120575 204.800049" style="stroke:rgb(80.000305%,80.000305%,80.000305%); stroke-width: 2.000000;stroke-linejoin: round;stroke-miterlimit: 10.000000;fill: none;"></path>
  <path d="M327.677307 1227.772888C235.771500 1190.357178,175.733643 1106.304550,174.077316 1012.733841C172.441223 920.306717,236.362564 836.328186,327.677307 840.705215C438.773819 846.030457,481.277298 967.570267,481.277298 1084.413528C481.277298 1084.422272,481.277298 1191.924301,481.277298 1191.933044" style="stroke:rgb(80.000305%,80.000305%,80.000305%); stroke-width: 2.000000;stroke-linejoin: round;stroke-miterlimit: 10.000000;fill: none;"></path>
  <path d="M481.277298 1084.413528C501.980713 946.930191,618.817001 824.818665,748.376968 840.705215C835.561462 851.395737,884.717087 927.235931,876.071411 1012.733841C866.432220 1108.056656,791.087524 1195.172699,690.089005 1227.772888" style="stroke:rgb(80.000305%,80.000305%,80.000305%); stroke-width: 2.000000;stroke-linejoin: round;stroke-miterlimit: 10.000000;fill: none;"></path>
</svg>
