<?xml version="1.0"?>

<svg version="1.1" xmlns="http://www.w3.org/2000/svg" xmlns:xlink="http://www.w3.org/1999/xlink" width="1275.825745" height="1024.000000" viewBox="0 0 1275.825745 1024.000000">

  <g transform="translate(589.075729 821.344757)" style="fill: rgb(0.000000%,0.000000%,0.000000%);">
    <text font-size="9.962646">vc</text>
  </g>
  <path d="M81.918732 512.000031C216.994492 430.733124,387.449692 488.133331,396.279663 614.400024C402.002869 696.240891,359.877747 773.120331,284.499146 773.120331C165.265427 773.120331,88.898834 644.432755,81.918732 512.000031C74.440826 370.122330,134.159851 231.275269,265.235916 204.800049C429.240036 171.673889,580.957291 326.654266,593.918701 512.000031C593.918701 512.016693,593.918701 716.783356,593.918701 716.800018" style="stroke:rgb(80.000305%,80.000305%,80.000305%); stroke-width: 2.000000;stroke-linejoin: round;stroke-miterlimit: 10.000000;fill: none;"></path>
  <path d="M593.918701 512.000031C593.918701 376.611542,678.248215 253.243317,798.718689 266.243790C893.297668 276.450211,950.106903 370.937698,952.318680 471.043777C955.306686 606.282089,873.503296 728.987183,747.518692 778.243759" style="stroke:rgb(80.000305%,80.000305%,80.000305%); stroke-width: 2.000000;stroke-linejoin: round;stroke-miterlimit: 10.000000;fill: none;"></path>
  <path d="M747.518692 778.243759C886.420746 727.686966,1038.694733 828.800552,1177.596786 778.243759C1275.468475 721.737671,1225.766129 587.334854,1177.596786 471.043777C1136.104111 370.871613,1123.734375 257.136490,1177.596786 163.843796" style="stroke:rgb(80.000305%,80.000305%,80.000305%); stroke-width: 2.000000;stroke-linejoin: round;stroke-miterlimit: 10.000000;fill: none;"></path>
  <path d="M846.100357 1227.772888C816.391556 1161.591599,807.153488 1087.739304,819.201508 1012.733841C835.224518 912.981750,907.810349 815.665833,1017.583496 797.694794C1105.631348 783.280411,1179.468689 833.950363,1164.153427 905.214310C1149.765305 972.164124,1065.264359 1012.733841,983.042114 1012.733841C1116.209045 1012.733841,1238.778397 1062.017578,1205.775452 1156.093201C1176.367126 1239.922333,1051.003098 1262.177322,948.500732 1227.772888" style="stroke:rgb(80.000305%,80.000305%,80.000305%); stroke-width: 2.000000;stroke-linejoin: round;stroke-miterlimit: 10.000000;fill: none;"></path>
</svg>
