<?xml version="1.0" encoding="UTF-8" standalone="no"?>
<svg
   xmlns:dc="http://purl.org/dc/elements/1.1/"
   xmlns:cc="http://creativecommons.org/ns#"
   xmlns:rdf="http://www.w3.org/1999/02/22-rdf-syntax-ns#"
   xmlns:svg="http://www.w3.org/2000/svg"
   xmlns="http://www.w3.org/2000/svg"
   xmlns:sodipodi="http://sodipodi.sourceforge.net/DTD/sodipodi-0.dtd"
   xmlns:inkscape="http://www.inkscape.org/namespaces/inkscape"
   width="283.61514"
   height="263.98126"
   id="svg2992"
   version="1.1"
   inkscape:version="1.0.1 (3bc2e813f5, 2020-09-07)"
   sodipodi:docname="ഭ.svg">
  <defs
     id="defs5498">
    <inkscape:path-effect
       effect="spiro"
       id="path-effect4142"
       is_visible="true"
       lpeversion="0" />
    <inkscape:path-effect
       effect="spiro"
       id="path-effect4140"
       is_visible="true"
       lpeversion="0" />
    <inkscape:path-effect
       effect="spiro"
       id="path-effect4140-0"
       is_visible="true"
       lpeversion="0" />
    <inkscape:path-effect
       effect="spiro"
       id="path-effect4142-8"
       is_visible="true"
       lpeversion="0" />
    <inkscape:path-effect
       effect="spiro"
       id="path-effect4142-8-3"
       is_visible="true"
       lpeversion="0" />
    <inkscape:path-effect
       effect="spiro"
       id="path-effect4142-8-7"
       is_visible="true"
       lpeversion="0" />
    <inkscape:path-effect
       effect="spiro"
       id="path-effect4142-8-7-4"
       is_visible="true"
       lpeversion="0" />
    <inkscape:path-effect
       effect="spiro"
       id="path-effect4142-8-7-4-4"
       is_visible="true"
       lpeversion="0" />
    <inkscape:path-effect
       effect="spiro"
       id="path-effect4142-8-7-1"
       is_visible="true"
       lpeversion="0" />
  </defs>
  <sodipodi:namedview
     inkscape:window-height="1015"
     inkscape:window-width="1920"
     inkscape:pageshadow="2"
     inkscape:pageopacity="0.0"
     borderopacity="1.0"
     bordercolor="#666666"
     pagecolor="#ffffff"
     id="base"
     showgrid="true"
     showguides="true"
     inkscape:guide-bbox="true"
     inkscape:zoom="0.25"
     inkscape:cx="-879.89715"
     inkscape:cy="-231.76629"
     inkscape:window-x="1920"
     inkscape:window-y="0"
     inkscape:current-layer="layer1"
     inkscape:window-maximized="1"
     inkscape:document-rotation="0">
    <sodipodi:guide
       orientation="horizontal"
       position="-508.31552,-364.36246"
       id="guide5596" />
    <inkscape:grid
       type="xygrid"
       id="grid3769"
       empspacing="3"
       visible="true"
       enabled="true"
       snapvisiblegridlinesonly="true"
       spacingx="4"
       units="px"
       dotted="true"
       spacingy="4"
       originx="-508.31552"
       originy="-819.65628" />
    <sodipodi:guide
       orientation="0,1"
       position="-1548.3155,635.6375"
       id="guide2985" />
  </sodipodi:namedview>
  <metadata
     id="metadata5594">
    <rdf:RDF>
      <cc:Work
         rdf:about="">
        <dc:format>image/svg+xml</dc:format>
        <dc:type
           rdf:resource="http://purl.org/dc/dcmitype/StillImage" />
        <dc:title />
      </cc:Work>
    </rdf:RDF>
  </metadata>
  <g
     inkscape:label="Layer 1"
     inkscape:groupmode="layer"
     id="layer1"
     transform="translate(-508.31552,228.34372)">
    <path
       style="fill:none;fill-rule:evenodd;stroke:#000000;stroke-width:35;stroke-linecap:round;stroke-linejoin:round;stroke-miterlimit:4;stroke-dasharray:none;stroke-opacity:1"
       d="m 570.36625,17.729908 c -22.80252,-19.2548262 -38.37163,-46.881616 -43.03279,-76.360025 -4.66116,-29.478409 1.62476,-60.560943 17.37419,-85.911653 16.79979,-27.0414 43.87449,-47.08428 73.98763,-57.41236 30.11314,-10.32808 63.06916,-11.23806 94.25354,-4.83457 9.22677,1.89465 18.36938,4.43034 26.92113,8.37882 8.55175,3.94848 16.52167,9.35647 22.72329,16.44611 6.20161,7.08963 10.56893,15.92642 11.5992,25.28919 1.03027,9.36277 -1.44905,19.21732 -7.43765,26.48778 -5.74255,6.97174 -14.33644,11.2184 -23.21218,12.89268 -8.87574,1.67427 -18.05253,0.9494 -26.92867,-0.72271 -17.75229,-3.34424 -35.06982,-10.46322 -53.12229,-9.80274 -10.70613,0.3917 -21.50584,3.71323 -29.74237,10.56409 -4.11827,3.42543 -7.5516,7.70089 -9.84085,12.54372 -2.28925,4.842836 -3.41676,10.254305 -3.06871,15.599634 0.40979,6.293603 2.86184,12.384963 6.62575,17.445629 3.76391,5.060666 8.80339,9.110548 14.38403,12.048885 11.16128,5.876674 24.16457,7.272968 36.77441,6.954545 12.60984,-0.318422 25.13912,-2.238214 37.74938,-2.539468 12.61027,-0.301254 25.61389,1.131547 36.75107,7.053759 5.93463,3.155746 11.25671,7.592489 14.98288,13.186609 3.72618,5.594119 5.78895,12.378618 5.2714,19.080161 -0.49887,6.4595766 -3.3724,12.6283879 -7.60765,17.5312038 -4.23526,4.9028158 -9.77976,8.5802272 -15.75332,11.0885312 -11.94712,5.016607 -25.26704,5.401676 -38.22466,5.399789 -27.85747,-0.0041 -55.71467,-1.460154 -83.42076,-4.360405"
       id="path4138-3-8-6-7"
       inkscape:connector-curvature="0"
       sodipodi:nodetypes="caaaaaaaac"
       inkscape:path-effect="#path-effect4142-8-7"
       inkscape:original-d="m 570.36625,17.729908 c 0,0 -53.3336,-115.016679 -25.6586,-162.271678 30.21857,-51.59814 111.15235,-80.03447 168.24117,-62.24693 29.79094,9.28216 67.87544,48.75035 53.80597,76.6019 -15.52435,30.731518 -71.28833,-10.40158 -103.26314,2.36723 -17.82998,7.12022 -46.81043,19.9641 -42.65193,38.707444 9.99833,45.064795 95.68471,12.834228 132.28464,40.96335 10.0688,7.73845 23.4303,19.97135 20.25428,32.26677 -5.86545,22.7070385 -38.73085,28.759074 -61.58563,34.019524 -27.13538,6.24572 -83.42076,-4.360405 -83.42076,-4.360405" />
  </g>
</svg>
