<?xml version="1.0"?>

<svg version="1.1" xmlns="http://www.w3.org/2000/svg" xmlns:xlink="http://www.w3.org/1999/xlink" width="1224.625748" height="1024.000000" viewBox="0 0 1224.625748 1024.000000">

  <g transform="translate(486.675735 821.344757)" style="fill: rgb(0.000000%,0.000000%,0.000000%);">
    <text font-size="9.962646">vc</text>
  </g>
  <g transform="translate(1110.622543 822.659271)" style="fill: rgb(0.000000%,0.000000%,0.000000%);">
    <text font-size="9.962646">bottom</text>
  </g>
  <g transform="translate(1115.866791 821.690674)" style="fill: rgb(0.000000%,0.000000%,0.000000%);">
    <text font-size="9.962646">right</text>
  </g>
  <path d="M286.718719 819.200012C174.569855 754.033051,98.938660 640.586288,81.918732 512.000031C61.365112 356.716629,145.839066 204.800049,286.718719 204.800049C455.172211 204.800049,491.518707 418.280975,491.518707 614.400024C491.518707 614.412521,491.518707 767.987518,491.518707 768.000015" style="stroke:rgb(80.000305%,80.000305%,80.000305%); stroke-width: 2.000000;stroke-linejoin: round;stroke-miterlimit: 10.000000;fill: none;"></path>
  <path d="M491.518707 614.400024C491.518707 460.642624,557.249115 305.712601,696.318695 296.959412C806.173111 290.045059,891.521027 386.748932,901.118683 501.759399C912.483307 637.943588,825.692657 761.870575,696.318695 808.959381" style="stroke:rgb(80.000305%,80.000305%,80.000305%); stroke-width: 2.000000;stroke-linejoin: round;stroke-miterlimit: 10.000000;fill: none;"></path>
  <path d="M696.318695 808.959381C835.220749 758.402588,987.494736 859.516174,1126.396790 808.959381C1224.268478 752.453293,1174.566132 618.050476,1126.396790 501.759399C1084.904114 401.587234,1072.534378 287.852112,1126.396790 194.559418" style="stroke:rgb(80.000305%,80.000305%,80.000305%); stroke-width: 2.000000;stroke-linejoin: round;stroke-miterlimit: 10.000000;fill: none;"></path>
</svg>
