<?xml version="1.0"?>

<svg version="1.1" xmlns="http://www.w3.org/2000/svg" xmlns:xlink="http://www.w3.org/1999/xlink" width="958.869446" height="1024.000000" viewBox="0 0 958.869446 1024.000000">

  <g transform="translate(286.996063 821.344757)" style="fill: rgb(0.000000%,0.000000%,0.000000%);">
    <text font-size="9.962646">vc</text>
  </g>
  <g transform="translate(886.361603 1073.538940)" style="fill: rgb(0.000000%,0.000000%,0.000000%);">
    <text font-size="9.962646">bottom</text>
  </g>
  <g transform="translate(891.605850 1072.570343)" style="fill: rgb(0.000000%,0.000000%,0.000000%);">
    <text font-size="9.962646">right</text>
  </g>
  <path d="M240.639038 312.320358C270.808121 228.893402,359.636307 182.258469,445.439026 204.800049C568.420151 237.108917,617.626587 377.679672,599.039017 512.000031C575.404099 682.794357,454.103699 829.768448,291.839035 819.200012C181.168091 811.991913,92.186783 724.620758,87.039047 614.400024C81.471436 495.189209,177.251480 395.592331,291.839035 409.600037C393.643570 422.045090,452.112503 519.793793,496.639023 614.400024C541.738419 710.223450,598.520370 812.279800,701.439011 819.200012C841.155746 828.594513,925.792603 672.696243,906.238998 512.000031C891.996429 394.951172,837.732559 286.423416,752.639008 204.800049" style="stroke:rgb(80.000305%,80.000305%,80.000305%); stroke-width: 2.000000;stroke-linejoin: round;stroke-miterlimit: 10.000000;fill: none;"></path>
  <path d="M701.439011 819.200012C583.109634 929.446152,443.813751 1014.764786,291.839035 1070.079681C488.946213 998.337723,705.028671 1141.821640,902.135849 1070.079681C850.299301 927.661545,850.299301 771.532974,902.135849 629.114838" style="stroke:rgb(80.000305%,80.000305%,80.000305%); stroke-width: 2.000000;stroke-linejoin: round;stroke-miterlimit: 10.000000;fill: none;"></path>
</svg>
