<?xml version="1.0" encoding="UTF-8" standalone="no"?>
<svg
   xmlns:dc="http://purl.org/dc/elements/1.1/"
   xmlns:cc="http://creativecommons.org/ns#"
   xmlns:rdf="http://www.w3.org/1999/02/22-rdf-syntax-ns#"
   xmlns:svg="http://www.w3.org/2000/svg"
   xmlns="http://www.w3.org/2000/svg"
   xmlns:sodipodi="http://sodipodi.sourceforge.net/DTD/sodipodi-0.dtd"
   xmlns:inkscape="http://www.inkscape.org/namespaces/inkscape"
   width="492.06107"
   height="345.86841"
   id="svg2992"
   version="1.1"
   inkscape:version="1.0.1 (3bc2e813f5, 2020-09-07)"
   sodipodi:docname="രൂ.svg">
  <defs
     id="defs5498">
    <inkscape:path-effect
       effect="spiro"
       id="path-effect845"
       is_visible="true"
       lpeversion="1" />
    <inkscape:path-effect
       effect="spiro"
       id="path-effect4574"
       is_visible="true"
       lpeversion="0" />
    <inkscape:path-effect
       effect="spiro"
       id="path-effect4141-3-4-6-8-86"
       is_visible="true"
       lpeversion="0" />
    <inkscape:path-effect
       effect="spiro"
       id="path-effect4141-3-4-6-8-86-1"
       is_visible="true"
       lpeversion="0" />
    <inkscape:path-effect
       effect="spiro"
       id="path-effect4141-3-4-6-8-86-1-7"
       is_visible="true"
       lpeversion="0" />
    <inkscape:path-effect
       effect="spiro"
       id="path-effect4141-3-4-6-8-86-1-0"
       is_visible="true"
       lpeversion="0" />
    <inkscape:path-effect
       effect="spiro"
       id="path-effect4141-3-4-6-8-86-1-3"
       is_visible="true"
       lpeversion="0" />
    <inkscape:path-effect
       effect="spiro"
       id="path-effect4141-3-4-6-8-86-1-38"
       is_visible="true"
       lpeversion="0" />
    <inkscape:path-effect
       effect="spiro"
       id="path-effect4141-3-4-6-8-86-1-4"
       is_visible="true"
       lpeversion="0" />
    <inkscape:path-effect
       effect="spiro"
       id="path-effect4141-3-4-6-8-86-1-4-0"
       is_visible="true"
       lpeversion="0" />
    <inkscape:path-effect
       effect="spiro"
       id="path-effect4141-3-4-6-8-86-1-9"
       is_visible="true"
       lpeversion="0" />
    <inkscape:path-effect
       effect="spiro"
       id="path-effect4141-3-4-6-8-86-1-9-0"
       is_visible="true"
       lpeversion="0" />
  </defs>
  <sodipodi:namedview
     inkscape:window-height="1015"
     inkscape:window-width="1920"
     inkscape:pageshadow="2"
     inkscape:pageopacity="0.0"
     borderopacity="1.0"
     bordercolor="#666666"
     pagecolor="#ffffff"
     id="base"
     showgrid="true"
     showguides="true"
     inkscape:guide-bbox="true"
     inkscape:zoom="0.6178095"
     inkscape:cx="246.03052"
     inkscape:cy="172.93423"
     inkscape:window-x="1920"
     inkscape:window-y="0"
     inkscape:current-layer="layer1"
     inkscape:window-maximized="1"
     inkscape:document-rotation="0">
    <sodipodi:guide
       orientation="horizontal"
       position="-380.11234,384.08757"
       id="guide5596" />
    <inkscape:grid
       type="xygrid"
       id="grid3769"
       empspacing="5"
       visible="true"
       enabled="true"
       snapvisiblegridlinesonly="true"
       originx="-2155.3772"
       originy="-1250.149" />
    <sodipodi:guide
       orientation="0,1"
       position="-1660.1123,1384.0876"
       id="guide4138" />
  </sodipodi:namedview>
  <metadata
     id="metadata5594">
    <rdf:RDF>
      <cc:Work
         rdf:about="">
        <dc:format>image/svg+xml</dc:format>
        <dc:type
           rdf:resource="http://purl.org/dc/dcmitype/StillImage" />
        <dc:title />
      </cc:Work>
    </rdf:RDF>
  </metadata>
  <g
     inkscape:label="Layer 1"
     inkscape:groupmode="layer"
     id="layer1"
     transform="translate(-380.11234,118.27558)">
    <path
       style="fill:none;fill-rule:evenodd;stroke:#000000;stroke-width:35;stroke-linecap:round;stroke-linejoin:round;stroke-miterlimit:4;stroke-dasharray:none;stroke-opacity:1"
       d="m 558.60884,123.99857 c -33.5444,-19.0632 -57.09702,-54.730878 -61.45524,-93.066739 -2.87351,-25.2760613 2.36272,-51.462119 15.03167,-73.521906 12.66894,-22.059788 32.74815,-39.838147 56.3097,-49.429283 19.1748,-7.805436 40.47817,-10.188592 60.95461,-7.136836 20.47644,3.051754 40.08448,11.496311 56.57212,24.016511 32.97529,25.040401 52.37154,66.2495647 53.08841,107.648567 0.36067,20.828527 -3.92143,42.184728 -15.27101,59.653115 -5.67479,8.734191 -13.07534,16.395391 -21.8503,22.006931 -8.77497,5.61155 -18.93658,9.13564 -29.33528,9.73265 -11.43949,0.65677 -22.99242,-2.25223 -33.00338,-7.82663 -10.01097,-5.57439 -18.48844,-13.75721 -24.8313,-23.299813 -12.68573,-19.085212 -16.58275,-43.058081 -14.35027,-65.865736 3.72236,-38.028738 24.19121,-73.952691 54.48945,-97.234813 30.29825,-23.282123 69.90712,-33.803788 107.87379,-29.494161 19.85045,2.253242 39.50933,8.542431 55.74474,20.184124 16.23541,11.641693 28.81748,28.924805 32.76339,48.509171 3.70206,18.374095 -0.5135,38.2062353 -11.36908,53.485928 -10.85558,15.279692 -28.19537,25.787622 -46.76422,28.339169 19.56243,2.249172 37.94895,13.270067 49.15365,29.462729 11.20469,16.192661 15.0383,37.283602 10.2486,56.383502 -3.70496,14.77429 -12.30362,28.10501 -23.45229,38.48353 -11.14866,10.37852 -24.7692,17.89671 -39.13088,22.971 -28.72337,10.14857 -59.82523,10.64019 -90.28616,11.03658 l -69.47693,0.9041 c -28.25786,0.36772 -56.71452,0.42122 -84.49669,-4.75497 -27.78217,-5.17619 -54.76852,-15.62915 -77.70639,-32.13661 -22.93787,-16.50745 -41.58668,-38.91628 -53.63538,-64.47935 -12.0487,-25.563073 -17.52277,-54.072507 -16.73772,-82.321852 1.2824,-46.146048 19.46492,-91.636831 50.3432,-125.953506"
       id="path4139-1-0-4-2-1-2"
       inkscape:connector-curvature="0"
       sodipodi:nodetypes="caaaaaaacassac"
       inkscape:path-effect="#path-effect845"
       inkscape:original-d="m 558.60884,123.99857 c 0,0 -60.38024,-55.906776 -61.45524,-93.066739 -1.37018,-47.363474 24.97222,-113.200369 71.34137,-122.951189 68.90201,-14.489182 159.69047,54.97197 170.61514,124.528242 5.8444,37.210648 -28.79035,91.183976 -66.45659,91.392696 -40.30123,0.22331 -77.57406,-57.052271 -72.18495,-96.992179 9.18051,-68.038814 93.70793,-126.634834 162.36324,-126.728974 37.3459,-0.0512 83.05513,31.747625 88.50813,68.693295 4.8853,33.0992396 -58.1333,81.825097 -58.1333,81.825097 0,0 68.39335,52.229701 59.40225,85.846231 -14.5714,54.48043 -74.81948,71.47545 -152.86933,72.49111 l -69.47693,0.9041 c -88.51262,1.15181 -207.08141,-88.24945 -232.57618,-183.692782 -11.66841,-43.682384 50.3432,-125.953506 50.3432,-125.953506" />
  </g>
</svg>
