<?xml version="1.0"?>

<svg version="1.1" xmlns="http://www.w3.org/2000/svg" xmlns:xlink="http://www.w3.org/1999/xlink" width="873.337418" height="1024.000000" viewBox="0 0 873.337418 1024.000000">

  <g transform="translate(336.044495 821.344757)" style="fill: rgb(0.000000%,0.000000%,0.000000%);">
    <text font-size="9.962646">vc</text>
  </g>
  <g transform="translate(749.415710 1044.960526)" style="fill: rgb(0.000000%,0.000000%,0.000000%);">
    <text font-size="9.962646">right</text>
  </g>
  <path d="M95.742081 512.000031C236.033951 408.063492,411.315857 483.221603,400.231339 642.560181C394.069275 731.139114,320.046646 813.047272,232.549973 819.200012C94.680573 828.894943,53.890564 670.952454,81.918732 512.000031C105.609039 377.648392,207.758926 256.473755,340.887466 204.800049C542.987930 126.354950,745.885483 209.613022,717.906982 358.400040C699.921890 454.043045,594.296112 512.000031,491.518707 512.000031C657.976730 512.000031,811.187836 582.405670,769.934311 716.800018C747.740250 789.103104,683.801041 836.851410,615.676849 870.400009C452.747253 950.636703,266.112122 961.989670,95.742081 1024.000000" style="stroke:rgb(80.000305%,80.000305%,80.000305%); stroke-width: 2.000000;stroke-linejoin: round;stroke-miterlimit: 10.000000;fill: none;"></path>
  <path d="M95.742081 1024.000000C213.564407 981.115692,341.179245 1002.275131,464.385803 1024.000000C587.040405 1045.627548,714.083557 1066.692184,831.378052 1024.000000" style="stroke:rgb(80.000305%,80.000305%,80.000305%); stroke-width: 2.000000;stroke-linejoin: round;stroke-miterlimit: 10.000000;fill: none;"></path>
</svg>
