<?xml version="1.0"?>

<svg version="1.1" xmlns="http://www.w3.org/2000/svg" xmlns:xlink="http://www.w3.org/1999/xlink" width="1017.272095" height="1024.000000" viewBox="0 0 1017.272095 1024.000000">

  <g transform="translate(589.075729 223.076782)" style="fill: rgb(0.000000%,0.000000%,0.000000%);">
    <text font-size="9.962646">vc</text>
  </g>
  <g transform="translate(787.762085 751.233551)" style="fill: rgb(0.000000%,0.000000%,0.000000%);">
    <text font-size="9.962646">right</text>
  </g>
  <path d="M184.318726 206.336227C117.849808 290.529922,81.918732 392.933151,81.918732 498.175278C81.918732 619.807053,124.172668 746.238770,235.518723 746.238770C363.719284 746.238770,370.595840 587.492599,389.118713 454.399719C404.853546 341.339859,478.617981 238.816986,593.918701 220.932037C777.760651 192.415283,918.678299 371.643051,901.118683 571.142456C892.790085 665.765915,840.225021 757.071976,747.518692 760.828629C655.887894 764.541718,591.368896 679.488800,593.918701 585.723419C597.444855 456.053726,708.489441 352.255737,844.798370 352.255737" style="stroke:rgb(80.000305%,80.000305%,80.000305%); stroke-width: 2.000000;stroke-linejoin: round;stroke-miterlimit: 10.000000;fill: none;"></path>
  <path d="M419.835907 1210.882797C327.930099 1170.794357,267.892242 1080.737579,266.235916 980.482819C264.599823 881.453323,328.521164 791.475937,419.835907 796.165634C530.932419 801.871262,573.435898 932.093048,573.435898 1057.282806C573.435898 1057.292175,573.435898 1172.473434,573.435898 1172.482803" style="stroke:rgb(80.000305%,80.000305%,80.000305%); stroke-width: 2.000000;stroke-linejoin: round;stroke-miterlimit: 10.000000;fill: none;"></path>
  <path d="M573.435898 1057.282806C596.831863 890.821136,707.107681 732.941635,847.012436 750.082825C949.059479 762.585663,993.876389 870.150589,968.230011 980.482819C945.492737 1078.299850,875.536819 1164.963135,782.247604 1210.882797" style="stroke:rgb(80.000305%,80.000305%,80.000305%); stroke-width: 2.000000;stroke-linejoin: round;stroke-miterlimit: 10.000000;fill: none;"></path>
</svg>
