<?xml version="1.0"?>

<svg version="1.1" xmlns="http://www.w3.org/2000/svg" xmlns:xlink="http://www.w3.org/1999/xlink" width="1200.888992" height="1024.000000" viewBox="0 0 1200.888992 1024.000000">

  <g transform="translate(947.475708 821.344757)" style="fill: rgb(0.000000%,0.000000%,0.000000%);">
    <text font-size="9.962646">vc</text>
  </g>
  <g transform="translate(1001.732407 809.600922)" style="fill: rgb(0.000000%,0.000000%,0.000000%);">
    <text font-size="9.962646">bottom</text>
  </g>
  <g transform="translate(1006.976654 808.632324)" style="fill: rgb(0.000000%,0.000000%,0.000000%);">
    <text font-size="9.962646">right</text>
  </g>
  <path d="M286.718719 819.200012C175.662262 752.878098,100.424957 640.022110,81.918732 512.000031C59.068268 353.925293,145.606430 199.733337,286.718719 204.800049C423.179810 209.699753,491.518707 360.605423,491.518707 512.000031C491.518707 512.016693,491.518707 716.783356,491.518707 716.800018" style="stroke:rgb(80.000305%,80.000305%,80.000305%); stroke-width: 2.000000;stroke-linejoin: round;stroke-miterlimit: 10.000000;fill: none;"></path>
  <path d="M491.518707 512.000031C515.888855 397.346603,590.719055 282.513596,694.744949 278.525040C820.548279 273.701492,848.719162 425.106171,785.658508 573.443771C738.929337 683.364822,783.751266 792.036026,887.021805 819.200012C1042.456284 860.085052,1176.145813 698.598618,1157.118668 512.000031C1143.865723 382.028931,1067.194733 267.022415,952.318680 204.800049" style="stroke:rgb(80.000305%,80.000305%,80.000305%); stroke-width: 2.000000;stroke-linejoin: round;stroke-miterlimit: 10.000000;fill: none;"></path>
</svg>
