<?xml version="1.0"?>

<svg version="1.1" xmlns="http://www.w3.org/2000/svg" xmlns:xlink="http://www.w3.org/1999/xlink" width="1410.358566" height="1024.000000" viewBox="0 0 1410.358566 1024.000000">

  <g transform="translate(77.075760 821.344757)" style="fill: rgb(0.000000%,0.000000%,0.000000%);">
    <text font-size="9.962646">vc</text>
  </g>
  <g transform="translate(1189.369766 932.483810)" style="fill: rgb(0.000000%,0.000000%,0.000000%);">
    <text font-size="9.962646">right</text>
  </g>
  <path d="M491.518707 819.200012C380.462250 752.878098,305.224945 640.022110,286.718719 512.000031C263.868256 353.925293,350.406418 199.733337,491.518707 204.800049C627.979797 209.699753,696.318695 360.605423,696.318695 512.000031C696.318695 512.016693,696.318695 716.783356,696.318695 716.800018" style="stroke:rgb(80.000305%,80.000305%,80.000305%); stroke-width: 2.000000;stroke-linejoin: round;stroke-miterlimit: 10.000000;fill: none;"></path>
  <path d="M696.318695 512.000031C720.688843 397.346603,795.519043 282.513596,899.544937 278.525040C1025.348267 273.701492,1053.519150 425.106171,990.458496 573.443771C943.729324 683.364822,988.551254 792.036026,1091.821793 819.200012C1247.256271 860.085052,1380.945801 698.598618,1361.918655 512.000031C1348.665710 382.028931,1271.994720 267.022415,1157.118668 204.800049" style="stroke:rgb(80.000305%,80.000305%,80.000305%); stroke-width: 2.000000;stroke-linejoin: round;stroke-miterlimit: 10.000000;fill: none;"></path>
  <path d="M1361.918655 512.000031C1409.787323 783.480148,1186.157959 1019.542709,899.544937 1070.079681C794.205200 1088.653687,686.427979 1088.653687,581.088242 1070.079681C306.595779 1021.679871,102.333832 790.554947,81.918732 512.000031C74.144348 405.922043,95.383148 299.728027,143.358734 204.800049" style="stroke:rgb(80.000305%,80.000305%,80.000305%); stroke-width: 2.000000;stroke-linejoin: round;stroke-miterlimit: 10.000000;fill: none;"></path>
</svg>
