<?xml version="1.0"?>

<svg version="1.1" xmlns="http://www.w3.org/2000/svg" xmlns:xlink="http://www.w3.org/1999/xlink" width="1403.666031" height="1024.000000" viewBox="0 0 1403.666031 1024.000000">

  <g transform="translate(711.955734 824.224747)" style="fill: rgb(0.000000%,0.000000%,0.000000%);">
    <text font-size="9.962646">vc</text>
  </g>
  <g transform="translate(1149.055786 934.214401)" style="fill: rgb(0.000000%,0.000000%,0.000000%);">
    <text font-size="9.962646">right</text>
  </g>
  <path d="M363.518723 819.200012C308.451401 764.132690,271.753754 690.145126,286.718719 614.400024C304.949234 522.126297,390.923340 460.800034,486.398712 460.800034C578.038910 460.800034,654.734665 530.827209,639.998703 614.400024C624.335342 703.232407,567.292053 779.290115,486.398712 819.200012" style="stroke:rgb(80.000305%,80.000305%,80.000305%); stroke-width: 2.000000;stroke-linejoin: round;stroke-miterlimit: 10.000000;fill: none;"></path>
  <path d="M486.398712 819.200012C635.222992 765.031784,798.374405 873.368240,947.198685 842.239853C862.351471 757.392639,788.984985 654.394897,793.598694 535.039871C800.539230 355.490433,965.677368 227.839890,1151.998672 227.839890C1294.906860 227.839890,1384.111343 380.140015,1356.798660 535.039871" style="stroke:rgb(80.000305%,80.000305%,80.000305%); stroke-width: 2.000000;stroke-linejoin: round;stroke-miterlimit: 10.000000;fill: none;"></path>
  <path d="M1356.798660 535.039871C1313.380371 843.971069,1072.059113 1090.225784,763.569244 1116.159363C444.971375 1142.942688,158.266388 926.709152,81.918732 614.400024C48.010986 475.696381,61.771088 328.378143,133.118729 204.800049" style="stroke:rgb(80.000305%,80.000305%,80.000305%); stroke-width: 2.000000;stroke-linejoin: round;stroke-miterlimit: 10.000000;fill: none;"></path>
</svg>
