<?xml version="1.0" encoding="UTF-8" standalone="no"?>
<svg
   version="1.1"
   width="554.141403"
   height="1024.000000"
   viewBox="0 0 554.141403 1024.000000"
   id="svg6"
   sodipodi:docname="ൂ.svg"
   inkscape:version="1.2.2 (b0a8486541, 2022-12-01)"
   xmlns:inkscape="http://www.inkscape.org/namespaces/inkscape"
   xmlns:sodipodi="http://sodipodi.sourceforge.net/DTD/sodipodi-0.dtd"
   xmlns="http://www.w3.org/2000/svg"
   xmlns:svg="http://www.w3.org/2000/svg">
  <defs
     id="defs10" />
  <sodipodi:namedview
     id="namedview8"
     pagecolor="#ffffff"
     bordercolor="#666666"
     borderopacity="1.0"
     inkscape:showpageshadow="2"
     inkscape:pageopacity="0.0"
     inkscape:pagecheckerboard="0"
     inkscape:deskcolor="#d1d1d1"
     showgrid="false"
     inkscape:zoom="0.23046875"
     inkscape:cx="219.11864"
     inkscape:cy="514.16949"
     inkscape:window-width="1920"
     inkscape:window-height="1012"
     inkscape:window-x="0"
     inkscape:window-y="0"
     inkscape:window-maximized="1"
     inkscape:current-layer="svg6" />
  <path
     d="M 81.918732,24.80005 C 150.11191,-2.74857 228.21715,23.28784 266.2406,86.24379 c 44.17134,73.13509 16.45811,162.00896 0,245.75624 -19.93314,101.42995 -19.93314,205.77004 0,307.19998"
     style="fill:none;stroke:#cccccc;stroke-width:2;stroke-linejoin:round;stroke-miterlimit:10"
     id="path2" />
  <path
     d="m 266.2406,639.20001 c 67.86371,0 122.87811,55.01441 122.87811,122.87811 0,67.86368 -55.0144,122.87808 -122.87811,122.87808 -67.86371,0 -122.87811,-55.0144 -122.87811,-122.87808 0,-64.28672 56.90898,-110.9998 122.87811,-122.87811 123.24103,-22.19061 240.57481,62.50893 245.75624,184.32189 6.19829,145.7189 -144.3513,246.087 -276.4781,184.3219"
     style="fill:none;stroke:#cccccc;stroke-width:2;stroke-linejoin:round;stroke-miterlimit:10"
     id="path4" />
</svg>
