<?xml version="1.0"?>

<svg version="1.1" xmlns="http://www.w3.org/2000/svg" xmlns:xlink="http://www.w3.org/1999/xlink" width="554.141403" height="1024.000000" viewBox="0 0 554.141403 1024.000000">

  <path d="M81.918732 204.800049C150.111908 177.251434,228.217148 203.287842,266.240601 266.243790C310.411942 339.378876,282.698715 428.252747,266.240601 512.000031C246.307465 613.429977,246.307465 717.770065,266.240601 819.200012" style="stroke:rgb(80.000305%,80.000305%,80.000305%); stroke-width: 2.000000;stroke-linejoin: round;stroke-miterlimit: 10.000000;fill: none;"></path>
  <path d="M266.240601 819.200012C334.104309 819.200012,389.118713 874.214417,389.118713 942.078125C389.118713 1009.941833,334.104309 1064.956238,266.240601 1064.956238C198.376892 1064.956238,143.362488 1009.941833,143.362488 942.078125C143.362488 877.791397,200.271469 831.078323,266.240601 819.200012C389.481628 797.009399,506.815414 881.708939,511.996841 1003.521881C518.195129 1149.240814,367.645538 1249.608917,235.518738 1187.843750" style="stroke:rgb(80.000305%,80.000305%,80.000305%); stroke-width: 2.000000;stroke-linejoin: round;stroke-miterlimit: 10.000000;fill: none;"></path>
</svg>
