<?xml version="1.0"?>

<svg version="1.1" xmlns="http://www.w3.org/2000/svg" xmlns:xlink="http://www.w3.org/1999/xlink" width="960.523071" height="1024.000000" viewBox="0 0 960.523071 1024.000000">

  <path d="M240.639038 312.320358C270.806839 228.892288,359.636108 182.256775,445.439026 204.800049C568.417908 237.110672,617.617996 377.680435,599.039017 512.000031C575.412094 682.814499,454.104263 829.810547,291.839035 819.200012C181.201981 811.965439,92.276413 724.602921,87.039047 614.400024C81.365463 495.018372,177.258011 395.242035,291.839035 409.600037C393.515137 422.340942,451.146179 520.497787,496.639023 614.400024C542.289047 708.626709,599.407639 808.020691,701.439011 819.200012C849.976456 835.474884,955.705704 673.172821,906.238998 512.000031C872.254074 401.270142,771.563797 319.801468,752.639008 204.800049C733.877930 90.793472,798.152512 -20.617371,906.238998 -61.443680" style="stroke:rgb(80.000305%,80.000305%,80.000305%); stroke-width: 2.000000;stroke-linejoin: round;stroke-miterlimit: 10.000000;fill: none;"></path>
</svg>
