<?xml version="1.0"?>

<svg version="1.1" xmlns="http://www.w3.org/2000/svg" xmlns:xlink="http://www.w3.org/1999/xlink" width="1081.346252" height="1024.000000" viewBox="0 0 1081.346252 1024.000000">

  <path d="M127.998413 865.279694C151.989044 764.284851,151.989044 659.074554,127.998413 558.079712C102.560364 450.991608,57.758957 334.328156,127.998413 250.879730C257.741745 96.737366,483.109756 260.365356,619.520264 496.635971C702.524170 640.403381,616.591492 817.519058,465.920273 819.200012C379.706955 820.161850,308.898193 750.825424,312.320282 665.600021C316.310883 566.216187,413.715759 499.134735,517.120270 512.000031C652.614883 528.857880,746.478348 675.807495,885.763992 665.600021C969.527832 659.461426,1037.928940 594.633377,1039.363983 512.000031C1040.835754 427.251816,971.150848 358.715561,885.763992 358.400040C758.760712 357.930740,675.702454 491.327301,732.164001 605.090851" style="stroke:rgb(80.000305%,80.000305%,80.000305%); stroke-width: 2.000000;stroke-linejoin: round;stroke-miterlimit: 10.000000;fill: none;"></path>
</svg>
