<?xml version="1.0"?>

<svg version="1.1" xmlns="http://www.w3.org/2000/svg" xmlns:xlink="http://www.w3.org/1999/xlink" width="1662.270950" height="1024.000000" viewBox="0 0 1662.270950 1024.000000">

  <path d="M286.718719 819.200012C176.384064 752.122528,101.399994 639.646439,81.918732 512.000031C57.499039 351.995743,145.584457 196.384171,286.718719 204.800049C421.383575 212.830154,478.711258 364.800354,491.518707 512.000031C505.205994 669.311874,561.356781 832.581558,696.318695 819.200012C821.445221 806.793655,850.890259 653.316422,849.918686 512.000031C848.789780 347.799728,919.503448 186.483536,1054.718674 204.800049C1179.003281 221.635880,1202.224930 374.399811,1208.318665 512.000031C1214.959427 661.952698,1277.591644 813.904709,1413.118652 819.200012C1552.870056 824.660370,1635.722214 670.364670,1617.918640 512.000031C1604.724655 394.638168,1550.291748 285.772354,1464.318649 204.800049" style="stroke:rgb(80.000305%,80.000305%,80.000305%); stroke-width: 2.000000;stroke-linejoin: round;stroke-miterlimit: 10.000000;fill: none;"></path>
</svg>
