<?xml version="1.0"?>

<svg version="1.1" xmlns="http://www.w3.org/2000/svg" xmlns:xlink="http://www.w3.org/1999/xlink" width="2235.710678" height="1024.000000" viewBox="0 0 2235.710678 1024.000000">

  <path d="M81.918732 819.200012C143.116669 759.037521,194.898148 689.995544,235.518723 614.400024C303.169235 488.501328,338.363907 347.722672,337.918716 204.800049" style="stroke:rgb(80.000305%,80.000305%,80.000305%); stroke-width: 2.000000;stroke-linejoin: round;stroke-miterlimit: 10.000000;fill: none;"></path>
  <path d="M337.918716 204.800049C314.009445 305.569458,300.287170 408.486511,296.958725 512.000031C291.643890 677.289764,366.171127 838.014496,501.758713 819.200012C625.953964 801.966354,650.772888 649.835327,655.358704 512.000031C660.465683 358.499771,724.234848 203.430527,860.158691 204.800049C995.458344 206.163284,1053.853943 361.309311,1064.958679 512.000031C1076.619751 670.240326,1134.789261 833.050461,1269.758667 819.200012C1394.818283 806.366501,1424.194794 653.089127,1423.358658 512.000031C1422.385864 347.853546,1492.952698 186.518707,1628.158646 204.800049C1752.449646 221.605576,1775.673645 374.384598,1781.758636 512.000031C1788.389282 661.956070,1851.030258 813.907181,1986.558624 819.200012C2126.309998 824.657776,2209.161057 670.363174,2191.358612 512.000031C2178.165314 394.637955,2123.732300 285.771927,2037.758621 204.800049" style="stroke:rgb(80.000305%,80.000305%,80.000305%); stroke-width: 2.000000;stroke-linejoin: round;stroke-miterlimit: 10.000000;fill: none;"></path>
</svg>
