<?xml version="1.0"?>

<svg version="1.1" xmlns="http://www.w3.org/2000/svg" xmlns:xlink="http://www.w3.org/1999/xlink" width="1103.020218" height="1024.000000" viewBox="0 0 1103.020218 1024.000000">

  <g transform="translate(230.675751 821.344757)" style="fill: rgb(0.000000%,0.000000%,0.000000%);">
    <text font-size="9.962646">vc</text>
  </g>
  <g transform="translate(1018.621948 441.996841)" style="fill: rgb(0.000000%,0.000000%,0.000000%);">
    <text font-size="9.962646">bottom</text>
  </g>
  <g transform="translate(1023.866196 441.028244)" style="fill: rgb(0.000000%,0.000000%,0.000000%);">
    <text font-size="9.962646">right</text>
  </g>
  <path d="M81.918732 1024.000000C177.686630 1024.000000,235.518723 924.089737,235.518723 819.200012L235.518723 512.000031L235.518723 204.800049C235.518723 307.200226,235.084335 409.600677,235.518723 512.000031C236.227554 679.097244,306.229019 842.843353,440.318710 819.200012C574.382767 795.561188,645.118698 655.280746,645.118698 512.000031C645.118698 511.983368,645.118698 307.216705,645.118698 307.200043" style="stroke:rgb(80.000305%,80.000305%,80.000305%); stroke-width: 2.000000;stroke-linejoin: round;stroke-miterlimit: 10.000000;fill: none;"></path>
  <path d="M645.118698 512.000031C645.118698 655.280746,715.854630 795.561188,849.918686 819.200012C989.664185 843.840607,1087.446869 682.383545,1054.718674 512.000031C1030.557922 386.218811,956.731842 275.479660,849.918686 204.800049" style="stroke:rgb(80.000305%,80.000305%,80.000305%); stroke-width: 2.000000;stroke-linejoin: round;stroke-miterlimit: 10.000000;fill: none;"></path>
</svg>
