<?xml version="1.0"?>

<svg version="1.1" xmlns="http://www.w3.org/2000/svg" xmlns:xlink="http://www.w3.org/1999/xlink" width="1549.025101" height="1024.000000" viewBox="0 0 1549.025101 1024.000000">

  <path d="M158.718735 819.200012C103.651413 764.132690,66.953766 690.145126,81.918732 614.400024C100.149246 522.126297,186.123352 460.800034,281.598724 460.800034C373.238922 460.800034,449.934677 530.827209,435.198715 614.400024C419.535355 703.232407,362.492065 779.290115,281.598724 819.200012" style="stroke:rgb(80.000305%,80.000305%,80.000305%); stroke-width: 2.000000;stroke-linejoin: round;stroke-miterlimit: 10.000000;fill: none;"></path>
  <path d="M281.598724 819.200012C477.763306 747.801132,688.876938 819.200012,895.998688 819.200012" style="stroke:rgb(80.000305%,80.000305%,80.000305%); stroke-width: 2.000000;stroke-linejoin: round;stroke-miterlimit: 10.000000;fill: none;"></path>
  <path d="M895.998688 819.200012C1087.586411 819.200012,1282.866623 885.244003,1464.318970 819.200012C1535.550201 793.273666,1505.077118 697.049637,1464.318970 614.400024C1416.566452 517.567184,1416.566452 404.032883,1464.318970 307.200043" style="stroke:rgb(80.000305%,80.000305%,80.000305%); stroke-width: 2.000000;stroke-linejoin: round;stroke-miterlimit: 10.000000;fill: none;"></path>
  <path d="M1049.598679 665.600021C940.444092 632.130737,874.163544 521.663162,895.998688 409.600037C922.579376 273.181686,1060.202805 192.414963,1203.198669 204.800049C1323.995071 215.262405,1427.083160 301.365082,1407.998657 409.600037C1372.507721 610.881699,1205.500214 754.838882,1011.252502 825.540070" style="stroke:rgb(80.000305%,80.000305%,80.000305%); stroke-width: 2.000000;stroke-linejoin: round;stroke-miterlimit: 10.000000;fill: none;"></path>
</svg>
