<?xml version="1.0"?>

<svg version="1.1" xmlns="http://www.w3.org/2000/svg" xmlns:xlink="http://www.w3.org/1999/xlink" width="1461.626572" height="1024.000000" viewBox="0 0 1461.626572 1024.000000">

  <path d="M81.918732 512.000031C216.994492 430.733124,387.449692 488.133331,396.279663 614.400024C402.002869 696.240891,359.877747 773.120331,284.499146 773.120331C165.265427 773.120331,88.898834 644.432755,81.918732 512.000031C74.440826 370.122330,134.159851 231.275269,265.235916 204.800049C429.240036 171.673889,580.957291 326.654266,593.918701 512.000031C593.918701 512.016693,593.918701 716.783356,593.918701 716.800018" style="stroke:rgb(80.000305%,80.000305%,80.000305%); stroke-width: 2.000000;stroke-linejoin: round;stroke-miterlimit: 10.000000;fill: none;"></path>
  <path d="M593.918701 512.000031C593.918701 391.509567,640.797577 268.611740,747.518692 266.240051C843.251266 264.112564,901.118683 365.102814,901.118683 471.040039C901.118683 471.060043,901.118683 716.780014,901.118683 716.800018" style="stroke:rgb(80.000305%,80.000305%,80.000305%); stroke-width: 2.000000;stroke-linejoin: round;stroke-miterlimit: 10.000000;fill: none;"></path>
  <path d="M901.118683 471.040039C901.118683 326.554031,971.242950 184.422775,1105.918671 163.840057C1265.400452 139.466202,1382.067337 295.801132,1413.118652 471.040039C1439.168716 618.054321,1387.403839 771.477432,1259.518661 778.240021C1123.921494 785.410416,1044.421005 622.065781,1105.918671 471.040039C1149.669525 363.596878,1250.502716 280.948547,1259.518661 163.840057C1267.355164 62.051559,1203.534653 -31.553391,1105.918671 -61.443680" style="stroke:rgb(80.000305%,80.000305%,80.000305%); stroke-width: 2.000000;stroke-linejoin: round;stroke-miterlimit: 10.000000;fill: none;"></path>
</svg>
