<?xml version="1.0"?>

<svg version="1.1" xmlns="http://www.w3.org/2000/svg" xmlns:xlink="http://www.w3.org/1999/xlink" width="1051.373474" height="1024.000000" viewBox="0 0 1051.373474 1024.000000">

  <path d="M286.718719 819.200012C162.578598 767.676086,81.733078 646.407806,81.918732 512.000031C82.096725 383.129959,165.434509 266.243790,286.718719 266.243790C435.178864 266.243790,491.518707 443.689926,491.518707 614.400024C491.518707 614.412521,491.518707 767.987518,491.518707 768.000015" style="stroke:rgb(80.000305%,80.000305%,80.000305%); stroke-width: 2.000000;stroke-linejoin: round;stroke-miterlimit: 10.000000;fill: none;"></path>
  <path d="M491.518707 614.400024C516.590637 436.013947,624.961365 259.293579,788.370987 250.879730C906.468887 244.798965,986.058823 339.573410,1005.346588 455.679718C1029.841003 603.128281,941.133224 759.527939,808.570038 762.879700C671.170151 766.353760,614.996536 603.577759,698.146606 455.679718C758.530716 348.275284,878.231873 267.237808,894.923157 148.479736C907.901627 56.138321,845.639084 -14.437012,770.827637 -61.443680" style="stroke:rgb(80.000305%,80.000305%,80.000305%); stroke-width: 2.000000;stroke-linejoin: round;stroke-miterlimit: 10.000000;fill: none;"></path>
</svg>
