<?xml version="1.0"?>

<svg version="1.1" xmlns="http://www.w3.org/2000/svg" xmlns:xlink="http://www.w3.org/1999/xlink" width="1038.138763" height="1024.000000" viewBox="0 0 1038.138763 1024.000000">

  <g transform="translate(435.475739 821.344757)" style="fill: rgb(0.000000%,0.000000%,0.000000%);">
    <text font-size="9.962646">vc</text>
  </g>
  <g transform="translate(826.464432 1257.859253)" style="fill: rgb(0.000000%,0.000000%,0.000000%);">
    <text font-size="9.962646">bottom</text>
  </g>
  <g transform="translate(831.708679 1256.890656)" style="fill: rgb(0.000000%,0.000000%,0.000000%);">
    <text font-size="9.962646">right</text>
  </g>
  <path d="M286.718719 819.200012C174.243652 754.380600,98.492386 640.753708,81.918732 512.000031C66.053574 388.750397,126.095200 266.243790,235.518723 266.243790C383.978867 266.243790,440.318710 443.689926,440.318710 614.400024C440.318710 614.412521,440.318710 767.987518,440.318710 768.000015" style="stroke:rgb(80.000305%,80.000305%,80.000305%); stroke-width: 2.000000;stroke-linejoin: round;stroke-miterlimit: 10.000000;fill: none;"></path>
  <path d="M440.318710 614.400024C440.318710 435.019470,523.737152 257.181961,686.078690 250.879730C836.359604 245.045715,939.482162 395.134644,931.838669 558.079712C927.082855 659.464691,872.753357 756.741638,778.238678 762.879700C675.585754 769.546280,601.382950 665.848846,624.638687 558.079712C649.364212 443.499466,778.238678 370.764053,778.238678 250.879730C778.238678 154.213364,715.640228 66.557861,624.638687 66.557861" style="stroke:rgb(80.000305%,80.000305%,80.000305%); stroke-width: 2.000000;stroke-linejoin: round;stroke-miterlimit: 10.000000;fill: none;"></path>
  <path d="M688.638687 1254.399994C613.217468 1202.481689,569.720612 1115.487961,573.438705 1024.000000C579.486145 875.195801,705.944473 760.039703,842.238678 793.600006C942.291458 818.236435,1001.231033 918.607574,995.838669 1024.000000C990.765366 1123.156860,931.816818 1211.579681,842.238678 1254.399994" style="stroke:rgb(80.000305%,80.000305%,80.000305%); stroke-width: 2.000000;stroke-linejoin: round;stroke-miterlimit: 10.000000;fill: none;"></path>
</svg>
